<?xml version="1.0" encoding="UTF-8"?>
<svg id="firstFive" xmlns="http://www.w3.org/2000/svg" viewBox="0 0 892.4 620.5">
  <path id="Vincentt" d="M222.99,34.67v.48c-2.28,1-5.33,3.56-9.13,7.69-3.2,4.16-4.8,6.49-4.8,6.97-.6,.84-1.16,2.52-1.68,5.04-1.12,2.52-2.24,6.37-3.36,11.53-.44,.44-1.16,1.96-2.16,4.56v1.68l-2.16,5.29c-.72,6.53-1.36,10.05-1.92,10.57-1.6,4.08-2.4,7.29-2.4,9.61v2.16c-.48,.4-.72,1.12-.72,2.16l-1.68,3.36v1.44l.24,1.68c-.52,0-1,1.28-1.44,3.84l-.48,1.2c-.48,.36-.72,.76-.72,1.2l.24,1.44-2.16,8.41h-.48c-.8-1.28-1.2-2.16-1.2-2.64v-1.68c-.72,0-1.52-3.68-2.4-11.05-.32,0-.64-.72-.96-2.16-.6,0-1-1.6-1.2-4.8-1.28-4.6-2.48-8.13-3.6-10.57l-2.88-7.21c-.64-1.36-1.2-3.12-1.68-5.29h.24l-.24-.24v-.24l.24-1.2c-.4,0-1.68-2.8-3.84-8.41-1.16-2.08-2.2-4.4-3.12-6.97l-3.36-4.56c-1.48-1.12-2.84-1.68-4.08-1.68l-.24,.24-1.2-.24h-.48c-1.92,.32-2.88,.96-2.88,1.92,0,.84,.4,1.48,1.2,1.92,.88,0,1.44-.48,1.68-1.44-.24-.64-.48-.96-.72-.96-.8,0-1.2,.64-1.2,1.92l-.48-.48v-1.44c.16-.48,.64-.72,1.44-.72h.48c1.28,0,1.92,.64,1.92,1.92,0,1.16-.8,1.88-2.4,2.16h-.48c-1.76-.32-2.64-1.12-2.64-2.4,0-1.92,1.2-3.2,3.6-3.84h2.88c3.16-.72,7.17-2.56,12.01-5.53l3.6-1.2c3.68,.32,6.49,.8,8.41,1.44v.24l.24-.24h.24c.72,.32,1.12,.64,1.2,.96l-.24,.24-2.64-.72c-4,.44-6.01,2.44-6.01,6.01l-.72,1.44v5.77c.8,2.16,1.28,4,1.44,5.53,1.32,2.88,2.68,8.01,4.08,15.38l4.08,9.37,.72,.48h.48c1.28-2.28,2.8-5.81,4.56-10.57v-2.64c.64-.88,1.28-3.2,1.92-6.97,1.4-2.84,2.44-8.29,3.12-16.34-.84-3.84-1.8-5.77-2.88-5.77-1.68,0-3.28,.8-4.8,2.4h-.24v-.24c0-1.52,3.04-3.04,9.13-4.56,3.52-.72,7.05-3.04,10.57-6.97,3.08-3.56,6.05-5.65,8.89-6.25l5.29-1.44Zm-5.53,29.79c2.64,.56,5.99,1.74,10.03,3.54,1.88,1.6,2.82,3.1,2.82,4.5,.72,3.12,1.08,5.41,1.08,6.85,0,1.6-.8,3.04-2.4,4.32,0,1.32-3.4,2.5-10.21,3.54h-1.32c-2.96-1.2-5.04-2.5-6.25-3.9l-4.14-4.14,.48-.42c1.4,1,3.4,2.86,6.01,5.59,.8,0,2.1,.68,3.9,2.04l.24-.18h1.98c2.76-.32,5.06-1.08,6.91-2.28,.84-.32,1.86-2.26,3.06-5.83-.76-5.48-1.84-8.23-3.24-8.23-2.68-1.8-5.59-2.7-8.71-2.7-3.48,0-6.01,2.54-7.57,7.63v.84c4.36,5.81,7.47,8.71,9.31,8.71h.66c3.32,0,5.42-2.28,6.31-6.85v-2.04c-1.52-3.2-3.7-4.8-6.55-4.8l-4.14-.6-2.34,3.72v1.02c2.84,3.96,4.64,6.11,5.41,6.43,3.2,0,4.8-.9,4.8-2.7,.32,0,.52-.62,.6-1.86-2.2-2.6-3.86-3.9-4.98-3.9-1.72,.44-2.58,.92-2.58,1.44,0,1.4,.72,2.98,2.16,4.74,1.32,0,2.26-.62,2.82-1.86-.52-1.12-1.24-1.88-2.16-2.28h-.66l-.66,1.44,1.08,1.68c.88-.2,1.32-.68,1.32-1.44l-.42-.6,.18-.24h.24l.42,.84c0,1.24-.58,1.86-1.74,1.86-.92,0-1.56-.82-1.92-2.46v-1.26c0-.36,.8-.78,2.4-1.26,2.16,2.16,3.24,3.74,3.24,4.74l-3.9,2.28h-.24c-.76,0-1.98-2.26-3.66-6.79v-.24l3.66-2.46h.42c3.88,2.44,5.91,4.1,6.07,4.98l.24,.6c0,3.04-.58,4.56-1.74,4.56,0,.32-.58,.66-1.74,1.02l-1.92,1.26h-.66c-2.4-1.68-3.92-3.14-4.56-4.38-1.84-1.92-3.06-2.88-3.66-2.88,1.16-4.68,2.46-7.03,3.9-7.03l6.91-.6c2.16,1.64,3.24,2.8,3.24,3.48,1.84,1.76,2.86,3.42,3.06,4.98v.42c-2.32,5.37-4.65,8.05-6.97,8.05l-.6,.18h-2.4c-.84,0-3.08-1.72-6.73-5.17-2.04-2.12-3.06-3.56-3.06-4.32v-1.02c2.56-5.69,4.88-8.79,6.97-9.31,0-.28,.64-.7,1.92-1.26Zm13.69,22.58l.42,.6v1.02c-2.72,2.72-4.08,4.24-4.08,4.56-1.6,3.2-2.4,6.65-2.4,10.33l-.42,2.28,1.5,8.47c.24,2.4,.82,4.48,1.74,6.25,1,1.92,3.02,3.36,6.07,4.32,.72,0,1.08,.14,1.08,.42l-.24,.18h-.6l-8.05-1.86-1.08,.24h-1.5c-5.97,.76-9.51,1.58-10.63,2.46-.52,0-1.1,.42-1.74,1.26v.36c0,.32,.36,.54,1.08,.66,.56-.16,.84-.44,.84-.84h.42v.18c-.28,.84-.86,1.26-1.74,1.26h-.42c-.8,0-1.44-.42-1.92-1.26v-.6c0-.92,.86-1.88,2.58-2.88,3.92-3.04,5.89-5.53,5.89-7.45,.56-1.08,.84-2.04,.84-2.88h.24l-.24-1.02,.24-9.97c0-1.16-.58-3.02-1.74-5.59-1.16-3.84-2.9-5.77-5.23-5.77l-.66-.66v-.18l.66-.6h.9l1.92,.18c5.97-.52,10.45-1.34,13.45-2.46,.92-.68,1.86-1.02,2.82-1.02Zm20.3-15.86l.42,.48c-2.32,1.28-3.88,3.12-4.68,5.53-.56,1.8-.98,5.63-1.26,11.47,3.92-4,7.23-6.15,9.91-6.43,0-.24,.5-.38,1.5-.42h.42c2,0,4.46,.88,7.39,2.64,.56,2.64,1.26,4.86,2.1,6.67,.68,1.8,1.54,5.1,2.58,9.91,.24,.04,.8,1.6,1.68,4.68l.42,3.72-.42,1.56-.24,4.38c.44,2.32,1.22,4.91,2.34,7.75,.6,2.08,2.64,4.08,6.13,6.01l-.42,.42h-.42l-8.89-3.54c-3.28,0-6.31,1.32-9.07,3.96l-.84-1.32c2.4-2.76,3.6-4.82,3.6-6.19l1.02-5.95v-.24l-.42-.66c.44-2.44,.66-4.64,.66-6.61v-.24c-.44,0-.8-3.16-1.08-9.49-.56,0-.84-2-.84-6.01-.4,0-.68-.72-.84-2.16-.2,0-.42-.52-.66-1.56l-.42-.9-1.02-.42h-2.94l-2.58-.48c-2.36,1.12-4.68,3.18-6.97,6.19-1.4,1.32-2.1,3.24-2.1,5.77h-.18l.18,.24c-.72,5.13-1.08,8.81-1.08,11.05,.52,3.08,1.66,6.85,3.42,11.29l2.52,2.4c-.16,.44-.58,.66-1.26,.66l-.66-.24-.18,.24h-.24c-2.32-.72-6.13-1.24-11.41-1.56-.52,.36-1.56,.58-3.12,.66l-.24-.18v-.24c2.44-3.6,4.06-7.37,4.86-11.29l1.5-6.37c0-1.96,.2-3.8,.6-5.53-.4,0-.6-.24-.6-.72l1.26-2.4,.18-2.64-.18-1.98,.18-7.75c0-2.8-.56-5.3-1.68-7.51v-.24c1.6-.28,3.5-1.38,5.71-3.3,3.24-2.08,5.36-3.12,6.37-3.12Zm50.21,.24c3.08,2.08,5.48,5.93,7.21,11.53,0,1.08,.24,2.36,.72,3.84v.48l-.72,.72c-.36-.04-.76-.68-1.2-1.92-.36,0-.92-1.04-1.68-3.12-2-2.04-3.68-3.24-5.04-3.6-5.81,2.48-8.77,4.16-8.89,5.04-4.65,6.57-6.97,10.01-6.97,10.33,0,7.09,1.44,11.97,4.32,14.65,2.24,3.96,5.77,7.25,10.57,9.85,3.92,0,6.57-1.6,7.93-4.8,.64-1,.96-1.8,.96-2.4v-.72c-.6-3.04-1.56-4.56-2.88-4.56l-.96-.24h-.48l-1.2,1.2c0,1.24,.4,2.04,1.2,2.4h1.2l.72-.48v.24l-.96,.96h-1.44c-1.12-.76-1.68-1.72-1.68-2.88v-.24c0-1.32,.88-2.2,2.64-2.64,2.16,0,3.6,1.04,4.32,3.12l.72,1.92-.24,.72,.24,1.44c0,4.2-1.52,7.17-4.56,8.89-1.44,2.4-3.52,4.08-6.25,5.04h-.24c-1.08,0-2.84-1.2-5.29-3.6-3.76-1.64-7.13-4.76-10.09-9.37l-1.44-2.64c-.96,0-1.44-.56-1.44-1.68-.6-.36-1.64-2.36-3.12-6.01h-.48v-.72l.48-.72v-.24l-1.2-1.2,6.01-10.57c2.48-3.52,5.2-7.05,8.17-10.57,0-.92,2.24-2.92,6.73-6.01,2.08-.96,3.52-1.44,4.32-1.44Zm-21.38,17.3h.48v.24l-.48,.48v-.72Zm50.87-15.5h.24c.92,0,1.82,.64,2.7,1.92,.8,.2,3.12,2.3,6.97,6.31l3.84,4.8,1.14,3.9v.72c-.2,1.8-1.1,3.8-2.7,6.01-1.96,4.2-3.76,6.31-5.41,6.31l-.66,.24c-3.36,0-8.33-2.02-14.89-6.07-1.04-1.08-1.56-2.2-1.56-3.36v-.48c.68-2.6,2.32-3.9,4.92-3.9h.24c1.2,0,1.8,.74,1.8,2.22-.4,1.44-.78,2.16-1.14,2.16h-1.32l-.9-.96v-.48l.42-.48c0,.64,.16,.96,.48,.96l.66-.72v-.72c-.16-.48-.6-.72-1.32-.72s-1.26,.8-1.62,2.4c0,1.24,1.88,2.52,5.65,3.84,1.84,1.4,4.16,2.28,6.97,2.64,2.16,0,4.04-1.6,5.65-4.8l.48-.48v-3.36c-.6-3.84-1.58-6.51-2.94-7.99-3.2-2.56-5.17-3.84-5.89-3.84h-1.32c-.88,0-2.54,1.2-4.98,3.6-1.44,.32-3.46,3.38-6.07,9.19l-2.04,5.29v1.68l3.18,7.99c.72,3.32,2.6,6.13,5.65,8.41,3.28,2.28,5.38,3.42,6.31,3.42l3.36,.24c1.48,0,2.9-.96,4.26-2.88v-2.22l.48-.72-1.8-7.21c0-.36,.66-.6,1.98-.72,1.6,.6,2.66,1.32,3.18,2.16v3.84c0,3.76-1.28,6.75-3.84,8.95-2.2,2.16-3.84,3.52-4.92,4.08h-.48c-4.77-1.44-7.47-2.72-8.11-3.84-1-.32-1.98-1.2-2.94-2.64-2.28-2.76-3.84-4.38-4.68-4.86l-4.08-6.73c-.84,0-1.82-1.7-2.94-5.1v-2.16l-.66-1.44,4.08-6.97c.16-1.68,2.02-4.42,5.59-8.23,0-.48,2.18-2.9,6.55-7.27l2.46-1.92Zm-8.53,5.35h.24l-.72,.72v-.24l.48-.48Zm42.76-7.39l.42,.48c-2.32,1.28-3.88,3.12-4.68,5.53-.56,1.8-.98,5.63-1.26,11.47,3.92-4,7.23-6.15,9.91-6.43,0-.24,.5-.38,1.5-.42h.42c2,0,4.46,.88,7.39,2.64,.56,2.64,1.26,4.86,2.1,6.67,.68,1.8,1.54,5.1,2.58,9.91,.24,.04,.8,1.6,1.68,4.68l.42,3.72-.42,1.56-.24,4.38c.44,2.32,1.22,4.91,2.34,7.75,.6,2.08,2.64,4.08,6.13,6.01l-.42,.42h-.42l-8.89-3.54c-3.28,0-6.31,1.32-9.07,3.96l-.84-1.32c2.4-2.76,3.6-4.82,3.6-6.19l1.02-5.95v-.24l-.42-.66c.44-2.44,.66-4.64,.66-6.61v-.24c-.44,0-.8-3.16-1.08-9.49-.56,0-.84-2-.84-6.01-.4,0-.68-.72-.84-2.16-.2,0-.42-.52-.66-1.56l-.42-.9-1.02-.42h-2.94l-2.58-.48c-2.36,1.12-4.68,3.18-6.97,6.19-1.4,1.32-2.1,3.24-2.1,5.77h-.18l.18,.24c-.72,5.13-1.08,8.81-1.08,11.05,.52,3.08,1.66,6.85,3.42,11.29l2.52,2.4c-.16,.44-.58,.66-1.26,.66l-.66-.24-.18,.24h-.24c-2.32-.72-6.13-1.24-11.41-1.56-.52,.36-1.56,.58-3.12,.66l-.24-.18v-.24c2.44-3.6,4.06-7.37,4.86-11.29l1.5-6.37c0-1.96,.2-3.8,.6-5.53-.4,0-.6-.24-.6-.72l1.26-2.4,.18-2.64-.18-1.98,.18-7.75c0-2.8-.56-5.3-1.68-7.51v-.24c1.6-.28,3.5-1.38,5.71-3.3,3.24-2.08,5.36-3.12,6.37-3.12Zm41.86-4.26c1.52,.44,2.28,.88,2.28,1.32v.36l-4.92,4.38c-.24,.32-.48,1.16-.72,2.52-1,.64-1.5,1.72-1.5,3.24l.54,4.74h3.36c2.12,0,4.82-1.52,8.11-4.56l.36,.36c-.24,1.4-1.42,3.38-3.54,5.95-.88,1.76-1.7,3.02-2.46,3.78h-.18l-.36-.36,.18-.96-.18-.18h-.96c-1.92,0-3.6,.32-5.04,.96l.36,1.14v2.28c-.28,7.25-.6,10.87-.96,10.87v7.03l.96,3.42v2.28c0,.76,.24,1.52,.72,2.28v.6l-.18,.96c.36,0,1,1.32,1.92,3.96l7.69,8.41,5.23,4.02c.36,0,.74,.18,1.14,.54l.54-.18,.96,.18h1.14c5.24-.4,7.87-1.66,7.87-3.78l.18-.96v-2.28c0-2.48-1.62-3.88-4.86-4.2h-1.68c-1.68,0-2.62,1.84-2.82,5.53v.18c1.96,2.32,3.52,3.54,4.68,3.66,1.64-.32,2.46-1.16,2.46-2.52v-.36c-.56-2.56-1.56-3.84-3-3.84-1.2,.52-1.96,1.1-2.28,1.74v.6c0,.64,.5,1.32,1.5,2.04,1.12-.24,1.68-.68,1.68-1.32-.32-.8-.62-1.24-.9-1.32h-.6l-.9,.78h-.18v-.42c.76-1,1.5-1.5,2.22-1.5,1.12,1.36,1.68,2.38,1.68,3.06v.18c-.64,1.12-1.08,1.68-1.32,1.68h-.36c-.64,0-1.96-.82-3.96-2.46,.32-2.52,1.08-3.78,2.28-3.78l1.5-.18h.96c1.12,0,2.12,1.96,3,5.89-1.56,2.04-2.82,3.06-3.78,3.06-3.88-2.16-5.83-3.82-5.83-4.98v-1.5c.36-3.04,.74-4.64,1.14-4.8h4.68c3.52,0,5.29,.84,5.29,2.52l1.32,5.35,.18,1.86c-4.48,3.44-8.13,5.54-10.93,6.31-.68,.48-1.62,.72-2.82,.72h-.18c-1.32-1.24-4-3.06-8.05-5.47-1.64-1.04-4.65-4.02-9.01-8.95-1.24-.6-2.12-1.62-2.64-3.06v-3.42c0-1.84-.26-4.52-.78-8.05l.96-9.91-.36-3.06v-1.86l.36-.6v-1.32c0-1.48-.18-2.82-.54-4.02,.44,0,.8-.94,1.08-2.82h-.18c-.24,0-.36-.26-.36-.78-2.28,0-4.97,.82-8.05,2.46-.88,1.16-1.32,2-1.32,2.52v.36c.2,.52,.64,.78,1.32,.78,.72-.2,1.08-.66,1.08-1.38h.42v.42c0,.96-.62,1.52-1.86,1.68h-.18c-1.16-.16-1.74-.72-1.74-1.68v-.6c0-.32,1.56-3.12,4.68-8.41,.76,.92,1.26,1.38,1.5,1.38l4.32-1.14,.36-1.56c-.28,0-.46-.82-.54-2.46-.28-.12-.9-1.96-1.86-5.53l-1.32-1.14h-.36l-.24,.18h-.18l-1.68-1.68v-.24c1.36-.88,3.12-1.32,5.29-1.32,3.64-1.12,6.71-2.32,9.19-3.6Zm-16.7,24.74l.9,.24v.36h-.18l-.18-.18h-.18c-.36,0-.54,.18-.54,.54l-.18,.24h-.36v-.24c.24-.56,.48-.88,.72-.96Z" style="fill: #920ce8;"/>
  <path id="Malloy" d="M482.88,51.18l.3,.3c-1.96,4.04-2.94,7.27-2.94,9.67,.2,1.64,.98,4.22,2.34,7.75l-.3,.3c0,2.72,1.46,7.81,4.38,15.25,.32,4.08,1.5,7.81,3.54,11.17,.08,.8,1.14,2.88,3.18,6.25h.3c.6-2.72,1.68-5.42,3.24-8.11l4.68-7.75c1.56-6.77,4.08-13.51,7.57-20.24,.6,0,.9-1.44,.9-4.32v-1.86c0-1.04-.78-2.38-2.34-4.02v-.96h.3c2.44,2.2,4.96,3.96,7.57,5.29,3,2.08,5.75,4.56,8.23,7.45l-.6,.66h-.3l-2.34-1.56h-1.2c-.96,0-1.82,.52-2.58,1.56v.6l.84,9.61c-.32,0-.6,5.71-.84,17.12,0,1.8,.48,4.4,1.44,7.81v7.75c.6,.76,.9,1.48,.9,2.16l-1.8,2.82v.6c.4,.44,.7,1.8,.9,4.08,.6,0,1.48,3,2.64,9.01,2.84,3.64,4.68,5.51,5.53,5.59,1.24,1.64,5.44,4.74,12.61,9.31,.72,0,1.78,.82,3.18,2.46l17.54,9.01c12.73,5.41,21.5,8.11,26.31,8.11l2.34-.3,.9,.3c3.12-1.4,5.65-3.38,7.57-5.95,1.16-2.2,1.74-3.96,1.74-5.29v-.9c-1.48-4.77-3.32-7.15-5.53-7.15h-1.44c-3.24,0-5.59,1.86-7.03,5.59,0,2.52,1.66,4.48,4.99,5.89,3.48,0,5.22-1.24,5.22-3.72v-1.2c0-2.04-1.46-3.3-4.38-3.78h-1.14l-1.74,2.82c.68,2.48,1.36,3.72,2.04,3.72h.84c1.76,0,2.64-.72,2.64-2.16-.28-2.08-1.16-3.12-2.64-3.12l-1.14,1.56c0,1.64,.78,2.46,2.34,2.46,0,.44-.3,.66-.9,.66-1.28-.56-2.06-1.18-2.34-1.86v-.66c0-1.64,1.08-2.66,3.24-3.06,1.72,1.48,2.58,3.24,2.58,5.29l-3.78,2.46c-1.92-1.08-3.28-2.42-4.08-4.02v-.96c0-.6,.68-2.04,2.04-4.32,5.08,0,7.63,1.44,7.63,4.32l.3,3.72v.96c-.8,1.2-2.76,2.24-5.89,3.12h-.6c-2.32,0-4.65-3.02-6.97-9.07,4.16-4.8,7.47-7.37,9.91-7.69,4.48,3.08,6.73,5.65,6.73,7.69,.56,0,1.34,1.66,2.34,4.98-.36,1.96-3.28,5.71-8.77,11.23-2.04,1.04-4.58,1.56-7.63,1.56h-4.92c-5.21,0-14.75-3.52-28.65-10.57l-5.59-2.82c-.76-.84-1.92-1.26-3.48-1.26-14.65-9.93-22.26-14.89-22.82-14.89-5.04-1.44-9.13-2.16-12.25-2.16l-7.93,1.56v-.3c0-.32,1.66-1.68,4.99-4.08,3.88-5.53,5.83-9.35,5.83-11.47l.6-5.59-.3-13.09,.6-4.02-.3-2.46,.3-1.56c-.2-4.28-.58-7.41-1.14-9.37v-4.32h-.3c0,1.28-1.56,5.33-4.68,12.13,0,1.2-.58,3.58-1.74,7.15-1.16,4.77-2.14,7.15-2.94,7.15,0,.6-.48,1.42-1.44,2.46-1.52,5.29-3.28,9.03-5.29,11.23-1.44,2.88-2.32,4.32-2.64,4.32-.92,0-1.88-4.04-2.88-12.13-1.56-10.09-3.7-17.86-6.43-23.3-.6,0-.9-.82-.9-2.46l-3.24-7.15-.3-2.22c-.36,0-.54,.32-.54,.96l-.3,4.02,.6,7.45c-.16,3.52-.46,5.29-.9,5.29l.3,4.68v.3l-.9,9.01c0,7.49,2.24,15.16,6.73,23l2.04,.66v.6h-2.04l-12.85-1.56h-1.44c-2.52,0-5.55,.62-9.07,1.86h-.3c6.45-5.36,9.67-12.51,9.67-21.44,0-4.64,.68-10.35,2.04-17.12l.54-6.85-.24-5.29v-.9l-.6-1.86,.3-1.26-.3-4.32v-.66l-.6-.9v-.66l.6-.9v-.96c0-1.72-.58-2.86-1.74-3.42-5.08,.32-7.63,1.16-7.63,2.52v.3c0,1.68,.68,2.82,2.04,3.42,.96-.28,1.44-1,1.44-2.16l-.54-.66h-.6c-.4,0-.6,.32-.6,.96h-.54v-.96c.16-.6,.74-.9,1.74-.9l1.14,1.26v.6c0,1.64-.96,2.46-2.88,2.46-1.76-.8-2.64-2.14-2.64-4.02v-.3c0-2.76,2.24-4.32,6.73-4.68l4.08-2.16,3.78-2.16c3.24-5.53,6.17-8.85,8.77-9.97Zm109.31,99.76l.3,.36v.9l-.54,.6h-.3l.3-.3v-.3l-.3-.9,.3-.36h.24Zm-55.91-66.06c2.8,0,6.07,1.12,9.79,3.36l5.11,6.43c0,.32,.6,1.36,1.8,3.12,0,1.28,.82,3.74,2.46,7.39,.2,1.04,.6,1.82,1.2,2.34l-.18,1.92v2.16l.42,3.3-.42,2.94,.18,1.56-.18,6.43c.76,3.24,1.5,4.86,2.22,4.86l2.46,2.16v.96l-1.44,1.38c-2.08-.32-3.22-.58-3.42-.78h-4.5l-3.48,1.14c-1.64-.8-2.52-1.38-2.64-1.74v-.18c.4-.56,1.36-1.22,2.88-1.98,.88-.44,1.68-2,2.4-4.68l.42-1.32-.78-.6c-1.68,2.16-3.86,3.84-6.55,5.04-5.33,2.08-8.93,3.12-10.81,3.12-.56,0-1.98-.58-4.26-1.74-1.32-1.2-2.26-2.24-2.82-3.12l.18-.18v-.18l-1.02-2.34c.56-2.52,2.18-5.18,4.87-7.99,0-.76,2.78-3.36,8.35-7.81l7.15-4.68c.52,0,1.2-.52,2.04-1.56h.24v-.18l-1.86-7.63c-1.92-2.96-3.54-4.78-4.86-5.47-1.76-.92-2.86-1.38-3.3-1.38h-.36c-.68,0-1.7,.86-3.06,2.58-.44,.12-.66,.5-.66,1.14,.32,0,.54,.66,.66,1.98,1.4,2.08,3.16,3.12,5.29,3.12l.78,1.32v1.2l-.6,.6h-.18c-4.41,0-7.61-1.82-9.61-5.47-.36-.56-.56-1.6-.6-3.12v-1.56c.52-1.64,1.4-3,2.64-4.08,1.84-1.2,3.2-1.8,4.08-1.8Zm11.41,23.24h-1.2c-1.64,.48-2.72,1.18-3.24,2.1-.36,0-1.38,.92-3.06,2.76-3.12,2-5.25,4.79-6.37,8.35-.4,0-.66,1.38-.78,4.14,1.44,1.28,2.32,1.92,2.64,1.92l.6,.18,.24-.18v-.18l1.2,.18,4.86-1.92c.48,0,2.04-1.04,4.68-3.12l.66-.78,1.2-1.38h.18l.24,.18h.18c0-.72,.28-1.24,.84-1.56l.36-3.3-.18-1.38,.18-1.32c0-2.48-.46-4.56-1.38-6.25-1.24,.16-1.86,.68-1.86,1.56Zm27.99-37.12h.18l2.16,.9,1.02-.18h.18c-1.88,2.12-3.64,3.5-5.29,4.14-.8,.6-1.2,1.32-1.2,2.16v4.5l-.72,3.78v6.85l-.9,5.04v3l-.36,2.7,.18,6.13-.72,3.24v6.49c0,3.08,1.48,6.27,4.44,9.55,1.92,1.6,3.5,2.68,4.75,3.24v.18c-.6,.36-.9,.84-.9,1.44h-.18c-3.4-.72-5.11-1.26-5.11-1.62l-.18,.18h-.3v-.36l-3-.18c-3.6,0-6.25,.48-7.93,1.44h-.54l-.36-1.08v-.18c.8,0,1.8-1.86,3-5.59,.36,0,.7-1.5,1.02-4.5,.48-1.12,.72-1.96,.72-2.52v-6.85l-.18-1.8,.54-.54v-3.42l-.18-3.6,.9-5.71-.18-3.24,.18-.72-.54-.54v-2.88c0-3.04-.82-6.41-2.46-10.09,0-1.12-.7-2.62-2.1-4.5l-.36-1.44h.18c.52,.24,1.28,.36,2.28,.36h1.92c1.12,0,2.82-.54,5.11-1.62,2.6-1.44,4.24-2.16,4.92-2.16Zm-4.38,61.56h.9v.36h-.9v-.36Zm22.4-61.56h.18l2.16,.9,1.02-.18h.18c-1.88,2.12-3.64,3.5-5.29,4.14-.8,.6-1.2,1.32-1.2,2.16v4.5l-.72,3.78v6.85l-.9,5.04v3l-.36,2.7,.18,6.13-.72,3.24v6.49c0,3.08,1.48,6.27,4.44,9.55,1.92,1.6,3.5,2.68,4.75,3.24v.18c-.6,.36-.9,.84-.9,1.44h-.18c-3.4-.72-5.11-1.26-5.11-1.62l-.18,.18h-.3v-.36l-3-.18c-3.6,0-6.25,.48-7.93,1.44h-.54l-.36-1.08v-.18c.8,0,1.8-1.86,3-5.59,.36,0,.7-1.5,1.02-4.5,.48-1.12,.72-1.96,.72-2.52v-6.85l-.18-1.8,.54-.54v-3.42l-.18-3.6,.9-5.71-.18-3.24,.18-.72-.54-.54v-2.88c0-3.04-.82-6.41-2.46-10.09,0-1.12-.7-2.62-2.1-4.5l-.36-1.44h.18c.52,.24,1.28,.36,2.28,.36h1.92c1.12,0,2.82-.54,5.11-1.62,2.6-1.44,4.24-2.16,4.92-2.16Zm-4.38,61.56h.9v.36h-.9v-.36Zm30.87-51.23h.72l4.56,1.32c1.84,.64,3.54,1.68,5.11,3.12l6.31,4.38c.4,.36,.92,2.02,1.56,4.98,1.84,5.37,2.76,9.33,2.76,11.89v4.2c-.32,.32-.58,1.34-.78,3.06l-.48,1.08,.24,.24-2.28,2.88v.24l.54,.78c-6.97,6.89-11.11,10.43-12.43,10.63l-10.63,5.17c-1.64,0-3.68-2.06-6.13-6.19-.6-1.52-1.86-3.16-3.78-4.92,0-.56-.84-2.56-2.52-6.01-.48-2.8-1.24-4.96-2.28-6.49-1.52-2.4-2.28-4.82-2.28-7.27l-1.02-1.26c0-1,1.02-2.04,3.06-3.12,0-.52,.24-.78,.72-.78,.56-1.16,1.92-2.38,4.08-3.66,2.12-3,3.72-4.98,4.8-5.95,4.64-4.2,8.03-6.99,10.15-8.35Zm1.74,4.44c-2.96,1.76-6.67,5.04-11.11,9.85-.44,0-2.3,2.08-5.58,6.25l-.24,1.32c1.16,9.53,2.58,15.5,4.26,17.9l6.61,8.53h2.04c2.72-2.04,4.4-3.06,5.04-3.06,1.88-.6,4.5-3.64,7.87-9.13l.78-1.56-.3-.78c.72,0,1.32-1.72,1.8-5.17,1.2-1.56,1.96-3.54,2.28-5.95l-2.76-5.77c-1.24-3.12-2.68-5.62-4.32-7.51-2.72-2.12-4.08-3.5-4.08-4.14l-.72-.78-1.26,.24-.3-.24Zm48.17-14.05c5.72,3.56,10.87,5.35,15.43,5.35l4.02-.6,.18,.24v.36c-3.28,2.08-5,3.72-5.17,4.92-1.76,1.64-2.64,3.4-2.64,5.29-1.04,1.44-2.18,3.56-3.42,6.37-.4,.12-.92,1.28-1.56,3.48-.32,0-.96,.86-1.92,2.58-2.72,3.44-4.18,5.57-4.38,6.37-.6,0-.98,.86-1.14,2.58-.32,0-.5,.6-.54,1.8-.92,.52-1.68,2.04-2.28,4.56l-.6,2.4c-1.4,1.8-2.16,3.14-2.28,4.02l-.96,.72,.18,.18v.36c-.84,.68-2.24,2.56-4.2,5.65-.44,0-1.7,2.26-3.78,6.79-1.16,2-3.26,4.14-6.31,6.43l-1.92,1.8h-.18l-.18-.18-5.53,2.16c-.56,.6-1.32,.9-2.28,.9-.96,.84-3.94,1.7-8.95,2.58,0,.36-1.22,.54-3.66,.54h-1.92c-3.56-.64-5.35-1.32-5.35-2.04-2.08-1.84-3.86-4.38-5.34-7.63,.92-2,3.16-4.3,6.73-6.91h.72c2.84,0,5.53,.66,8.05,1.98,.52,.92,.84,1.9,.96,2.94,0,3.04-.38,4.56-1.14,4.56l-3.66,2.7c-2.36-.6-4.38-1.38-6.07-2.34v-.54c0-4.16,.56-6.25,1.68-6.25l3.24-.18h1.14c1.12,1.12,1.76,2.34,1.92,3.66v.18l-3.78,3.48-2.52-2.58c.44-1.92,1.14-2.88,2.1-2.88h1.56c.2,0,.44,.54,.72,1.62l-.96,.72c0-1.08-.5-1.62-1.5-1.62-.64,.8-.96,1.4-.96,1.8v.18c.44,.6,1.08,1.04,1.92,1.32,1.64-1.04,2.46-2.08,2.46-3.12l-2.64-2.04c-2.16,.4-3.24,1.2-3.24,2.4l-.42,2.16c0,1.2,1.78,2.12,5.35,2.76,2.56-1.6,3.84-3,3.84-4.2-1.44-3.4-3.34-5.1-5.71-5.1h-3.24c-2.16,2.24-3.24,4.36-3.24,6.37,.68,3.04,1.56,4.56,2.64,4.56,.24,.32,1.26,.8,3.06,1.44,2.44,0,4.79-.3,7.03-.9,.52,0,.78-.12,.78-.36l1.32,.18h.24c.88-.56,3.22-1.46,7.03-2.7,2-.96,3.64-2.42,4.92-4.38,2.04-.48,3.7-1.76,4.99-3.84,3.16-2.88,5.26-5.5,6.31-7.87l2.64-4.38c.44,0,1.2-1.34,2.28-4.02,1.28-.84,1.92-2.3,1.92-4.38l-1.14-3.12c-.52,0-1.1-1.32-1.74-3.96-.48-1.68-1.42-3.14-2.82-4.38-1.16-1.44-1.74-2.66-1.74-3.66l-1.5-2.22c-2.56-2-3.84-3.82-3.84-5.47l-.54-.72,.18-1.68c-.4-.2-.92-1.1-1.56-2.7-1.52-1.36-3.54-2.52-6.07-3.48l-.18-.18v-.18l.36-.36h.96l7.63,1.08h2.28c1.08,0,3.68-.86,7.81-2.58h.42l.54,.6c0,.24-.38,.42-1.14,.54-1.64,.96-2.46,2.66-2.46,5.1-.32,0-.52,.24-.6,.72,0,1.2,.58,3.4,1.74,6.61l.96,1.98v1.62c0,1.2,.7,2.86,2.1,4.98,0,1.92,1.02,3.56,3.06,4.92h.36c.56,0,1.2-1.72,1.92-5.17,0-1.12,.62-2.32,1.86-3.6,.64-1.88,1.48-3.78,2.52-5.71l.36-2.16v-2.58c.68-.4,1.26-1.8,1.74-4.2l.36-.36v-3.12l-.18-3.6c-2.12-1.48-3.72-2.22-4.8-2.22v-1.62c.44-.72,.9-1.22,1.38-1.5Zm-47.51,67.27c.04,.84,.42,1.26,1.14,1.26l-.36,.36c-.52-.16-.9-.46-1.14-.9v-.36l.36-.36Z" style="fill: #920ce8;"/>
  <path id="is" d="M215.51,283.93h-42.4v-4.77c1.91-1.02,3.88-1.88,5.92-2.58,2.04-.7,4.26-1.37,6.69-2.01v-75.06l-12.61-1.53v-4.97c3.69-1.53,7.7-2.86,12.03-4.01,4.33-1.15,8.66-2.1,12.99-2.87h4.77v88.43c2.55,.64,4.84,1.31,6.88,2.01,2.04,.7,3.95,1.56,5.73,2.58v4.77Zm-33.42-127.97c0-3.44,1.11-6.17,3.34-8.21,2.23-2.04,5.19-3.06,8.88-3.06s6.62,1.02,8.79,3.06c2.16,2.04,3.25,4.77,3.25,8.21s-1.08,6.15-3.25,8.12c-2.17,1.98-5.09,2.96-8.79,2.96s-6.66-.98-8.88-2.96c-2.23-1.97-3.34-4.68-3.34-8.12Zm97.03,106.2c0-3.56-1.12-6.59-3.34-9.07-2.23-2.48-5.06-4.8-8.5-6.97-3.44-2.16-7.1-4.26-10.98-6.3-3.89-2.04-7.54-4.42-10.98-7.16-3.44-2.74-6.27-5.89-8.5-9.45-2.23-3.56-3.34-7.96-3.34-13.18,0-3.44,.79-6.62,2.39-9.55,1.59-2.93,3.72-5.44,6.4-7.54,2.67-2.1,5.79-3.75,9.36-4.97,3.56-1.21,7.38-1.81,11.46-1.81,6.88,0,12.51,.38,16.9,1.15s8.62,1.85,12.7,3.25c-.51,4.08-1.12,8.18-1.81,12.32-.7,4.14-1.69,8.37-2.96,12.7h-4.77l-7.26-19.48c-1.53-.64-3.25-1.05-5.16-1.24s-3.89-.29-5.92-.29c-2.29,0-4.3,.42-6.02,1.24-1.72,.83-3.18,1.88-4.39,3.15-1.21,1.27-2.13,2.74-2.77,4.39-.64,1.66-.95,3.31-.95,4.97,0,3.44,1.11,6.4,3.34,8.88,2.23,2.48,5.06,4.77,8.5,6.88s7.1,4.17,10.98,6.21c3.88,2.04,7.54,4.33,10.98,6.88,3.44,2.55,6.27,5.51,8.5,8.88,2.23,3.38,3.34,7.42,3.34,12.13,0,4.33-.93,8.21-2.77,11.65-1.85,3.44-4.39,6.37-7.64,8.79-3.25,2.42-7,4.3-11.27,5.63-4.27,1.34-8.82,2.01-13.66,2.01-5.48,0-10.51-.48-15.09-1.43s-9.36-2.32-14.32-4.11c.25-4.58,.83-9.01,1.72-13.27,.89-4.26,2.04-8.37,3.44-12.32h4.77l8.4,20.82c1.4,1.02,3.09,1.59,5.06,1.72,1.97,.13,3.79,.19,5.44,.19,5.6,0,10.12-1.53,13.56-4.58,3.44-3.06,5.16-6.75,5.16-11.08Z"/>
  <path id="seven" d="M338.34,201.93h60.38v13.96c-5.25,4.74-9.63,9.87-13.15,15.39-4.27,6.7-7.63,14.17-10.11,22.39-1.96,6.4-3.28,13.96-3.96,22.7h-20.62c1.62-12.15,4.18-22.34,7.67-30.57,3.49-8.23,9-17.03,16.55-26.41h-36.77v-17.47Zm130.86,52.61h-41.44c.37,3.32,1.27,5.79,2.69,7.41,2,2.34,4.6,3.5,7.82,3.5,2.03,0,3.96-.51,5.79-1.52,1.12-.64,2.32-1.78,3.6-3.4l20.36,1.88c-3.12,5.42-6.87,9.3-11.27,11.65-4.4,2.35-10.71,3.53-18.94,3.53-7.14,0-12.76-1.01-16.86-3.02-4.1-2.01-7.49-5.21-10.18-9.6-2.69-4.38-4.04-9.54-4.04-15.46,0-8.43,2.7-15.25,8.1-20.46,5.4-5.21,12.86-7.82,22.37-7.82,7.72,0,13.81,1.17,18.28,3.5s7.87,5.72,10.21,10.16c2.34,4.44,3.5,10.21,3.5,17.32v2.34Zm-21.02-9.9c-.41-3.99-1.48-6.86-3.22-8.58-1.74-1.73-4.04-2.59-6.88-2.59-3.28,0-5.91,1.3-7.87,3.91-1.25,1.62-2.05,4.05-2.39,7.26h20.36Zm21.73-22.19h21.5l10.46,34.18,10.86-34.18h20.86l-22.92,53.93h-18.33l-22.43-53.93Zm126.8,32.09h-41.44c.37,3.32,1.27,5.79,2.69,7.41,2,2.34,4.6,3.5,7.82,3.5,2.03,0,3.96-.51,5.79-1.52,1.12-.64,2.32-1.78,3.61-3.4l20.36,1.88c-3.12,5.42-6.87,9.3-11.27,11.65-4.4,2.35-10.71,3.53-18.94,3.53-7.14,0-12.76-1.01-16.86-3.02-4.1-2.01-7.49-5.21-10.18-9.6-2.69-4.38-4.04-9.54-4.04-15.46,0-8.43,2.7-15.25,8.1-20.46,5.4-5.21,12.86-7.82,22.37-7.82,7.72,0,13.81,1.17,18.28,3.5s7.87,5.72,10.21,10.16c2.34,4.44,3.5,10.21,3.5,17.32v2.34Zm-21.02-9.9c-.41-3.99-1.48-6.86-3.22-8.58-1.74-1.73-4.04-2.59-6.88-2.59-3.28,0-5.91,1.3-7.87,3.91-1.25,1.62-2.05,4.05-2.39,7.26h20.36Zm30.52-22.19h19.25v8.79c2.88-3.59,5.79-6.15,8.73-7.69,2.95-1.54,6.53-2.31,10.77-2.31,5.72,0,10.2,1.7,13.43,5.1,3.23,3.4,4.85,8.66,4.85,15.77v34.28h-20.77v-29.66c0-3.38-.63-5.78-1.88-7.19-1.25-1.4-3.01-2.11-5.28-2.11-2.51,0-4.54,.95-6.09,2.84-1.56,1.9-2.34,5.3-2.34,10.21v25.9h-20.67v-53.93Z"/>
  <path id="years" d="M166.52,415.85c-2.86-2.22-4.29-5.11-4.29-8.66,0-2.86,.87-5.3,2.59-7.33,1.73-2.02,3.87-3.03,6.44-3.03,1.08,0,1.87,.17,2.37,.52,.49,.34,.94,.81,1.33,1.41,.79,1.48,1.73,2.64,2.81,3.48,1.08,.84,2.47,1.26,4.14,1.26,3.85,0,8.19-2.76,13.02-8.29,1.78-2.07,3.85-4.88,6.22-8.44,2.37-3.55,4.69-7.4,6.96-11.54-4.14,3.55-7.94,5.33-11.4,5.33-2.37,0-4.47-.87-6.29-2.59-1.83-1.72-2.99-4.51-3.48-8.36-.59-5.62-1.7-11.42-3.33-17.39-1.63-5.97-3.63-10.73-5.99-14.28-.79-1.18-1.63-2.07-2.52-2.66-.89-.59-2.12-.99-3.7-1.18-1.18-.1-1.95-.42-2.29-.96-.35-.54-.52-1.5-.52-2.89,0-3.55,.98-6.41,2.96-8.58,1.97-2.17,4.64-3.26,7.99-3.26,3.65,0,6.39,1.31,8.21,3.92,1.82,2.62,3.53,6.64,5.11,12.06,.79,2.66,1.55,6.54,2.29,11.62,.74,5.08,1.31,9.89,1.7,14.43,.1,1.18,.42,2.02,.96,2.52,.54,.5,1.45,.74,2.74,.74,3.06,0,6.04-.99,8.95-2.96,2.91-1.97,5.28-4.56,7.1-7.77,1.82-3.21,2.74-6.49,2.74-9.84,0-4.14-1.09-7.3-3.26-9.47-1.28-1.48-2.15-2.54-2.59-3.18-.44-.64-.67-1.41-.67-2.29,0-1.58,.79-3.13,2.37-4.66,1.58-1.53,3.45-2.79,5.62-3.77,2.17-.99,4.14-1.48,5.92-1.48,2.27,0,4,.96,5.18,2.89,1.18,1.92,1.78,4.37,1.78,7.33,0,.59-.1,1.68-.3,3.26-.79,6.32-2.69,14.04-5.7,23.16-3.01,9.13-6.78,18.23-11.32,27.31-4.54,9.08-9.38,16.67-14.5,22.79-3.65,4.44-7.57,7.92-11.77,10.43-4.2,2.52-8.56,3.77-13.1,3.77-4.14,0-7.65-1.11-10.51-3.33Zm82.06-42.03c-4.19-4.29-6.29-10.29-6.29-17.98,0-6.81,1.53-13.12,4.59-18.94,3.06-5.82,7.2-10.43,12.43-13.84,5.23-3.4,10.9-5.11,17.02-5.11s10.66,1.46,14.21,4.37c3.55,2.91,5.33,6.79,5.33,11.62,0,3.85-1.18,7.4-3.55,10.66-2.37,3.26-5.55,5.85-9.55,7.77-4,1.92-8.36,2.89-13.1,2.89-2.76,0-5.43-.34-7.99-1.04-2.57-.69-4.74-1.68-6.51-2.96,.1,4.54,1.65,8.19,4.66,10.95,3.01,2.76,6.88,4.14,11.62,4.14,2.86,0,5.79-.52,8.81-1.55,3.01-1.04,5.6-2.44,7.77-4.22,1.38-1.18,2.66-1.78,3.85-1.78,.99,0,1.8,.32,2.44,.96,.64,.64,.96,1.46,.96,2.44,0,2.17-1.88,5.03-5.62,8.58-6.61,6.32-14.46,9.47-23.53,9.47-7.5,0-13.35-2.15-17.54-6.44Zm28.64-30.56c2.37-1.48,3.55-3.35,3.55-5.62,0-1.87-.79-3.33-2.37-4.37-1.58-1.04-3.75-1.55-6.51-1.55-3.75,0-6.96,.96-9.62,2.89-2.66,1.92-4.59,4.61-5.77,8.07,1.38,.89,3.16,1.58,5.33,2.07,2.17,.5,4.34,.74,6.51,.74,3.55,0,6.51-.74,8.88-2.22Zm34.04,31.38c-3.55-3.75-5.33-9.03-5.33-15.84s1.73-13.22,5.18-19.54c3.45-6.31,8.36-11.47,14.73-15.47,6.36-4,13.64-5.99,21.83-5.99,6.12,0,11.22,1.04,15.32,3.11,4.09,2.07,6.14,4.79,6.14,8.14,0,1.09-.1,2.29-.3,3.63-.2,1.33-.44,2.44-.74,3.33-.79,2.07-1.92,3.11-3.4,3.11-.4,0-1.14-.15-2.22-.44-.79,4.44-1.18,8.44-1.18,11.99,0,9.18,2.81,14.31,8.44,15.39,1.08,.3,1.85,.64,2.29,1.04,.44,.4,.67,1.18,.67,2.37,0,2.37-.81,4.74-2.44,7.1-1.63,2.37-4.32,3.55-8.07,3.55s-6.81-1.41-8.88-4.22c-2.07-2.81-3.11-6.83-3.11-12.06-2.76,5.03-6.24,9.03-10.43,11.99-4.19,2.96-8.91,4.44-14.13,4.44-6.02,0-10.8-1.88-14.36-5.62Zm29.3-13.32c3.06-2.37,5.48-5.52,7.25-9.47,1.97-4.14,3.21-9.52,3.7-16.13-3.75-1.78-7.94-2.66-12.58-2.66-6.02,0-10.98,1.78-14.87,5.33-3.9,3.55-5.85,7.99-5.85,13.32,0,4.05,1.08,7.25,3.26,9.62,2.17,2.37,5.13,3.55,8.88,3.55s7.15-1.18,10.21-3.55Zm45.44,15.1c2.56-10.46,3.85-18.99,3.85-25.6,0-4.93-.3-8.66-.89-11.17-.59-2.52-1.38-4.22-2.37-5.11-.99-.89-2.42-1.68-4.29-2.37-1.78-.69-2.66-1.78-2.66-3.26,0-1.38,.57-2.93,1.7-4.66,1.13-1.73,2.71-3.18,4.74-4.37,2.02-1.18,4.22-1.78,6.59-1.78,6.02,0,9.03,4.19,9.03,12.58,1.87-4.14,4.12-7.33,6.73-9.55,2.61-2.22,5.85-3.33,9.69-3.33,2.86,0,5.13,.62,6.81,1.85,1.68,1.23,2.52,3.13,2.52,5.7s-.86,5.16-2.59,7.47c-1.73,2.32-3.48,3.48-5.25,3.48-.89,0-1.58-.3-2.07-.89-1.28-1.58-2.86-2.37-4.74-2.37-2.96,0-5.53,1.92-7.7,5.77-2.17,3.85-3.31,8.98-3.4,15.39l.3,13.17c0,3.75-1.04,6.79-3.11,9.1-2.07,2.32-4.79,3.48-8.14,3.48-3.75,0-5.33-1.18-4.74-3.55Zm49.51,.22c-4.1-2.42-6.14-5.65-6.14-9.69,0-1.68,.39-3.13,1.18-4.37,.79-1.23,1.97-1.85,3.55-1.85,.89,0,1.82,.25,2.81,.74,1.97,1.18,4.32,2.15,7.03,2.89,2.71,.74,5.55,1.11,8.51,1.11,3.55,0,6.63-.52,9.25-1.55,2.61-1.04,3.92-2.39,3.92-4.07,0-1.28-.91-2.24-2.74-2.89-1.83-.64-5.3-1.31-10.43-2-4.44-.69-7.97-1.45-10.58-2.29-2.62-.84-4.84-2.22-6.66-4.14-1.83-1.92-2.74-4.66-2.74-8.21,0-3.75,1.06-7.35,3.18-10.8,2.12-3.45,5.2-6.26,9.25-8.44,4.04-2.17,8.88-3.26,14.5-3.26,4.93,0,9.3,.84,13.1,2.52,3.8,1.68,5.7,3.95,5.7,6.81,0,1.68-.59,3.28-1.78,4.81-1.18,1.53-2.59,2.76-4.22,3.7-1.63,.94-3.03,1.41-4.22,1.41-.5,0-.96-.15-1.41-.44-.44-.3-.91-.69-1.41-1.18-2.96-2.46-6.81-3.7-11.54-3.7-2.96,0-5.35,.44-7.18,1.33-1.83,.89-2.74,2.02-2.74,3.4,0,1.78,1.31,3.06,3.92,3.85,2.61,.79,6.14,1.43,10.58,1.92,6.31,.89,11,2.34,14.06,4.37,3.06,2.02,4.59,5.31,4.59,9.84,0,3.85-1.09,7.62-3.26,11.32-2.17,3.7-5.28,6.71-9.32,9.03-4.05,2.32-8.73,3.48-14.06,3.48-5.72,0-10.63-1.21-14.73-3.63Zm-268.25,16.5v-7.4H483.98v7.4H167.26Z"/>
  <path id="old" d="M541.12,328.71l2.95,.74h1.64c.71,.22,1.37,.44,1.97,.66,.55,.22,1.07,.42,1.56,.62,.49,.19,.82,.37,.98,.53,.82,.44,1.76,.81,2.83,1.11,1.07,.3,1.95,.83,2.67,1.6,.44,.38,.89,1.04,1.35,1.97,.46,.93,.91,1.59,1.35,1.97,1.86,1.59,3.05,3.1,3.57,4.55,.52,1.45,.78,2.75,.78,3.89l-.25,5.41v2.3c0,.6-.23,1.5-.7,2.71-.46,1.2-1.01,2.46-1.64,3.77-.63,1.31-1.22,2.53-1.76,3.65-.55,1.12-.9,1.84-1.07,2.17-.38,1.15-1.05,2.09-2.01,2.83-.96,.74-1.9,1.33-2.83,1.76-1.48,1.15-2.86,2.19-4.14,3.12-1.29,.93-2.72,1.39-4.3,1.39-.66,0-1.3-.07-1.93-.21-.63-.14-1.49-.21-2.58-.21-.22,0-.49,.01-.82,.04-.33,.03-.68,.07-1.07,.12-.44,.05-.88,.08-1.31,.08h-1.39c-.44,0-1-.08-1.68-.25-.68-.16-1.33-.38-1.93-.66-.71-.27-1.48-.6-2.3-.98-1.48-.66-2.98-1.38-4.51-2.17-1.53-.79-2.76-2.12-3.69-3.98-1.15-2.73-2.2-5.58-3.16-8.53-.96-2.95-1.43-5.79-1.43-8.53,0-.55,.05-1.04,.16-1.48,.11-.44,.25-.89,.41-1.35,.16-.46,.36-.94,.57-1.44,.22-.49,.44-1.12,.66-1.89,0-.82,.12-1.58,.37-2.3,.25-.71,.59-1.48,1.02-2.3,0-.16,.25-.68,.74-1.56,.49-.87,1.09-1.8,1.8-2.79,.71-.98,1.46-1.87,2.26-2.66,.79-.79,1.46-1.19,2.01-1.19l2.3-.9c.71,0,1.35-.03,1.93-.08,.57-.05,1.16-.25,1.76-.57,.6-.27,1.18-.5,1.72-.7,.55-.19,1.09-.29,1.64-.29h5.49Zm-7.05,6.4c-.93,0-1.86,.63-2.79,1.89-.93,1.26-1.76,2.69-2.5,4.3-.74,1.61-1.34,3.16-1.8,4.63-.46,1.48-.7,2.43-.7,2.87v6.4c0,.77,.48,1.93,1.43,3.48,.96,1.56,2.14,3.12,3.57,4.67,1.42,1.56,2.94,2.94,4.55,4.14,1.61,1.2,3.08,1.8,4.39,1.8h1.56c1.15,0,2.39-.3,3.73-.9,1.34-.6,2.57-1.42,3.69-2.46,1.12-1.04,2.06-2.25,2.83-3.65,.76-1.39,1.15-2.86,1.15-4.39v-7.71c0-1.15-.15-2.06-.45-2.75-.3-.68-.7-1.34-1.19-1.97-.49-.63-1.07-1.34-1.72-2.13-.66-.79-1.34-1.87-2.05-3.24-.44-.33-.92-.74-1.43-1.23-.52-.49-1.07-.96-1.64-1.39-.57-.44-1.18-.82-1.8-1.15-.63-.33-1.22-.49-1.76-.49h-1.56c-.44,0-.96-.03-1.56-.08-.6-.05-1.2-.14-1.8-.25-.66-.11-1.37-.25-2.13-.41Zm55.1-5.25c.76,0,1.49,.22,2.17,.66s1.03,1.07,1.03,1.89v1.56c-.6,.44-1.18,.82-1.72,1.15-.44,.27-.88,.53-1.31,.78-.44,.25-.74,.37-.9,.37h-2.46c-1.15,0-2.05,.33-2.71,.98-.66,.66-.98,1.56-.98,2.71v2.46c0,1.48-.18,3.09-.53,4.84-.36,1.75-.7,3.42-1.02,5v12.3c0,.16,.04,.45,.12,.86s.22,.82,.41,1.23c.19,.41,.42,.77,.7,1.07,.27,.3,.63,.45,1.07,.45h7.05c.16,0,.62-.16,1.35-.49,.74-.33,1.54-.71,2.42-1.15,.87-.44,1.74-.9,2.58-1.39s1.46-.9,1.85-1.23c.44-.38,.87-.75,1.31-1.11,.44-.36,.85-.53,1.23-.53,.33-.76,.56-1.22,.7-1.35,.14-.14,.42-.2,.86-.2,.33,0,.79,.18,1.39,.53,.6,.36,.9,.7,.9,1.03,0,.16-.23,.81-.7,1.93-.46,1.12-1.02,2.38-1.68,3.77-.66,1.39-1.37,2.73-2.13,4.02-.77,1.29-1.48,2.15-2.13,2.58-.16,.22-.64,.37-1.44,.45-.79,.08-1.63,.15-2.5,.21-.98,.05-2.1,.08-3.36,.08h-3.85c-1.15,0-2.3-.11-3.44-.33-1.15-.22-1.91-.19-2.3,.08l-1.07,.25-3.94,.9c-.16,0-.51-.04-1.02-.12-.52-.08-1.08-.19-1.68-.33-.6-.14-1.16-.25-1.68-.33-.52-.08-.86-.12-1.03-.12-.44,0-.85,.05-1.23,.16-.38,.11-.71,.22-.98,.33-.33,.16-.66,.3-.98,.41-.6,0-1.05-.14-1.35-.41-.3-.27-.52-.6-.66-.98s-.22-.76-.25-1.15c-.03-.38-.04-.68-.04-.9,0-1.15,.37-1.86,1.11-2.13s1.54-.5,2.42-.7c.87-.19,1.68-.52,2.42-.98,.74-.46,1.11-1.46,1.11-2.99v-6.89l.66-6.15v-2.95c0-.22,.03-.64,.08-1.27,.05-.63,.14-1.3,.25-2.01,.11-.82,.25-1.69,.41-2.62,0-.44-.12-.85-.37-1.23-.25-.38-.37-.74-.37-1.07v-.9c0-1.53-.23-2.58-.7-3.16-.46-.57-.98-1.01-1.56-1.31-.57-.3-1.09-.64-1.56-1.03-.46-.38-.7-1.15-.7-2.3,0-.55,.12-1.02,.37-1.43s.53-.75,.86-1.03c.33-.27,.66-.46,.98-.57,.33-.11,.57-.16,.74-.16h17.79Zm48.05-.41c2.84,0,5.6,.47,8.28,1.39,2.68,.93,5.07,2.25,7.18,3.98,2.1,1.72,3.78,3.83,5.04,6.31,1.26,2.49,1.89,5.26,1.89,8.32l-.66,3.94v5.41c0,.38-.16,.9-.49,1.56-.33,.66-.49,1.2-.49,1.64-.33,.71-.63,1.42-.9,2.13-.27,.6-.57,1.24-.9,1.93-.33,.68-.71,1.33-1.15,1.93-.22,.44-.59,.93-1.11,1.48-.52,.55-1.12,1.07-1.8,1.56-.68,.49-1.38,.9-2.09,1.23-.71,.33-1.39,.49-2.05,.49h-1.56c-.6,0-1.2,.08-1.8,.25-.6,.16-1.19,.34-1.76,.53-.57,.19-1.08,.37-1.52,.53-.44,.16-.74,.25-.9,.25h-2.21c-.93,0-1.74,.12-2.42,.37s-1.27,.37-1.76,.37h-11.4c-.33,.16-.63,.33-.9,.49-.55,.27-1.07,.41-1.56,.41l-2.3-.9h-2.3l-2.21,.9c-.38,0-.89-.18-1.52-.53-.63-.36-1.14-.72-1.52-1.11-.22,0-.55-.01-.98-.04-.44-.03-.86-.11-1.27-.25-.41-.14-.78-.35-1.11-.66-.33-.3-.49-.72-.49-1.27,0-.44,.19-.85,.57-1.23s.82-.71,1.31-.98c.6-.33,1.26-.66,1.97-.98h2.3l3.85-.9c.44,.16,.85,.33,1.23,.49,.71,.27,1.31,.41,1.8,.41,.54,0,.97-.18,1.27-.53,.3-.36,.52-.78,.66-1.27,.14-.49,.22-1,.25-1.52,.03-.52,.04-.94,.04-1.27v-5c0-.22-.11-.55-.33-.98-.11-.22-.22-.41-.33-.57v-5.08c0-.44,.11-.98,.33-1.64,.22-.66,.33-1.39,.33-2.21v-7.05c0-1.48-.25-2.72-.74-3.73-.49-1.01-1.53-1.52-3.12-1.52-.33,0-.6,.04-.82,.12-.22,.08-.42,.16-.62,.25-.19,.08-.4,.15-.62,.21-.22,.05-.52,.08-.9,.08l-2.3-.66h-1.56c-.38,0-.86-.18-1.44-.53-.57-.35-.86-.7-.86-1.02,0-.82,.45-1.53,1.35-2.13,.9-.6,1.93-1.11,3.08-1.52s2.27-.71,3.36-.9c1.09-.19,1.83-.29,2.21-.29h1.39c.44,0,.85,.15,1.23,.45,.38,.3,.79,.45,1.23,.45,.44-.11,.85-.25,1.23-.41,.33-.11,.67-.22,1.02-.33,.36-.11,.67-.16,.94-.16h4.59c1.09-.11,2.1-.22,3.03-.33,.76-.11,1.52-.19,2.25-.25,.74-.05,1.24-.08,1.52-.08Zm-3.85,7.96c-.16,0-.49,.11-.98,.33-.49,.22-1,.52-1.52,.9-.52,.38-.98,.79-1.39,1.23s-.62,.85-.62,1.23c.11,.11,.22,.25,.33,.41,.22,.33,.33,.71,.33,1.15v20.75c.22,.44,.35,.9,.41,1.39s.12,.96,.21,1.39c.08,.44,.23,.82,.45,1.15,.22,.33,.63,.55,1.23,.66h.9c.16,0,.45-.03,.86-.08,.41-.05,.85-.11,1.31-.16,.46-.05,.91-.11,1.35-.16,.44-.05,.76-.08,.98-.08,2.35-.05,4.33-.59,5.94-1.6,1.61-1.01,2.94-2.28,3.98-3.81,1.04-1.53,1.8-3.17,2.3-4.92,.49-1.75,.76-3.39,.82-4.92,.05-1.2-.22-2.65-.82-4.35-.6-1.69-1.34-3.27-2.21-4.71-.88-1.45-1.78-2.57-2.71-3.36-.93-.79-1.67-.92-2.21-.37-.33-.22-.63-.44-.9-.66-.27-.16-.53-.33-.78-.49s-.45-.25-.61-.25h-.74l-5.9-.66Z"/>
  <path id="rec01" d="M685.97,553.8H163.24v-134.75H685.97v134.75Z"/>
  <path id="hesOne" d="M227.71,525.88c-.33,1.93-1.07,3.17-2.2,3.7-.47,.2-1.3,.3-2.5,.3-2.27,0-4.97-.35-8.1-1.05-3.13-.7-5.03-1.38-5.7-2.05-.27-.33-.4-.73-.4-1.2,0-.53,.3-1.53,.9-3,.4-.53,.83-1.12,1.3-1.75,.47-.63,.7-1.45,.7-2.45,.13-26.27-.07-39.5-.6-39.7-1-.33-3.3,2.1-6.9,7.3-3.87,5.54-5.8,9.97-5.8,13.3v22.2c1.07,1.07,1.43,2.47,1.1,4.2-.4,2.07-1.47,3.47-3.2,4.2-.27,.13-.67,.2-1.2,.2-1.8,0-4.43-.42-7.9-1.25-3.47-.83-5.37-1.45-5.7-1.85-.73-1.07-.8-2.3-.2-3.7,.07-.2,.38-.55,.95-1.05,.57-.5,.85-.98,.85-1.45v-70.7c0-.53-.27-1.23-.8-2.1-.53-.87-.7-1.6-.5-2.2,.4-1.4,1.43-2.3,3.1-2.7,1.07-.27,3.57,.1,7.5,1.1,4.27,1.07,6.6,2.17,7,3.3,.27,.73,.17,1.83-.3,3.3-.47,1.47-.7,3.27-.7,5.4v18.7c3.73-4.73,7.33-7.1,10.8-7.1,2.27,0,5.2,.78,8.8,2.35,3.6,1.57,5.67,2.98,6.2,4.25,1.87,4.27,2.8,20.03,2.8,47.3,.67,1.6,.9,3,.7,4.2Zm48.9-15.3c.6,1-.7,3.97-3.9,8.9-3.47,5.27-6.87,8.83-10.2,10.7-.4,.2-1,.3-1.8,.3-2.6,0-6-.8-10.2-2.4-4.47-1.6-7.4-3.33-8.8-5.2-3.87-5-5.8-11.93-5.8-20.8,0-8.4,1.7-15.8,5.1-22.2,3.67-7,8.33-10.57,14-10.7,2.07-.07,4.57,.47,7.5,1.6,3.6,1.4,6.57,3.3,8.9,5.7,.6,.6,1.17,2.4,1.7,5.4,.67,3.2,1,6.33,1,9.4,0,4.53-.73,7.67-2.2,9.4-6.87,2.2-13.87,3.43-21,3.7-.13,3.27,.27,6.7,1.2,10.3,.93,3.6,1.9,5.43,2.9,5.5,1.33,.07,2.93-1.03,4.8-3.3,1.67-1.93,2.7-3.57,3.1-4.9,.47-2,1.1-4.07,1.9-6.2,1.07-.13,3.17,.4,6.3,1.6,3.13,1.2,4.97,2.27,5.5,3.2Zm-17.8-30.6c-1.13-.13-2.72,1.67-4.75,5.4-2.03,3.73-3.22,7.3-3.55,10.7,3-.13,5.4-.87,7.2-2.2,1.07-.8,1.6-4.13,1.6-10,0-2.47-.17-3.77-.5-3.9Zm31.2-9.3c-1.73,1.87-4.47,3.23-8.2,4.1-.73,.2-1.58-.1-2.55-.9-.97-.8-1.45-1.53-1.45-2.2,0-.33,.17-.57,.5-.7,.87-.33,1.65-1.3,2.35-2.9,.7-1.6,1.05-3.3,1.05-5.1,0-3.73-1.47-6.27-4.4-7.6-1.6-.73-2.4-2.13-2.4-4.2,0-.47,.07-.87,.2-1.2,.4-.87,1.95-1.98,4.65-3.35,2.7-1.37,4.52-1.92,5.45-1.65,2.27,.54,4.25,2.35,5.95,5.45,1.7,3.1,2.55,6.42,2.55,9.95,0,4.2-1.23,7.63-3.7,10.3Zm41.4,47.5c0,3.67-1.22,6.6-3.65,8.8-2.43,2.2-5.85,3.33-10.25,3.4-1.07,0-2.23-.17-3.5-.5-2.27-.6-3.47-.93-3.6-1-1.2-.27-2.42-.55-3.65-.85-1.23-.3-2.28-.82-3.15-1.55-1.47-1.33-2.9-3.17-4.3-5.5-1.13-1.87-2.23-3.77-3.3-5.7-1.07-1.93-1.6-3.1-1.6-3.5,0-.93,.67-1.63,2-2.1,.33-.13,.93-.2,1.8-.2,2,0,4.52,.22,7.55,.65,3.03,.43,4.68,.8,4.95,1.1,.27,.3,.63,2.22,1.1,5.75,.4,3.07,1.1,4.6,2.1,4.6,1.53,0,2.3-2.07,2.3-6.2,0-5.27-1.4-8.57-4.2-9.9-6.4-3-10.6-5.67-12.6-8-2.47-2.87-3.7-7.2-3.7-13,0-3.8,1-7.38,3-10.75,2-3.37,4.37-5.38,7.1-6.05,1.2-.27,5.07,1,11.6,3.8,.6,.2,2.37,.57,5.3,1.1,2.07,.4,3.53,1.1,4.4,2.1,1.27,1.53,2,3.97,2.2,7.3,.07,2.47,.1,4.93,.1,7.4,.47,2.27,.7,3.6,.7,4,0,1.87-.9,2.93-2.7,3.2-.93,.13-2.77-.23-5.5-1.1-3-1-4.9-2.03-5.7-3.1-.2-.27-.4-2.77-.6-7.5-.2-4.47-.67-6.7-1.4-6.7-1,0-1.93,1.3-2.8,3.9-.87,2.6-1.3,5.3-1.3,8.1,0,3.53,.77,5.77,2.3,6.7,3.27,1.8,6.52,3.62,9.75,5.45,3.23,1.83,5.48,3.72,6.75,5.65,1.67,2.54,2.5,5.93,2.5,10.2Z" style="fill: #f8f7f9;"/>
  <path id="always" d="M366.93,526.06h-8.62l21.23-68.94h9.1l21.36,68.94h-9.45l-4.72-15.17h-24.27l-4.64,15.17Zm6.8-22.06h20.11l-8.32-26.17-1.95-6.93-1.73,6.93-8.1,26.17Zm84.67,14.47v7.58h-37.22v-68.94h8.97v61.36h28.25Zm16.86,7.58l-7.97-68.94h8.15l4.72,41.99,.61,6.98h.26l.87-6.98,7.24-41.99h8.19l8.28,43.68,.82,6.63h.22l.56-6.67,5.16-43.64h7.02l-8.32,68.94h-8.49l-8.88-46.76-.95-7.02h-.22l-.82,7.02-8.02,46.76h-8.41Zm55.47,0h-8.62l21.23-68.94h9.1l21.36,68.94h-9.45l-4.72-15.17h-24.27l-4.64,15.17Zm6.8-22.06h20.11l-8.32-26.17-1.95-6.93-1.73,6.93-8.1,26.17Zm60.54,22.06v-31.89l-20.54-37.05h10.18l15.34,27.34,15.3-27.34h9.19l-20.5,37.05v31.89h-8.97Zm38.74-1.47v-8.45c7.11,3.38,13.56,5.07,19.37,5.07,2.43,0,4.75-.46,6.98-1.39,2.22-.92,3.91-2.26,5.05-4.01,1.14-1.75,1.71-3.65,1.71-5.7,0-2.4-.79-4.64-2.36-6.74-1.58-2.09-4.51-4.4-8.82-6.91l-4.55-2.6-4.59-2.64c-8.06-4.77-12.09-10.69-12.09-17.77,0-5.2,1.81-9.57,5.42-13.11,3.61-3.54,9.23-5.31,16.86-5.31,4.91,0,9.66,.72,14.26,2.17v7.67c-5.06-1.96-9.98-2.95-14.78-2.95-3.81,0-6.9,1.01-9.27,3.03-2.37,2.02-3.55,4.45-3.55,7.28s.91,5.18,2.73,7.04c1.82,1.86,4.13,3.58,6.93,5.13l3.47,2.08,4.29,2.64,3.68,2.12c7.54,4.62,11.31,10.43,11.31,17.42,0,5.34-1.94,9.92-5.83,13.74-3.89,3.81-10.1,5.72-18.66,5.72-2.72,0-5.32-.23-7.8-.69-2.48-.46-5.73-1.42-9.75-2.86Z" style="fill: #f8f7f9;"/>
  <path id="p" d="M276.45,596.45v18.78h-6.74v-51.52h12.82c5.27,0,9.11,.59,11.53,1.77,2.42,1.18,4.27,2.91,5.55,5.2,1.28,2.29,1.93,4.84,1.93,7.64,0,3.3-.86,6.38-2.59,9.23s-4.13,5.05-7.22,6.59c-3.09,1.54-7.27,2.31-12.56,2.31h-2.72Zm0-5.15h2.88c4.14,0,7.22-.54,9.23-1.62,2.01-1.08,3.56-2.62,4.65-4.63,1.09-2.01,1.64-4.19,1.64-6.54,0-2.96-.97-5.3-2.91-7.03-1.94-1.73-5.76-2.59-11.46-2.59h-4.02v22.41Z"/>
  <path id="o" d="M345.06,617.45c-5.85,0-10.32-2.46-13.41-7.38-3.09-4.92-4.63-11.57-4.63-19.95s1.54-14.96,4.63-19.9c3.09-4.93,7.56-7.4,13.41-7.4s10.31,2.47,13.39,7.4,4.61,11.57,4.61,19.9-1.54,15.03-4.61,19.95-7.54,7.38-13.39,7.38Zm0-5.18c3.22,0,5.9-1.83,8.06-5.49,2.16-3.66,3.24-9.21,3.24-16.66s-1.08-12.97-3.24-16.64c-2.16-3.67-4.85-5.5-8.06-5.5s-5.94,1.83-8.1,5.5-3.24,9.22-3.24,16.64,1.08,13,3.24,16.66,4.86,5.49,8.1,5.49Z"/>
  <path id="l" d="M422.51,610.23v5.67h-27.82v-51.52h6.7v45.85h21.11Z"/>
  <path id="I" d="M447.28,616.55v-5.15h11.33v-41.19h-11.33v-5.18h29.37v5.18h-11.33v41.19h11.33v5.15h-29.37Z"/>
  <path id="t" d="M519.38,617.21v-45.85h-15.45v-5.67h37.63v5.67h-15.48v45.85h-6.7Z"/>
  <path id="e" d="M598.33,612.87v5.67h-27.82v-51.52h27.3v5.18h-20.59v17.49h18.52v5.15h-18.52v18.04h21.11Z"/>
  <path id="and" d="M206.04,89.7c-1.9,3.09-4.17,5.42-6.82,6.99-2.64,1.58-5.07,2.36-7.27,2.36-3.11,0-5.89-1.34-8.35-4.02s-3.69-6.75-3.69-12.21c0-4.3,.81-8.13,2.44-11.5,1.63-3.37,3.82-6.03,6.57-8,2.75-1.96,6.15-2.95,10.18-2.95,1.19,0,2.96,.13,5.31,.39,.37,.04,.91,.1,1.62,.16h6.19v26.2c0,4.47,.46,8.1,1.39,10.88h-6.44c-.48-2.03-.85-4.8-1.13-8.32Zm0-7.35v-15.9c-2.2-.58-4.24-.87-6.12-.87-3.8,0-6.97,1.47-9.5,4.42-2.54,2.95-3.8,6.96-3.8,12.03,0,3.67,.69,6.44,2.07,8.31,1.38,1.87,2.96,2.8,4.73,2.8,1.92,0,4.04-.97,6.36-2.91,2.32-1.94,4.41-4.57,6.27-7.87Zm16.42,15.67V60.95h6.19v8.1c1.77-2.85,3.9-5.08,6.4-6.7,2.49-1.62,4.99-2.43,7.5-2.43,2.2,0,4.2,.58,5.99,1.75,1.79,1.17,3.05,2.69,3.77,4.57,.72,1.88,1.08,5.57,1.08,11.07v20.72h-6.18v-21.47c0-3.58-.17-5.94-.52-7.08-.35-1.13-.98-2.07-1.89-2.8s-1.92-1.1-3-1.1c-2.18,0-4.51,1.03-6.99,3.09-2.48,2.06-4.53,4.64-6.15,7.72v21.63h-6.19Zm65.57-8.32c-1.88,3.09-4.14,5.42-6.78,6.99-2.64,1.58-5.08,2.36-7.3,2.36-3.09,0-5.87-1.34-8.34-4.02-2.47-2.68-3.71-6.75-3.71-12.21,0-4.3,.82-8.13,2.46-11.5,1.64-3.37,3.83-6.03,6.57-8,2.74-1.96,6.14-2.95,10.2-2.95,1.17,0,2.94,.13,5.31,.39,.34,.04,.87,.1,1.59,.16v-16.51h6.22v53.59h-6.22v-8.32Zm0-7.35v-15.9c-2.2-.58-4.24-.87-6.12-.87-3.8,0-6.97,1.47-9.5,4.42-2.54,2.95-3.81,6.96-3.81,12.03,0,3.67,.69,6.44,2.07,8.31,1.38,1.87,2.96,2.8,4.73,2.8,1.92,0,4.05-.97,6.38-2.91s4.41-4.57,6.25-7.87Z"/>
  <path id="does" d="M315.69,62.83c.14-7-4.96-3.6-4.96-8.02,0-3.13,3.94-3.6,6.32-3.6h22.17c18.9,0,25.09,11.69,25.09,23.93s-7.41,24.55-24.61,24.55c-2.92,0-5.37-.07-7.48-.2-2.11-.07-3.94-.14-5.85-.14s-3.88,.07-5.78,.14c-1.9,.14-3.81,.2-5.78,.2-2.31,0-5.24-1.16-5.24-3.88,0-4.9,5.37,.54,5.58-9.38l.54-23.59Zm16.32,24.89c0,3.47,.54,4.9,4.22,4.9,8.57,0,10.06-8.77,10.06-15.57,0-15.91-5.98-18.43-11.22-18.43-2.86,0-3.06,1.16-3.06,3.74v25.36Zm35.57-12.37c0-14.41,11.49-24.61,26.31-24.61,18.77,0,25.97,16.52,25.97,25.29,0,14.62-12.92,24.27-26.79,24.27s-25.5-10.47-25.5-24.95Zm23.19-14.48c-3.81,0-5.71,3.94-5.71,7.28,0,5.78,4.08,22.03,11.42,22.03,4.15,0,5.92-3.6,5.92-7.27,0-6.19-3.67-22.03-11.63-22.03Zm59.84-9.18c9.11,0,10.4-1.36,11.49-1.36,3.88,0,5.51,6.66,5.51,9.65,0,2.24-.88,4.9-3.54,4.9-5.37,0-1.02-6.53-13.94-6.53-7.55,0-6.8,1.36-6.8,9.18,0,3.94,.2,4.08,4.35,4.08,5.17,0,1.29-7.55,6.12-7.55,3.94,0,4.22,7.68,4.22,10.33,0,2.79-.48,10.95-4.56,10.95s0-7.14-6.87-7.14c-2.86,0-2.79,2.58-2.79,4.76,0,9.93,.68,9.45,7.82,9.45,13.94,0,10-9.59,15.57-9.59,2.18,0,3.26,2.45,3.26,4.35,0,4.62-3.67,12.92-6.39,12.92-.48,0-1.56-.2-2.99-.41-1.5-.14-3.4-.34-5.71-.34h-27.95c-4.49,0-4.56-2.04-4.56-2.92,0-3.74,4.62-.75,5.1-7.96,.82-12.38,.88-11.15,.2-23.46-.48-10.4-5.64-5.03-5.64-9.86,0-4.15,5.71-3.47,8.5-3.47h19.58Zm23.05,14.89c0-7.07,6.8-15.84,19.99-15.84,4.35,0,9.25,1.9,10.27,1.9,.95,0,1.9-.95,3.33-.95,2.31,0,7.48,5.24,7.48,10.95,0,2.31-1.5,4.62-4.01,4.62-4.56,0-7.21-7.75-14.28-7.75-2.11,0-4.35,.95-4.35,3.4,0,5.37,9.31,3.94,17.2,9.18,4.22,2.79,6.32,6.19,6.32,11.29,0,7.96-6.53,16.93-22.37,16.93-4.49,0-12.17-1.16-16.05-3.26-3.26-1.84-4.83-9.04-4.83-12.51,0-1.84,.82-3.67,2.86-3.67,4.83,0,4.01,10.81,16.52,10.81,1.5,0,5.24-.75,5.24-3.33,0-4.9-9.32-3.67-16.86-9.72-3.74-2.99-6.46-7.14-6.46-12.03Z"/>
  <path id="ehat" d="M534.26,82.08c.03,.31,.06,.54,.09,.71,.03,.17,.06,.33,.09,.48,.03,.15,.06,.34,.09,.55,.03,.21,.06,.52,.09,.92,0,.58,.02,1.06,.07,1.43,.05,.37,.19,.75,.44,1.15,.06,.25,.08,.5,.05,.76-.03,.26-.06,.5-.09,.71-.03,.21-.02,.38,.02,.51,.05,.12,.18,.18,.39,.18,.46,0,.77-.1,.92-.3,.15-.2,.32-.41,.51-.62,.34-.43,.73-.94,1.17-1.52,.44-.58,.74-1.09,.9-1.52,.09-.46,.14-.82,.14-1.08s-.02-.49-.05-.69c-.03-.2-.05-.4-.07-.6-.02-.2,0-.44,.07-.71v-.14c0-.21,0-.37-.02-.46-.02-.09-.05-.15-.09-.18-.05-.03-.12-.05-.21-.07-.09-.02-.23-.07-.41-.16h-.64c-.25,0-.45-.11-.6-.32-.09-.09-.15-.2-.18-.32-.06-.21-.02-.43,.14-.64,.15-.21,.35-.39,.6-.53,.25-.14,.51-.25,.8-.35,.29-.09,.54-.14,.76-.14,.21-.28,.41-.46,.58-.55,.17-.09,.32-.16,.46-.21s.28-.08,.41-.11c.14-.03,.3-.09,.48-.18,.18-.25,.49-.48,.92-.69s.84-.32,1.24-.32c.58,.15,.87,.44,.85,.85-.02,.41-.13,.94-.34,1.59v.51c0,.18,.01,.38,.05,.6,.03,.21,.15,.32,.37,.32,.21-.03,.56-.25,1.03-.64,.48-.4,.99-.83,1.54-1.29,.55-.46,1.09-.87,1.61-1.24,.52-.37,.95-.55,1.29-.55,.46,0,.91,.08,1.36,.23,.44,.15,.87,.34,1.26,.58,.4,.23,.75,.51,1.06,.83,.31,.32,.54,.64,.69,.94,.31,.43,.5,.94,.58,1.54,.08,.6,.05,1.19-.07,1.77l-1.56,4.6c-.12,.52-.41,1.01-.85,1.47-.45,.46-.84,.95-1.17,1.47-.4,.58-.84,1.19-1.33,1.82-.49,.63-1.03,1.25-1.61,1.86-.28,.34-.51,.58-.69,.74-.18,.15-.36,.3-.53,.44-.17,.14-.36,.31-.58,.51-.21,.2-.48,.5-.78,.9-.15,.25-.39,.52-.71,.83-.32,.31-.67,.6-1.04,.87-.37,.28-.75,.51-1.15,.69-.4,.18-.75,.28-1.06,.28-.64,0-1.18-.1-1.61-.3-.43-.2-.61-.51-.55-.94,.12-.46,.19-.8,.21-1.03,.01-.23,.02-.44,.02-.62l.28-.78c-.06-.64-.15-1.22-.28-1.72-.12-.51-.12-1.08,0-1.73,.15-.71,.18-1.29,.07-1.75-.11-.46-.25-.69-.44-.69-.52,0-1.03,.33-1.52,.99-.49,.66-.97,1.31-1.43,1.96-.25,.4-.37,.72-.37,.97s-.14,.57-.41,.97c-.25,.52-.5,.94-.76,1.24-.26,.31-.42,.66-.48,1.06-.15,.21-.3,.45-.44,.71-.14,.26-.28,.5-.44,.71-.15,.21-.34,.39-.55,.53-.21,.14-.48,.21-.78,.21-.21,0-.45-.03-.71-.09-.26-.06-.49-.15-.69-.28-.2-.12-.36-.27-.48-.44-.12-.17-.17-.38-.14-.62,.18-.67,.33-1.26,.44-1.75,.11-.49,.13-1.18,.07-2.07,0-.58-.05-1.14-.16-1.68-.11-.54-.1-1.13,.02-1.77l.14-1.52c-.03-.4-.05-.7-.07-.9-.02-.2-.03-.38-.05-.55-.02-.17-.03-.34-.05-.51-.02-.17-.04-.42-.07-.76-.06-.18-.1-.34-.12-.48-.02-.14-.04-.24-.07-.3-.03-.09-.06-.17-.09-.23v-1.29c0-.4-.15-.69-.44-.87-.29-.18-.65-.28-1.08-.28-.18,0-.33,.04-.44,.11-.11,.08-.22,.17-.35,.28-.12,.11-.28,.2-.46,.28-.18,.08-.46,.11-.83,.11-.21,0-.4-.08-.55-.23-.09-.09-.17-.18-.23-.28,0-.4,.15-.78,.46-1.15,.31-.37,.58-.55,.83-.55,.46-.43,.83-.78,1.1-1.06,.28-.28,.63-.51,1.06-.69,.09-.12,.3-.35,.62-.69,.32-.34,.67-.67,1.06-.99,.38-.32,.77-.61,1.15-.87,.38-.26,.68-.39,.9-.39,.46,0,.79,.16,.99,.48,.2,.32,.33,.71,.39,1.15,.06,.44,.08,.89,.07,1.33-.02,.44-.02,.77-.02,.99v1.29Zm9.57,2.3c-.09,.43-.12,.8-.09,1.1,.03,.31,.08,.61,.16,.92,.08,.31,.15,.64,.23,1.01,.08,.37,.12,.8,.12,1.29-.06,.25-.09,.57-.09,.99s.03,.82,.09,1.22c.06,.4,.17,.75,.32,1.06,.15,.31,.34,.46,.55,.46,.37,0,.77-.15,1.22-.46,.44-.31,.87-.67,1.26-1.1,.4-.43,.74-.87,1.04-1.33,.29-.46,.48-.86,.58-1.2,.12-.64,.21-1.19,.28-1.63,.06-.44,.07-.86,.02-1.24-.05-.38-.16-.77-.34-1.15-.18-.38-.43-.83-.74-1.36-.12-.25-.41-.45-.85-.62-.45-.17-.88-.25-1.31-.25-.18,0-.41,.08-.69,.23-.28,.15-.54,.35-.78,.58-.25,.23-.46,.48-.64,.76-.18,.28-.29,.52-.32,.74Zm25.07-27.23c.64,0,1.18,.17,1.61,.51,.43,.34,.78,.74,1.06,1.2s.48,.94,.6,1.43c.12,.49,.18,.89,.18,1.2,0,.25-.18,.58-.55,1.01-.37,.43-.77,.86-1.2,1.29-.52,.52-1.09,1.07-1.7,1.66-.21,.21-.45,.34-.69,.37-.25,.03-.49,.05-.74,.05-.34,0-.64,.02-.9,.07s-.51,.19-.76,.44c-.64,.37-1.15,.83-1.52,1.38-.37,.55-.68,1.15-.92,1.79,0,.12-.04,.34-.12,.64-.08,.31-.17,.63-.28,.97-.11,.34-.2,.66-.28,.97-.08,.31-.11,.52-.11,.64l-.51,2.02c-.03,.09-.12,.43-.25,1.01-.14,.58-.28,1.24-.44,1.98-.15,.74-.29,1.46-.41,2.16-.12,.71-.18,1.21-.18,1.52,0,.12,.01,.25,.05,.37,.06,.25,.18,.37,.37,.37,.37,0,.81-.23,1.33-.69,.52-.46,1.1-.9,1.75-1.33,.18-.18,.44-.43,.78-.74,.34-.31,.69-.61,1.06-.9,.37-.29,.73-.54,1.08-.74,.35-.2,.65-.3,.9-.3h.78c.58,0,1.03,.26,1.33,.78s.53,1.1,.67,1.75c.14,.64,.22,1.25,.25,1.82,.03,.57,.05,.9,.05,.99l-.14,1.56c0,.18,.02,.57,.07,1.15,.05,.58,.07,1.09,.07,1.52,0,.09-.02,.21-.07,.35-.05,.14-.1,.28-.16,.44-.06,.15-.12,.32-.18,.51v.87c0,.4-.04,.67-.12,.81-.08,.14-.11,.42-.11,.85-.15,.49-.32,.84-.51,1.06-.21,.18-.38,.41-.48,.69-.11,.28-.25,.51-.44,.69-.12,.46-.32,1-.6,1.61-.28,.61-.63,1.15-1.06,1.61-.21,.21-.41,.51-.6,.9-.18,.38-.38,.77-.57,1.15-.2,.38-.45,.71-.74,.99-.29,.28-.64,.41-1.04,.41h-2.16c-.09,0-.26,0-.51-.02-.25-.02-.49-.06-.74-.14-.25-.08-.46-.2-.64-.37s-.28-.42-.28-.76c0-.21,.08-.48,.25-.78,.17-.31,.35-.6,.55-.9,.2-.29,.41-.57,.62-.83,.21-.26,.37-.45,.46-.58,.46-.37,.89-.75,1.29-1.15,.4-.4,.71-.69,.92-.87,.61-.46,.99-.91,1.13-1.36,.14-.44,.31-.9,.53-1.36,.43-.83,.77-1.51,1.01-2.05,.25-.54,.37-1.13,.37-1.77v-1.79c0-.12-.03-.31-.09-.55-.06-.25-.17-.48-.32-.71-.15-.23-.35-.44-.58-.62-.23-.18-.5-.28-.81-.28-.18,0-.33,.08-.44,.25-.11,.17-.38,.38-.8,.62-1.1,.83-1.98,1.73-2.62,2.69-.64,.97-1.23,1.99-1.75,3.06-.18,.64-.34,1.33-.46,2.05-.12,.72-.25,1.44-.37,2.16-.12,.72-.25,1.42-.37,2.09-.12,.67-.28,1.3-.46,1.89-.25,.4-.54,.71-.9,.94s-.65,.34-.9,.34c-.46,0-.8-.12-1.04-.37-.23-.25-.41-.54-.53-.87-.12-.34-.19-.68-.21-1.04-.02-.35-.02-.62-.02-.81v-4.32c0-.12,.09-.54,.28-1.24,.18-.71,.39-1.5,.62-2.37,.23-.87,.44-1.72,.62-2.55,.18-.83,.28-1.46,.28-1.89,.09-.25,.16-.48,.21-.69,.05-.21,.1-.41,.16-.6,.06-.21,.11-.43,.14-.64v-1.29c0-.12,0-.22,.02-.3,.01-.08,.1-.15,.25-.21,0-.06,.01-.12,.05-.18,.03-.06,.05-.12,.05-.18v-.92c0-.09,.05-.3,.14-.62,.09-.32,.2-.68,.32-1.08,.12-.4,.23-.8,.32-1.2,.09-.4,.14-.71,.14-.92v-2.81c0-.89,.12-1.69,.34-2.39,.23-.71,.41-1.27,.53-1.7l.14-1.29c.03-.21,.15-.54,.35-.99,.2-.44,.42-.9,.67-1.36,.25-.46,.49-.89,.74-1.29,.25-.4,.43-.64,.55-.74,.18-.09,.31-.26,.39-.51,.08-.25,.15-.51,.23-.78s.18-.54,.32-.81c.14-.26,.38-.45,.71-.57,.06,0,.15,0,.28-.02,.12-.02,.25-.05,.37-.12,.06-.06,.15-.09,.28-.09h.37c.25-.25,.61-.51,1.08-.78s.96-.54,1.45-.78c.55-.28,1.17-.52,1.84-.74Zm17.34,19.27c.64,0,1.1,.18,1.38,.55,.28,.37,.41,.87,.41,1.52,0,.12-.05,.39-.14,.8s-.21,.87-.34,1.38c-.14,.51-.28,1.02-.44,1.54s-.28,.94-.37,1.24c0,.25-.02,.5-.05,.76-.03,.26-.14,.61-.32,1.03-.25,.18-.37,.48-.37,.9v.9l-.14,2.44v1.79c0,.09,0,.25,.02,.48,.01,.23,.05,.46,.09,.69s.13,.43,.25,.6c.12,.17,.29,.25,.51,.25l.64-1.01c.18-.15,.4-.34,.64-.58,.25-.23,.49-.45,.74-.67,.28-.24,.55-.51,.83-.78,.18,0,.34,.08,.46,.23,.12,.15,.18,.32,.18,.51l-.18,.37c-.12,.25-.25,.43-.37,.55-.21,.61-.49,1.14-.83,1.59-.34,.44-.71,.87-1.1,1.29-.4,.41-.81,.84-1.22,1.27-.41,.43-.8,.92-1.17,1.47l-1.01,1.43c0,.28-.08,.56-.25,.85-.17,.29-.37,.52-.6,.69-.23,.17-.48,.25-.74,.23-.26-.02-.47-.19-.62-.53-.18-.55-.28-1.1-.28-1.63s.05-1.06,.14-1.56c.09-.51,.18-.99,.28-1.45s.14-.9,.14-1.33v-2.58c0-.15-.11-.26-.32-.32-.12-.03-.23-.05-.32-.05s-.32,.27-.69,.8c-.37,.54-.79,1.15-1.27,1.84-.48,.69-.96,1.39-1.45,2.09-.49,.71-.89,1.21-1.2,1.52-.09,.12-.24,.3-.44,.53s-.41,.45-.64,.67c-.23,.21-.48,.41-.76,.58-.28,.17-.52,.25-.74,.25-.43,0-.78-.15-1.06-.46-.28-.31-.49-.67-.64-1.08s-.27-.83-.34-1.24c-.08-.41-.12-.71-.12-.9l-.14-3.31,.64-5.38c0-.09,.05-.31,.14-.64,.09-.34,.21-.71,.37-1.1,.15-.4,.33-.79,.53-1.17,.2-.38,.41-.7,.62-.94,.89-.83,1.75-1.84,2.58-3.04,.4-.55,.78-.95,1.15-1.2,.37-.25,.74-.44,1.1-.57,.37-.14,.74-.25,1.1-.32,.37-.08,.78-.24,1.24-.48,.18,0,.42-.1,.71-.3,.29-.2,.56-.39,.81-.58h2.07l.87-.41Zm-5.89,5.11c-.55,.46-1.07,.99-1.56,1.59-.49,.6-.92,1.2-1.29,1.82-.37,.61-.66,1.19-.87,1.73s-.32,.96-.32,1.26c0,.15-.02,.44-.05,.85-.03,.41-.02,.84,.05,1.29,.06,.44,.18,.84,.34,1.2,.17,.35,.47,.53,.9,.53,.4,0,.87-.35,1.4-1.06,.54-.71,1.04-1.5,1.52-2.39,.47-.89,.87-1.72,1.2-2.48,.32-.77,.48-1.23,.48-1.38,0-.12,.01-.42,.05-.9,.03-.48,0-.94-.07-1.38-.08-.44-.25-.77-.51-.97-.26-.2-.68-.1-1.26,.3Zm19.96-11.59c.28,0,.54,0,.8,.02,.26,.02,.51,.06,.74,.14,.23,.08,.41,.2,.55,.37,.14,.17,.21,.41,.21,.71,0,.18-.21,.53-.64,1.03-.43,.51-.9,1.06-1.4,1.66-.51,.6-.97,1.18-1.4,1.75-.43,.57-.64,1-.64,1.31,0,.25,.07,.43,.21,.55,.14,.12,.3,.21,.48,.25,.18,.05,.38,.08,.58,.09,.2,.02,.34,.02,.44,.02h1.52c.06-.06,.15-.14,.28-.23,.25-.18,.44-.28,.6-.28,.46,0,.79,.18,.99,.55,.2,.37,.3,.78,.3,1.24v1.24c0,.34-.18,.6-.55,.78s-.78,.32-1.22,.41c-.45,.09-.87,.15-1.29,.18-.41,.03-.67,.05-.76,.05-.46,0-.72-.02-.78-.07-.06-.05-.18-.07-.37-.07h-.92c-.18,0-.45,.09-.78,.28-.34,.18-.51,.4-.51,.64,0,.34-.02,.64-.05,.9-.03,.26-.06,.48-.09,.67-.03,.21-.06,.41-.09,.6-.09,.18-.18,.35-.28,.51-.15,.31-.23,.57-.23,.78v.51c0,.52-.08,1.09-.23,1.7-.15,.61-.29,.98-.41,1.1-.15,.15-.28,.3-.37,.44-.09,.14-.14,.5-.14,1.08v.92c0,.18,.03,.41,.09,.67,.06,.26,.17,.5,.32,.71,.15,.21,.34,.4,.55,.55,.21,.15,.49,.23,.83,.23,.4,0,.74-.11,1.01-.32,.12-.09,.25-.2,.37-.32,.25,0,.44,.07,.57,.21,.14,.14,.27,.28,.39,.44,.12,.18,.23,.4,.32,.64,0,.25-.1,.57-.3,.97-.2,.4-.44,.79-.71,1.17-.28,.38-.57,.72-.87,1.01-.31,.29-.57,.44-.78,.44s-.42,.18-.62,.53c-.2,.35-.3,.61-.3,.76-.09,0-.26,.03-.51,.09-.25,.06-.49,.12-.74,.18-.31,.09-.61,.17-.92,.23-.4,0-.71-.02-.94-.07-.23-.05-.34-.19-.34-.44-.09-.06-.23-.28-.41-.67-.18-.38-.37-.81-.55-1.27-.18-.46-.35-.91-.48-1.36-.14-.44-.21-.76-.21-.94v-2.16c0-.12,.04-.41,.12-.85,.08-.44,.17-.94,.28-1.47,.11-.54,.2-1.07,.28-1.61,.08-.54,.12-.97,.12-1.31v-.78c.25-.71,.47-1.33,.69-1.89,.15-.49,.31-.94,.46-1.36s.23-.65,.23-.71v-1.43c0-.4-.12-.64-.37-.74-.18-.15-.38-.31-.6-.46-.21-.15-.32-.35-.32-.6,0-.18,.07-.38,.21-.58,.14-.2,.31-.41,.51-.62,.2-.21,.4-.44,.6-.67,.2-.23,.36-.45,.48-.67,.21-.46,.42-.74,.62-.85,.2-.11,.42-.25,.67-.44,.4-.46,.83-.84,1.29-1.15,.46-.31,.89-.78,1.29-1.43,.25-.43,.43-.86,.55-1.29,.12-.43,.4-.77,.83-1.01,.4-.12,.75-.36,1.06-.71,.31-.35,.55-.53,.74-.53Z"/>
  <path id="hesTwo" d="M328.04,153.71l-6.81-.82v-2.87l12.3-3.69,1.15,.66-.33,11.64v17.38l.25,1.07v12.71c0,5.08,.08,13.53,.25,17.22h-7.05c.16-3.69,.25-12.14,.25-17.22v-36.08Zm12.46,50.43v2.87h-18.86v-2.87l9.02-1.64h1.64l8.2,1.64Zm19.35-21.89v7.54c0,5.25,.08,13.53,.25,17.22h-7.05c.16-3.69,.25-11.97,.25-17.22v-6.89c0-7.63-1.97-10.09-6.89-10.09-4.1,0-7.46,1.48-12.14,5.66h-1.72v-3.69h4.18l-3.69,1.48c3.85-5.17,10.58-9.18,16.4-9.18,7.05,0,10.41,4.35,10.41,15.17Zm-2.21,20.25l8.2,1.64v2.87h-18.86v-2.87l9.02-1.64h1.64Zm48.38-19.76c0,1.89-.25,3.53-.57,4.59h-30.26v-3.44h19.52c3.94,0,4.84-1.89,4.84-4.18,0-4.67-3.94-8.94-9.1-8.94s-11.32,4.43-11.32,16.15c0,10.41,5.25,15.99,13.45,15.99,5.25,0,8.53-2.38,11.48-5.82l1.89,1.48c-2.95,5.82-8.2,9.51-15.66,9.51-10.99,0-18.12-7.63-18.12-20.09s8.53-20.91,18.7-20.91c8.45,0,15.17,5.74,15.17,15.66Zm7.13-12.14l-1.56-2.21c4.59-3.61,6.72-6.07,8.77-11.64l.66,2.95-3.61-3.36c-2.46-2.13-3.2-4.02-3.2-6.07,0-3.28,1.8-4.76,4.67-4.76,1.64,0,3.12,.41,4.43,1.64,.66,1.72,1.07,3.69,1.07,5.74,0,7.13-5.17,13.69-11.23,17.71Zm12.05,34.36l-.33-8.94h4.35l2.21,9.68-4.02-1.89v-2.79c2.87,2.21,5.99,3.36,10.09,3.36,6.31,0,9.27-2.54,9.27-6.31,0-3.53-2.46-5.33-7.63-7.22l-3.77-1.39c-5.99-2.21-9.92-5.41-9.92-10.99,0-5.9,5-11.4,14.1-11.4,4.43,0,7.87,1.23,11.4,3.36l-.33,8.28h-4.1l-1.64-8.28,2.95,1.31v2.13c-2.62-2.05-5.41-3.12-8.36-3.12-5.08,0-7.71,2.21-7.71,5.66,0,3.69,2.05,5.08,7.63,7.13l2.46,.9c8.2,3.03,11.32,6.89,11.32,11.97,0,6.07-5.33,11.64-15.83,11.64-4.59,0-8.12-1.07-12.14-3.12Z"/>
  <path id="told" d="M310.91,248.83v24.68h-19.04v98.64h-32.07v-98.64h-18.97v-24.68h70.08Zm80.59,72.21c0,12.39-.29,21.16-.88,26.32-.58,5.15-2.41,9.86-5.48,14.13-3.07,4.27-7.22,7.54-12.45,9.83-5.23,2.29-11.32,3.43-18.28,3.43s-12.53-1.08-17.79-3.24c-5.26-2.16-9.48-5.4-12.68-9.71-3.2-4.32-5.1-9.01-5.71-14.09-.61-5.08-.91-13.96-.91-26.66v-21.1c0-12.39,.29-21.16,.88-26.32,.58-5.15,2.41-9.86,5.48-14.13,3.07-4.27,7.22-7.54,12.45-9.83,5.23-2.29,11.32-3.43,18.28-3.43,6.6,0,12.53,1.08,17.79,3.24,5.26,2.16,9.48,5.4,12.68,9.71,3.2,4.32,5.1,9.01,5.71,14.09,.61,5.08,.91,13.97,.91,26.66v21.1Zm-32.07-40.52c0-5.74-.32-9.41-.95-11.01-.64-1.6-1.94-2.4-3.92-2.4-1.68,0-2.96,.65-3.85,1.94-.89,1.29-1.33,5.12-1.33,11.46v57.59c0,7.16,.29,11.58,.88,13.25,.58,1.68,1.94,2.51,4.08,2.51s3.58-.96,4.19-2.89c.61-1.93,.91-6.52,.91-13.79v-56.67Zm76.1-31.69v98.64h19.5v24.68h-51.57v-123.32h32.07Zm27.27,0h23.99c15.49,0,25.96,.71,31.42,2.13,5.46,1.42,9.61,3.76,12.45,7.01,2.84,3.25,4.62,6.87,5.33,10.85,.71,3.99,1.07,11.82,1.07,23.5v43.19c0,11.07-.52,18.47-1.56,22.2-1.04,3.73-2.86,6.65-5.45,8.76-2.59,2.11-5.79,3.58-9.6,4.42s-9.55,1.26-17.21,1.26h-40.45v-123.32Zm32.07,21.1v81.12c4.62,0,7.46-.93,8.53-2.78,1.07-1.85,1.6-6.89,1.6-15.12v-47.91c0-5.59-.18-9.17-.53-10.74-.36-1.57-1.17-2.73-2.44-3.47-1.27-.74-3.66-1.1-7.16-1.1Z"/>
</svg>