<?xml version="1.0" encoding="UTF-8"?>
<svg id="lastOne" xmlns="http://www.w3.org/2000/svg" viewBox="0 0 892.4 620.5">
  <path id="but" d="M29.54,19.85h.7c4.72,5.13,9.38,7.69,13.98,7.69h14.33c13.46,1.63,21.85,3.03,25.17,4.2,3.15,1.69,6.29,5.07,9.44,10.14,0,4.89-1.98,9.32-5.94,13.29-3.73,4.66-6.18,6.99-7.34,6.99-5.3,3.61-10.78,5.59-16.43,5.94v.35l5.24,1.75c6.58,1.75,13.81,5.83,21.68,12.24,0,.7,2.33,3.26,6.99,7.69,1.17,2.86,1.75,5.77,1.75,8.74v7.34c0,1.52-1.17,4.2-3.5,8.04-4.08,7.23-12.12,12.82-24.12,16.78l-8.74-.7-4.2,1.4-13.63,.35-3.85-.35-1.75,1.05h-.35l-.35-.35h-.35c-.29,.93-1.34,1.4-3.15,1.4l-1.05-1.05v-.35c0-.35,1.86-1.86,5.59-4.54,.93,0,2.21-10.95,3.85-32.86v-8.74l.7-1.05v-1.4c-.93-4.6-1.52-9.26-1.75-13.98l-.35-1.4c-.47,0-1.28-.93-2.45-2.8-.47-.47-1.52-.7-3.15-.7l-1.05-1.4v-.35c.29-.93,1.34-1.4,3.15-1.4h3.15v-.35l-.35-3.85,.7-1.4c-.7-4.2-1.28-6.29-1.75-6.29l.35-1.75c-1.17-3.79-2.1-8.1-2.8-12.94-1.17-4.54-3.96-8.27-8.39-11.19l-.7-2.45v-1.05l.7-.7Zm18.18,18.88c.7,3.03,1.05,7.23,1.05,12.59l-.7,8.74c.41,0,.87,1.05,1.4,3.15,.99,.93,2.15,1.4,3.5,1.4h8.39c3.5-1.98,7.22-3.61,11.19-4.89,4.66-2.91,6.99-6.29,6.99-10.14l1.05-6.64v-2.1c-1.34-3.96-3.09-5.94-5.24-5.94-4.78-2.27-10.14-3.79-16.08-4.54h-5.59c-2.8,.87-4.2,1.81-4.2,2.8l-1.75,5.59Zm1.05,32.51v.7l.35,2.8-.35,1.75c.47,6.76,.93,10.14,1.4,10.14l-.7,22.03c.35,0,.7,.47,1.05,1.4l-.35,4.2c.64,2.16,1.46,3.9,2.45,5.24l-.35,5.24h.7l4.2-.35,.7,.7h6.99c2.56-.93,4.31-1.86,5.24-2.8h.35l.35,.35c6.7-2.85,12.18-6.58,16.43-11.19,1.17-1.86,1.75-3.38,1.75-4.54v-1.75l-1.05-2.8,.35-.35v-.35l-4.89-10.14c-.47-3.67-3.38-7.52-8.74-11.54,0-.82-1.4-1.63-4.2-2.45-2.45-2.56-7.34-4.66-14.68-6.29l-4.89-.7h-1.4l-.7,.7Zm111.35-20.54h.96c2.04,1.57,3.06,3.06,3.06,4.46v.35l-.35,.26v.35l.61,.61v.35c-3.67,1.69-6.44,4.02-8.3,6.99-2.45,4.43-4.28,9.18-5.51,14.25l.35,2.27c-1.05,2.39-1.98,6.5-2.8,12.32v.7l.26,2.8c-.82,2.16-1.22,3.96-1.22,5.42,1.05,3.09,1.86,6.79,2.45,11.1,2.8,6.82,5.27,11.6,7.43,14.33l7.69,5.68v.35l-1.84,2.8h-.96c-2.56,0-7.08-1.25-13.55-3.76l-2.1-.7h-.61c-1.69,0-4.17,.55-7.43,1.66v-.96c2.91-3.61,4.37-6.91,4.37-9.88l.26-.26h.35c0-6.35-1.34-11.01-4.02-13.98h-.96c0,1.92-1.43,4.34-4.28,7.25,0,1.63-1.34,3.55-4.02,5.77-2.45,6.29-5.71,10.4-9.79,12.32l-.35,.35-1.84-1.31-1.22,.35c-.87-.17-1.89-1.46-3.06-3.85,0-5.13-.52-9.15-1.57-12.06l.61-1.22-.87-8.57v-1.57l-.35-1.31c.47,0,.79-3.58,.96-10.75-.93-11.24-1.75-16.87-2.45-16.87l-.61-1.22c-3.15-1.51-5.51-2.27-7.08-2.27-1.46,.29-2.19,.73-2.19,1.31v.26c.12,1.28,.44,1.92,.96,1.92h1.22l.87-.96v-.61l-.61-.96v-.35h.35l1.22,1.31v.61c0,1.17-.52,2.01-1.57,2.54h-.61c-2.04,0-3.06-.84-3.06-2.54v-.61c0-1.92,1.34-3.09,4.02-3.5h3.06l1.57-.35,.26,.35c0-.41,.93-.82,2.8-1.22,.47-.87,2.5-2.04,6.12-3.5,2.62-2.27,5.51-4.28,8.65-6.03l.26,.26v1.31c0,.93-1.14,3.03-3.41,6.29-2.04,8.39-3.55,16.99-4.54,25.78,.58,5.89,1.19,9.58,1.84,11.1v6.03l-.35,1.57,4.28,3.15c.87,0,3.03-1.49,6.47-4.46,1.98-1.98,4.86-8.54,8.65-19.67,2.27-3.32,3.41-8.59,3.41-15.82v-2.62c-1.17-4.43-3.03-6.64-5.59-6.64-1.22,0-2.13-.52-2.71-1.57v-1.22c0-.58,1.84-1.22,5.51-1.92,.29-.58,3.47-2.07,9.53-4.46,0-.41,.73-.73,2.19-.96,0-.64,.41-.96,1.22-.96,0-.87,1.22-1.6,3.67-2.19l4.28-3.23Zm-25.17,82.59h1.49v.26l-.87,.96-.61-.61v-.61Zm31.9-3.23h.35l.61,.7v.61h-.96v-1.31Zm27.27-81.11c2.21,.64,3.32,1.28,3.32,1.92v.52l-7.17,6.38c-.35,.47-.7,1.69-1.05,3.67-1.46,.93-2.19,2.51-2.19,4.72l.79,6.91h4.89c3.09,0,7.02-2.21,11.8-6.64l.52,.52c-.35,2.04-2.07,4.92-5.16,8.65-1.28,2.57-2.48,4.4-3.58,5.51h-.26l-.52-.52,.26-1.4-.26-.26h-1.4c-2.8,0-5.24,.47-7.34,1.4l.52,1.66v3.32c-.41,10.55-.87,15.82-1.4,15.82v10.23l1.4,4.98v3.32c0,1.11,.35,2.22,1.05,3.32v.87l-.26,1.4c.52,0,1.46,1.92,2.8,5.77l11.19,12.24,7.6,5.86c.52,0,1.08,.26,1.66,.79l.79-.26,1.4,.26h1.66c7.63-.58,11.45-2.42,11.45-5.51l.26-1.4v-3.32c0-3.61-2.36-5.65-7.08-6.12h-2.45c-2.45,0-3.82,2.68-4.11,8.04v.26c2.85,3.38,5.13,5.16,6.82,5.33,2.39-.47,3.58-1.69,3.58-3.67v-.52c-.82-3.73-2.27-5.59-4.37-5.59-1.75,.76-2.86,1.6-3.32,2.53v.87c0,.93,.73,1.92,2.18,2.97,1.63-.35,2.45-.99,2.45-1.92-.47-1.17-.9-1.8-1.31-1.92h-.87l-1.31,1.14h-.26v-.61c1.11-1.46,2.18-2.18,3.23-2.18,1.63,1.98,2.45,3.47,2.45,4.46v.26c-.93,1.63-1.57,2.45-1.92,2.45h-.52c-.93,0-2.86-1.19-5.77-3.58,.47-3.67,1.57-5.51,3.32-5.51l2.19-.26h1.4c1.63,0,3.09,2.86,4.37,8.57-2.27,2.97-4.11,4.46-5.51,4.46-5.65-3.15-8.48-5.56-8.48-7.25v-2.18c.52-4.43,1.08-6.76,1.66-6.99h6.82c5.13,0,7.69,1.22,7.69,3.67l1.92,7.78,.26,2.71c-6.53,5.01-11.83,8.07-15.91,9.18-.99,.7-2.36,1.05-4.11,1.05h-.26c-1.92-1.81-5.83-4.46-11.71-7.95-2.39-1.51-6.76-5.86-13.11-13.02-1.81-.87-3.09-2.36-3.85-4.46v-4.98c0-2.68-.38-6.58-1.14-11.71l1.4-14.42-.52-4.46v-2.71l.52-.87v-1.92c0-2.16-.26-4.11-.79-5.86,.64,0,1.17-1.37,1.57-4.11h-.26c-.35,0-.52-.38-.52-1.14-3.32,0-7.23,1.2-11.71,3.58-1.28,1.69-1.92,2.91-1.92,3.67v.52c.29,.76,.93,1.14,1.92,1.14,1.05-.29,1.57-.96,1.57-2.01h.61v.61c0,1.4-.9,2.22-2.71,2.45h-.26c-1.69-.23-2.53-1.05-2.53-2.45v-.87c0-.47,2.27-4.54,6.82-12.24,1.11,1.34,1.84,2.01,2.19,2.01l6.29-1.66,.52-2.27c-.41,0-.67-1.19-.79-3.58-.41-.17-1.31-2.85-2.71-8.04l-1.92-1.66h-.52l-.35,.26h-.26l-2.45-2.45v-.35c1.98-1.28,4.54-1.92,7.69-1.92,5.3-1.63,9.76-3.38,13.37-5.24Zm-24.3,36.01l1.31,.35v.52h-.26l-.26-.26h-.26c-.52,0-.79,.26-.79,.79l-.26,.35h-.52v-.35c.35-.82,.7-1.28,1.05-1.4Z"/>
  <path id="heFour" d="M289.76,43.19h1.4l.52,.52v.35l-4.37,2.54c-2.21,2.21-3.9,5.89-5.07,11.01-1.05,4.37-2.18,7.66-3.41,9.88l-.44,10.4v3.15l-1.05,14.16c4.54-5.19,8.33-7.92,11.36-8.22,0-.35,.58-.55,1.75-.61h.44c2.33,0,5.16,1.14,8.48,3.41,.64,3.38,1.46,6.21,2.45,8.48,.76,2.33,1.72,6.58,2.88,12.76,.29,.06,.93,2.01,1.92,5.86l.52,4.81-.52,2.01-.26,5.68c.52,2.91,1.43,6.21,2.71,9.88,.64,2.62,2.97,5.16,6.99,7.6l-.53,.52h-.44l-10.14-4.46c-3.79,0-7.25,1.69-10.4,5.07l-.96-1.75c2.74-3.5,4.11-6.12,4.11-7.87l1.22-7.6v-.26l-.53-.88c.47-3.15,.7-5.97,.7-8.48v-.26c-.47,0-.84-4.05-1.14-12.15-.64,0-.96-2.56-.96-7.69-.47,0-.82-.93-1.05-2.8-.17,0-.41-.64-.7-1.92l-.44-1.14-1.22-.61h-3.41l-2.88-.52c-2.68,1.4-5.33,4.02-7.95,7.87-1.63,1.69-2.45,4.14-2.45,7.34h-.26l.26,.26c-.82,6.58-1.22,11.3-1.22,14.16,.58,3.96,1.86,8.77,3.85,14.42l2.97,3.06c-.18,.58-.67,.88-1.49,.88l-.7-.26-.26,.26h-.26c-2.68-.93-7.02-1.6-13.02-2.01-.58,.47-1.78,.76-3.58,.87l-.26-.26v-.26c2.8-4.6,4.63-9.41,5.51-14.42l1.75-8.22c0-2.5,.23-4.86,.7-7.08-.47,0-.7-.26-.7-.79l1.4-3.15,.26-3.41-.26-2.27,.26-9.53-.26-11.89c-.64,0-1.2-3.03-1.66-9.09-.35-.29-.67-2.53-.96-6.73-1.4-2.45-2.3-4.6-2.71-6.47-.82-1.57-2.1-2.71-3.85-3.41v-.61l.53-.52h1.14c4.31,0,8.92-1.78,13.81-5.33,5.83-2.85,9.79-4.28,11.89-4.28Zm48.33,23.25h.35c1.34,0,2.65,.93,3.93,2.8,1.17,.29,4.54,3.35,10.14,9.18l5.59,6.99,1.66,5.68v1.05c-.29,2.62-1.6,5.54-3.93,8.74-2.86,6.12-5.48,9.18-7.87,9.18l-.96,.35c-4.89,0-12.12-2.94-21.68-8.83-1.52-1.57-2.27-3.2-2.27-4.89v-.7c.99-3.79,3.38-5.68,7.17-5.68h.35c1.75,0,2.62,1.08,2.62,3.23-.58,2.1-1.14,3.15-1.66,3.15h-1.92l-1.31-1.4v-.7l.61-.7c0,.93,.23,1.4,.7,1.4l.96-1.05v-1.05c-.23-.7-.88-1.05-1.92-1.05s-1.83,1.17-2.36,3.5c0,1.81,2.74,3.67,8.22,5.59,2.68,2.04,6.06,3.32,10.14,3.85,3.15,0,5.88-2.33,8.22-6.99l.7-.7v-4.89c-.87-5.59-2.3-9.47-4.28-11.62-4.66-3.73-7.52-5.59-8.56-5.59h-1.92c-1.28,0-3.7,1.75-7.25,5.24-2.1,.47-5.04,4.92-8.83,13.37l-2.97,7.69v2.45l4.63,11.62c1.05,4.84,3.79,8.92,8.22,12.24,4.78,3.32,7.84,4.98,9.18,4.98l4.89,.35c2.15,0,4.22-1.4,6.21-4.2v-3.23l.7-1.05-2.62-10.49c0-.52,.96-.87,2.88-1.05,2.33,.88,3.88,1.92,4.63,3.15v5.59c0,5.48-1.87,9.82-5.59,13.02-3.21,3.15-5.59,5.13-7.17,5.94h-.7c-6.93-2.1-10.87-3.96-11.8-5.59-1.46-.47-2.88-1.75-4.28-3.85-3.32-4.02-5.59-6.38-6.82-7.08l-5.94-9.79c-1.22,0-2.65-2.48-4.28-7.43v-3.15l-.96-2.1,5.94-10.14c.23-2.45,2.94-6.44,8.13-11.97,0-.7,3.17-4.22,9.53-10.58l3.58-2.8Zm-12.41,7.78h.35l-1.05,1.05v-.35l.7-.7Z"/>
  <path id="wants" d="M417.14,53.7c6.18,3.73,12.12,5.59,17.83,5.59,2.39-.17,4.95-1.22,7.69-3.15h1.4c.87,.41,1.46,1.11,1.75,2.1-4.66,2.86-6.99,5.3-6.99,7.34l-1.4,1.05,.35,.35v.35c-2.33,4.25-3.96,7.75-4.89,10.49-.64,0-1.11,1.17-1.4,3.5l2.1,18.53-.35,3.5c.87,0,1.57,1.98,2.1,5.94,.29,0,.52,.7,.7,2.1l-.7,.7v.7c1.51,2.27,3.03,4.02,4.54,5.24l.35-.35h.35c0,1.22,.82,2.51,2.45,3.85h1.75c.17-1.51,.99-3.15,2.45-4.89l.35,.35c3.73-9.5,5.59-15.79,5.59-18.88,.29-4.02,1.46-7.75,3.5-11.19,.41-.52,.76-2.16,1.05-4.89,.87,0,1.46-2.33,1.75-6.99,.58-.23,1.86-3.15,3.85-8.74l.35-.35h1.05c1.92,0,3.09,5.13,3.5,15.38,.47,0,.7,1.4,.7,4.2v.7l-.7,5.94,3.15,15.73,5.59,11.54,.35,2.45c.64,0,1.34-2.56,2.1-7.69,.82-11.83,1.86-18.12,3.15-18.88,.93-1.57,1.63-6.47,2.1-14.68,.64,0,1.22-1.63,1.75-4.89-1.87-4.54-2.8-8.39-2.8-11.54l-3.85-3.15c-3.03-.99-4.54-1.69-4.54-2.1,.87-2.04,1.57-3.09,2.1-3.15l17.13,3.15,.35-.35,1.75,.35c1.51,0,5.01-.82,10.49-2.45v.35c-1.34,1.52-4.37,6.76-9.09,15.73-1.22,1.05-2.62,4.43-4.2,10.14-.87,1.34-2.39,6.24-4.54,14.68-2.33,6.24-3.5,9.96-3.5,11.19v10.84c.47,.29,.82,2.16,1.05,5.59l-2.1,7.34,.35,1.75c0,2.21-.93,4.08-2.8,5.59h-.35c-1.57-1.4-3.32-4.54-5.24-9.44-.41,0-1.92-3.03-4.54-9.09-1.22,0-2.16-1.4-2.8-4.2-4.2-9.56-6.29-15.27-6.29-17.13v-.7l-1.75-.35v.35l-3.15,4.89c-.52,.99-.87,3.55-1.05,7.69-2.1,0-3.15,1.17-3.15,3.5-.76,3.67-2.39,7.63-4.89,11.89-1.4,1.81-2.33,4.02-2.8,6.64l-2.45,2.1h-.7c-3.15-3.73-5.48-7.81-6.99-12.24-1.81-2.39-4.37-7.17-7.69-14.33v-3.85c0-2.74-.82-5.3-2.45-7.69v-.7h-.35l.35-3.5v-7.34l-1.75-3.85,.35-9.44c0-3.32-1.28-7.28-3.85-11.89,0-1.05-1.75-2.91-5.24-5.59l1.75-1.75Zm101.65,12.67c4.08,0,8.83,1.63,14.25,4.89l7.43,9.35c0,.47,.88,1.98,2.62,4.54,0,1.87,1.19,5.45,3.58,10.75,.29,1.52,.87,2.65,1.75,3.41l-.26,2.8v3.15l.61,4.81-.61,4.28,.26,2.27-.26,9.35c1.11,4.72,2.19,7.08,3.23,7.08l3.58,3.15v1.4l-2.1,2.01c-3.03-.47-4.69-.84-4.98-1.14h-6.55l-5.07,1.66c-2.39-1.16-3.67-2.01-3.85-2.53v-.26c.58-.81,1.98-1.78,4.2-2.88,1.28-.64,2.45-2.91,3.5-6.82l.61-1.92-1.14-.87c-2.45,3.15-5.62,5.59-9.53,7.34-7.75,3.03-12.99,4.54-15.73,4.54-.82,0-2.88-.84-6.21-2.54-1.92-1.75-3.29-3.26-4.11-4.54l.26-.26v-.26l-1.49-3.41c.82-3.67,3.18-7.54,7.08-11.62,0-1.11,4.05-4.89,12.15-11.36l10.4-6.82c.76,0,1.75-.76,2.97-2.27h.35v-.26l-2.71-11.1c-2.8-4.31-5.16-6.96-7.08-7.95-2.57-1.34-4.17-2.01-4.81-2.01h-.52c-.99,0-2.48,1.25-4.46,3.76-.64,.17-.96,.73-.96,1.66,.47,0,.79,.96,.96,2.88,2.04,3.03,4.6,4.54,7.69,4.54l1.14,1.92v1.75l-.87,.87h-.26c-6.41,0-11.07-2.65-13.98-7.95-.52-.81-.82-2.33-.87-4.54v-2.27c.76-2.39,2.04-4.37,3.85-5.94,2.68-1.75,4.66-2.62,5.94-2.62Zm16.61,33.83h-1.75c-2.39,.7-3.96,1.72-4.72,3.06-.52,0-2.01,1.34-4.46,4.02-4.54,2.92-7.63,6.96-9.26,12.15-.58,0-.96,2.01-1.14,6.03,2.1,1.87,3.38,2.8,3.85,2.8l.87,.26,.35-.26v-.26l1.75,.26,7.08-2.8c.7,0,2.97-1.51,6.82-4.54l.96-1.14,1.75-2.01h.26l.35,.26h.26c0-1.05,.41-1.81,1.22-2.27l.52-4.81-.26-2.01,.26-1.92c0-3.61-.67-6.64-2.01-9.09-1.81,.23-2.71,.99-2.71,2.27Zm47.98-41.25l.61,.7c-3.38,1.87-5.65,4.54-6.82,8.04-.82,2.62-1.43,8.19-1.83,16.69,5.71-5.83,10.52-8.94,14.42-9.35,0-.35,.73-.55,2.19-.61h.61c2.91,0,6.5,1.28,10.75,3.85,.82,3.85,1.83,7.08,3.06,9.7,.99,2.62,2.24,7.43,3.76,14.42,.35,.06,1.17,2.33,2.45,6.82l.61,5.42-.61,2.27-.35,6.38c.64,3.38,1.78,7.14,3.41,11.27,.88,3.03,3.85,5.94,8.92,8.74l-.61,.61h-.61l-12.94-5.16c-4.78,0-9.18,1.92-13.2,5.77l-1.22-1.92c3.5-4.02,5.24-7.02,5.24-9l1.49-8.65v-.35l-.61-.96c.64-3.55,.96-6.76,.96-9.61v-.35c-.64,0-1.17-4.6-1.57-13.81-.82,0-1.22-2.91-1.22-8.74-.58,0-.99-1.05-1.22-3.15-.29,0-.61-.76-.96-2.27l-.61-1.31-1.49-.61h-4.28l-3.76-.7c-3.44,1.63-6.82,4.63-10.14,9-2.04,1.92-3.06,4.72-3.06,8.39h-.26l.26,.35c-1.05,7.46-1.57,12.82-1.57,16.08,.76,4.49,2.42,9.96,4.98,16.43l3.67,3.5c-.23,.64-.85,.96-1.84,.96l-.96-.35-.26,.35h-.35c-3.38-1.05-8.92-1.81-16.61-2.27-.76,.52-2.27,.85-4.54,.96l-.35-.26v-.35c3.55-5.24,5.91-10.72,7.08-16.43l2.19-9.26c0-2.85,.29-5.54,.87-8.04-.58,0-.87-.35-.87-1.05l1.83-3.5,.26-3.85-.26-2.88,.26-11.27c0-4.08-.82-7.72-2.45-10.92v-.35c2.33-.41,5.1-2.01,8.3-4.81,4.72-3.03,7.81-4.54,9.26-4.54Zm60.92-6.21c2.21,.64,3.32,1.28,3.32,1.92v.52l-7.17,6.38c-.35,.47-.7,1.69-1.05,3.67-1.46,.93-2.19,2.51-2.19,4.72l.79,6.9h4.89c3.09,0,7.02-2.21,11.8-6.64l.52,.53c-.35,2.04-2.07,4.92-5.16,8.65-1.28,2.56-2.48,4.4-3.58,5.51h-.26l-.52-.52,.26-1.4-.26-.26h-1.4c-2.8,0-5.24,.47-7.34,1.4l.52,1.66v3.32c-.41,10.55-.87,15.82-1.4,15.82v10.23l1.4,4.98v3.32c0,1.11,.35,2.21,1.05,3.32v.87l-.26,1.4c.52,0,1.46,1.92,2.8,5.77l11.19,12.24,7.6,5.86c.53,0,1.08,.26,1.66,.79l.79-.26,1.4,.26h1.66c7.63-.58,11.45-2.42,11.45-5.51l.26-1.4v-3.32c0-3.61-2.36-5.65-7.08-6.12h-2.45c-2.45,0-3.82,2.68-4.11,8.04v.26c2.85,3.38,5.13,5.16,6.82,5.33,2.39-.46,3.58-1.69,3.58-3.67v-.53c-.82-3.73-2.27-5.59-4.37-5.59-1.75,.76-2.86,1.6-3.32,2.54v.87c0,.93,.73,1.92,2.19,2.97,1.63-.35,2.45-.99,2.45-1.92-.47-1.17-.9-1.81-1.31-1.92h-.88l-1.31,1.14h-.26v-.61c1.11-1.46,2.18-2.18,3.23-2.18,1.63,1.98,2.45,3.47,2.45,4.46v.26c-.93,1.63-1.57,2.45-1.92,2.45h-.52c-.93,0-2.86-1.19-5.77-3.58,.47-3.67,1.57-5.51,3.32-5.51l2.18-.26h1.4c1.63,0,3.09,2.86,4.37,8.57-2.27,2.97-4.11,4.46-5.51,4.46-5.65-3.15-8.48-5.56-8.48-7.25v-2.18c.52-4.43,1.08-6.76,1.66-6.99h6.82c5.13,0,7.69,1.22,7.69,3.67l1.92,7.78,.26,2.71c-6.53,5.01-11.83,8.07-15.91,9.18-.99,.7-2.36,1.05-4.11,1.05h-.26c-1.92-1.81-5.83-4.46-11.71-7.95-2.39-1.51-6.76-5.86-13.11-13.02-1.81-.87-3.09-2.36-3.85-4.46v-4.98c0-2.68-.38-6.58-1.14-11.71l1.4-14.42-.52-4.46v-2.71l.52-.87v-1.92c0-2.15-.26-4.11-.79-5.86,.64,0,1.16-1.37,1.57-4.11h-.26c-.35,0-.52-.38-.52-1.14-3.32,0-7.23,1.2-11.71,3.58-1.28,1.69-1.92,2.91-1.92,3.67v.53c.29,.76,.93,1.14,1.92,1.14,1.05-.29,1.57-.96,1.57-2.01h.61v.61c0,1.4-.9,2.21-2.71,2.45h-.26c-1.69-.23-2.53-1.05-2.53-2.45v-.87c0-.47,2.27-4.54,6.82-12.24,1.11,1.34,1.84,2.01,2.19,2.01l6.29-1.66,.52-2.27c-.41,0-.67-1.19-.79-3.58-.41-.18-1.31-2.85-2.71-8.04l-1.92-1.66h-.53l-.35,.26h-.26l-2.45-2.45v-.35c1.98-1.28,4.54-1.92,7.69-1.92,5.3-1.63,9.76-3.38,13.37-5.24Zm-24.3,36.01l1.31,.35v.53h-.26l-.26-.26h-.26c-.53,0-.79,.26-.79,.79l-.26,.35h-.53v-.35c.35-.81,.7-1.28,1.05-1.4Zm54.98-31.03c0,.35,3.85,.7,11.54,1.05,1.05,.47,2.33,1.98,3.85,4.54l3.5,5.94v.7l-3.15,6.64c-2.16,5.13-3.79,7.69-4.89,7.69-1.92,0-6.93-2.8-15.03-8.39h-.7v-2.45c1.46-5.36,3.32-8.04,5.59-8.04h1.4c2.8,0,4.2,1.28,4.2,3.85,.47,0,.7,.58,.7,1.75,0,.99-1.28,2.51-3.85,4.54-1.22,0-2.51-1.05-3.85-3.15v-.35c.64-1.86,1.22-2.8,1.75-2.8h1.4l1.05,1.05v1.05l-.7,.7h-.35v-.35l.35-.35v-.35l-1.05-.7-.7,.7v.7c.47,.93,1.05,1.4,1.75,1.4,.87,0,1.46-1.05,1.75-3.15,0-1.28-.93-2.21-2.8-2.8-1.98,.76-3.15,1.69-3.5,2.8v.7c0,3.03,2.91,5.48,8.74,7.34l2.1,1.4h.7c1.17,0,1.75-2.8,1.75-8.39,0-1.98-2.68-4.78-8.04-8.39-8.86,1.4-13.29,2.8-13.29,4.2v1.75c.29,3.79,2.85,9.03,7.69,15.73,0,1.4,4.2,3.73,12.59,6.99,.87,0,1.69,.7,2.45,2.1l.35-.35h1.05c.47,0,.93,.7,1.4,2.1,7.69,6.93,11.54,11.25,11.54,12.94,.93,1.57,1.4,3.32,1.4,5.24,0,.47-2.45,2.68-7.34,6.64-6,8.1-11.36,13.58-16.08,16.43h-.35l-14.33-2.45c-1.98,0-5.24-4.89-9.79-14.68l-.35-3.15v-.35c0-1.63,1.98-3.15,5.94-4.54,2.8-2.39,6.76-4.84,11.89-7.34l.35,.35h.35l1.05-.35c0,.35,1.51,1.05,4.54,2.1,1.63,1.22,2.45,2.39,2.45,3.5-.17,2.56-1.46,5.94-3.85,10.14h-1.05c-6.06,0-9.09-2.1-9.09-6.29,2.62-3.5,4.6-5.24,5.94-5.24h.35c1.28,0,2.45,.82,3.5,2.45,0,2.56-.82,4.2-2.45,4.89h-1.4c-1.28,0-2.1-.58-2.45-1.75,0-1.22,.7-2.27,2.1-3.15h.7v.7l-1.4,.35v1.05l1.05,1.05h1.05l1.05-1.05v-1.4l-1.4-1.4h-1.4c-1.63,1.11-2.45,2.39-2.45,3.85,0,2.1,1.51,3.15,4.54,3.15,2.1-1.11,3.15-2.5,3.15-4.2v-1.4c0-2.45-1.63-3.96-4.89-4.54-4.66,0-8.39,4.31-11.19,12.94v2.1c0,1.92,1.63,3.9,4.89,5.94,1.05,1.22,4.66,2.16,10.84,2.8h2.1c4.02,0,8.22-6.76,12.59-20.28v-2.45c-4.54-4.78-10.49-9.21-17.83-13.29-3.9-3.26-9.61-6.99-17.13-11.19,0-2.27-1.05-7.28-3.15-15.03,0-1.98,1.75-3.96,5.24-5.94,.35-.87,3.26-1.81,8.74-2.8,1.69-.93,3.79-1.51,6.29-1.75Z"/>
  <path id="to" d="M767.99,50.9c2.21,.64,3.32,1.28,3.32,1.92v.52l-7.17,6.38c-.35,.47-.7,1.69-1.05,3.67-1.46,.93-2.19,2.51-2.19,4.72l.79,6.9h4.89c3.09,0,7.02-2.21,11.8-6.64l.52,.52c-.35,2.04-2.07,4.92-5.16,8.65-1.28,2.56-2.48,4.4-3.58,5.51h-.26l-.52-.52,.26-1.4-.26-.26h-1.4c-2.8,0-5.24,.47-7.34,1.4l.52,1.66v3.32c-.41,10.55-.87,15.82-1.4,15.82v10.23l1.4,4.98v3.32c0,1.11,.35,2.22,1.05,3.32v.87l-.26,1.4c.52,0,1.46,1.92,2.8,5.77l11.19,12.24,7.6,5.86c.53,0,1.08,.26,1.66,.79l.79-.26,1.4,.26h1.66c7.63-.58,11.45-2.42,11.45-5.51l.26-1.4v-3.32c0-3.61-2.36-5.65-7.08-6.12h-2.45c-2.45,0-3.82,2.68-4.11,8.04v.26c2.85,3.38,5.13,5.16,6.82,5.33,2.39-.47,3.58-1.69,3.58-3.67v-.52c-.82-3.73-2.27-5.59-4.37-5.59-1.75,.76-2.86,1.6-3.32,2.53v.87c0,.93,.73,1.92,2.19,2.97,1.63-.35,2.45-.99,2.45-1.92-.47-1.17-.9-1.81-1.31-1.92h-.88l-1.31,1.14h-.26v-.61c1.11-1.46,2.18-2.19,3.23-2.19,1.63,1.98,2.45,3.47,2.45,4.46v.26c-.93,1.63-1.57,2.45-1.92,2.45h-.52c-.93,0-2.86-1.19-5.77-3.58,.47-3.67,1.57-5.51,3.32-5.51l2.18-.26h1.4c1.63,0,3.09,2.86,4.37,8.57-2.27,2.97-4.11,4.46-5.51,4.46-5.65-3.15-8.48-5.56-8.48-7.25v-2.19c.52-4.43,1.08-6.76,1.66-6.99h6.82c5.13,0,7.69,1.22,7.69,3.67l1.92,7.78,.26,2.71c-6.53,5.01-11.83,8.07-15.91,9.18-.99,.7-2.36,1.05-4.11,1.05h-.26c-1.92-1.81-5.83-4.46-11.71-7.95-2.39-1.51-6.76-5.86-13.11-13.02-1.81-.87-3.09-2.36-3.85-4.46v-4.98c0-2.68-.38-6.58-1.14-11.71l1.4-14.42-.52-4.46v-2.71l.52-.87v-1.92c0-2.15-.26-4.11-.79-5.86,.64,0,1.16-1.37,1.57-4.11h-.26c-.35,0-.52-.38-.52-1.14-3.32,0-7.23,1.19-11.71,3.58-1.28,1.69-1.92,2.91-1.92,3.67v.52c.29,.76,.93,1.14,1.92,1.14,1.05-.29,1.57-.96,1.57-2.01h.61v.61c0,1.4-.9,2.22-2.71,2.45h-.26c-1.69-.23-2.53-1.05-2.53-2.45v-.87c0-.47,2.27-4.54,6.82-12.24,1.11,1.34,1.84,2.01,2.19,2.01l6.29-1.66,.52-2.27c-.41,0-.67-1.19-.79-3.58-.41-.17-1.31-2.85-2.71-8.04l-1.92-1.66h-.53l-.35,.26h-.26l-2.45-2.45v-.35c1.98-1.28,4.54-1.92,7.69-1.92,5.3-1.63,9.76-3.38,13.37-5.24Zm-24.3,36.01l1.31,.35v.52h-.26l-.26-.26h-.26c-.53,0-.79,.26-.79,.79l-.26,.35h-.53v-.35c.35-.82,.7-1.28,1.05-1.4Zm67.91-27.53h1.05l6.64,1.92c2.68,.93,5.16,2.45,7.43,4.54l9.18,6.38c.58,.52,1.34,2.94,2.27,7.25,2.68,7.81,4.02,13.58,4.02,17.31v6.12c-.47,.47-.85,1.95-1.14,4.46l-.7,1.57,.35,.35-3.32,4.2v.35l.79,1.14c-10.14,10.02-16.17,15.18-18.09,15.47l-15.47,7.52c-2.39,0-5.36-3-8.92-9-.87-2.21-2.71-4.6-5.51-7.17,0-.82-1.22-3.73-3.67-8.74-.7-4.08-1.81-7.22-3.32-9.44-2.21-3.5-3.32-7.02-3.32-10.58l-1.49-1.84c0-1.46,1.49-2.97,4.46-4.54,0-.76,.35-1.14,1.05-1.14,.82-1.69,2.8-3.47,5.94-5.33,3.09-4.37,5.42-7.25,6.99-8.65,6.76-6.12,11.68-10.17,14.77-12.15Zm2.54,6.47c-4.31,2.56-9.7,7.34-16.17,14.33-.64,0-3.35,3.03-8.13,9.09l-.35,1.92c1.69,13.87,3.76,22.55,6.21,26.05l9.61,12.41h2.97c3.96-2.97,6.41-4.46,7.34-4.46,2.74-.87,6.56-5.3,11.45-13.29l1.14-2.27-.44-1.14c1.05,0,1.92-2.5,2.62-7.52,1.75-2.27,2.85-5.16,3.32-8.65l-4.02-8.39c-1.81-4.54-3.9-8.19-6.29-10.93-3.96-3.09-5.94-5.1-5.94-6.03l-1.05-1.14-1.83,.35-.44-.35Z"/>
  <path id="be" d="M255.79,187.19l.44,.44c-3.42,1.92-5.12,3.62-5.12,5.12-.42,0-.62,.48-.62,1.44-1.33,1.12-2,2.38-2,3.75l.25,.62c-.38,0-.69,2.25-.94,6.75v.62c0,1.54,.23,2.31,.69,2.31l-.25,1v.44h.25c-.29,1.38-.44,3.5-.44,6.38h.19c.54,.58,3.21,1.06,8,1.44,5.67,.54,9.56,1.15,11.69,1.81,0,.29,1.77,1.27,5.31,2.94l3.56,2.06c0,.83,.88,1.71,2.62,2.62,.75,1.38,1.12,3.38,1.12,6s-1.04,4.98-3.12,7.44c-.79,.5-2.4,2.15-4.81,4.94-2.38,1.21-4,1.9-4.88,2.06-3.88,1.08-6.9,2.1-9.06,3.06-2.71,0-5.81-1.65-9.31-4.94l-.19-2.25c.75-1.92,2-2.88,3.75-2.88,2.33,0,3.5,.96,3.5,2.88-.5,1.5-1.46,2.25-2.88,2.25-.88-.83-1.31-1.52-1.31-2.06l.88-.81h.25v.38l-.69,.25c.29,.62,.58,.96,.88,1h.44l.94-1v-.25c-.38-.71-.98-1.25-1.81-1.62h-.19c-.92,0-1.73,.48-2.44,1.44v.19c0,2.21,1.54,3.31,4.62,3.31h1.75c.75,0,4.29-1.58,10.62-4.75,.79,0,2.35-1.44,4.69-4.31,1.17-.58,1.75-1.4,1.75-2.44,0-3.58-.67-5.65-2-6.19-2.04-1.67-4.19-2.77-6.44-3.31,0-1.38-4.85-2.69-14.56-3.94h-2l-.44,.44v1.44l.88,1.25c-.75,0-1.33,1.5-1.75,4.5l-.25,.62,.69,5.38-.25,1,.25,1.88-.25,3.12,1.38,5.5c.17,1,1.19,2.58,3.06,4.75-3,.58-4.77,1.06-5.31,1.44h-2.88l-2.62-.62h-2l-.44-.38v-.44c1.92-1.83,2.94-3.54,3.06-5.12l.94-3.12-.94-9.62,.25-3.5c-.21-6.33-.94-9.5-2.19-9.5l-.5-.44v-.38c.75-.5,1.12-.92,1.12-1.25l.69-7.19v-1.69l-.44-.81-.69-7v-.62l-.44-1.25,.25-1.19-3.56-4.94c-1.21-.33-2.98-1.17-5.31-2.5v-.44l.44-.56,7.06,.19h5.12c1.38,0,4.54-1.04,9.5-3.12h2.44Zm-10.88,1.06h.69v.38h-.69v-.38Zm55.75,11.19h.25c.96,0,1.9,.67,2.81,2,.83,.21,3.25,2.4,7.25,6.56l4,5,1.19,4.06v.75c-.21,1.88-1.15,3.96-2.81,6.25-2.04,4.38-3.92,6.56-5.62,6.56l-.69,.25c-3.5,0-8.67-2.1-15.5-6.31-1.08-1.12-1.62-2.29-1.62-3.5v-.5c.71-2.71,2.42-4.06,5.12-4.06h.25c1.25,0,1.88,.77,1.88,2.31-.42,1.5-.81,2.25-1.19,2.25h-1.38l-.94-1v-.5l.44-.5c0,.67,.17,1,.5,1l.69-.75v-.75c-.17-.5-.62-.75-1.38-.75s-1.31,.83-1.69,2.5c0,1.29,1.96,2.62,5.88,4,1.92,1.46,4.33,2.38,7.25,2.75,2.25,0,4.21-1.67,5.88-5l.5-.5v-3.5c-.62-4-1.65-6.77-3.06-8.31-3.33-2.67-5.38-4-6.12-4h-1.38c-.92,0-2.65,1.25-5.19,3.75-1.5,.33-3.6,3.52-6.31,9.56l-2.12,5.5v1.75l3.31,8.31c.75,3.46,2.71,6.38,5.88,8.75,3.42,2.38,5.6,3.56,6.56,3.56l3.5,.25c1.54,0,3.02-1,4.44-3v-2.31l.5-.75-1.88-7.5c0-.38,.69-.62,2.06-.75,1.67,.62,2.77,1.38,3.31,2.25v4c0,3.92-1.33,7.02-4,9.31-2.29,2.25-4,3.67-5.12,4.25h-.5c-4.96-1.5-7.77-2.83-8.44-4-1.04-.33-2.06-1.25-3.06-2.75-2.38-2.88-4-4.56-4.88-5.06l-4.25-7c-.88,0-1.9-1.77-3.06-5.31v-2.25l-.69-1.5,4.25-7.25c.17-1.75,2.1-4.6,5.81-8.56,0-.5,2.27-3.02,6.81-7.56l2.56-2Zm-8.88,5.56h.25l-.75,.75v-.25l.5-.5Z"/>
  <path id="just" d="M403.76,180.35c.88,0,1.79,.6,2.75,1.81l-.19,.19h-.19c0-.33-.46-.54-1.38-.62-4.54,0-8.52,3.98-11.94,11.94-1.21,2.88-2.19,7.46-2.94,13.75l-.56,7.94,.19,2.19-.19,1.62c.29,0,.48,.58,.56,1.75,.38,0,.56,.79,.56,2.38,1.04,2.04,1.56,3.92,1.56,5.62l.25,.19v.38c-1.88,2.67-2.85,4.46-2.94,5.38l-2.56,4.38c-1.08,.96-2.31,2.35-3.69,4.19-1.5,1.5-3.73,3.02-6.69,4.56h-.19c-7.42-2.29-11.12-4.21-11.12-5.75-1.71-5.25-2.56-8.71-2.56-10.38,.17-.5,.5-.96,1-1.38,2.38-6.5,4.33-9.75,5.88-9.75,1.5-.92,2.6-1.38,3.31-1.38,4.21,0,7.21,1.92,9,5.75l.75,1v.38c-.75,4.12-1.98,6.19-3.69,6.19-2.04,0-4.58-.85-7.62-2.56l-.19-1.44c0-2.62,1.23-3.94,3.69-3.94,.54,.21,.81,.4,.81,.56v.19h-.25c-2.08,0-3.12,.94-3.12,2.81v.19c2.04,1.21,4.21,2.08,6.5,2.62h.19c.88-1.17,1.52-2.5,1.94-4,0-1.04-1.69-2.77-5.06-5.19h-4.12c-1.33,0-2.31,.88-2.94,2.62-.21,0-.67,1.71-1.38,5.12l.38,3.38-.38,1.62v.19l2.38,3.81c.21,1.04,1.71,2.02,4.5,2.94,0,.33,1.1,.54,3.31,.62,2.83-1.5,4.98-4.23,6.44-8.19,1.04-1.58,1.9-4.62,2.56-9.12v-.38c0-1.25-.33-2.71-1-4.38l.19-1-.19-3.62,.19-6.94-.19-4.38c-.38,0-.77-1.98-1.19-5.94-.75-2.42-1.58-3.62-2.5-3.62,0-.25-.33-.38-1-.38l-2.38,.81-.19-.25v-.19c1.54-1.04,3.44-1.9,5.69-2.56,3.46-1.21,7.38-3.73,11.75-7.56,2.38-2.79,5.1-4.19,8.19-4.19Zm33.44,9.06h.69c1.46,1.12,2.19,2.19,2.19,3.19v.25l-.25,.19v.25l.44,.44v.25c-2.62,1.21-4.6,2.88-5.94,5-1.75,3.17-3.06,6.56-3.94,10.19l.25,1.62c-.75,1.71-1.42,4.65-2,8.81v.5l.19,2c-.58,1.54-.88,2.83-.88,3.88,.75,2.21,1.33,4.85,1.75,7.94,2,4.88,3.77,8.29,5.31,10.25l5.5,4.06v.25l-1.31,2h-.69c-1.83,0-5.06-.9-9.69-2.69l-1.5-.5h-.44c-1.21,0-2.98,.4-5.31,1.19v-.69c2.08-2.58,3.12-4.94,3.12-7.06l.19-.19h.25c0-4.54-.96-7.88-2.88-10h-.69c0,1.38-1.02,3.1-3.06,5.19,0,1.17-.96,2.54-2.88,4.12-1.75,4.5-4.08,7.44-7,8.81l-.25,.25-1.31-.94-.88,.25c-.62-.12-1.35-1.04-2.19-2.75,0-3.67-.38-6.54-1.12-8.62l.44-.88-.62-6.12v-1.12l-.25-.94c.33,0,.56-2.56,.69-7.69-.67-8.04-1.25-12.06-1.75-12.06l-.44-.88c-2.25-1.08-3.94-1.62-5.06-1.62-1.04,.21-1.56,.52-1.56,.94v.19c.08,.92,.31,1.38,.69,1.38h.88l.62-.69v-.44l-.44-.69v-.25h.25l.88,.94v.44c0,.83-.38,1.44-1.12,1.81h-.44c-1.46,0-2.19-.6-2.19-1.81v-.44c0-1.38,.96-2.21,2.88-2.5h2.19l1.12-.25,.19,.25c0-.29,.67-.58,2-.88,.33-.62,1.79-1.46,4.38-2.5,1.88-1.62,3.94-3.06,6.19-4.31l.19,.19v.94c0,.67-.81,2.17-2.44,4.5-1.46,6-2.54,12.15-3.25,18.44,.42,4.21,.85,6.85,1.31,7.94v4.31l-.25,1.12,3.06,2.25c.62,0,2.17-1.06,4.62-3.19,1.42-1.42,3.48-6.1,6.19-14.06,1.62-2.38,2.44-6.15,2.44-11.31v-1.88c-.83-3.17-2.17-4.75-4-4.75-.88,0-1.52-.38-1.94-1.12v-.88c0-.42,1.31-.88,3.94-1.38,.21-.42,2.48-1.48,6.81-3.19,0-.29,.52-.52,1.56-.69,0-.46,.29-.69,.88-.69,0-.62,.88-1.15,2.62-1.56l3.06-2.31Zm-18,59.06h1.06v.19l-.62,.69-.44-.44v-.44Zm22.81-2.31h.25l.44,.5v.44h-.69v-.94Zm16.44-54.44c0,.25,2.75,.5,8.25,.75,.75,.33,1.67,1.42,2.75,3.25l2.5,4.25v.5l-2.25,4.75c-1.54,3.67-2.71,5.5-3.5,5.5-1.38,0-4.96-2-10.75-6h-.5v-1.75c1.04-3.83,2.38-5.75,4-5.75h1c2,0,3,.92,3,2.75,.33,0,.5,.42,.5,1.25,0,.71-.92,1.79-2.75,3.25-.88,0-1.79-.75-2.75-2.25v-.25c.46-1.33,.88-2,1.25-2h1l.75,.75v.75l-.5,.5h-.25v-.25l.25-.25v-.25l-.75-.5-.5,.5v.5c.33,.67,.75,1,1.25,1,.62,0,1.04-.75,1.25-2.25,0-.92-.67-1.58-2-2-1.42,.54-2.25,1.21-2.5,2v.5c0,2.17,2.08,3.92,6.25,5.25l1.5,1h.5c.83,0,1.25-2,1.25-6,0-1.42-1.92-3.42-5.75-6-6.33,1-9.5,2-9.5,3v1.25c.21,2.71,2.04,6.46,5.5,11.25,0,1,3,2.67,9,5,.62,0,1.21,.5,1.75,1.5l.25-.25h.75c.33,0,.67,.5,1,1.5,5.5,4.96,8.25,8.04,8.25,9.25,.67,1.12,1,2.38,1,3.75,0,.33-1.75,1.92-5.25,4.75-4.29,5.79-8.12,9.71-11.5,11.75h-.25l-10.25-1.75c-1.42,0-3.75-3.5-7-10.5l-.25-2.25v-.25c0-1.17,1.42-2.25,4.25-3.25,2-1.71,4.83-3.46,8.5-5.25l.25,.25h.25l.75-.25c0,.25,1.08,.75,3.25,1.5,1.17,.88,1.75,1.71,1.75,2.5-.12,1.83-1.04,4.25-2.75,7.25h-.75c-4.33,0-6.5-1.5-6.5-4.5,1.88-2.5,3.29-3.75,4.25-3.75h.25c.92,0,1.75,.58,2.5,1.75,0,1.83-.58,3-1.75,3.5h-1c-.92,0-1.5-.42-1.75-1.25,0-.88,.5-1.62,1.5-2.25h.5v.5l-1,.25v.75l.75,.75h.75l.75-.75v-1l-1-1h-1c-1.17,.79-1.75,1.71-1.75,2.75,0,1.5,1.08,2.25,3.25,2.25,1.5-.79,2.25-1.79,2.25-3v-1c0-1.75-1.17-2.83-3.5-3.25-3.33,0-6,3.08-8,9.25v1.5c0,1.38,1.17,2.79,3.5,4.25,.75,.88,3.33,1.54,7.75,2h1.5c2.88,0,5.88-4.83,9-14.5v-1.75c-3.25-3.42-7.5-6.58-12.75-9.5-2.79-2.33-6.88-5-12.25-8,0-1.62-.75-5.21-2.25-10.75,0-1.42,1.25-2.83,3.75-4.25,.25-.62,2.33-1.29,6.25-2,1.21-.67,2.71-1.08,4.5-1.25Zm40.56-3.56c1.58,.46,2.38,.92,2.38,1.38v.38l-5.12,4.56c-.25,.33-.5,1.21-.75,2.62-1.04,.67-1.56,1.79-1.56,3.38l.56,4.94h3.5c2.21,0,5.02-1.58,8.44-4.75l.38,.38c-.25,1.46-1.48,3.52-3.69,6.19-.92,1.83-1.77,3.15-2.56,3.94h-.19l-.38-.38,.19-1-.19-.19h-1c-2,0-3.75,.33-5.25,1l.38,1.19v2.38c-.29,7.54-.62,11.31-1,11.31v7.31l1,3.56v2.38c0,.79,.25,1.58,.75,2.38v.62l-.19,1c.38,0,1.04,1.38,2,4.12l8,8.75,5.44,4.19c.38,0,.77,.19,1.19,.56l.56-.19,1,.19h1.19c5.46-.42,8.19-1.73,8.19-3.94l.19-1v-2.38c0-2.58-1.69-4.04-5.06-4.38h-1.75c-1.75,0-2.73,1.92-2.94,5.75v.19c2.04,2.42,3.67,3.69,4.88,3.81,1.71-.33,2.56-1.21,2.56-2.62v-.38c-.58-2.67-1.62-4-3.12-4-1.25,.54-2.04,1.15-2.38,1.81v.62c0,.67,.52,1.38,1.56,2.12,1.17-.25,1.75-.71,1.75-1.38-.33-.83-.65-1.29-.94-1.38h-.62l-.94,.81h-.19v-.44c.79-1.04,1.56-1.56,2.31-1.56,1.17,1.42,1.75,2.48,1.75,3.19v.19c-.67,1.17-1.12,1.75-1.38,1.75h-.38c-.67,0-2.04-.85-4.12-2.56,.33-2.62,1.12-3.94,2.38-3.94l1.56-.19h1c1.17,0,2.21,2.04,3.12,6.12-1.62,2.12-2.94,3.19-3.94,3.19-4.04-2.25-6.06-3.98-6.06-5.19v-1.56c.38-3.17,.77-4.83,1.19-5h4.88c3.67,0,5.5,.88,5.5,2.62l1.38,5.56,.19,1.94c-4.67,3.58-8.46,5.77-11.38,6.56-.71,.5-1.69,.75-2.94,.75h-.19c-1.38-1.29-4.17-3.19-8.38-5.69-1.71-1.08-4.83-4.19-9.38-9.31-1.29-.62-2.21-1.69-2.75-3.19v-3.56c0-1.92-.27-4.71-.81-8.38l1-10.31-.38-3.19v-1.94l.38-.62v-1.38c0-1.54-.19-2.94-.56-4.19,.46,0,.83-.98,1.12-2.94h-.19c-.25,0-.38-.27-.38-.81-2.38,0-5.17,.85-8.38,2.56-.92,1.21-1.38,2.08-1.38,2.62v.38c.21,.54,.67,.81,1.38,.81,.75-.21,1.12-.69,1.12-1.44h.44v.44c0,1-.65,1.58-1.94,1.75h-.19c-1.21-.17-1.81-.75-1.81-1.75v-.62c0-.33,1.62-3.25,4.88-8.75,.79,.96,1.31,1.44,1.56,1.44l4.5-1.19,.38-1.62c-.29,0-.48-.85-.56-2.56-.29-.12-.94-2.04-1.94-5.75l-1.38-1.19h-.38l-.25,.19h-.19l-1.75-1.75v-.25c1.42-.92,3.25-1.38,5.5-1.38,3.79-1.17,6.98-2.42,9.56-3.75Zm-17.38,25.75l.94,.25v.38h-.19l-.19-.19h-.19c-.38,0-.56,.19-.56,.56l-.19,.25h-.38v-.25c.25-.58,.5-.92,.75-1Z"/>
  <path id="like" d="M586.64,184.99h.19l2.25,.94,1.06-.19h.19c-1.96,2.21-3.79,3.65-5.5,4.31-.83,.62-1.25,1.38-1.25,2.25v4.69l-.75,3.94v7.12l-.94,5.25v3.12l-.38,2.81,.19,6.38-.75,3.38v6.75c0,3.21,1.54,6.52,4.62,9.94,2,1.67,3.65,2.79,4.94,3.38v.19c-.62,.38-.94,.88-.94,1.5h-.19c-3.54-.75-5.31-1.31-5.31-1.69l-.19,.19h-.31v-.38l-3.12-.19c-3.75,0-6.5,.5-8.25,1.5h-.56l-.38-1.12v-.19c.83,0,1.88-1.94,3.12-5.81,.38,0,.73-1.56,1.06-4.69,.5-1.17,.75-2.04,.75-2.62v-7.12l-.19-1.88,.56-.56v-3.56l-.19-3.75,.94-5.94-.19-3.38,.19-.75-.56-.56v-3c0-3.17-.85-6.67-2.56-10.5,0-1.17-.73-2.73-2.19-4.69l-.38-1.5h.19c.54,.25,1.33,.38,2.38,.38h2c1.17,0,2.94-.56,5.31-1.69,2.71-1.5,4.42-2.25,5.12-2.25Zm-4.56,64.06h.94v.38h-.94v-.38Zm18.12-61.94c2.75,.58,6.23,1.81,10.44,3.69,1.96,1.67,2.94,3.23,2.94,4.69,.75,3.25,1.12,5.62,1.12,7.12,0,1.67-.83,3.17-2.5,4.5,0,1.38-3.54,2.6-10.62,3.69h-1.38c-3.08-1.25-5.25-2.6-6.5-4.06l-4.31-4.31,.5-.44c1.46,1.04,3.54,2.98,6.25,5.81,.83,0,2.19,.71,4.06,2.12l.25-.19h2.06c2.88-.33,5.27-1.12,7.19-2.38,.88-.33,1.94-2.35,3.19-6.06-.79-5.71-1.92-8.56-3.38-8.56-2.79-1.88-5.81-2.81-9.06-2.81-3.62,0-6.25,2.65-7.88,7.94v.88c4.54,6.04,7.77,9.06,9.69,9.06h.69c3.46,0,5.65-2.38,6.56-7.12v-2.12c-1.58-3.33-3.85-5-6.81-5l-4.31-.62-2.44,3.88v1.06c2.96,4.12,4.83,6.35,5.62,6.69,3.33,0,5-.94,5-2.81,.33,0,.54-.65,.62-1.94-2.29-2.71-4.02-4.06-5.19-4.06-1.79,.46-2.69,.96-2.69,1.5,0,1.46,.75,3.1,2.25,4.94,1.38,0,2.35-.65,2.94-1.94-.54-1.17-1.29-1.96-2.25-2.38h-.69l-.69,1.5,1.12,1.75c.92-.21,1.38-.71,1.38-1.5l-.44-.62,.19-.25h.25l.44,.88c0,1.29-.6,1.94-1.81,1.94-.96,0-1.62-.85-2-2.56v-1.31c0-.38,.83-.81,2.5-1.31,2.25,2.25,3.38,3.9,3.38,4.94l-4.06,2.38h-.25c-.79,0-2.06-2.35-3.81-7.06v-.25l3.81-2.56h.44c4.04,2.54,6.15,4.27,6.31,5.19l.25,.62c0,3.17-.6,4.75-1.81,4.75,0,.33-.6,.69-1.81,1.06l-2,1.31h-.69c-2.5-1.75-4.08-3.27-4.75-4.56-1.92-2-3.19-3-3.81-3,1.21-4.88,2.56-7.31,4.06-7.31l7.19-.62c2.25,1.71,3.38,2.92,3.38,3.62,1.92,1.83,2.98,3.56,3.19,5.19v.44c-2.42,5.58-4.83,8.38-7.25,8.38l-.62,.19h-2.5c-.88,0-3.21-1.79-7-5.38-2.12-2.21-3.19-3.71-3.19-4.5v-1.06c2.67-5.92,5.08-9.15,7.25-9.69,0-.29,.67-.73,2-1.31Zm14.25,23.5l.44,.62v1.06c-2.83,2.83-4.25,4.42-4.25,4.75-1.67,3.33-2.5,6.92-2.5,10.75l-.44,2.38,1.56,8.81c.25,2.5,.85,4.67,1.81,6.5,1.04,2,3.15,3.5,6.31,4.5,.75,0,1.12,.15,1.12,.44l-.25,.19h-.62l-8.38-1.94-1.12,.25h-1.56c-6.21,.79-9.9,1.65-11.06,2.56-.54,0-1.15,.44-1.81,1.31v.38c0,.33,.38,.56,1.12,.69,.58-.17,.88-.46,.88-.88h.44v.19c-.29,.88-.9,1.31-1.81,1.31h-.44c-.83,0-1.5-.44-2-1.31v-.62c0-.96,.9-1.96,2.69-3,4.08-3.17,6.12-5.75,6.12-7.75,.58-1.12,.88-2.12,.88-3h.25l-.25-1.06,.25-10.38c0-1.21-.6-3.15-1.81-5.81-1.21-4-3.02-6-5.44-6l-.69-.69v-.19l.69-.62h.94l2,.19c6.21-.54,10.88-1.4,14-2.56,.96-.71,1.94-1.06,2.94-1.06Zm18.5-26.19c.67,.29,1.08,.62,1.25,1l-3.94,3.06c-2.42,3.08-4,5.85-4.75,8.31l.19,1.12-.31,9.81,.31,3.06v.5l-.31,1.25v1.44l.31,1.12-.31,.38v.12l.12,.62-.31,1.94,.5,.31h.19c2.46-2.17,4.4-3.67,5.81-4.5l4.5-5.44c.25,0,.9-.85,1.94-2.56l.44-.62c.75,0,1.65-.92,2.69-2.75,.75-1,1.38-2.4,1.88-4.19-.42-1.83-1.25-2.75-2.5-2.75v-.31l.31-.31h.44c1.58,0,4.1-.75,7.56-2.25,2.83-1.38,5.5-2.06,8-2.06l.62,.44c0,.25-.77,.48-2.31,.69-1.96,.71-3.79,2.25-5.5,4.62-2.21,1.79-3.31,2.88-3.31,3.25-.46,.62-.77,1.31-.94,2.06-1.88,1.12-2.81,2.42-2.81,3.88l-3.19,3.38c-.12,.46-.69,1.21-1.69,2.25l-3,3.69c-.21,.5-1.52,2.17-3.94,5v.12l2.06,5,1.38,3.81c0,.38,1.31,3.12,3.94,8.25,0,.33,1.1,1.98,3.31,4.94,.5,.67,.98,1.79,1.44,3.38,.75,1.33,1.73,2.62,2.94,3.88,.79,1.42,1.48,2.33,2.06,2.75,.96,.42,1.44,1,1.44,1.75,.58,.17,1.73,2.25,3.44,6.25l2.38,1.62c1.46,1.38,3.02,2.44,4.69,3.19,.04,.29,.73,.71,2.06,1.25l5.31,.81c.33,0,1.65-1.29,3.94-3.88,.62-.83,.94-1.83,.94-3v-.5c0-3.42-1.94-5.77-5.81-7.06l-1.06-.12c-.96,0-1.81,.69-2.56,2.06-.42,.17-1.4,1.35-2.94,3.56v.31c.62,1.92,2.08,3.56,4.38,4.94h.31c1.71,0,3.12-1.06,4.25-3.19,0-2.25-.62-3.58-1.88-4-.5-.33-.98-.5-1.44-.5-1.54,0-2.69,1.12-3.44,3.38,.67,1.17,1.6,1.98,2.81,2.44,1.04,0,1.62-.65,1.75-1.94-.21-1.5-.83-2.25-1.88-2.25l-1.12,1.25v.5c.42,.54,.94,.81,1.56,.81l.5-.19v-.62c-.29-.54-.71-.81-1.25-.81l.31-.31h.44c.75,.71,1.12,1.35,1.12,1.94-.42,.62-.83,.94-1.25,.94-1.08-.46-1.88-1.1-2.38-1.94,0-.42,.48-1.15,1.44-2.19h2.19c.92,1.04,1.38,2.31,1.38,3.81v.31c-1.04,1.17-2.12,1.75-3.25,1.75-.42,0-1.48-1.1-3.19-3.31v-.38c.25-.75,.88-1.98,1.88-3.69l4.56-.44c.79,0,1.69,1.98,2.69,5.94-3.38,3.08-5.35,4.62-5.94,4.62l-4.25-4c-.83-1.42-1.25-2.33-1.25-2.75v-.12c0-.83,1.08-2.88,3.25-6.12,.92-.75,2.12-1.12,3.62-1.12h.81c1.88,0,4.44,1.94,7.69,5.81v.31c-1.29,7.04-2.75,10.56-4.38,10.56-1.92,1.08-3.96,1.62-6.12,1.62l-10.25-3.56-2.19-2.56c-1.25-2.75-2.5-4.77-3.75-6.06-.88,0-1.88-1.29-3-3.88,0-.29-2.25-3.98-6.75-11.06-2.75-2.96-4.17-5-4.25-6.12-1.17-1.54-2.12-3.21-2.88-5-1-1.33-1.83-2.77-2.5-4.31-.54-.88-.9-1.31-1.06-1.31l-.81,1.12,.19,.81v.19l-1,3.88v4.12l-.44,2.12,.12,2.38-.31,.31v.69c0,1.62,.75,3.44,2.25,5.44,1.04,.71,1.56,1.15,1.56,1.31v.44l-.31,.5-.19-.12h-2c-2.08,.21-4.46,.79-7.12,1.75l-2.19,.94-.44,.69h-.31l-.31-.38v-.75c1.33-1.88,2-3.98,2-6.31,.62-1.54,.94-2.98,.94-4.31,.62,0,1.21-1.19,1.75-3.56,0-1.62,.27-3.12,.81-4.5l1.06-9.62v-1.62l-.94-9.75,.19-3.25c0-.83-.27-2.38-.81-4.62v-.31l.19-.19c-.21-2.38-.65-4.04-1.31-5,0-1.38-.62-2.54-1.88-3.5l-1.25-.19-.75,.31-.81-1.25v-.19c.17-.21,1.48-.58,3.94-1.12,8.42-4.71,12.81-7.06,13.19-7.06,0-.25,.27-.42,.81-.5Zm39.44,11.81h.25c.96,0,1.9,.67,2.81,2,.83,.21,3.25,2.4,7.25,6.56l4,5,1.19,4.06v.75c-.21,1.88-1.15,3.96-2.81,6.25-2.04,4.38-3.92,6.56-5.62,6.56l-.69,.25c-3.5,0-8.67-2.1-15.5-6.31-1.08-1.12-1.62-2.29-1.62-3.5v-.5c.71-2.71,2.42-4.06,5.12-4.06h.25c1.25,0,1.88,.77,1.88,2.31-.42,1.5-.81,2.25-1.19,2.25h-1.38l-.94-1v-.5l.44-.5c0,.67,.17,1,.5,1l.69-.75v-.75c-.17-.5-.62-.75-1.38-.75s-1.31,.83-1.69,2.5c0,1.29,1.96,2.62,5.88,4,1.92,1.46,4.33,2.38,7.25,2.75,2.25,0,4.21-1.67,5.88-5l.5-.5v-3.5c-.62-4-1.65-6.77-3.06-8.31-3.33-2.67-5.38-4-6.12-4h-1.38c-.92,0-2.65,1.25-5.19,3.75-1.5,.33-3.6,3.52-6.31,9.56l-2.12,5.5v1.75l3.31,8.31c.75,3.46,2.71,6.38,5.88,8.75,3.42,2.38,5.6,3.56,6.56,3.56l3.5,.25c1.54,0,3.02-1,4.44-3v-2.31l.5-.75-1.88-7.5c0-.38,.69-.62,2.06-.75,1.67,.62,2.77,1.38,3.31,2.25v4c0,3.92-1.33,7.02-4,9.31-2.29,2.25-4,3.67-5.12,4.25h-.5c-4.96-1.5-7.77-2.83-8.44-4-1.04-.33-2.06-1.25-3.06-2.75-2.38-2.88-4-4.56-4.88-5.06l-4.25-7c-.88,0-1.9-1.77-3.06-5.31v-2.25l-.69-1.5,4.25-7.25c.17-1.75,2.1-4.6,5.81-8.56,0-.5,2.27-3.02,6.81-7.56l2.56-2Zm-8.88,5.56h.25l-.75,.75v-.25l.5-.5Z"/>
  <path id="vincentLast" d="M126.45,300.29v.61c-2.89,1.27-6.75,4.52-11.58,9.75-4.06,5.28-6.09,8.23-6.09,8.84-.76,1.07-1.47,3.2-2.13,6.4-1.42,3.2-2.84,8.07-4.27,14.62-.56,.56-1.47,2.49-2.74,5.79v2.13l-2.74,6.7c-.91,8.28-1.73,12.75-2.44,13.41-2.03,5.18-3.05,9.24-3.05,12.19v2.74c-.61,.51-.91,1.42-.91,2.74l-2.13,4.27v1.83l.3,2.13c-.66,0-1.27,1.63-1.83,4.88l-.61,1.52c-.61,.46-.91,.96-.91,1.52l.3,1.83-2.74,10.66h-.61c-1.02-1.62-1.52-2.74-1.52-3.35v-2.13c-.91,0-1.93-4.67-3.05-14.02-.41,0-.81-.91-1.22-2.74-.76,0-1.27-2.03-1.52-6.09-1.63-5.84-3.15-10.31-4.57-13.41l-3.66-9.14c-.81-1.73-1.52-3.96-2.13-6.7h.3l-.3-.3v-.3l.3-1.52c-.51,0-2.13-3.55-4.88-10.66-1.47-2.64-2.79-5.58-3.96-8.84l-4.27-5.79c-1.88-1.42-3.61-2.13-5.18-2.13l-.3,.3-1.52-.3h-.61c-2.44,.41-3.66,1.22-3.66,2.44,0,1.07,.51,1.88,1.52,2.44,1.12,0,1.83-.61,2.13-1.83-.3-.81-.61-1.22-.91-1.22-1.02,0-1.52,.81-1.52,2.44l-.61-.61v-1.83c.2-.61,.81-.91,1.83-.91h.61c1.62,0,2.44,.81,2.44,2.44,0,1.47-1.02,2.39-3.05,2.74h-.61c-2.24-.41-3.35-1.42-3.35-3.05,0-2.44,1.52-4.06,4.57-4.88h3.66c4.01-.91,9.09-3.25,15.23-7.01l4.57-1.52c4.67,.41,8.23,1.02,10.66,1.83v.3l.3-.3h.3c.91,.41,1.42,.81,1.52,1.22l-.3,.3-3.35-.91c-5.08,.56-7.62,3.1-7.62,7.62l-.91,1.83v7.31c1.02,2.74,1.62,5.08,1.83,7.01,1.68,3.66,3.4,10.16,5.18,19.5l5.18,11.88,.91,.61h.61c1.62-2.89,3.55-7.36,5.79-13.41v-3.35c.81-1.12,1.62-4.06,2.44-8.84,1.78-3.6,3.1-10.51,3.96-20.72-1.07-4.88-2.29-7.31-3.66-7.31-2.13,0-4.16,1.02-6.09,3.05h-.3v-.3c0-1.93,3.86-3.86,11.58-5.79,4.47-.91,8.94-3.86,13.41-8.84,3.91-4.52,7.67-7.16,11.27-7.92l6.7-1.83Zm22.7,16.3c4.11,.41,6.17,1.12,6.17,2.13v.99c0,1.27-.46,2.08-1.37,2.44h-1.75l-.69-.69v-.69l.69-.69v.3l-.3,1.07h1.68l1.07-1.37c-.41-1.37-1.45-2.06-3.12-2.06-4.37,.36-9.19,2.31-14.47,5.86-6.5,3.2-9.83,13.46-9.98,30.77l.38,2.06c-.3,1.17-.66,1.75-1.07,1.75l.38,2.44v1.37l-.38,2.44c.35,0,.94,.81,1.75,2.44v.69c0,4.88,.91,11.91,2.74,21.1l-.99,1.07v.69c.66,0,1.68,4.27,3.05,12.8,.91,3.15,3.22,5.69,6.93,7.62l2.36,2.44v.69l-.69,.69c-2.13-.71-5.79-1.29-10.97-1.75-6.15,0-14.4,1.63-24.76,4.88h-1.07l-1.07-1.07,7.54-3.81c3-1.52,5.18-3.93,6.55-7.24v-.76l-.3-2.36c.61,0,1.29-1.73,2.06-5.18,.66-.56,.99-1.37,.99-2.44v-3.81l-.69-1.07v-1.07c1.17-5.03,1.75-8.94,1.75-11.73v-1.37l-1.07-4.88v-4.11l.76-2.13,.3-19.35v-4.49c-.46-7.26-1.5-11.07-3.12-11.43-3.2-1.62-5.71-2.44-7.54-2.44h-1.07c-1.57,.97-2.36,2.36-2.36,4.19,0,.36,.79,.94,2.36,1.75l2.06-.76v.38c-.2,.71-.89,1.07-2.06,1.07-1.47,0-2.59-.81-3.35-2.44v-1.37c0-2.29,1.24-4.04,3.73-5.26l1.68,.38h4.88l13.41-3.43c8.28-3.5,14.6-5.26,18.97-5.26Zm-37.93,13.86h.38l1.07,1.07v.3l-.76,.69-.69-2.06Zm68.86-33.13c2.23,1.27,5.64,4.24,10.21,8.91,6.75,4.57,13.56,8.38,20.41,11.43,4.01,1.63,6.45,2.89,7.31,3.81l-.61,.61h-.99l-3.5-.3c-5.54,.91-8.3,2.62-8.3,5.1-2.54,3.86-3.81,14.62-3.81,32.3v4.11l-.61,2.89c.2,4.52,.61,7.46,1.22,8.84l.69,32.07v1.29l.61,2.51v5.71c0,5.99,1.5,9.9,4.49,11.73l1.6,.61c1.17-.35,2.01-1.19,2.51-2.51-.3-1.47-.74-2.21-1.29-2.21h-.3l-.61,.61v.69l.61,.91h-.61l-.61-.61v-.3c.1-1.27,.41-1.9,.91-1.9h1.29c1.27,.71,1.9,1.65,1.9,2.82-.56,2.94-1.83,4.42-3.81,4.42h-.3c-3.81,0-7.97-1.57-12.49-4.72-2.08-.46-3.12-.89-3.12-1.29,2.33-1.73,3.5-3.3,3.5-4.72-.66-3.71-2.49-9.11-5.48-16.22l-4.42-12.34c0-1.07-.74-3.4-2.21-7.01,0-.81-1.83-4.62-5.48-11.43-2.59-7.77-4.27-11.68-5.03-11.73h-.38c-1.37,0-2.95,6.88-4.72,20.64l-.38,.3v.99l1.6,5.71v4.11l2.59,13.03c1.32,2.49,3.33,4.8,6.02,6.93,.2,.66,2.77,2.03,7.69,4.11v.3l-.69,.69c-3.91,0-10.18-1.8-18.81-5.41l-5.41-.3h-1.22c-1.12,0-5.79,1.9-14.02,5.71h-1.6v-.3c1.93-1.57,3.93-3.71,6.02-6.4,2.44-.41,5.31-4.62,8.61-12.64l2.59-8.61v-3.12l.61-.99v-1.9l.61-5.03v-.99l.3-9.22-.3-9.52v-3.12l-.3-2.21,.61-.69c-1.27-5.79-2.64-10.87-4.11-15.23-2.89-6.3-5.87-9.45-8.91-9.45h-4.72c-3.86,0-5.79,1.04-5.79,3.12,.46,1.27,1.32,1.9,2.59,1.9,.86-.3,1.29-.61,1.29-.91v-1.6l-1.9-.3,.61-.69c1.68,0,2.51,.86,2.51,2.59-.3,1.47-1.04,2.21-2.21,2.21-3-.35-4.49-1.62-4.49-3.81v-.3c.25-2.54,1.45-3.81,3.58-3.81h2.82c3.6,0,8.58-2.64,14.93-7.92,2.18-2.08,4.32-3.58,6.4-4.49,.15-.46,1.75-1.4,4.8-2.82,1.83-1.32,3.73-2.16,5.71-2.51h.61l.69,.61c-5.94,4.57-8.91,8.38-8.91,11.43v.3c0,2.39,1.8,8.41,5.41,18.05,.71,.2,1.24,1.9,1.6,5.1,.61,0,.91,1.37,.91,4.11,1.73,3.05,2.59,5.48,2.59,7.31,3.55,4.37,5.46,8.38,5.71,12.04,.56,.1,2.36,4.11,5.41,12.04h.3c0-.61,.43-1.24,1.29-1.9l1.29-7.92v-3.12l1.6-11.81c0-9.75-.53-18.71-1.6-26.89l-.99-.99v-1.6l.3-.3v-.3c-.61,0-1.02-1.8-1.22-5.41-.81,0-1.45-2.11-1.9-6.32-1.22-3.76-3.99-8.73-8.3-14.93l-1.29-1.29,.3-.3Zm97.2,17.06h1.83c2.84,0,4.57,1.83,5.18,5.48v.3c0,5.18-1.83,9.95-5.48,14.32l.3,.3v.3c-3.4,4.42-6.14,8.68-8.23,12.8-5.28,5.89-8.33,11.27-9.14,16.15v.61c0,4.22,.91,6.75,2.74,7.62h.91l1.22-.61v-1.52l.61-.61,.91,.91v.3c0,2.24-.91,3.35-2.74,3.35h-1.22c-2.18,0-3.5-1.42-3.96-4.27v-3.05c0-4.77,1.62-9.55,4.88-14.32l.91-2.44v-.91c-.71-2.84-3.05-4.27-7.01-4.27h-.61c-5.74,.66-13.36,5.43-22.85,14.32-3.81,4.57-5.74,7.92-5.79,10.05l-.3,.3c-2.44,6.6-3.66,12.29-3.66,17.06v.61l-.61,2.44v.3c.66,5.13,1.98,8.99,3.96,11.58,2.13,4.72,5.28,8.89,9.45,12.49,0,.66,1.62,2.18,4.88,4.57,.2,.46,3.05,2.29,8.53,5.48,0,.46,2.13,1.68,6.4,3.66l4.57,3.28-.3,.3,23.16,7.62c6.04,2.03,14.06,3.55,24.07,4.57,1.42,1.32,2.13,2.54,2.13,3.66v2.13c-.91,3.66-2.74,5.48-5.48,5.48h-.91c-.81-.3-1.22-1.02-1.22-2.13l.3-.3h.61l-.3,.3v.61l.91,.91c2.44-1.07,3.66-2.69,3.66-4.88s-5.18-3.86-15.54-5.18c-13.05-2.84-26.56-7.31-40.52-13.41-4.88-1.98-9.45-4.29-13.71-6.93-7.47-5.18-11.22-8.02-11.27-8.53-.91-1.17-2.03-2.18-3.35-3.05-5.69-9.55-8.53-15.95-8.53-19.2-1.63-4.57-2.44-8.43-2.44-11.58,0-4.82,1.62-11.22,4.88-19.2,1.27-1.68,2.39-3.91,3.35-6.7,2.33-2.79,4.88-5.33,7.62-7.62,8.94-6.7,15.95-10.05,21.02-10.05,1.88-.81,6.04-1.52,12.49-2.13,7.72-2.79,12.59-5.64,14.62-8.53,2.23-3.66,3.35-6.3,3.35-7.92-.87-2.23-1.68-3.35-2.44-3.35h-.61c-.46,0-.87,.71-1.22,2.13h-.61l-.91-.91c.41-1.83,.91-2.74,1.52-2.74Zm54.39,3.81l.3,.91c-5.13,6.25-7.69,11.1-7.69,14.55-.61,.86-1.22,3.73-1.83,8.61l1.22,8.91-.3,.3,.3,.38-.3,.3h-.3c-1.63-3.45-2.44-6.75-2.44-9.9v-3.12l.3-1.22c0-1.57-1.02-3-3.05-4.27-12.49,.41-18.74,1.22-18.74,2.44-1.83,0-2.74,.51-2.74,1.52l-1.52,16.07,.61,1.83-.3,2.51c0,1.63,1.42,2.44,4.27,2.44,6.91,0,12.21-2.46,15.92-7.39l.61-1.22c-.3-.86-.61-1.29-.91-1.29h-.61v.61h-.61c.25-1.01,.56-1.52,.91-1.52h1.22c1.07,.46,1.6,1.5,1.6,3.12s-1.45,4.24-4.34,7.69c-3.66,5.94-5.48,10.66-5.48,14.17v.91l1.22,1.29c1.22-.25,1.83-1.19,1.83-2.82l.61,.61v.3c-.25,1.88-1.17,2.82-2.74,2.82-1.27,0-1.98-.84-2.13-2.51,0-1.93,.41-4.49,1.22-7.69-.61-1.83-1.52-2.74-2.74-2.74h-4.04c-3.86,.41-5.79,1.52-5.79,3.35v1.9c0,7.62,.3,12.64,.91,15.08v3.43c.96,7.82,1.78,11.73,2.44,11.73l-.61,.91c1.93,3.91,4.09,6.27,6.47,7.08,2.49,2.03,4.82,3.48,7.01,4.34,1.12,1.47,3.58,2.89,7.39,4.27,8.84,3.3,14.96,6.09,18.36,8.38h1.22c2.08,0,4.54,.81,7.39,2.44l1.52,.3h3.05c.71,0,1.42,.3,2.13,.91,4.32,0,6.47-1.55,6.47-4.65,.41-.1,.81-1.02,1.22-2.74l-.3-1.22,1.22-.61c1.02,1.22,1.52,2.54,1.52,3.96,0,2.49-1.42,5.36-4.27,8.61l-1.83,1.29h-3.43c-2.18,0-5.87-1.25-11.04-3.73l-12.57-3.96c-.46-.51-4.85-2.36-13.18-5.56-3.5-1.47-7.36-2.72-11.58-3.73,0-1.17-4.19-2.29-12.57-3.35h-.3l-12.57,3.96-1.22,.3-.3-.3v-.3c6.7-7.01,10.05-12.44,10.05-16.3l1.83-5.26-.3-.3v-.3l.3-.3-.3-2.21v-4.95l.3-.3-.3-.3v-.3l-.61-12.95h.3l-.3-.3v-1.83l.3-1.6-.3-1.22,.61-6.78-.61-2.44v-4.95l-.61-4.34,.3-1.83c-1.02-2.29-2.03-5.48-3.05-9.6-.36-.05-.96-.96-1.83-2.74-2.34-1.01-4.27-1.52-5.79-1.52-3.45,.51-5.18,2.26-5.18,5.26,0,.76,1.02,1.37,3.05,1.83,.81-.2,1.22-.81,1.22-1.83v-.99l-.91-1.22-1.52,.91h-.3v-.3l1.22-1.22h.61l1.52,1.52v2.21c-.66,1.22-1.78,1.83-3.35,1.83-1.88,0-2.82-1.75-2.82-5.26,.96-3.71,3.33-5.56,7.08-5.56h11.58c10.41,0,19.19-1.12,26.35-3.35,8.63-4.62,13.25-7.72,13.86-9.29l1.52-.61Zm-22.39,54.31h.3l1.22,1.22v.3l-.91-.61h-.91v1.22l-.61-.61v-.61l.91-.91Zm49.66-75.18c2.23,1.27,5.64,4.24,10.21,8.91,6.75,4.57,13.56,8.38,20.41,11.43,4.01,1.63,6.45,2.89,7.31,3.81l-.61,.61h-.99l-3.5-.3c-5.54,.91-8.3,2.62-8.3,5.1-2.54,3.86-3.81,14.62-3.81,32.3v4.11l-.61,2.89c.2,4.52,.61,7.46,1.22,8.84l.69,32.07v1.29l.61,2.51v5.71c0,5.99,1.5,9.9,4.49,11.73l1.6,.61c1.17-.35,2.01-1.19,2.51-2.51-.3-1.47-.74-2.21-1.29-2.21h-.3l-.61,.61v.69l.61,.91h-.61l-.61-.61v-.3c.1-1.27,.41-1.9,.91-1.9h1.29c1.27,.71,1.9,1.65,1.9,2.82-.56,2.94-1.83,4.42-3.81,4.42h-.3c-3.81,0-7.97-1.57-12.49-4.72-2.08-.46-3.12-.89-3.12-1.29,2.33-1.73,3.5-3.3,3.5-4.72-.66-3.71-2.49-9.11-5.48-16.22l-4.42-12.34c0-1.07-.74-3.4-2.21-7.01,0-.81-1.83-4.62-5.48-11.43-2.59-7.77-4.27-11.68-5.03-11.73h-.38c-1.37,0-2.95,6.88-4.72,20.64l-.38,.3v.99l1.6,5.71v4.11l2.59,13.03c1.32,2.49,3.33,4.8,6.02,6.93,.2,.66,2.77,2.03,7.69,4.11v.3l-.69,.69c-3.91,0-10.18-1.8-18.81-5.41l-5.41-.3h-1.22c-1.12,0-5.79,1.9-14.02,5.71h-1.6v-.3c1.93-1.57,3.93-3.71,6.02-6.4,2.44-.41,5.31-4.62,8.61-12.64l2.59-8.61v-3.12l.61-.99v-1.9l.61-5.03v-.99l.3-9.22-.3-9.52v-3.12l-.3-2.21,.61-.69c-1.27-5.79-2.64-10.87-4.11-15.23-2.89-6.3-5.87-9.45-8.91-9.45h-4.72c-3.86,0-5.79,1.04-5.79,3.12,.46,1.27,1.32,1.9,2.59,1.9,.86-.3,1.29-.61,1.29-.91v-1.6l-1.9-.3,.61-.69c1.68,0,2.51,.86,2.51,2.59-.3,1.47-1.04,2.21-2.21,2.21-3-.35-4.49-1.62-4.49-3.81v-.3c.25-2.54,1.45-3.81,3.58-3.81h2.82c3.61,0,8.58-2.64,14.93-7.92,2.18-2.08,4.32-3.58,6.4-4.49,.15-.46,1.75-1.4,4.8-2.82,1.83-1.32,3.73-2.16,5.71-2.51h.61l.69,.61c-5.94,4.57-8.91,8.38-8.91,11.43v.3c0,2.39,1.8,8.41,5.41,18.05,.71,.2,1.24,1.9,1.6,5.1,.61,0,.91,1.37,.91,4.11,1.73,3.05,2.59,5.48,2.59,7.31,3.55,4.37,5.46,8.38,5.71,12.04,.56,.1,2.36,4.11,5.41,12.04h.3c0-.61,.43-1.24,1.29-1.9l1.29-7.92v-3.12l1.6-11.81c0-9.75-.53-18.71-1.6-26.89l-.99-.99v-1.6l.3-.3v-.3c-.61,0-1.02-1.8-1.22-5.41-.81,0-1.45-2.11-1.9-6.32-1.22-3.76-3.99-8.73-8.3-14.93l-1.29-1.29,.3-.3Zm118.98,4.88h.91c2.39,0,4.04,2.16,4.95,6.47v1.9c0,2.64-2.39,5.97-7.16,9.98-3.66,4.11-5.92,7.52-6.78,10.21l-.3,4.04c0,.86,.51,1.6,1.52,2.21l.91-.3v.3l-.61,.61h-.91c-.81,0-1.52-1.55-2.13-4.65v-3.73c0-1.12-.43-1.85-1.29-2.21h-1.83l-11.81,2.21h-1.83l-.91-.61h-.61c-.61,.56-2.89,1.17-6.86,1.83l-.91,1.6c0,1.52-.3,2.34-.91,2.44l.3,.99c-1.47,7.52-2.51,15.59-3.12,24.22-.41,0-.61,.3-.61,.91l-.3,9.06,.61,15.23h-.3c1.88,10.72,4.14,17.57,6.78,20.57,0,.76,1.34,2.72,4.04,5.87,1.83,2.49,4.21,3.73,7.16,3.73v.61l-2.82,.69h-3.05c-9.7-2.08-15.49-3.12-17.37-3.12-5.99,.81-10.23,1.63-12.72,2.44h-.61l-.61-.61c7.82-5.33,11.73-10.51,11.73-15.54l.3-6.25-.3-11.5-.61-1.83c.81-2.69,1.22-7.16,1.22-13.41l-.3-4.95,.69-.61-.38-9.67,.38-.3v-.3l-.99-6.25,.61-.61v-.3l-.61-.61,.3-1.29c-.61-7.46-1.63-11.2-3.05-11.2l-1.9-.3h-4.34c-7.46,0-12.92,1.14-16.38,3.43-4.88,2.08-8.18,5.21-9.9,9.37l-.69,2.44c.3,1.07,.63,1.6,.99,1.6h1.22l.61-.61v-.99l-.3-.3v-.3l.3-.3h.3l.91,.91v1.9c-.2,.61-.81,.91-1.83,.91h-.91c-1.68,0-2.72-1.14-3.12-3.43v-1.22c0-1.42,2.79-5.79,8.38-13.1,3.3-5.94,4.95-9.88,4.95-11.81l.61-5.56-1.83-4.72h.3c1.62,1.52,2.44,3.3,2.44,5.33v1.22l-.91,8.07c.71,2.69,1.95,4.04,3.73,4.04l17.06-.3,2.44-.61h4.34c5.99,0,17.26-1.75,33.82-5.26l4.95-2.21c5.13-4.52,7.69-7.01,7.69-7.46l.61-3.12c-.3-3.3-1.42-4.95-3.35-4.95-1.57,0-2.51,.41-2.82,1.22v.61l.61,.99h-.61l-.61-.69v-1.52c.71-1.02,1.85-1.52,3.43-1.52Z" style="fill: #740aef;"/>
  <path id="price" d="M481.43,438.71c2.03,0,6.72,1.48,14.08,4.43,5.91,1.1,8.87,2.93,8.87,5.48,6.66,11.01,10,17.47,10,19.38v1.39c0,4.46-.87,7.5-2.61,9.13-9.85,11.01-15.76,16.63-17.73,16.86l-2.26-.35-14.78,.35h-1.13c-1.97,0-2.96,.84-2.96,2.52h-.35c.46,4.12,.7,9.47,.7,16.08l.78,3.3v2.17l-1.48,2.17,.35,1.13-.7,2.17,.35,4.43-.35,.35v.35c.4,.99,.75,4.52,1.04,10.6h-.35c0,6.84,4.08,11.71,12.25,14.6,1.22,.06,1.83,.43,1.83,1.13-1.51,.93-2.61,1.39-3.3,1.39h-.43c-4.93,0-11.71-3.65-20.34-10.95l-8.52-3.3-2.17,.78-.78-.78v-1.39c.06-.46,2.52-1.83,7.39-4.08,1.27-.87,2.64-3.42,4.08-7.65l-.35-5.48,.35-3.3c-.58-2.14-1.07-3.22-1.48-3.22l.35-.43v-1.83l.43-3.65-.43-1.04,1.13-15.73c-.46-1.97-1.94-2.96-4.43-2.96h-2.96c-1.22,.46-1.83,1.22-1.83,2.26h-.43l-.7-.78v-.35c0-1.51,1.48-3.1,4.43-4.78h1.48l3.74,.43,.7-1.13v-4c0-1.22-.38-2.43-1.13-3.65l.78-2.26-.78-3.22v-3.3l.78-5.48-.78-3.65,.78-10.6c0-5.85-.61-8.78-1.83-8.78l-4.43-.35c-3.71,.17-5.56,.52-5.56,1.04l-.43-.35c-9.56,2.72-16.83,6.38-21.82,10.95-2.72,3.94-4.08,6.75-4.08,8.43,.7,8.05,1.68,12.08,2.96,12.08,0,1.56,3.1,3.13,9.3,4.69h2.17c4.63,0,8.84-3.53,12.6-10.6l.78-4v-.7c-1.45-7.3-5.04-10.95-10.78-10.95h-.7c-3.94,0-7.16,3.54-9.65,10.6v2.17c1.16,5.33,3.13,8,5.91,8,0,.52,.61,.78,1.83,.78h.43l.35-.43,.35,.43h.35c4-1.74,6-3.82,6-6.26,0-4.52-1.51-7.91-4.52-10.17h-1.48c-2.67,0-4.64,2.17-5.91,6.52,1.51,2.43,2.98,3.65,4.43,3.65,1.74-.7,2.61-1.79,2.61-3.3v-.7c-.99-1.45-2.2-2.17-3.65-2.17,0,.46-.38,.7-1.13,.7l.35,2.61c-.64,0-1.01-.49-1.13-1.48,0-1.74,.87-2.61,2.61-2.61h2.61c1.97,1.04,2.96,2.41,2.96,4.08,0,2.09-1.59,3.77-4.78,5.04-4.46-.81-6.69-2.64-6.69-5.48v-.7c1.33-5.62,3.68-8.43,7.04-8.43,4.92,0,7.39,2.2,7.39,6.61,.52,0,.9,1.1,1.13,3.3v.35c-.64,6.84-2.75,10.26-6.34,10.26l-1.04,.35c-5.33,0-8.92-1.94-10.78-5.82l-1.48-5.13v-2.17c0-5.79,3.94-10.08,11.82-12.86h1.13c4.92,0,9.24,2.32,12.95,6.95l1.48,4.08v1.83c0,8.52-4.93,14.23-14.78,17.12l-1.83,.35c-8.29,0-13.24-2.06-14.86-6.17-2.2-2.26-3.3-4.95-3.3-8.08,0-4.92,1.36-8.92,4.08-11.99,1.62-3.94,6.43-7.85,14.43-11.73,6.66-3.42,20.6-5.13,41.81-5.13Zm-9.21,4.08v.7l-.43,2.17c.98,1.62,1.48,3.45,1.48,5.48v4l-.7,5.13,1.13,4.78-.78,2.96v.35l.35,2.52c-.46,3.19-.7,7.82-.7,13.91v1.83l-.35,1.48c0,2.67,4.81,4,14.43,4,3.71-1.56,7.39-4.37,11.04-8.43,.81-1.56,2.06-2.66,3.74-3.3,0-3.65,.38-7.53,1.13-11.65,0-6.49-1.62-11.36-4.87-14.6-4.64-7.07-7.59-10.6-8.87-10.6l-14.78-.7h-1.83Zm95.43-1.48c9.56,.99,16.19,2.58,19.9,4.78,6.31,3.3,10.78,8.46,13.38,15.47,2.78,3.59,4.17,8.11,4.17,13.56,0,9.33-5.07,15.94-15.21,19.82l-6.17,4c0,.64,1.01,1.3,3.04,2,3.59,4.81,6.55,11.04,8.87,18.69l-.43,1.22c1.33,0,2.35,7.56,3.04,22.68,2.49,11.65,4.55,17.47,6.17,17.47,4.98,9.04,11.21,14.86,18.69,17.47,20.74,11.36,35.52,17.04,44.33,17.04,9.21-1.62,13.82-4.26,13.82-7.91,.52-.17,1.01-2.03,1.48-5.56-.93-5.56-2.32-9.39-4.17-11.47-2.43-2.14-4.35-3.22-5.74-3.22h-2.26c-4.29,0-7.1,4.08-8.43,12.25v.87c1.16,3.77,2.81,6.29,4.96,7.56h1.56c3.01,0,5.04-1.22,6.08-3.65l1.91-5.91c-.29-4-1.45-6-3.48-6-4.06,0-6.08,2.52-6.08,7.56,.7,1.68,1.33,2.61,1.91,2.78,2.03,0,3.3-1.45,3.82-4.35-.52,0-.78-.41-.78-1.22h-2.26c0,1.56-.26,2.35-.78,2.35l-.35-.35v-1.56c.12-1.62,.49-2.43,1.13-2.43h3.04l1.91,2.78v2c0,1.68-1.02,3.42-3.04,5.21h-.43c-4.06,0-6.08-2.81-6.08-8.43,0-3.3,2.29-5.65,6.87-7.04h.44c4.58,0,6.87,2.23,6.87,6.69v1.56c0,4.29-1.8,7.74-5.39,10.34l-3.82,1.56c-7.65-1.16-11.47-4.46-11.47-9.91s3.07-10.26,9.21-13.91l4.17-.78c7.94,2.14,11.91,4.26,11.91,6.34,.98,0,1.74,3.04,2.26,9.13,0,4.17-2.03,8.69-6.08,13.56-3.07,1.74-6.66,3.19-10.78,4.35-11.01,0-24.37-3.56-40.07-10.69l-12.69-6c-1.91-.29-4.84-2.41-8.78-6.34-7.19-4.35-11.76-9.65-13.73-15.91-1.51-2.66-2.9-7.56-4.17-14.69v-14.69c-1.1-6.95-3.01-12.14-5.74-15.56,0-2.32-2.96-6.29-8.87-11.91-.87-1.85-1.51-2.78-1.91-2.78l-7.21,.78h-1.91l-1.13,15.47,.7,2.43v2.35l.43,4-.43,2.43,.43,4.69-.78,2.43v3.22c0,5.1,3.82,10,11.47,14.69v1.22l-.78,.78h-.35c-4.11,0-11.76-3.19-22.95-9.56-3.82-.64-5.74-1.3-5.74-2v-.78c0-.58,1.91-1.65,5.74-3.22,2.26-2.84,3.39-4.95,3.39-6.34l-.35-.43,.35-1.91-.35-5.21,.35-2.35-.35-6c.75-2.14,1.13-6.78,1.13-13.91v-6l-.78-.78,.43-2-1.13-8.69c.46-3.59,.84-11.41,1.13-23.47l-2.35-11.21v-1.56l-.7-.78h-.43c-10.6,5.04-17.99,9.68-22.16,13.91-2.61,0-5.79,2.78-9.56,8.34l.43,4v.43l-.43,1.91c0,7.3,3.33,13.27,10,17.9l4.17,1.22h6.52c2.32,0,4.72-2.52,7.21-7.56l1.13-5.13c0-6.84-3.42-11.36-10.26-13.56-6.9,.46-10.34,1.91-10.34,4.35-1.28,1.28-1.91,2.87-1.91,4.78v1.22c0,2.84,2.29,6.29,6.87,10.34,1.27,.81,2.93,1.22,4.95,1.22h1.22c3.19,0,5.21-2.92,6.08-8.78v-.78c0-2.55-1.91-4.92-5.74-7.13l-2.26-.43h-1.91c-3.07,0-4.61,1.45-4.61,4.35,0,5.85,1.53,8.78,4.61,8.78h1.48c2.32,0,3.48-1.07,3.48-3.22v-1.56c-.93-3.19-2.35-4.78-4.26-4.78h-.7c-.87,.35-1.65,1.42-2.35,3.22,.35,1.86,.87,2.78,1.56,2.78h.78c1.27-.75,1.91-1.56,1.91-2.43-.41-1.56-1.19-2.35-2.35-2.35l.78-.78h1.13c.75,0,1.39,1.3,1.91,3.91v.87l-2.26,2.35h-.43c-1.68,0-3.07-1.07-4.17-3.22v-2.35c1.68-3.01,2.84-4.61,3.48-4.78,3.65,0,6.05,2.78,7.21,8.34v.78c-.81,3.71-1.83,5.56-3.04,5.56-6.61-.4-9.91-1.97-9.91-4.69-.7,0-1.22-1.07-1.56-3.22l.35-2.43-.35-3.91v-.78c1.39-2.14,3.3-3.22,5.74-3.22h1.56c6.37,1.56,9.56,3.27,9.56,5.13,1.51,1.68,2.26,3.16,2.26,4.43v2.78c0,2.96-1.91,6-5.74,9.13-1.28,.81-2.93,1.22-4.95,1.22-4.52-1.22-9.24-5.33-14.17-12.34l-.35-2c3.77-7.94,6.81-11.91,9.13-11.91,.12-.52,.9-.93,2.35-1.22,7.59,0,13.56,3.3,17.9,9.91-.81,14.6-3.59,21.9-8.34,21.9h-5.39c-9.21,0-14.83-3.3-16.86-9.91-2.78-3.01-4.17-7.13-4.17-12.34,0-7.36,1.16-11.73,3.48-13.12,3.53-3.07,7.1-5.74,10.69-8,1.85-1.68,4.9-3.39,9.13-5.13l3.13-2.43,.35,.43c6.95-4,12.8-6,17.56-6l6.87-1.13Zm-32.85,38.16v3.13l-.78-.78v-1.56l.78-.78Zm14.17,17.12h.78l.7,.78-.35,.35-1.13-.35v-.78Zm15.64-45.37l-.78,9.56,.78,2.35-1.13,4.78,.35,2v3.22l.78,.78-.35,5.91v4l-.43,.43,.43,.35v.43l-.43,2.35,.43,3.22-.43,3.56,1.56,2.43,.35-.43h.43l12.95-.43c6.14-4.29,9.21-7.44,9.21-9.47,.93-1.33,1.68-3.33,2.26-6v-5.56c0-4.29-.64-9.33-1.91-15.12-4.29-4.69-8.87-8.66-13.73-11.91-6.9,0-10.34,.78-10.34,2.35v1.22Zm65.79,112.99l1.13,1.13h-.35l-.78-.78v-.35Zm6.95-125.07h1.74l12.17,1.13h7.21l8-1.13h13.04l.87,.78c-.17,.87-4.26,2.46-12.25,4.78-3.36,1.97-5.19,3.42-5.48,4.35v5.91c0,.99-.55,2.17-1.65,3.56v.43l-1.3,11.04c1.97,7.3,2.96,13.12,2.96,17.47v3.91l-1.22,6.78v7.91l.44,5.56-.44,5.13v1.56l.78,5.13c-.93,1.68-2.03,5.79-3.3,12.34,.81,0,1.22,1.45,1.22,4.35,2.66,5.62,6.75,9.71,12.25,12.25v.43c0,.75-1.28,1.28-3.82,1.56-1.68,0-7.59-2.52-17.73-7.56l-9.21-2.35v-.78c0-1.79,1.83-2.98,5.48-3.56,1.39-1.04,2.09-2.23,2.09-3.56l-.87-2.35,2.96-17.9-3.3-15.82c1.1,0,1.94-5.94,2.52-17.82l-2.17-8.34v-.78l1.3-7.47-1.3-4,1.74-8.34c0-1.74-.7-3.71-2.09-5.91v-2l-15.64-3.13c-11.24,4.81-16.86,7.71-16.86,8.69-2.78,2.96-4.17,6.78-4.17,11.47v1.22c0,2.78,4.06,7.27,12.17,13.47,1.33,.81,3.45,1.22,6.34,1.22h2.52c6.49-2.66,9.73-5.97,9.73-9.91v-3.22c-2.61-7.65-6.84-11.47-12.69-11.47h-1.22c-4.69,0-7.39,3.04-8.08,9.13v1.13c2.43,4.46,4.69,7.24,6.78,8.34h2.52c4.81,0,7.21-2.23,7.21-6.69,0-2.96-2.26-4.81-6.78-5.56-3.36,.46-5.04,1.91-5.04,4.35,.98,2.9,2.38,4.35,4.17,4.35,2.26-1.68,3.39-3.27,3.39-4.78-.41-1.04-.84-1.56-1.3-1.56h-1.22l-1.65,1.56v.43l1.22,1.22c.58,0,.87-.4,.87-1.22h.78v1.22l-.78,.78h-1.74l-1.22-1.22v-1.56c0-.46,.98-1.25,2.96-2.35,1.68,0,2.93,.9,3.74,2.69,0,3.07-1.94,5.33-5.82,6.78-2.61,0-4.32-1.85-5.13-5.56,0-3.53,1.83-5.91,5.48-7.13l1.74-.35c5.62,1.68,8.43,4.32,8.43,7.91v1.13c-.7,5.04-3.25,7.56-7.65,7.56l-2.09,.35c-5.56,0-9.36-4.2-11.39-12.6,0-3.82,2.55-7.27,7.65-10.34l6.26-.35c3.94,1.16,6.75,2.87,8.43,5.13,2.84,3.19,4.26,5.56,4.26,7.13v1.56c-1.28,9.79-4.38,14.69-9.3,14.69,0,.41-2.38,.78-7.13,1.13-3.71-.35-7.94-2.32-12.69-5.91-3.25-3.71-5.91-8.6-8-14.69,2.96-10.02,6.05-15.04,9.3-15.04l21.03-6.69Zm90.82,10.95c1.97,0,5.45,2.81,10.43,8.43,4.23,2.55,6.69,5.01,7.39,7.39l-2.35,6.08,.26,.26v.35c-1.62,4.81-3.39,8.75-5.3,11.82h-1.04c-9.91-2.49-15.5-4.4-16.77-5.74v-2c0-1.62,1.1-3.77,3.3-6.43,1.33-4.05,2.9-6.08,4.69-6.08h1.74c4.69,1.33,7.04,2.46,7.04,3.39-1.04,7.42-2.38,11.12-4,11.12-4.29,0-6.43-.67-6.43-2,1.39-5.39,2.52-8.08,3.39-8.08,1.51,.58,2.52,1.25,3.04,2-.99,3.13-1.8,4.69-2.43,4.69l-1.3-1.3,1.04-1.39v.7h.26l.7-2-.96-.35c-1.16,1.1-1.74,2.78-1.74,5.04l3.39,.35c.75-1.22,1.42-3.01,2-5.39v-1.04c0-.58-1.8-1.68-5.39-3.3-2.32,2.55-3.88,6.34-4.69,11.39,4.05,1.8,7.88,3.04,11.47,3.74h.26c.81-.7,3.07-5.85,6.78-15.47-13.1-7.59-20.16-11.53-21.21-11.82h-.35c-3.19,0-9.79,1.91-19.82,5.74-.35,.58-2.26,1.48-5.74,2.69l-11.12,7.39-3.3,10.08c-.7,2.03-1.59,7.33-2.69,15.91l.7,1.3-1.39,7.13c0,3.77,3.04,8.92,9.13,15.47,4,6.14,7.47,9.85,10.43,11.12l18.43,14.17c12.92,8.69,23.81,14.98,32.68,18.86l19.47,11.04c2.49,0,3.74,.9,3.74,2.69,.58,.7,1.13,3.85,1.65,9.47-.7,0-1.04,2.23-1.04,6.69-.93,3.36-2.61,5.04-5.04,5.04l-.96,.35c-1.68,0-2.58-.35-2.69-1.04l.35-.26,.35,.26h.26c2.72-.46,4.08-1.25,4.08-2.35l-1.74-8.08c-1.91-1.8-3.59-4.03-5.04-6.69l-18.17-12.78c-1.04-.35-2.61-1.36-4.69-3.04l-27.55-15.12c-10.66-6.66-19.41-13.07-26.25-19.21-7.07-8.23-12.11-14.86-15.12-19.9l-2-2.69v-.35l.7-1.3-1.04-5.04v-5.74c8.11-20.57,13.82-31.69,17.12-33.38,2.32-2.14,6.37-3.71,12.17-4.69,14.31-5.39,24.62-8.08,30.94-8.08Zm102.65-15.73c2.55,2.38,4.61,5.1,6.17,8.17v3.91c-1.1,8.52-3.16,15.82-6.17,21.9-.46,0-1.16,1.01-2.09,3.04-3.3,1.97-5.36,2.96-6.17,2.96h-2.52c-3.54,0-6.29-2.14-8.26-6.43v-3.91c.35-2.84,1.71-4.26,4.08-4.26v.43c-1.33,1.62-2,3.04-2,4.26v1.3c0,2.38,1.79,3.97,5.39,4.78h1.22c6.08-.87,9.13-4.46,9.13-10.78l.35-3.48c-1.22-4.87-3.56-7.3-7.04-7.3-1.45-.58-6-1.01-13.65-1.3l-6.61,1.74-.43-.43c-3.36,0-6.66,1.74-9.91,5.21l.43,1.65-.87,8.6,.43,3.48-.78,4.69,.78,4.35c-1.1,2.09-1.65,6.23-1.65,12.43,.7,0,4.55-2.29,11.56-6.87,6.08-1.97,9.53-3.39,10.34-4.26h.43c1.1,0,1.65,2,1.65,6l-.78,9.04h-1.3l-2.87-3.48h-1.22c-4.46,0-10,2.43-16.6,7.3l-.35,6.08,.78,10.69-.78,8.6,.78,7.39-1.22,3.82c1.91,5.21,3.71,8.23,5.39,9.04,4.11,3.65,10.17,7.1,18.17,10.34,11.88,6.14,18.63,10.29,20.25,12.43,7.59,5.74,12.28,8.75,14.08,9.04,4.17,4.05,9.7,8.05,16.6,11.99,3.01,3.19,8.37,4.78,16.08,4.78l7.04-1.3,.43,.43v2.52c-5.39,6.37-10.63,10.54-15.73,12.52l-9.13,3.91-.35-.43v-.43l4.95-6.08v-.43c0-2.09-2.9-4.23-8.69-6.43,0-.46-1.65-1.74-4.95-3.82-10.66-9.62-18.66-16.49-23.99-20.6-13.1-8.75-25.24-15.79-36.42-21.12-8.58-3.42-14.11-5.13-16.6-5.13l-2.09,.43h-11.56v-.87c9.1-3.24,13.65-7.56,13.65-12.95l-.35-9.47,.35-4.69c0-1.45-.26-2.17-.78-2.17l1.22-7.3-.43-.43,1.3-6c-.87,0-1.86-7.44-2.96-22.34l1.3-6.52-.43-1.22,.43-1.3-.43-5.21,.78-4.26c-1.56-6.26-2.67-9.56-3.3-9.91h-2.43c-13.79,1.97-20.69,4.26-20.69,6.87-5.68,3.94-9.42,9.53-11.21,16.77,4.81,10.6,9.76,15.91,14.86,15.91,9.39-1.33,14.08-4.75,14.08-10.26v-2.61c-.87-8.92-2.38-13.38-4.52-13.38l-7.47-1.22c-4.23,0-6.98,3.56-8.26,10.69,.98,3.36,3.48,6.81,7.47,10.34h2.87c2.2-1.85,3.3-4,3.3-6.43v-3.48c0-3.19-1.65-5.48-4.95-6.87-3.3,.87-4.95,2.58-4.95,5.13,.81,1.97,2.17,3.71,4.08,5.21,1.97,0,2.96-1.01,2.96-3.04v-1.74l-1.65-2.09h-1.65l-.43,2.09v.87l.78,.87h.43l.87-.87v-.43l-.43-.43v-.43h.43l.78,.87v1.3l-1.22,1.3h-1.65c-1.1-.46-1.65-1.48-1.65-3.04,.35-2.14,.9-3.27,1.65-3.39h3.3c1.22,0,1.91,2.43,2.09,7.3l-3.3,3.82h-.87c-1.51-1.1-3.97-4.08-7.39-8.95,3.48-4.63,5.68-6.95,6.61-6.95,6.03,1.39,9.04,3.97,9.04,7.74l-.35,1.74,.35,6.87c-1.28,.99-2.93,3.01-4.95,6.08l-2.87,.43c0-.58-.84-1.01-2.52-1.3l-9.47-10.78c1.22-5.91,3.71-10.63,7.47-14.17h1.65c10.2,0,15.3,1.42,15.3,4.26,1.39,2.96,2.09,8.4,2.09,16.34,0,3.13-1.39,5.3-4.17,6.52-3.59,3.01-7.74,4.72-12.43,5.13-4.06-.58-7.77-2.72-11.12-6.43-4.98-6.31-7.47-10.49-7.47-12.52v-.87c2.9-9.5,6.49-15.93,10.78-19.29,1.33-1.85,5.48-3.74,12.43-5.65,8.23-1.39,13.73-2.09,16.51-2.09l14.51,.43,8.26-1.3,.43,.43,2-.43h23.64c2.2,0,3.3-1.01,3.3-3.04l.43-2.61-.87-2.52v-1.74c0-.64,.7-1.07,2.09-1.3Z" style="fill: #740aef;"/>
</svg>