<?xml version="1.0" encoding="UTF-8"?>
<svg id="Layer_1" data-name="Layer 1" xmlns="http://www.w3.org/2000/svg" viewBox="0 0 892.4 620.5">
  <g id="lastOne">
    <path id="but" d="M302.91,163.02h.96c6.48,7.04,12.88,10.56,19.2,10.56h19.68c18.48,2.24,29.99,4.16,34.55,5.76,4.32,2.32,8.64,6.96,12.96,13.92,0,6.72-2.72,12.8-8.16,18.24-5.12,6.4-8.48,9.6-10.08,9.6-7.28,4.96-14.8,7.68-22.55,8.16v.48l7.2,2.4c9.04,2.4,18.96,8,29.75,16.8,0,.96,3.2,4.48,9.6,10.56,1.6,3.92,2.4,7.92,2.4,12v10.08c0,2.08-1.6,5.76-4.8,11.04-5.6,9.92-16.64,17.6-33.11,23.03l-12-.96-5.76,1.92-18.72,.48-5.28-.48-2.4,1.44h-.48l-.48-.48h-.48c-.4,1.28-1.84,1.92-4.32,1.92l-1.44-1.44v-.48c0-.48,2.56-2.56,7.68-6.24,1.28,0,3.04-15.04,5.28-45.11v-12l.96-1.44v-1.92c-1.28-6.32-2.08-12.72-2.4-19.2l-.48-1.92c-.64,0-1.76-1.28-3.36-3.84-.64-.64-2.08-.96-4.32-.96l-1.44-1.92v-.48c.4-1.28,1.84-1.92,4.32-1.92h4.32v-.48l-.48-5.28,.96-1.92c-.96-5.76-1.76-8.64-2.4-8.64l.48-2.4c-1.6-5.2-2.88-11.12-3.84-17.76-1.6-6.24-5.44-11.36-11.52-15.36l-.96-3.36v-1.44l.96-.96Zm24.95,25.91c.96,4.16,1.44,9.92,1.44,17.28l-.96,12c.56,0,1.2,1.44,1.92,4.32,1.36,1.28,2.96,1.92,4.8,1.92h11.52c4.8-2.72,9.92-4.96,15.36-6.72,6.4-4,9.6-8.64,9.6-13.92l1.44-9.12v-2.88c-1.84-5.44-4.24-8.16-7.2-8.16-6.56-3.12-13.92-5.2-22.07-6.24h-7.68c-3.84,1.2-5.76,2.48-5.76,3.84l-2.4,7.68Zm1.44,44.63v.96l.48,3.84-.48,2.4c.64,9.28,1.28,13.92,1.92,13.92l-.96,30.23c.48,0,.96,.64,1.44,1.92l-.48,5.76c.88,2.96,2,5.36,3.36,7.2l-.48,7.2h.96l5.76-.48,.96,.96h9.6c3.52-1.28,5.92-2.56,7.2-3.84h.48l.48,.48c9.2-3.92,16.71-9.04,22.55-15.36,1.6-2.56,2.4-4.64,2.4-6.24v-2.4l-1.44-3.84,.48-.48v-.48l-6.72-13.92c-.64-5.04-4.64-10.32-12-15.84,0-1.12-1.92-2.24-5.76-3.36-3.36-3.52-10.08-6.4-20.16-8.64l-6.72-.96h-1.92l-.96,.96Zm152.84-28.19h1.32c2.8,2.16,4.2,4.2,4.2,6.12v.48l-.48,.36v.48l.84,.84v.48c-5.04,2.32-8.84,5.52-11.4,9.6-3.36,6.08-5.88,12.6-7.56,19.56l.48,3.12c-1.44,3.28-2.72,8.92-3.84,16.92v.96l.36,3.84c-1.12,2.96-1.68,5.44-1.68,7.44,1.44,4.24,2.56,9.32,3.36,15.24,3.84,9.36,7.24,15.92,10.2,19.68l10.56,7.8v.48l-2.52,3.84h-1.32c-3.52,0-9.72-1.72-18.6-5.16l-2.88-.96h-.84c-2.32,0-5.72,.76-10.2,2.28v-1.32c4-4.96,6-9.48,6-13.56l.36-.36h.48c0-8.72-1.84-15.12-5.52-19.2h-1.32c0,2.64-1.96,5.96-5.88,9.96,0,2.24-1.84,4.88-5.52,7.92-3.36,8.64-7.84,14.28-13.44,16.92l-.48,.48-2.52-1.8-1.68,.48c-1.2-.24-2.6-2-4.2-5.28,0-7.04-.72-12.56-2.16-16.56l.84-1.68-1.2-11.76v-2.16l-.48-1.8c.64,0,1.08-4.92,1.32-14.76-1.28-15.43-2.4-23.15-3.36-23.15l-.84-1.68c-4.32-2.08-7.56-3.12-9.72-3.12-2,.4-3,1-3,1.8v.36c.16,1.76,.6,2.64,1.32,2.64h1.68l1.2-1.32v-.84l-.84-1.32v-.48h.48l1.68,1.8v.84c0,1.6-.72,2.76-2.16,3.48h-.84c-2.8,0-4.2-1.16-4.2-3.48v-.84c0-2.64,1.84-4.24,5.52-4.8h4.2l2.16-.48,.36,.48c0-.56,1.28-1.12,3.84-1.68,.64-1.2,3.44-2.8,8.4-4.8,3.6-3.12,7.56-5.88,11.88-8.28l.36,.36v1.8c0,1.28-1.56,4.16-4.68,8.64-2.8,11.52-4.88,23.32-6.24,35.39,.8,8.08,1.64,13.16,2.52,15.24v8.28l-.48,2.16,5.88,4.32c1.2,0,4.16-2.04,8.88-6.12,2.72-2.72,6.68-11.72,11.88-26.99,3.12-4.56,4.68-11.8,4.68-21.71v-3.6c-1.6-6.08-4.16-9.12-7.68-9.12-1.68,0-2.92-.72-3.72-2.16v-1.68c0-.8,2.52-1.68,7.56-2.64,.4-.8,4.76-2.84,13.08-6.12,0-.56,1-1,3-1.32,0-.88,.56-1.32,1.68-1.32,0-1.2,1.68-2.2,5.04-3l5.88-4.44Zm-34.55,113.37h2.04v.36l-1.2,1.32-.84-.84v-.84Zm43.79-4.44h.48l.84,.96v.84h-1.32v-1.8Zm37.43-111.33c3.04,.88,4.56,1.76,4.56,2.64v.72l-9.84,8.76c-.48,.64-.96,2.32-1.44,5.04-2,1.28-3,3.44-3,6.48l1.08,9.48h6.72c4.24,0,9.64-3.04,16.2-9.12l.72,.72c-.48,2.8-2.84,6.76-7.08,11.88-1.76,3.52-3.4,6.04-4.92,7.56h-.36l-.72-.72,.36-1.92-.36-.36h-1.92c-3.84,0-7.2,.64-10.08,1.92l.72,2.28v4.56c-.56,14.48-1.2,21.71-1.92,21.71v14.04l1.92,6.84v4.56c0,1.52,.48,3.04,1.44,4.56v1.2l-.36,1.92c.72,0,2,2.64,3.84,7.92l15.36,16.8,10.44,8.04c.72,0,1.48,.36,2.28,1.08l1.08-.36,1.92,.36h2.28c10.48-.8,15.72-3.32,15.72-7.56l.36-1.92v-4.56c0-4.96-3.24-7.76-9.72-8.4h-3.36c-3.36,0-5.24,3.68-5.64,11.04v.36c3.92,4.64,7.04,7.08,9.36,7.32,3.28-.64,4.92-2.32,4.92-5.04v-.72c-1.12-5.12-3.12-7.68-6-7.68-2.4,1.04-3.92,2.2-4.56,3.48v1.2c0,1.28,1,2.64,3,4.08,2.24-.48,3.36-1.36,3.36-2.64-.64-1.6-1.24-2.48-1.8-2.64h-1.2l-1.8,1.56h-.36v-.84c1.52-2,3-3,4.44-3,2.24,2.72,3.36,4.76,3.36,6.12v.36c-1.28,2.24-2.16,3.36-2.64,3.36h-.72c-1.28,0-3.92-1.64-7.92-4.92,.64-5.04,2.16-7.56,4.56-7.56l3-.36h1.92c2.24,0,4.24,3.92,6,11.76-3.12,4.08-5.64,6.12-7.56,6.12-7.76-4.32-11.64-7.64-11.64-9.96v-3c.72-6.08,1.48-9.28,2.28-9.6h9.36c7.04,0,10.56,1.68,10.56,5.04l2.64,10.68,.36,3.72c-8.96,6.88-16.24,11.08-21.83,12.6-1.36,.96-3.24,1.44-5.64,1.44h-.36c-2.64-2.48-8-6.12-16.08-10.92-3.28-2.08-9.28-8.04-18-17.88-2.48-1.2-4.24-3.24-5.28-6.12v-6.84c0-3.68-.52-9.04-1.56-16.08l1.92-19.79-.72-6.12v-3.72l.72-1.2v-2.64c0-2.96-.36-5.64-1.08-8.04,.88,0,1.6-1.88,2.16-5.64h-.36c-.48,0-.72-.52-.72-1.56-4.56,0-9.92,1.64-16.08,4.92-1.76,2.32-2.64,4-2.64,5.04v.72c.4,1.04,1.28,1.56,2.64,1.56,1.44-.4,2.16-1.32,2.16-2.76h.84v.84c0,1.92-1.24,3.04-3.72,3.36h-.36c-2.32-.32-3.48-1.44-3.48-3.36v-1.2c0-.64,3.12-6.24,9.36-16.8,1.52,1.84,2.52,2.76,3,2.76l8.64-2.28,.72-3.12c-.56,0-.92-1.64-1.08-4.92-.56-.24-1.8-3.92-3.72-11.04l-2.64-2.28h-.72l-.48,.36h-.36l-3.36-3.36v-.48c2.72-1.76,6.24-2.64,10.56-2.64,7.28-2.24,13.4-4.64,18.36-7.2Zm-33.35,49.43l1.8,.48v.72h-.36l-.36-.36h-.36c-.72,0-1.08,.36-1.08,1.08l-.36,.48h-.72v-.48c.48-1.12,.96-1.76,1.44-1.92Z"/>
    <path id="heFour" d="M212.84,289.59l-.03-1.27,.46-.48h.32l2.37,3.9c2.05,1.96,5.4,3.43,10.06,4.39,3.97,.87,6.97,1.84,9,2.9l9.42,.21,2.85-.06,12.83,.69c-4.78-4.02-7.32-7.39-7.64-10.13-.32,0-.51-.52-.59-1.57v-.4c-.05-2.11,.93-4.69,2.92-7.73,3.05-.64,5.59-1.43,7.63-2.37,2.1-.73,5.93-1.67,11.49-2.84,.05-.26,1.8-.88,5.26-1.85l4.34-.56,1.83,.44,5.15,.13c2.63-.53,5.59-1.4,8.89-2.63,2.36-.63,4.61-2.78,6.75-6.47l.48,.46v.4l-3.84,9.25c.07,3.43,1.66,6.53,4.78,9.32l-1.56,.9c-3.21-2.41-5.61-3.61-7.19-3.57l-6.9-.97h-.24l-.78,.5c-2.86-.36-5.42-.52-7.68-.48h-.24c0,.43-3.65,.84-10.97,1.25,.01,.58-2.3,.92-6.94,1.01,0,.42-.83,.76-2.51,1,0,.16-.57,.38-1.73,.67l-1.02,.42-.53,1.12,.06,3.08-.42,2.62c1.31,2.4,3.74,4.75,7.26,7.05,1.56,1.45,3.79,2.14,6.69,2.08v.24l.24-.24c5.97,.62,10.25,.9,12.83,.85,3.58-.6,7.9-1.85,12.98-3.74l2.71-2.74c.53,.15,.8,.59,.82,1.33l-.22,.64,.24,.23v.24c-.79,2.44-1.32,6.38-1.58,11.82,.43,.52,.72,1.6,.86,3.23l-.23,.24h-.24c-4.22-2.44-8.6-4.01-13.15-4.71l-7.47-1.43c-2.27,.05-4.41-.12-6.42-.5,0,.42-.22,.64-.7,.65l-2.87-1.21-3.09-.17-2.05,.28-8.63-.06-10.75,.46c.01,.58-2.72,1.14-8.19,1.67-.26,.32-2.28,.65-6.07,.99-2.19,1.31-4.12,2.17-5.8,2.57-1.41,.77-2.41,1.95-3.01,3.54h-.55l-.48-.45-.02-1.03c-.08-3.9-1.77-8.03-5.08-12.4-2.69-5.22-4.05-8.78-4.09-10.68Zm20.15-44.16v-.32c-.03-1.21,.79-2.42,2.45-3.61,.24-1.06,2.95-4.17,8.12-9.34l6.22-5.19,5.11-1.61,.95-.02c2.38,.22,5.04,1.35,7.98,3.4,5.59,2.47,8.4,4.79,8.45,6.95l.33,.86c.09,4.43-2.44,11.02-7.59,19.77-1.4,1.4-2.86,2.12-4.39,2.15h-.63c-3.44-.81-5.2-2.94-5.27-6.37v-.32c-.04-1.58,.92-2.39,2.87-2.43,1.91,.49,2.87,.97,2.88,1.45l.04,1.74-1.24,1.21h-.63l-.64-.53c.84-.02,1.26-.24,1.25-.66l-.97-.85-.95,.02c-.63,.22-.93,.81-.91,1.76,.02,.95,1.09,1.64,3.21,2.07,1.63-.03,3.27-2.54,4.91-7.54,1.8-2.46,2.89-5.54,3.29-9.24-.06-2.85-2.22-5.28-6.48-7.31l-.65-.62-4.43,.09c-5.05,.89-8.52,2.26-10.44,4.09-3.29,4.29-4.92,6.9-4.9,7.85l.04,1.74c.02,1.16,1.65,3.32,4.88,6.47,.46,1.89,4.55,4.47,12.26,7.74l7.01,2.55,2.21-.04,10.43-4.4c4.36-1.04,8-3.59,10.92-7.66,2.92-4.38,4.36-7.18,4.34-8.39l.23-4.44c-.04-1.95-1.34-3.8-3.91-5.54l-2.93,.06-.96-.61-9.44,2.56c-.47,0-.81-.85-1-2.59,.75-2.12,1.67-3.54,2.76-4.25l5.06-.1c4.96-.1,8.92,1.51,11.89,4.82,2.91,2.84,4.74,4.97,5.51,6.38v.63c-1.76,6.31-3.37,9.91-4.83,10.78-.39,1.33-1.53,2.64-3.4,3.95-3.58,3.08-5.67,5.18-6.28,6.3l-8.75,5.56c.02,1.11-2.19,2.44-6.64,4.01l-2.85,.06-1.88,.91-9.28-5.19c-2.22-.17-5.88-2.54-10.98-7.14-.63,.01-3.88-2.79-9.74-8.43l-2.6-3.19Zm7.27,11.09v-.32l.96,.93h-.32l-.65-.61Z"/>
    <path id="wants" d="M217.22,347.98c7.83,4.73,15.37,7.09,22.61,7.09,3.03-.22,6.28-1.55,9.75-3.99h1.77c1.11,.52,1.85,1.41,2.22,2.66-5.91,3.62-8.87,6.73-8.87,9.31l-1.77,1.33,.44,.44v.44c-2.96,5.4-5.03,9.83-6.21,13.3-.81,0-1.4,1.48-1.77,4.43l2.66,23.5-.44,4.43c1.11,0,2,2.51,2.66,7.54,.37,0,.67,.89,.89,2.66l-.89,.89v.89c1.92,2.88,3.84,5.1,5.76,6.65l.44-.44h.44c0,1.55,1.03,3.18,3.1,4.88h2.22c.22-1.92,1.26-3.99,3.1-6.21l.44,.44c4.73-12.04,7.09-20.02,7.09-23.94,.37-5.1,1.85-9.83,4.43-14.19,.52-.67,.96-2.73,1.33-6.21,1.11,0,1.85-2.95,2.22-8.87,.74-.29,2.36-3.99,4.88-11.08l.44-.44h1.33c2.44,0,3.92,6.5,4.43,19.51,.59,0,.89,1.77,.89,5.32v.89l-.89,7.54,3.99,19.95,7.09,14.63,.44,3.1c.81,0,1.7-3.25,2.66-9.75,1.03-15,2.36-22.98,3.99-23.94,1.18-2,2.07-8.2,2.66-18.62,.81,0,1.55-2.07,2.22-6.21-2.37-5.76-3.55-10.64-3.55-14.63l-4.88-3.99c-3.84-1.25-5.76-2.14-5.76-2.66,1.11-2.58,2-3.92,2.66-3.99l21.72,3.99,.44-.44,2.22,.44c1.92,0,6.35-1.03,13.3-3.1v.44c-1.7,1.92-5.54,8.57-11.53,19.95-1.55,1.33-3.33,5.62-5.32,12.86-1.11,1.7-3.03,7.91-5.76,18.62-2.96,7.91-4.43,12.64-4.43,14.19v13.74c.59,.37,1.03,2.73,1.33,7.09l-2.66,9.31,.44,2.22c0,2.81-1.18,5.17-3.55,7.09h-.44c-2-1.77-4.21-5.76-6.65-11.97-.52,0-2.44-3.84-5.76-11.53-1.55,0-2.73-1.77-3.55-5.32-5.32-12.12-7.98-19.36-7.98-21.72v-.89l-2.22-.44v.44l-3.99,6.21c-.67,1.26-1.11,4.51-1.33,9.75-2.66,0-3.99,1.48-3.99,4.43-.96,4.66-3.03,9.68-6.21,15.07-1.77,2.29-2.96,5.1-3.55,8.42l-3.1,2.66h-.89c-3.99-4.73-6.95-9.9-8.87-15.52-2.29-3.03-5.54-9.09-9.75-18.18v-4.88c0-3.47-1.04-6.72-3.1-9.75v-.89h-.44l.44-4.43v-9.31l-2.22-4.88,.44-11.97c0-4.21-1.63-9.24-4.88-15.07,0-1.33-2.22-3.69-6.65-7.09l2.22-2.22Zm128.91,16.07c5.17,0,11.19,2.07,18.07,6.21l9.42,11.86c0,.59,1.11,2.51,3.33,5.76,0,2.37,1.51,6.91,4.54,13.63,.37,1.92,1.11,3.36,2.22,4.32l-.33,3.55v3.99l.78,6.1-.78,5.43,.33,2.88-.33,11.86c1.4,5.98,2.77,8.98,4.1,8.98l4.54,3.99v1.77l-2.66,2.55c-3.84-.59-5.95-1.07-6.32-1.44h-8.31l-6.43,2.11c-3.03-1.48-4.66-2.55-4.88-3.21v-.33c.74-1.03,2.51-2.25,5.32-3.66,1.62-.81,3.1-3.69,4.43-8.65l.78-2.44-1.44-1.11c-3.1,3.99-7.13,7.09-12.08,9.31-9.83,3.84-16.48,5.76-19.95,5.76-1.04,0-3.66-1.07-7.87-3.21-2.44-2.22-4.18-4.14-5.21-5.76l.33-.33v-.33l-1.88-4.32c1.03-4.66,4.03-9.57,8.98-14.74,0-1.4,5.13-6.21,15.41-14.41l13.19-8.64c.96,0,2.22-.96,3.77-2.88h.44v-.33l-3.44-14.08c-3.55-5.47-6.54-8.83-8.98-10.09-3.25-1.7-5.28-2.55-6.1-2.55h-.67c-1.26,0-3.14,1.59-5.65,4.77-.81,.22-1.22,.92-1.22,2.11,.59,0,1,1.22,1.22,3.66,2.59,3.84,5.84,5.76,9.75,5.76l1.44,2.44v2.22l-1.11,1.11h-.33c-8.13,0-14.04-3.36-17.73-10.09-.67-1.03-1.04-2.95-1.11-5.76v-2.88c.96-3.03,2.59-5.54,4.88-7.54,3.4-2.22,5.91-3.33,7.54-3.33Zm21.06,42.9h-2.22c-3.03,.89-5.03,2.18-5.99,3.88-.67,0-2.55,1.7-5.65,5.1-5.76,3.7-9.68,8.83-11.75,15.41-.74,0-1.22,2.55-1.44,7.65,2.66,2.37,4.28,3.55,4.88,3.55l1.11,.33,.44-.33v-.33l2.22,.33,8.98-3.55c.89,0,3.77-1.92,8.65-5.76l1.22-1.44,2.22-2.55h.33l.44,.33h.33c0-1.33,.52-2.29,1.55-2.88l.67-6.1-.33-2.55,.33-2.44c0-4.58-.85-8.42-2.55-11.53-2.29,.3-3.44,1.26-3.44,2.88Zm60.85-52.32l.78,.89c-4.29,2.37-7.17,5.76-8.65,10.2-1.04,3.33-1.81,10.38-2.33,21.17,7.24-7.39,13.34-11.34,18.29-11.86,0-.44,.92-.7,2.77-.78h.78c3.69,0,8.24,1.63,13.63,4.88,1.03,4.88,2.33,8.98,3.88,12.3,1.25,3.33,2.84,9.42,4.77,18.29,.44,.08,1.48,2.96,3.1,8.65l.78,6.87-.78,2.88-.44,8.09c.81,4.29,2.25,9.05,4.32,14.3,1.11,3.84,4.88,7.54,11.31,11.08l-.78,.78h-.78l-16.4-6.54c-6.06,0-11.64,2.44-16.74,7.32l-1.55-2.44c4.43-5.1,6.65-8.9,6.65-11.42l1.88-10.97v-.44l-.78-1.22c.81-4.51,1.22-8.57,1.22-12.19v-.44c-.81,0-1.48-5.84-1.99-17.51-1.04,0-1.55-3.69-1.55-11.08-.74,0-1.26-1.33-1.55-3.99-.37,0-.78-.96-1.22-2.88l-.78-1.66-1.88-.78h-5.43l-4.77-.89c-4.36,2.07-8.65,5.87-12.86,11.42-2.59,2.44-3.88,5.98-3.88,10.64h-.33l.33,.44c-1.33,9.46-1.99,16.26-1.99,20.39,.96,5.69,3.06,12.63,6.32,20.84l4.66,4.43c-.3,.81-1.07,1.22-2.33,1.22l-1.22-.44-.33,.44h-.44c-4.29-1.33-11.31-2.29-21.06-2.88-.96,.67-2.88,1.07-5.76,1.22l-.44-.33v-.44c4.51-6.65,7.5-13.59,8.98-20.84l2.77-11.75c0-3.62,.37-7.02,1.11-10.2-.74,0-1.11-.44-1.11-1.33l2.33-4.43,.33-4.88-.33-3.66,.33-14.3c0-5.17-1.04-9.79-3.1-13.85v-.44c2.95-.52,6.46-2.55,10.53-6.1,5.99-3.84,9.9-5.76,11.75-5.76Zm77.26-7.87c2.81,.81,4.21,1.63,4.21,2.44v.66l-9.09,8.09c-.44,.59-.89,2.14-1.33,4.66-1.85,1.18-2.77,3.18-2.77,5.99l1,8.76h6.21c3.92,0,8.9-2.81,14.96-8.42l.67,.67c-.44,2.59-2.62,6.24-6.54,10.97-1.63,3.25-3.14,5.58-4.54,6.98h-.33l-.66-.66,.33-1.77-.33-.33h-1.77c-3.55,0-6.65,.59-9.31,1.77l.66,2.11v4.21c-.52,13.38-1.11,20.06-1.77,20.06v12.97l1.77,6.32v4.21c0,1.4,.44,2.81,1.33,4.21v1.11l-.33,1.77c.67,0,1.85,2.44,3.55,7.32l14.19,15.52,9.64,7.43c.67,0,1.37,.33,2.11,1l1-.33,1.77,.33h2.11c9.68-.74,14.52-3.07,14.52-6.98l.33-1.77v-4.21c0-4.58-2.99-7.17-8.98-7.76h-3.1c-3.1,0-4.84,3.4-5.21,10.2v.33c3.62,4.29,6.5,6.54,8.65,6.76,3.03-.59,4.54-2.14,4.54-4.65v-.67c-1.04-4.73-2.88-7.09-5.54-7.09-2.22,.96-3.62,2.03-4.21,3.21v1.11c0,1.18,.92,2.44,2.77,3.77,2.07-.44,3.1-1.26,3.1-2.44-.59-1.48-1.15-2.29-1.66-2.44h-1.11l-1.66,1.44h-.33v-.78c1.4-1.85,2.77-2.77,4.1-2.77,2.07,2.51,3.1,4.4,3.1,5.65v.33c-1.18,2.07-2,3.1-2.44,3.1h-.67c-1.18,0-3.62-1.51-7.32-4.54,.59-4.66,2-6.98,4.21-6.98l2.77-.33h1.77c2.07,0,3.92,3.62,5.54,10.86-2.88,3.77-5.21,5.65-6.98,5.65-7.17-3.99-10.75-7.06-10.75-9.2v-2.77c.66-5.62,1.37-8.57,2.11-8.87h8.65c6.5,0,9.75,1.55,9.75,4.65l2.44,9.87,.33,3.44c-8.28,6.35-15,10.23-20.17,11.64-1.26,.89-2.99,1.33-5.21,1.33h-.33c-2.44-2.29-7.39-5.65-14.85-10.09-3.03-1.92-8.57-7.43-16.63-16.52-2.29-1.11-3.92-2.99-4.88-5.65v-6.32c0-3.4-.48-8.35-1.44-14.85l1.77-18.29-.67-5.65v-3.44l.67-1.11v-2.44c0-2.73-.33-5.21-1-7.43,.81,0,1.48-1.74,1.99-5.21h-.33c-.44,0-.67-.48-.67-1.44-4.21,0-9.16,1.52-14.85,4.54-1.62,2.14-2.44,3.7-2.44,4.65v.67c.37,.96,1.18,1.44,2.44,1.44,1.33-.37,2-1.22,2-2.55h.78v.78c0,1.77-1.15,2.81-3.44,3.1h-.33c-2.14-.29-3.21-1.33-3.21-3.1v-1.11c0-.59,2.88-5.76,8.65-15.52,1.4,1.7,2.33,2.55,2.77,2.55l7.98-2.11,.66-2.88c-.52,0-.85-1.51-1-4.54-.52-.22-1.66-3.62-3.44-10.2l-2.44-2.11h-.67l-.44,.33h-.33l-3.1-3.1v-.44c2.51-1.62,5.76-2.44,9.75-2.44,6.72-2.07,12.38-4.28,16.96-6.65Zm-30.81,45.67l1.66,.44v.67h-.33l-.33-.33h-.33c-.67,0-1,.33-1,1l-.33,.44h-.67v-.44c.44-1.03,.89-1.62,1.33-1.77Zm69.72-39.35c0,.44,4.88,.89,14.63,1.33,1.33,.59,2.95,2.51,4.88,5.76l4.43,7.54v.89l-3.99,8.42c-2.73,6.5-4.8,9.75-6.21,9.75-2.44,0-8.79-3.55-19.06-10.64h-.89v-3.1c1.85-6.8,4.21-10.2,7.09-10.2h1.77c3.55,0,5.32,1.63,5.32,4.88,.59,0,.89,.74,.89,2.22,0,1.26-1.63,3.18-4.88,5.76-1.55,0-3.18-1.33-4.88-3.99v-.44c.81-2.36,1.55-3.55,2.22-3.55h1.77l1.33,1.33v1.33l-.89,.89h-.44v-.44l.44-.44v-.44l-1.33-.89-.89,.89v.89c.59,1.18,1.33,1.77,2.22,1.77,1.11,0,1.85-1.33,2.22-3.99,0-1.62-1.18-2.81-3.55-3.55-2.51,.96-3.99,2.14-4.43,3.55v.89c0,3.84,3.69,6.95,11.08,9.31l2.66,1.77h.89c1.48,0,2.22-3.55,2.22-10.64,0-2.51-3.4-6.06-10.2-10.64-11.23,1.77-16.85,3.55-16.85,5.32v2.22c.37,4.8,3.62,11.46,9.75,19.95,0,1.77,5.32,4.73,15.96,8.87,1.11,0,2.14,.89,3.1,2.66l.44-.44h1.33c.59,0,1.18,.89,1.77,2.66,9.75,8.79,14.63,14.26,14.63,16.4,1.18,2,1.77,4.21,1.77,6.65,0,.59-3.1,3.4-9.31,8.42-7.61,10.27-14.41,17.22-20.39,20.84h-.44l-18.18-3.1c-2.51,0-6.65-6.21-12.41-18.62l-.44-3.99v-.44c0-2.07,2.51-3.99,7.54-5.76,3.55-3.03,8.57-6.13,15.07-9.31l.44,.44h.44l1.33-.44c0,.44,1.92,1.33,5.76,2.66,2.07,1.55,3.1,3.03,3.1,4.43-.22,3.25-1.85,7.54-4.88,12.86h-1.33c-7.69,0-11.53-2.66-11.53-7.98,3.33-4.43,5.84-6.65,7.54-6.65h.44c1.62,0,3.1,1.04,4.43,3.1,0,3.25-1.04,5.32-3.1,6.21h-1.77c-1.63,0-2.66-.74-3.1-2.22,0-1.55,.89-2.88,2.66-3.99h.89v.89l-1.77,.44v1.33l1.33,1.33h1.33l1.33-1.33v-1.77l-1.77-1.77h-1.77c-2.07,1.4-3.1,3.03-3.1,4.88,0,2.66,1.92,3.99,5.76,3.99,2.66-1.4,3.99-3.18,3.99-5.32v-1.77c0-3.1-2.07-5.02-6.21-5.76-5.91,0-10.64,5.47-14.19,16.4v2.66c0,2.44,2.07,4.95,6.21,7.54,1.33,1.55,5.91,2.73,13.74,3.55h2.66c5.1,0,10.42-8.57,15.96-25.71v-3.1c-5.76-6.06-13.3-11.67-22.61-16.85-4.95-4.14-12.19-8.87-21.72-14.19,0-2.88-1.33-9.24-3.99-19.06,0-2.51,2.22-5.02,6.65-7.54,.44-1.11,4.14-2.29,11.08-3.55,2.14-1.18,4.8-1.92,7.98-2.22Z"/>
    <path id="to" d="M253.76,163.46c1.15,.33,1.73,.67,1.73,1v.27l-3.72,3.31c-.18,.24-.36,.88-.54,1.91-.76,.48-1.14,1.3-1.14,2.45l.41,3.59h2.54c1.6,0,3.65-1.15,6.13-3.45l.27,.27c-.18,1.06-1.07,2.56-2.68,4.5-.67,1.33-1.29,2.29-1.86,2.86h-.14l-.27-.27,.14-.73-.14-.14h-.73c-1.45,0-2.72,.24-3.81,.73l.27,.86v1.73c-.21,5.48-.45,8.22-.73,8.22v5.31l.73,2.59v1.73c0,.58,.18,1.15,.54,1.73v.45l-.14,.73c.27,0,.76,1,1.45,3l5.81,6.36,3.95,3.04c.27,0,.56,.14,.86,.41l.41-.14,.73,.14h.86c3.97-.3,5.95-1.26,5.95-2.86l.14-.73v-1.73c0-1.88-1.23-2.94-3.68-3.18h-1.27c-1.27,0-1.98,1.39-2.13,4.18v.14c1.48,1.76,2.66,2.68,3.54,2.77,1.24-.24,1.86-.88,1.86-1.91v-.27c-.42-1.94-1.18-2.91-2.27-2.91-.91,.39-1.48,.83-1.73,1.32v.45c0,.48,.38,1,1.14,1.54,.85-.18,1.27-.51,1.27-1-.24-.61-.47-.94-.68-1h-.45l-.68,.59h-.14v-.32c.57-.76,1.14-1.14,1.68-1.14,.85,1.03,1.27,1.8,1.27,2.32v.14c-.48,.85-.82,1.27-1,1.27h-.27c-.48,0-1.48-.62-3-1.86,.24-1.91,.82-2.86,1.73-2.86l1.14-.14h.73c.85,0,1.6,1.48,2.27,4.45-1.18,1.54-2.13,2.32-2.86,2.32-2.94-1.63-4.4-2.89-4.4-3.77v-1.14c.27-2.3,.56-3.51,.86-3.63h3.54c2.66,0,4,.64,4,1.91l1,4.04,.14,1.41c-3.39,2.6-6.15,4.19-8.26,4.77-.52,.36-1.23,.54-2.13,.54h-.14c-1-.94-3.03-2.32-6.08-4.13-1.24-.79-3.51-3.04-6.81-6.77-.94-.45-1.6-1.23-2-2.32v-2.59c0-1.39-.2-3.42-.59-6.08l.73-7.49-.27-2.32v-1.41l.27-.45v-1c0-1.12-.14-2.13-.41-3.04,.33,0,.61-.71,.82-2.13h-.14c-.18,0-.27-.2-.27-.59-1.73,0-3.75,.62-6.08,1.86-.67,.88-1,1.51-1,1.91v.27c.15,.39,.48,.59,1,.59,.54-.15,.82-.5,.82-1.04h.32v.32c0,.73-.47,1.15-1.41,1.27h-.14c-.88-.12-1.32-.54-1.32-1.27v-.45c0-.24,1.18-2.36,3.54-6.36,.57,.7,.95,1.04,1.14,1.04l3.27-.86,.27-1.18c-.21,0-.35-.62-.41-1.86-.21-.09-.68-1.48-1.41-4.18l-1-.86h-.27l-.18,.14h-.14l-1.27-1.27v-.18c1.03-.67,2.36-1,4-1,2.75-.85,5.07-1.76,6.95-2.72Zm-12.62,18.71l.68,.18v.27h-.14l-.14-.14h-.14c-.27,0-.41,.14-.41,.41l-.14,.18h-.27v-.18c.18-.42,.36-.67,.54-.73Zm35.28-14.3h.54l3.45,1c1.39,.48,2.68,1.27,3.86,2.36l4.77,3.31c.3,.27,.7,1.53,1.18,3.77,1.39,4.06,2.09,7.05,2.09,8.99v3.18c-.24,.24-.44,1.01-.59,2.32l-.36,.82,.18,.18-1.73,2.18v.18l.41,.59c-5.27,5.21-8.4,7.89-9.4,8.04l-8.04,3.91c-1.24,0-2.79-1.56-4.63-4.68-.45-1.15-1.41-2.39-2.86-3.72,0-.42-.64-1.94-1.91-4.54-.36-2.12-.94-3.75-1.73-4.9-1.15-1.82-1.73-3.65-1.73-5.49l-.77-.95c0-.76,.77-1.54,2.32-2.36,0-.39,.18-.59,.54-.59,.42-.88,1.45-1.8,3.09-2.77,1.6-2.27,2.82-3.77,3.63-4.5,3.51-3.18,6.07-5.28,7.67-6.31Zm1.32,3.36c-2.24,1.33-5.04,3.81-8.4,7.45-.33,0-1.74,1.57-4.22,4.72l-.18,1c.88,7.21,1.95,11.72,3.22,13.53l5,6.45h1.54c2.06-1.54,3.33-2.32,3.81-2.32,1.42-.45,3.41-2.75,5.95-6.9l.59-1.18-.23-.59c.54,0,1-1.3,1.36-3.91,.91-1.18,1.48-2.68,1.73-4.5l-2.09-4.36c-.94-2.36-2.03-4.25-3.27-5.68-2.06-1.6-3.09-2.65-3.09-3.13l-.54-.59-.95,.18-.23-.18Z"/>
    <path id="be" d="M596.86,446.77l.66-.64c2.79,5.1,5.3,7.67,7.53,7.69,0,.62,.7,.94,2.12,.95,1.65,2,3.49,3.01,5.53,3.03l.93-.36c0,.56,3.33,1.06,10,1.5h.93c2.29,.03,3.44-.29,3.44-.97l1.48,.39h.65v-.36c2.04,.46,5.19,.71,9.46,.75v-.28c.88-.79,1.63-4.74,2.26-11.85,.89-8.4,1.85-14.18,2.88-17.32,.43,0,1.92-2.61,4.44-7.84l3.12-5.26c1.24,.01,2.55-1.27,3.94-3.85,2.05-1.09,5.03-1.62,8.92-1.58,3.71,.04,7.38,1.63,10.99,4.76,.73,1.18,3.15,3.59,7.25,7.22,1.76,3.54,2.75,5.97,2.98,7.27,1.55,5.77,3.01,10.27,4.4,13.5-.04,4.02-2.53,8.6-7.48,13.75l-3.34,.24c-2.83-1.14-4.24-3.01-4.21-5.61,.04-3.46,1.48-5.18,4.32-5.15,2.22,.77,3.32,2.2,3.29,4.3-1.25,1.29-2.28,1.92-3.08,1.92l-1.19-1.31v-.37h.56l.36,1.03c.93-.42,1.43-.85,1.5-1.28v-.65l-1.46-1.41h-.37c-1.06,.54-1.87,1.43-2.44,2.66v.28c-.02,1.36,.68,2.58,2.09,3.64h.28c3.28,.04,4.94-2.23,4.99-6.81l.03-2.6c.01-1.11-2.28-6.39-6.88-15.85,.01-1.17-2.1-3.52-6.33-7.03-.85-1.74-2.04-2.62-3.59-2.64-5.32-.06-8.39,.9-9.22,2.87-2.51,3-4.18,6.17-5.02,9.5-2.04-.02-4.07,7.16-6.07,21.55l-.03,2.97,.64,.66,2.13,.02,1.87-1.28c-.01,1.11,2.21,2,6.65,2.67l.92,.38,7.99-.93,1.48,.39,2.79-.34,4.63,.42,8.19-1.95c1.49-.23,3.85-1.72,7.1-4.47,.82,4.46,1.5,7.1,2.05,7.91l-.05,4.27-.97,3.89-.03,2.97-.56,.64h-.65c-2.69-2.88-5.21-4.42-7.56-4.63l-4.62-1.44-14.3,1.24-5.19-.43c-9.4,.21-14.12,1.24-14.14,3.1l-.66,.74h-.56c-.73-1.13-1.34-1.69-1.84-1.7l-10.66-1.13-2.5-.03-1.21,.64-10.4,.91h-.93l-1.86,.62-1.76-.39-7.38,5.21c-.51,1.79-1.78,4.4-3.8,7.85h-.65l-.83-.67,.39-10.48,.08-7.61c.02-2.04-1.47-6.76-4.49-14.15l.04-3.62Zm1.41,16.16v-1.02h.57v1.03h-.57Zm17.49-82.58v-.37c.02-1.42,1.02-2.8,3.02-4.14,.32-1.23,3.61-4.79,9.86-10.66l7.49-5.86,6.05-1.7h1.11c2.78,.35,5.86,1.78,9.23,4.29,6.46,3.1,9.68,5.92,9.65,8.45l.36,1.02c-.06,5.19-3.26,12.83-9.62,22.91-1.69,1.59-3.43,2.38-5.22,2.36h-.74c-4.01-1.1-5.99-3.66-5.95-7.68v-.37c.02-1.86,1.18-2.77,3.47-2.75,2.22,.64,3.33,1.24,3.32,1.8l-.02,2.04-1.5,1.37h-.74l-.73-.66c.99,.01,1.49-.23,1.49-.73l-1.1-1.03h-1.11c-.75,.23-1.12,.9-1.13,2.02-.01,1.11,1.22,1.96,3.68,2.54,1.92,.02,3.93-2.86,6.03-8.66,2.2-2.82,3.59-6.39,4.2-10.72,.04-3.34-2.41-6.27-7.33-8.8l-.73-.75-5.2-.06c-5.95,.86-10.08,2.34-12.39,4.41-4.01,4.91-6.02,7.91-6.03,9.03l-.02,2.04c-.01,1.36,1.81,3.95,5.48,7.76,.47,2.23,5.17,5.41,14.09,9.52l8.13,3.24,2.6,.03,12.39-4.79c5.15-1.06,9.5-3.92,13.08-8.58,3.58-5.03,5.38-8.26,5.39-9.68l.43-5.19c.02-2.29-1.44-4.5-4.38-6.63l-3.43-.04-1.11-.75-11.16,2.67c-.56,0-.92-1.03-1.08-3.07,.95-2.46,2.08-4.09,3.39-4.88l5.94,.06c5.81,.06,10.4,2.09,13.76,6.08,3.3,3.44,5.38,6,6.23,7.67v.74c-2.31,7.34-4.33,11.49-6.08,12.46-.51,1.54-1.89,3.04-4.13,4.5-4.31,3.48-6.84,5.86-7.59,7.16l-10.46,6.2c-.01,1.3-2.66,2.79-7.93,4.46l-3.34-.04-2.24,1-10.69-6.42c-2.59-.27-6.8-3.2-12.62-8.76-.74,0-4.45-3.42-11.12-10.23l-2.93-3.83Zm8.12,13.26v-.37l1.1,1.12h-.37l-.73-.75Z"/>
    <path id="like" d="M599.8,317.5v-.23l1.16-2.7-.21-1.28v-.23c2.63,2.38,4.34,4.61,5.12,6.67,.74,1.01,1.64,1.52,2.69,1.53l5.64,.06,4.73,.95,8.57,.09,6.3,1.2,3.76,.04,3.38,.49,7.67-.14,4.05,.95,8.12,.09c3.86,.04,7.87-1.77,12.01-5.44,2.03-2.38,3.41-4.35,4.12-5.9h.23c.44,.76,1.04,1.14,1.79,1.15v.23c-.95,4.25-1.65,6.38-2.1,6.37l.22,.23v.38h-.46l-.27,3.75c-.05,4.51,.52,7.83,1.7,9.94v.68l-1.37,.44h-.23c.01-1-2.31-2.28-6.95-3.84,0-.45-1.87-.9-5.63-1.34-1.4-.62-2.45-.93-3.15-.94l-8.57-.09-2.26,.2-.67-.68-4.29-.05-4.51,.18-7.13-1.2-4.06,.18-.9-.24-.68,.67-3.61-.04c-3.81-.04-8.03,.94-12.67,2.95-1.4-.01-3.29,.84-5.67,2.57l-1.81,.43v-.23c.31-.65,.47-1.6,.48-2.85l.03-2.41c.01-1.4-.64-3.54-1.96-6.41-1.77-3.28-2.65-5.34-2.64-6.19Zm77.01,6.31v-1.13h.46v1.13h-.46Zm-74.28-22.61c.74-3.3,2.26-7.47,4.57-12.51,2.03-2.33,3.92-3.49,5.68-3.47,3.92-.86,6.78-1.28,8.59-1.26,2,.02,3.8,1.04,5.38,3.07,1.65,.02,3.09,4.29,4.3,12.83l-.02,1.65c-1.54,3.69-3.2,6.28-4.97,7.77l-5.24,5.13-.52-.61c1.27-1.74,3.63-4.22,7.07-7.44,.01-1,.88-2.62,2.61-4.86l-.22-.3,.03-2.48c-.36-3.46-1.29-6.35-2.76-8.68-.39-1.06-2.81-2.36-7.25-3.91-6.88,.88-10.33,2.2-10.34,3.95-2.29,3.33-3.46,6.96-3.5,10.87-.05,4.36,3.1,7.55,9.45,9.58h1.05c7.33-5.38,11-9.22,11.03-11.53v-.83c.05-4.16-2.78-6.82-8.48-7.99l-2.56-.03c-4.03,1.86-6.06,4.57-6.1,8.13l-.81,5.18,4.63,2.98h1.28c5-3.49,7.71-5.72,8.12-6.67,.04-4.01-1.06-6.03-3.32-6.05,0-.4-.77-.66-2.32-.78-3.29,2.72-4.94,4.78-4.95,6.19,.53,2.16,1.12,3.25,1.77,3.25,1.75,.02,3.74-.86,5.97-2.64,.02-1.65-.75-2.84-2.29-3.56-1.41,.64-2.37,1.53-2.89,2.68v.83l1.79,.85,2.12-1.33c-.24-1.11-.83-1.66-1.79-1.67l-.76,.52-.3-.23v-.3l1.06-.52c1.55,.02,2.32,.75,2.31,2.21-.01,1.15-1.05,1.94-3.11,2.37l-1.58-.02c-.45,0-.97-1.01-1.55-3.03,2.74-2.68,4.73-4.01,5.98-4l2.8,4.92v.3c-.01,.95-2.86,2.45-8.55,4.5h-.3l-3.03-4.62v-.53c3.12-4.83,5.22-7.34,6.33-7.53l.76-.29c3.81,.04,5.71,.79,5.69,2.24,.4,0,.82,.74,1.25,2.19l1.55,2.42v.83c-2.15,2.99-4,4.87-5.56,5.66-2.43,2.28-3.65,3.8-3.66,4.55-5.85-1.52-8.76-3.18-8.75-4.98l-.66-8.66c2.09-2.68,3.55-4.02,4.41-4.01,2.23-2.28,4.32-3.54,6.28-3.77h.53c6.69,2.99,10.01,5.93,9.98,8.83l.22,.75-.03,3.01c-.01,1.05-2.2,3.84-6.56,8.35-2.68,2.53-4.5,3.79-5.45,3.78h-1.28c-7.08-3.3-10.94-6.25-11.56-8.86-.35,0-.87-.81-1.55-2.42Zm28.46-16.84l.76-.52h1.28c3.37,3.46,5.26,5.18,5.66,5.19,3.99,2.05,8.29,3.1,12.9,3.15l2.85,.56,10.62-1.77c3.01-.27,5.62-.97,7.84-2.1,2.42-1.23,4.25-3.74,5.49-7.54,0-.9,.19-1.35,.54-1.35l.22,.3v.75l-2.45,10.05,.29,1.36-.02,1.88c.87,7.48,1.85,11.93,2.94,13.34,0,.65,.51,1.38,1.56,2.2h.45c.4,0,.68-.44,.84-1.34-.19-.7-.54-1.06-1.04-1.06v-.53h.23c1.05,.37,1.57,1.1,1.55,2.2v.53c-.02,1-.55,1.8-1.61,2.39h-.75c-1.15-.02-2.34-1.11-3.58-3.28-3.76-4.95-6.84-7.44-9.25-7.47-1.35-.72-2.54-1.08-3.6-1.09v-.3l-1.28,.29-12.48-.43c-1.45-.02-3.79,.69-7.02,2.11-4.83,1.4-7.26,3.56-7.29,6.46l-.84,.82h-.23l-.74-.84v-1.13l.26-2.4c-.57-7.48-1.54-13.1-2.9-16.88-.84-1.16-1.25-2.34-1.24-3.55Zm-31.27-22.59c.36-.8,.77-1.29,1.22-1.49l3.63,4.78c3.68,2.95,6.99,4.89,9.94,5.82l1.36-.21,11.8,.5,3.69-.34h.6l1.5,.4,1.73,.02,1.36-.36,.45,.38h.15l.75-.14,2.33,.4,.38-.6v-.23c-2.57-2.99-4.35-5.34-5.34-7.05l-6.48-5.48c0-.3-1.02-1.09-3.06-2.36l-.75-.53c0-.9-1.08-1.99-3.27-3.27-1.19-.92-2.87-1.69-5.01-2.31-2.21,.48-3.32,1.47-3.34,2.97h-.38l-.37-.38v-.53c.03-1.9-.84-4.95-2.6-9.13-1.62-3.42-2.41-6.64-2.38-9.65l.53-.75c.3,0,.57,.93,.8,2.79,.83,2.37,2.66,4.59,5.49,6.68,2.13,2.68,3.42,4.02,3.87,4.03,.75,.56,1.57,.94,2.47,1.15,1.33,2.27,2.87,3.42,4.62,3.43l4.02,3.88c.55,.16,1.45,.84,2.68,2.06l4.4,3.66c.6,.26,2.59,1.86,5.96,4.8h.15l6.04-2.42,4.6-1.61c.45,0,3.78-1.54,9.98-4.63,.4,0,2.4-1.3,5.98-3.92,.81-.59,2.17-1.15,4.08-1.69,1.61-.89,3.18-2.05,4.7-3.48,1.71-.93,2.83-1.75,3.33-2.45,.51-1.15,1.22-1.72,2.12-1.71,.21-.7,2.73-2.05,7.56-4.06l1.99-2.84c1.67-1.74,2.97-3.6,3.9-5.6,.35-.05,.86-.87,1.53-2.46l1.05-6.38c0-.4-1.53-2-4.61-4.79-1-.76-2.19-1.15-3.6-1.17h-.6c-4.11-.05-6.97,2.25-8.57,6.9l-.16,1.28c-.01,1.15,.8,2.19,2.45,3.11,.2,.5,1.61,1.7,4.25,3.58h.38c2.32-.72,4.31-2.46,6-5.2v-.38c.03-2.05-1.23-3.77-3.78-5.15-2.71-.03-4.32,.71-4.84,2.21-.41,.6-.61,1.17-.62,1.72-.02,1.86,1.32,3.25,4.02,4.18,1.41-.79,2.4-1.9,2.97-3.35,.01-1.25-.75-1.96-2.31-2.13-1.81,.23-2.72,.97-2.73,2.23l1.49,1.37h.6c.66-.49,.99-1.11,1-1.86l-.22-.6h-.75c-.66,.34-.99,.83-.99,1.49l-.37-.38v-.53c.87-.89,1.65-1.34,2.35-1.33,.75,.51,1.12,1.01,1.11,1.52-.57,1.3-1.35,2.24-2.36,2.83-.5,0-1.37-.59-2.61-1.76l.03-2.63c1.26-1.09,2.8-1.62,4.6-1.61h.38c1.39,1.27,2.08,2.58,2.06,3.94,0,.5-1.35,1.77-4.03,3.79h-.45c-.9-.32-2.37-1.08-4.41-2.31l-.47-5.49c0-.95,2.4-2,7.18-3.16,3.67,4.1,5.5,6.5,5.49,7.2l-4.87,5.06c-1.71,.98-2.82,1.47-3.32,1.47h-.15c-1-.01-3.44-1.34-7.33-3.99-.89-1.11-1.33-2.57-1.31-4.38v-.98c.04-2.26,2.4-5.31,7.1-9.17h.38c8.45,1.65,12.67,3.45,12.65,5.4,1.28,2.32,1.9,4.78,1.88,7.39l-4.42,12.29-3.11,2.6c-3.33,1.47-5.77,2.95-7.34,4.43-.01,1.05-1.58,2.24-4.7,3.56-.35,0-4.82,2.66-13.4,7.98-3.59,3.27-6.07,4.95-7.42,5.03-1.87,1.38-3.89,2.52-6.05,3.39-1.62,1.19-3.36,2.17-5.22,2.95-1.06,.64-1.59,1.06-1.59,1.26l1.34,.99,.98-.21h.23l4.65,1.25,4.96,.05,2.55,.55,2.86-.12,.37,.38h.83c1.96,.03,4.15-.85,6.57-2.63,.87-1.24,1.4-1.87,1.6-1.86h.53l.6,.39-.15,.22-.03,2.41c.22,2.51,.9,5.38,2.01,8.59l1.1,2.64,.82,.54v.38l-.46,.37h-.9c-2.24-1.64-4.76-2.47-7.57-2.5-1.85-.77-3.57-1.17-5.18-1.18,0-.75-1.41-1.47-4.26-2.15-1.96-.02-3.76-.36-5.4-1.03l-11.57-1.4-1.96-.02-11.74,1-3.91-.27c-1-.01-2.86,.3-5.57,.92h-.38l-.22-.23c-2.86,.22-4.87,.72-6.03,1.51-1.65-.02-3.06,.72-4.23,2.21l-.24,1.5,.37,.91-1.51,.96h-.23c-.25-.21-.68-1.79-1.3-4.75-5.56-10.19-8.33-15.5-8.33-15.96-.3,0-.5-.33-.59-.98Zm14.72-47.29v-.3c.02-1.15,.83-2.27,2.44-3.36,.26-1,2.93-3.88,7.99-8.64l6.07-4.75,4.9-1.38h.9c2.25,.28,4.75,1.44,7.48,3.47,5.24,2.51,7.84,4.8,7.82,6.85l.29,.83c-.04,4.21-2.64,10.4-7.79,18.57-1.37,1.29-2.78,1.93-4.23,1.91h-.6c-3.25-.89-4.86-2.96-4.82-6.22v-.3c.02-1.5,.96-2.25,2.81-2.23,1.8,.52,2.7,1.01,2.69,1.46l-.02,1.65-1.21,1.12h-.6l-.6-.54c.8,0,1.21-.19,1.21-.59l-.89-.84h-.9c-.6,.19-.91,.73-.92,1.64s.99,1.59,2.99,2.06c1.55,.02,3.18-2.32,4.89-7.02,1.78-2.29,2.91-5.18,3.4-8.69,.03-2.71-1.95-5.08-5.94-7.13l-.6-.61-4.21-.04c-4.82,.7-8.17,1.89-10.04,3.58-3.25,3.98-4.88,6.42-4.89,7.32l-.02,1.65c-.01,1.1,1.47,3.2,4.44,6.29,.38,1.81,4.19,4.38,11.42,7.72l6.59,2.63,2.11,.02,10.04-3.88c4.17-.86,7.7-3.17,10.6-6.96,2.9-4.08,4.36-6.7,4.37-7.85l.35-4.21c.02-1.85-1.17-3.65-3.55-5.38l-2.78-.03-.9-.61-9.05,2.16c-.45,0-.74-.84-.88-2.49,.77-2,1.69-3.32,2.75-3.96l4.81,.05c4.71,.05,8.43,1.69,11.15,4.93,2.68,2.79,4.36,4.86,5.05,6.22v.6c-1.88,5.95-3.51,9.31-4.93,10.1-.41,1.25-1.53,2.46-3.35,3.65-3.49,2.82-5.54,4.75-6.15,5.8l-8.48,5.02c-.01,1.05-2.16,2.26-6.43,3.62l-2.71-.03-1.81,.81-8.67-5.21c-2.1-.22-5.51-2.59-10.23-7.1-.6,0-3.6-2.77-9.01-8.29l-2.37-3.11Zm6.58,10.75v-.3l.9,.91h-.3l-.6-.61Z"/>
    <path id="vincentLast" d="M246.05,.44c7.59,10.12,16.52,18.7,26.79,25.73,9.42,9.28,18.98,16.74,28.69,22.36v.84c0,3.8-2.25,6.82-6.75,9.07l-4.22-.84c-6.19,1.13-9.28,3.31-9.28,6.54l-8.44,20.67c-4.08,0-9.14,10.55-15.19,31.64-9.42,16.88-17.51,35.37-24.26,55.48-16.45,28.27-25.73,46.76-27.84,55.48-.99,0-2.39,2.53-4.22,7.59l.84,.63v.84l-21.94,43.24h-1.69l-13.5-39.87c-5.91-8.02-12.31-21.23-19.2-39.66,0-5.62-1.41-8.44-4.22-8.44v-4.01c-2.11-2.25-5.2-11.39-9.28-27.42-11.25-26.86-16.88-41.77-16.88-44.72-2.81,0-6.19-7.17-10.12-21.52-4.5-5.76-6.75-9.91-6.75-12.45v-3.38l.84-.84c-4.5-13.5-10.41-26.51-17.72-39.02,0-6.61-9.49-12.09-28.48-16.45-25.88,0-38.81,11.04-38.81,33.12v1.69c3.51,14.34,8.3,21.52,14.34,21.52,5.91,2.81,10.69,4.22,14.34,4.22,12.94,0,21.87-6.4,26.79-19.2l1.69-9.91v-.84c0-6.89-8.37-13.22-25.1-18.98h-2.53c-9.14,0-15.05,6.61-17.72,19.83,0,7.17,6.47,12.17,19.41,14.98,7.17,0,11.32-3.3,12.45-9.91v-7.59c0-4.08-3.59-6.82-10.76-8.23-6.19,.56-9.28,3.03-9.28,7.38,0,2.25,1.4,4.22,4.22,5.91h3.38l2.53-2.53v-4.01l-3.38-.84v-1.69c4.5,0,6.75,2.18,6.75,6.54v.84c-.84,4.92-3.38,7.38-7.59,7.38h-3.38c-5.06-.7-7.59-3.72-7.59-9.07v-6.54c3.94-5.06,8.44-7.59,13.5-7.59h2.53c9.14,0,14.98,6.12,17.51,18.35v1.69c-4.08,10.97-11.04,16.45-20.88,16.45h-4.22c-5.35,0-11.81-4.64-19.41-13.92l-1.69-10.97c3.09-14.34,9.56-21.52,19.41-21.52h10.12c9.7,0,18.91,6.68,27.63,20.04l.84,7.38v3.38c0,10.12-7.59,19.48-22.78,28.05l-12.45,.84c-14.77,0-26.58-8.58-35.44-25.73l-1.69-6.54v-10.76c4.36-12.23,8.58-18.35,12.66-18.35,10.26-6.04,18.14-9.07,23.62-9.07h11.81c10.12,.28,15.96,1.13,17.51,2.53l.84-.84h.84c12.37,4.5,29.25,6.75,50.62,6.75l.84,.63v1.69c-6.19,4.78-9.28,8.09-9.28,9.91,2.25,8.86,5.06,16.38,8.44,22.57,1.12,12.94,3.09,22.29,5.91,28.05,.84,0,4.5,8.86,10.97,26.58,2.25,9.14,5.91,17.16,10.97,24.05,1.55,0,4.57,9.35,9.07,28.05,10.12,20.25,15.19,31.29,15.19,33.12,0,3.24,2.25,8.51,6.75,15.82l-.84,4.22,2.53,8.23h.84c11.25-28.4,18.56-45.56,21.94-51.47,5.76-10.26,9.14-15.47,10.12-15.61l-.84-4.22c6.75-10.12,13.78-25.87,21.09-47.25,6.19-10.55,12.02-26.01,17.51-46.41,1.55-6.47,2.95-10.34,4.22-11.6v-2.53c0-13.08-6.12-27.14-18.35-42.19l-2.53-2.53v-.84c0-1.55,2.53-2.88,7.59-4.01Zm37.12,174.66c6.33,1.97,20.32,3.59,41.98,4.85l6.12-1.05,.84,1.05v2.74c0,1.27-2.32,1.9-6.96,1.9l-8.23,11.39,2.11,4.64-13.29,38.81c7.31,22.08,12.02,33.47,14.13,34.17l9.28,3.8c13.64-4.92,20.46-9.35,20.46-13.29,0-7.17-2.04-13.15-6.12-17.93h-8.23c-5.48,0-8.23,5.35-8.23,16.03l-1.05,1.05,1.05,2.74,4.22,1.05h1.9l4.22-3.8v-1.05l-7.17,1.9-1.05-.84v-10.55c1.55-3.09,4.92-4.64,10.12-4.64,3.23,1.97,5.98,5.13,8.23,9.49v1.9c-8.16,8.72-13.29,13.08-15.4,13.08l-11.18-6.54c1.12-15.19,3.16-22.78,6.12-22.78l20.46-3.8c2.25,2.11,5.98,10.06,11.18,23.84-6.75,7.17-14.55,14.06-23.41,20.67h-1.05c-22.36-6.89-33.54-11.6-33.54-14.13l-5.27-19.83-1.9-7.59,4.01-29.32v-15.19c-2.67-10.12-8.09-15.19-16.24-15.19l-1.05-.84v-4.85c0-1.27,.98-1.9,2.95-1.9Zm21.52-85.22c17.01,6.33,25.52,10.76,25.52,13.29l1.05,8.65c0,7.17-5.84,13.78-17.51,19.83h-.84c-9.99-2.25-19.55-9.21-28.69-20.88v-4.64c5.06-6.61,11.88-12.02,20.46-16.24Zm27.42,162.84v6.75h3.16l1.05-2.95-2.11-1.9,1.05-.84h1.05c1.27,1.27,1.9,3.8,1.9,7.59l3.16-3.8-3.16-5.7-6.12,.84Zm67.5-75.09c5.2,0,11.46,6.68,18.77,20.04v.84c2.25,0,8.15-4.64,17.72-13.92,4.22-.7,9.21-3.02,14.98-6.96h2.74c18.7,7.88,28.05,15.82,28.05,23.84v2.11l-5.7,31.85,1.05,4.85-2.95,2.95,4.64,13.92v2.11c0,14.49-.56,25.03-1.69,31.64l7.38,12.02c10.55-6.47,15.82-11.74,15.82-15.82l-9.28-6.96h-2.74c-1.69,0-2.95,2.6-3.8,7.8l2.74,2.11h2.95c0-1.97,.56-2.95,1.69-2.95l1.05,.84v1.05c-.28,1.41-1.83,2.74-4.64,4.01-3.8-1.4-5.7-4.08-5.7-8.02v-1.05c0-5.2,4.08-7.8,12.23-7.8l8.44,7.8,.84,1.05v1.05c0,8.44-2.81,15.4-8.44,20.88-7.17,7.31-13.36,10.97-18.56,10.97-1.97,0-10.06-6.96-24.26-20.88,1.69-6.89,3.23-23.84,4.64-50.84l-2.95-18.77,5.7-27.84-13.08-11.81c-13.64,6.19-23.62,13.78-29.95,22.78-3.09,1.69-4.64,4.36-4.64,8.02l1.9,2.95-.84,14.77c0,14.49,4.01,29.74,12.02,45.77v1.05c0,1.97-1.27,2.95-3.8,2.95-26.02-5.62-39.02-9.28-39.02-10.97v-1.9l1.69-2.11h4.85l5.48-34.8,.84-6.96v-1.9c-4.22-23.2-6.96-34.8-8.23-34.8-13.36,7.31-20.88,14.63-22.57,21.94v1.9c2.95,5.35,7.03,8.02,12.23,8.02,2.81-1.27,4.36-2.6,4.64-4.01v-2.95l-4.64-5.06h-3.8l-2.74,2.95v1.05c.28,1.41,1.83,2.74,4.64,4.01l1.9-1.9-.84-1.05v-2.11h.84l1.9,2.11v1.9l-2.74,2.95h-1.05c-4.36,0-6.54-2.32-6.54-6.96v-2.95c0-2.11,3.09-3.72,9.28-4.85,5.91,0,9.7,4.29,11.39,12.87,0,3.24-4.08,6.89-12.23,10.97-13.08-3.8-19.62-9.14-19.62-16.03,0-9.42,8.44-19.69,25.31-30.8,6.75-4.64,12.3-6.96,16.66-6.96Zm134.16-3.38c0,1.55,3.02,3.38,9.07,5.48,12.51,6.75,22.71,13.64,30.59,20.67-7.31,14.49-11.81,21.73-13.5,21.73l-8.02-1.05-5.48,1.05-10.76-12.66v-1.9l9.91-11.6h.84c3.8,0,8.58,2.39,14.34,7.17-.84,2.39-1.76,3.59-2.74,3.59h-.84c0-3.8-2.39-5.91-7.17-6.33-4.64,0-7.31,1.2-8.02,3.59v4.64c0,5.2,3.87,8.16,11.6,8.86h.84c5.48,0,8.79-3.87,9.91-11.6,0-7.45-10.2-15.26-30.59-23.41-3.09,0-11.81,8.72-26.16,26.16-7.74,12.52-11.6,21.17-11.6,25.95v10.97c17.86,15.61,28.05,23.41,30.59,23.41h16.24c1.83-1.12,3.94-5.06,6.33-11.81h.84l-3.59-14.34,1.69-1.9c2.11,.14,5.13,6.47,9.07,18.98-2.95,11.39-5.35,17.09-7.17,17.09-11.39,0-22.22,1.48-32.48,4.43-13.92-7.03-25.31-15.68-34.17-25.95v-26.16c2.81-18.7,6.12-28.05,9.91-28.05,16.31-17.3,27.7-25.95,34.17-25.95l6.33-1.05Zm13.5,28.05h3.59v1.69h-.84l-.84-.84h-1.05l-.84,.84v5.48l1.9,2.74v.84h-1.9c-1.41,0-2.32-1.48-2.74-4.43,.7-4.22,1.62-6.33,2.74-6.33Zm9.07,6.33h1.69v.84l-4.43,4.43h-2.74v-1.69c3.66,0,5.48-1.19,5.48-3.59Zm65.18-34.38c16.03,3.66,25.66,8.16,28.9,13.5l6.12,9.07c0,21.09-12.02,33.68-36.07,37.76-10.27,4.78-17.23,7.17-20.88,7.17h-1.9v-1.69c8.44-.84,21.94-8.08,40.5-21.73,5.76-6.89,8.65-11.39,8.65-13.5v-8.02c-4.08-5.91-12.23-10.12-24.47-12.66-18.14,8.02-27.21,17.93-27.21,29.74l-1.9,23.41c2.95,11.39,7.38,18.92,13.29,22.57,0,3.24,5.83,7.46,17.51,12.66,19.69-4.92,32.55-12.73,38.6-23.41l3.59-15.4c-.84-2.95-1.76-4.43-2.74-4.43h-.84c-3.52,0-5.27,1.48-5.27,4.43h3.59v-2.74h.84c1.12,0,1.69,.92,1.69,2.74-.84,2.39-1.69,3.59-2.53,3.59h-.84c-3.38,0-5.48-1.48-6.33-4.43,1.4-6.04,4.36-9.07,8.86-9.07h1.69c5.91,4.92,8.86,11.53,8.86,19.83-2.25,7.03-5.77,12.17-10.55,15.4-4.5,9.14-13.29,15.75-26.37,19.83l-3.38,.84-15.82-.84c-2.39-2.25-9.14-5.91-20.25-10.97l-22.78-16.24c-3.52-10.55-5.27-19.54-5.27-27,2.39-18,6.47-27,12.23-27,9-9.7,22.5-17.51,40.5-23.41Zm94.5,3.38c5.2,0,11.46,6.68,18.77,20.04v.84c2.25,0,8.15-4.64,17.72-13.92,4.22-.7,9.21-3.02,14.98-6.96h2.74c18.7,7.88,28.05,15.82,28.05,23.84v2.11l-5.7,31.85,1.05,4.85-2.95,2.95,4.64,13.92v2.11c0,14.49-.56,25.03-1.69,31.64l7.38,12.02c10.55-6.47,15.82-11.74,15.82-15.82l-9.28-6.96h-2.74c-1.69,0-2.95,2.6-3.8,7.8l2.74,2.11h2.95c0-1.97,.56-2.95,1.69-2.95l1.05,.84v1.05c-.28,1.41-1.83,2.74-4.64,4.01-3.8-1.4-5.7-4.08-5.7-8.02v-1.05c0-5.2,4.08-7.8,12.23-7.8l8.44,7.8,.84,1.05v1.05c0,8.44-2.81,15.4-8.44,20.88-7.17,7.31-13.36,10.97-18.56,10.97-1.97,0-10.06-6.96-24.26-20.88,1.69-6.89,3.23-23.84,4.64-50.84l-2.95-18.77,5.7-27.84-13.08-11.81c-13.64,6.19-23.62,13.78-29.95,22.78-3.09,1.69-4.64,4.36-4.64,8.02l1.9,2.95-.84,14.77c0,14.49,4.01,29.74,12.02,45.77v1.05c0,1.97-1.27,2.95-3.8,2.95-26.02-5.62-39.02-9.28-39.02-10.97v-1.9l1.69-2.11h4.85l5.48-34.8,.84-6.96v-1.9c-4.22-23.2-6.96-34.8-8.23-34.8-13.36,7.31-20.88,14.63-22.57,21.94v1.9c2.95,5.35,7.03,8.02,12.23,8.02,2.81-1.27,4.36-2.6,4.64-4.01v-2.95l-4.64-5.06h-3.8l-2.74,2.95v1.05c.28,1.41,1.83,2.74,4.64,4.01l1.9-1.9-.84-1.05v-2.11h.84l1.9,2.11v1.9l-2.74,2.95h-1.05c-4.36,0-6.54-2.32-6.54-6.96v-2.95c0-2.11,3.09-3.72,9.28-4.85,5.91,0,9.7,4.29,11.39,12.87,0,3.24-4.08,6.89-12.23,10.97-13.08-3.8-19.62-9.14-19.62-16.03,0-9.42,8.44-19.69,25.31-30.8,6.75-4.64,12.3-6.96,16.66-6.96Zm101.25-48.52c15.89,0,23.84,1.55,23.84,4.64-2.39,4.92-3.59,9.21-3.59,12.87,2.39,7.03,3.59,13.15,3.59,18.35v10.12l-2.74,29.32h.84l14.77-2.74h4.64l1.9,1.9v8.23l-1.05,.84v1.05l-6.33-1.05h-13.92l-1.69,16.66c1.69,29.95,3.8,44.93,6.33,44.93,1.55,.56,8.3,8.79,20.25,24.68l4.64-.84,11.81,.84c3.8-3.8,5.7-6.54,5.7-8.23l-2.74-9.07-9.28-1.05-3.59,7.38c.7,2.53,2.18,4.36,4.43,5.48,3.94-1.55,6.12-3.02,6.54-4.43-.99-2.53-1.9-3.8-2.74-3.8-3.09,.84-4.64,2.11-4.64,3.8l-1.9-1.9c2.81-2.53,5.55-3.8,8.23-3.8l3.8,7.38c-5.63,3.66-9.63,5.48-12.02,5.48l-6.33-7.17v-2.74l7.38-9.28c9.7,0,14.55,3.38,14.55,10.12l1.9,9.07c-6.89,6.47-12.38,10.48-16.45,12.02-7.88,0-22.01-8.3-42.4-24.89-2.25,0-6.54-17.09-12.87-51.26l-.84-17.51v-.84l-9.28-1.05h-6.33l-1.9-1.9v-7.17c0-1.27,.91-1.9,2.74-1.9l13.71,.84v-8.23l1.9-26.58c-2.39-9.14-3.59-21.73-3.59-37.76l2.74-.84Z" style="fill: #a91ddd;"/>
    <path id="price" d="M438.39,325.27c4.92,0,16.31,3.59,34.17,10.76,14.34,2.67,21.52,7.1,21.52,13.29,16.17,26.72,24.26,42.4,24.26,47.04v3.38c0,10.83-2.11,18.21-6.33,22.15-23.91,26.72-38.25,40.36-43.03,40.92l-5.48-.84-35.86,.84h-2.74c-4.78,0-7.17,2.04-7.17,6.12h-.84c1.12,9.99,1.69,22.99,1.69,39.02l1.9,8.02v5.27l-3.59,5.27,.84,2.74-1.69,5.27,.84,10.76-.84,.84v.84c.98,2.39,1.83,10.97,2.53,25.73h-.84c0,16.59,9.91,28.41,29.74,35.44,2.95,.14,4.43,1.05,4.43,2.74-3.66,2.25-6.33,3.38-8.02,3.38h-1.05c-11.95,0-28.41-8.86-49.36-26.58l-20.67-8.02-5.27,1.9-1.9-1.9v-3.38c.14-1.12,6.12-4.43,17.93-9.91,3.09-2.11,6.4-8.3,9.91-18.56l-.84-13.29,.84-8.02c-1.41-5.2-2.6-7.8-3.59-7.8l.84-1.05v-4.43l1.05-8.86-1.05-2.53,2.74-38.18c-1.13-4.78-4.71-7.17-10.76-7.17h-7.17c-2.95,1.13-4.43,2.95-4.43,5.48h-1.05l-1.69-1.9v-.84c0-3.66,3.59-7.52,10.76-11.6h3.59l9.07,1.05,1.69-2.74v-9.7c0-2.95-.92-5.91-2.74-8.86l1.9-5.48-1.9-7.8v-8.02l1.9-13.29-1.9-8.86,1.9-25.73c0-14.2-1.48-21.3-4.43-21.3l-10.76-.84c-9,.42-13.5,1.27-13.5,2.53l-1.05-.84c-23.2,6.61-40.85,15.47-52.95,26.58-6.61,9.56-9.91,16.38-9.91,20.46,1.69,19.55,4.08,29.32,7.17,29.32,0,3.8,7.52,7.59,22.57,11.39h5.27c11.25,0,21.44-8.58,30.59-25.73l1.9-9.7v-1.69c-3.52-17.72-12.23-26.58-26.16-26.58h-1.69c-9.56,0-17.37,8.58-23.41,25.73v5.27c2.81,12.94,7.59,19.41,14.34,19.41,0,1.27,1.48,1.9,4.43,1.9h1.05l.84-1.05,.84,1.05h.84c9.7-4.22,14.55-9.28,14.55-15.19,0-10.97-3.66-19.2-10.97-24.68h-3.59c-6.47,0-11.25,5.27-14.34,15.82,3.66,5.91,7.24,8.86,10.76,8.86,4.22-1.69,6.33-4.36,6.33-8.02v-1.69c-2.39-3.51-5.35-5.27-8.86-5.27,0,1.13-.92,1.69-2.74,1.69l.84,6.33c-1.55,0-2.46-1.19-2.74-3.59,0-4.22,2.11-6.33,6.33-6.33h6.33c4.78,2.53,7.17,5.84,7.17,9.91,0,5.06-3.87,9.14-11.6,12.23-10.83-1.97-16.24-6.4-16.24-13.29v-1.69c3.23-13.64,8.93-20.46,17.09-20.46,11.95,0,17.93,5.35,17.93,16.03,1.27,0,2.18,2.67,2.74,8.02v.84c-1.55,16.59-6.68,24.89-15.4,24.89l-2.53,.84c-12.94,0-21.66-4.71-26.16-14.13l-3.59-12.45v-5.27c0-14.06,9.56-24.47,28.69-31.22h2.74c11.95,0,22.43,5.63,31.43,16.88l3.59,9.91v4.43c0,20.67-11.95,34.52-35.86,41.55l-4.43,.84c-20.11,0-32.13-4.99-36.07-14.98-5.35-5.48-8.02-12.02-8.02-19.62,0-11.95,3.3-21.65,9.91-29.11,3.94-9.56,15.61-19.05,35.02-28.48,16.17-8.3,49.99-12.45,101.46-12.45Zm-22.36,9.91v1.69l-1.05,5.27c2.39,3.94,3.59,8.37,3.59,13.29v9.7l-1.69,12.45,2.74,11.6-1.9,7.17v.84l.84,6.12c-1.13,7.74-1.69,18.98-1.69,33.75v4.43l-.84,3.59c0,6.47,11.67,9.7,35.02,9.7,9-3.8,17.93-10.62,26.79-20.46,1.97-3.8,4.99-6.47,9.07-8.02,0-8.86,.91-18.28,2.74-28.27,0-15.75-3.94-27.56-11.81-35.44-11.25-17.16-18.42-25.73-21.52-25.73l-35.86-1.69h-4.43Zm171.07,141.96h2.74c0,2.67,7.8,5.06,23.41,7.17,4.78,9.56,8.08,18.28,9.91,26.16-7.03,7.17-12.73,10.76-17.09,10.76h-.84c-3.09-1.69-4.64-3.8-4.64-6.33l2.74-1.69,.84,.84-.84,.84v1.9l2.74,.84,2.74-4.43c0-12.66-2.11-18.98-6.33-18.98-3.38,0-7.31-1.19-11.81-3.59-19.83,3.66-29.74,6.68-29.74,9.07v1.69c1.27,1.55,3.38,9.7,6.33,24.47l1.9,4.43-3.59,17.3c2.39,4.64,3.59,8.51,3.59,11.6v5.48l-1.05,8.23c0,5.35,7.52,12.87,22.57,22.57v.84l-2.74,2.74c-3.24,0-14.63-5.13-34.17-15.4h-7.17l-2.74-2.74v-3.59c0-1.69,3.59-3.51,10.76-5.48l1.9-9.91c-2.39-8.15-3.59-16.24-3.59-24.26v-9.07c0-2.11-.92-4.22-2.74-6.33l.84-6.33c0-10.97-4.5-18.21-13.5-21.73-9-1.55-13.5-3.02-13.5-4.43v-1.05c1.27-2.39,2.74-3.59,4.43-3.59l25.31,1.9c6.47,0,17.58-3.3,33.33-9.91Zm35.44,2.95c6.33,1.97,20.32,3.59,41.98,4.85l6.12-1.05,.84,1.05v2.74c0,1.27-2.32,1.9-6.96,1.9l-8.23,11.39,2.11,4.64-13.29,38.81c7.31,22.08,12.02,33.47,14.13,34.17l9.28,3.8c13.64-4.92,20.46-9.35,20.46-13.29,0-7.17-2.04-13.15-6.12-17.93h-8.23c-5.48,0-8.23,5.35-8.23,16.03l-1.05,1.05,1.05,2.74,4.22,1.05h1.9l4.22-3.8v-1.05l-7.17,1.9-1.05-.84v-10.55c1.55-3.09,4.92-4.64,10.12-4.64,3.23,1.97,5.98,5.13,8.23,9.49v1.9c-8.16,8.72-13.29,13.08-15.4,13.08l-11.18-6.54c1.12-15.19,3.16-22.78,6.12-22.78l20.46-3.8c2.25,2.11,5.98,10.06,11.18,23.84-6.75,7.17-14.55,14.06-23.41,20.67h-1.05c-22.36-6.89-33.54-11.6-33.54-14.13l-5.27-19.83-1.9-7.59,4.01-29.32v-15.19c-2.67-10.12-8.09-15.19-16.24-15.19l-1.05-.84v-4.85c0-1.27,.98-1.9,2.95-1.9Zm21.52-85.22c17.01,6.33,25.52,10.76,25.52,13.29l1.05,8.65c0,7.17-5.84,13.78-17.51,19.83h-.84c-9.99-2.25-19.55-9.21-28.69-20.88v-4.64c5.06-6.61,11.88-12.02,20.46-16.24Zm27.42,162.84v6.75h3.16l1.05-2.95-2.11-1.9,1.05-.84h1.05c1.27,1.27,1.9,3.8,1.9,7.59l3.16-3.8-3.16-5.7-6.12,.84Zm75.09-78.47c0,1.55,3.02,3.38,9.07,5.48,12.51,6.75,22.71,13.64,30.59,20.67-7.31,14.49-11.81,21.73-13.5,21.73l-8.02-1.05-5.48,1.05-10.76-12.66v-1.9l9.91-11.6h.84c3.8,0,8.58,2.39,14.34,7.17-.84,2.39-1.76,3.59-2.74,3.59h-.84c0-3.8-2.39-5.91-7.17-6.33-4.64,0-7.31,1.2-8.02,3.59v4.64c0,5.2,3.87,8.16,11.6,8.86h.84c5.48,0,8.79-3.87,9.91-11.6,0-7.45-10.2-15.26-30.59-23.41-3.09,0-11.81,8.72-26.16,26.16-7.74,12.52-11.6,21.17-11.6,25.95v10.97c17.86,15.61,28.05,23.41,30.59,23.41h16.24c1.83-1.12,3.94-5.06,6.33-11.81h.84l-3.59-14.34,1.69-1.9c2.11,.14,5.13,6.47,9.07,18.98-2.95,11.39-5.35,17.09-7.17,17.09-11.39,0-22.22,1.48-32.48,4.43-13.92-7.03-25.31-15.68-34.17-25.95v-26.16c2.81-18.7,6.12-28.05,9.91-28.05,16.31-17.3,27.7-25.95,34.17-25.95l6.33-1.05Zm13.5,28.05h3.59v1.69h-.84l-.84-.84h-1.05l-.84,.84v5.48l1.9,2.74v.84h-1.9c-1.41,0-2.32-1.48-2.74-4.43,.7-4.22,1.62-6.33,2.74-6.33Zm9.07,6.33h1.69v.84l-4.43,4.43h-2.74v-1.69c3.66,0,5.48-1.19,5.48-3.59Zm65.18-34.38c16.03,3.66,25.66,8.16,28.9,13.5l6.12,9.07c0,21.09-12.02,33.68-36.07,37.76-10.27,4.78-17.23,7.17-20.88,7.17h-1.9v-1.69c8.44-.84,21.94-8.08,40.5-21.73,5.76-6.89,8.65-11.39,8.65-13.5v-8.02c-4.08-5.91-12.23-10.12-24.47-12.66-18.14,8.02-27.21,17.93-27.21,29.74l-1.9,23.41c2.95,11.39,7.38,18.92,13.29,22.57,0,3.24,5.83,7.46,17.51,12.66,19.69-4.92,32.55-12.73,38.6-23.41l3.59-15.4c-.84-2.95-1.76-4.43-2.74-4.43h-.84c-3.52,0-5.27,1.48-5.27,4.43h3.59v-2.74h.84c1.12,0,1.69,.92,1.69,2.74-.84,2.39-1.69,3.59-2.53,3.59h-.84c-3.38,0-5.48-1.48-6.33-4.43,1.4-6.04,4.36-9.07,8.86-9.07h1.69c5.91,4.92,8.86,11.53,8.86,19.83-2.25,7.03-5.77,12.17-10.55,15.4-4.5,9.14-13.29,15.75-26.37,19.83l-3.38,.84-15.82-.84c-2.39-2.25-9.14-5.91-20.25-10.97l-22.78-16.24c-3.52-10.55-5.27-19.54-5.27-27,2.39-18,6.47-27,12.23-27,9-9.7,22.5-17.51,40.5-23.41Z" style="fill: #a91ddd;"/>
  </g>
</svg>