<?xml version="1.0" encoding="UTF-8"?>
<svg id="Layer_1" data-name="Layer 1" xmlns="http://www.w3.org/2000/svg" viewBox="0 0 892.4 620.5">
  <g id="secondFive">
    <path id="for" d="M95.2,450.96v-.19c3.13,1.49,5.01,2.23,5.64,2.23,0,.32,2.12,.57,6.35,.76l2.46-.19,1.85,.19,2.46-.19,.9,.19c4.52,0,6.78-.55,6.78-1.66l-.76-.76h-.57c-.25,0-.38,.25-.38,.76h-.38v-.19c.1-.76,.28-1.14,.57-1.14h.57c1.01,.13,1.52,.63,1.52,1.52-.16,1.39-3.29,2.7-9.39,3.93-2.31,.73-4.57,1.28-6.78,1.66l-.19,.19c.63,7.43,1.2,12.12,1.7,14.08l.19,.19h2.23l.57,.38h1.33l2.46-.19,4.31,.38c.38-.28,2.18-.47,5.4-.57v-2.8c-.38-2.62-1.12-3.93-2.23-3.94-1.33-.88-2.45-1.33-3.37-1.33l-1.14,.19-.38-.57c0-.41,1.12-.73,3.37-.95l1.71,.19,1.14-.19,.19,.19v.19l3.56-.57,1.09,.19c.7,0,2.32-.55,4.88-1.66v-.19l-.38-1.33h.38l.57,.57v.57c0,1.52-2.05,3.08-6.16,4.69l.19,1.85v4.5l.38,.38,12.94-.19,10.1-1.14,2.08,.19c5.02-.12,7.84-1.5,8.44-4.12,0-.63,.13-.95,.38-.95h.19l.76,.76v.95l-1.33,4.5v2.09l.38,6.54-.19,1.14h-.19c-.88-1.14-1.33-1.9-1.33-2.28-.35-.47-1.6-1.15-3.74-2.04-1.11-.47-4.17-.92-9.19-1.33l-1.66,.19c-2.31,0-4.75-.19-7.35-.57l-1.47,.38-5.26-.19-.57,.57-1.71-.19-2.61,.19c-.22,2.75-.92,4.12-2.09,4.12h-1.28l-.95-.76v-.57l.38-.38c.54,.63,1.03,.95,1.47,.95h.19l.57-1.14v-.71c-.28-.85-.84-1.49-1.66-1.9l-2.09,.19-.95-.19c-1.71,0-5.39,.63-11.04,1.89v-.19c-2.02,1.71-3.03,3.95-3.04,6.73,.38,2.62,1.26,3.93,2.65,3.93h.38c.73-.06,1.09-.25,1.09-.57v-.9l-.71-.76h-.38c-.51,.25-.76,.63-.76,1.14l.57,.52v.19h-.38l-.57-.57v-.9c.19-.5,.63-.76,1.33-.76,.79,0,1.28,.55,1.47,1.66v.19c0,.88-.43,1.52-1.28,1.9-2.46,0-4.03-1.69-4.69-5.07,0-2.02,.19-4.33,.57-6.92v-.19l-.57-7.49c-.35-.1-.92-2.04-1.71-5.83-.95-2.94-2.57-6.19-4.88-9.76l-2.8-2.99-.19-.76Zm36.4,9.39v-.19l.57,.19v.38h-.19l-.38-.38Zm-10.56-28.4v-.57l1.04-3.6c.51-1.45,1.33-2.8,2.47-4.03l3.46-4.98c.28-.32,1.6-.73,3.93-1.23,4.23-1.45,7.36-2.18,9.39-2.18h3.32c.25,.25,1.06,.46,2.42,.62l.85,.38,.19-.19,2.27,1.8h.19l.62-.43c5.43,5.5,8.23,8.77,8.39,9.81l4.07,8.39c0,1.3-1.63,2.91-4.88,4.83-1.2,.47-2.5,1.47-3.89,2.99-.44,0-2.02,.66-4.74,1.99-2.21,.38-3.92,.98-5.12,1.8-1.9,1.2-3.81,1.8-5.74,1.8l-1,.81c-.79,0-1.61-.81-2.46-2.42-.41,0-.62-.19-.62-.57-.92-.44-1.88-1.52-2.89-3.22-2.37-1.67-3.93-2.94-4.69-3.79-3.32-3.67-5.51-6.34-6.59-8.01Zm3.51-1.37c1.39,2.34,3.98,5.26,7.77,8.77,0,.35,1.64,1.82,4.93,4.41l1.04,.19c7.52-.91,12.23-2.04,14.13-3.36l6.73-5.21v-1.61c-1.61-2.15-2.42-3.48-2.42-3.98-.47-1.49-2.87-3.56-7.2-6.21l-1.23-.62-.62,.24c0-.57-1.36-1.04-4.08-1.42-1.23-.95-2.8-1.55-4.69-1.8l-4.55,2.18c-2.46,.98-4.44,2.12-5.93,3.41-1.67,2.15-2.77,3.22-3.27,3.22l-.62,.57,.19,1-.19,.24Zm-3.97-38.68c1.2-2.21,2.94-3.76,5.21-4.64l2.23-1.23h.38l.14,.19,.19-.19h.19l5.02-.19,5.97,5.36c-1.96,4.3-3.21,6.44-3.75,6.44l-.57,.14h-.71l-3.55-1.23v-2.32c.57-.82,1.2-1.23,1.9-1.23h.9c.89,.38,1.56,.92,2.04,1.61-.19,1.29-.87,1.94-2.04,1.94l-1.09-1.42,1.09-1.09,.38,.38v.19l-.19-.19h-.38l-.19,.71c.19,.47,.38,.71,.57,.71h.19l.76-.38v-.71c-.5-.69-1.01-1.04-1.52-1.04-.85,.41-1.47,1.12-1.85,2.13,1.58,.95,2.7,1.42,3.36,1.42,1.61-2.5,2.42-4.45,2.42-5.88-.76-.47-1.63-.78-2.61-.9-1.2,0-3.13,1.01-5.78,3.03l-2.42,1.61h-.38v.19c2.24,4.27,3.55,6.53,3.93,6.78l.19,.19h.19l.71-.19,4.46,1.61,.57-.57c.44,.38,.88,.57,1.33,.57h1.09l1.14-.9,2.23,.19h.38c1.99-.6,3.54-.9,4.65-.9h2.94l3.18-.57,.38,.38c1.49-.06,2.23-.19,2.23-.38,0-.38,.68-.66,2.04-.85l4.08-3.6c.63,.44,.95,.81,.95,1.09l-1.66,6.97v2.51l.33,2.84v2.13l-.71,.71h-.38c-.85,0-1.72-.88-2.61-2.66l-2.42-1.47c-1.17,0-2.59-.65-4.27-1.94-.54-.35-1.15-.52-1.85-.52l-.19,.14v.19l-1.33-.19c-1.11,.09-1.66,.22-1.66,.38l-4.83-.52h-.95c-1.14,0-2.24,.35-3.32,1.04-.22-.6-.54-.9-.95-.9,0,.38-2.23,.92-6.68,1.61-.44,0-.87,.66-1.28,1.99v.71c.51,.82,.87,1.23,1.09,1.23h.19c.85,0,1.28-.41,1.28-1.23v-.19l-.9-.71h-.19c-.25,0-.38,.17-.38,.52l-.19,.19h-.19v-.33c0-.85,.44-1.28,1.33-1.28h.19c1.11,.7,1.66,1.41,1.66,2.13,0,1.77-1.3,2.91-3.89,3.41-2.65,0-4.46-1.31-5.4-3.93,0-1.83,.62-3.62,1.85-5.36l-1.66-3.03c-1.14-5.88-1.88-8.97-2.23-9.29-.25,0-.38-.47-.38-1.42Z"/>
    <path id="a" d="M136.95,298.59c2.69,0,5.83,1.08,9.4,3.23l4.9,6.17c0,.31,.58,1.31,1.73,3,0,1.23,.79,3.6,2.36,7.09,.19,1,.58,1.75,1.15,2.25l-.17,1.85v2.08l.4,3.17-.4,2.83,.17,1.5-.17,6.17c.73,3.12,1.44,4.67,2.13,4.67l2.36,2.08v.92l-1.38,1.33c-2-.31-3.1-.56-3.29-.75h-4.33l-3.35,1.1c-1.58-.77-2.42-1.33-2.54-1.67v-.17c.38-.54,1.31-1.17,2.77-1.9,.85-.42,1.62-1.92,2.31-4.5l.4-1.27-.75-.58c-1.62,2.08-3.71,3.69-6.29,4.85-5.11,2-8.58,3-10.38,3-.54,0-1.9-.56-4.1-1.67-1.27-1.15-2.17-2.15-2.71-3l.17-.17v-.17l-.98-2.25c.54-2.42,2.1-4.98,4.67-7.67,0-.73,2.67-3.23,8.02-7.5l6.86-4.5c.5,0,1.15-.5,1.96-1.5h.23v-.17l-1.79-7.33c-1.85-2.85-3.4-4.59-4.67-5.25-1.69-.88-2.75-1.33-3.17-1.33h-.35c-.65,0-1.63,.83-2.94,2.48-.42,.12-.63,.48-.63,1.1,.31,0,.52,.63,.63,1.9,1.35,2,3.04,3,5.08,3l.75,1.27v1.15l-.58,.58h-.17c-4.23,0-7.31-1.75-9.23-5.25-.35-.54-.54-1.54-.58-3v-1.5c.5-1.58,1.35-2.88,2.54-3.92,1.77-1.15,3.08-1.73,3.92-1.73Zm10.96,22.32h-1.15c-1.58,.46-2.62,1.13-3.11,2.02-.35,0-1.33,.88-2.94,2.65-3,1.92-5.04,4.6-6.11,8.02-.38,0-.63,1.33-.75,3.98,1.38,1.23,2.23,1.85,2.54,1.85l.58,.17,.23-.17v-.17l1.15,.17,4.67-1.85c.46,0,1.96-1,4.5-3l.63-.75,1.15-1.33h.17l.23,.17h.17c0-.69,.27-1.19,.81-1.5l.35-3.17-.17-1.33,.17-1.27c0-2.38-.44-4.38-1.33-6-1.19,.15-1.79,.65-1.79,1.5Z"/>
    <path id="boy" d="M176.65,448.87l.69-.69c3.04,5.35,5.73,8.02,8.09,8.01,0,.66,.76,.98,2.26,.97,1.78,2.08,3.75,3.12,5.91,3.11l.98-.4c0,.59,3.54,1.06,10.62,1.43h.98c2.42-.01,3.63-.38,3.63-1.1l1.57,.38h.69v-.39c2.16,.45,5.5,.66,10.02,.64v-.29c.91-.85,1.65-5.04,2.21-12.56,.81-8.89,1.74-15.01,2.77-18.35,.46,0,1.99-2.79,4.58-8.35l3.22-5.6c1.31,0,2.68-1.38,4.11-4.14,2.16-1.19,5.3-1.79,9.43-1.81,3.93-.02,7.84,1.6,11.71,4.85,.79,1.24,3.39,3.75,7.8,7.52,1.92,3.72,3.01,6.26,3.27,7.63,1.73,6.07,3.35,10.81,4.88,14.2,.02,4.25-2.55,9.13-7.7,14.65l-3.54,.31c-3.02-1.16-4.53-3.12-4.55-5.87-.02-3.66,1.48-5.5,4.5-5.51,2.36,.77,3.55,2.27,3.56,4.5-1.3,1.38-2.38,2.07-3.23,2.07l-1.28-1.37v-.39h.59l.4,1.08c.98-.46,1.5-.92,1.57-1.38v-.69l-1.58-1.46h-.39c-1.11,.59-1.96,1.55-2.54,2.86v.29c0,1.44,.77,2.71,2.28,3.82h.29c3.47-.02,5.2-2.44,5.18-7.28v-2.75c-.02-1.18-2.53-6.72-7.55-16.64,0-1.24-2.28-3.68-6.81-7.33-.92-1.83-2.21-2.74-3.84-2.73-5.63,.02-8.87,1.08-9.72,3.18-2.61,3.21-4.33,6.59-5.17,10.12-2.16,0-4.19,7.63-6.09,22.88v3.14l.7,.68h2.26l1.96-1.39c0,1.18,2.37,2.08,7.09,2.72l.98,.39,8.45-1.11,1.57,.38,2.95-.4,4.92,.37,8.64-2.19c1.57-.27,4.05-1.88,7.45-4.84,.94,4.7,1.7,7.48,2.3,8.33l.02,4.51-.97,4.12v3.14l-.57,.69h-.69c-2.89-2.99-5.59-4.58-8.08-4.77l-4.92-1.45-15.13,1.54-5.5-.37c-9.96,.37-14.93,1.53-14.92,3.5l-.68,.79h-.59c-.79-1.17-1.45-1.76-1.97-1.75l-11.31-1.03h-2.65l-1.27,.7-11,1.13h-.98l-1.96,.7-1.87-.38-7.74,5.62c-.52,1.9-1.81,4.68-3.9,8.35h-.69l-.89-.68,.25-11.08-.03-8.04c0-2.16-1.67-7.12-4.98-14.89l-.02-3.83Zm1.74,17.06v-1.08h.58v1.08h-.58Zm16.41-94.32v-1.18l2.13-7.46c1.04-3.01,2.73-5.8,5.07-8.36l7.13-10.33c.59-.66,3.3-1.52,8.15-2.58,8.77-3.04,15.25-4.58,19.44-4.59l6.88-.03c.53,.52,2.2,.94,5.02,1.25l1.77,.78,.39-.39,4.73,3.71h.39l1.27-.89c11.32,11.33,17.14,18.07,17.48,20.23l8.52,17.32c.01,2.68-3.35,6.03-10.08,10.05-2.48,.99-5.16,3.06-8.03,6.21-.92,0-4.19,1.39-9.81,4.16-4.58,.8-8.11,2.06-10.6,3.77-3.92,2.5-7.88,3.76-11.87,3.78l-2.06,1.68c-1.64,0-3.35-1.65-5.13-4.98-.85,0-1.28-.39-1.28-1.17-1.9-.91-3.91-3.12-6.02-6.64-4.93-3.44-8.18-6.05-9.76-7.81-6.91-7.55-11.49-13.06-13.73-16.52Zm7.26-2.88c2.9,4.83,8.3,10.85,16.19,18.08,0,.72,3.42,3.75,10.26,9.08l2.16,.38c15.58-1.96,25.34-4.32,29.25-7.09l13.91-10.85v-3.33c-3.37-4.43-5.06-7.17-5.06-8.22-1-3.07-5.99-7.33-14.99-12.78l-2.56-1.26-1.27,.5c0-1.18-2.83-2.14-8.46-2.91-2.56-1.95-5.81-3.18-9.74-3.69l-9.41,4.55c-5.1,2.05-9.18,4.42-12.25,7.11-3.45,4.46-5.7,6.69-6.75,6.7l-1.27,1.18,.4,2.06-.39,.49Zm-23.33-78.56c5.79-9.37,8.67-17.79,8.64-25.24l-1.01-6.57,.39-.3h.59c3.43,5.35,6.13,8.15,8.09,8.4,2.7,2.87,5.59,4.29,8.67,4.28,2.37,1.69,5.85,3.54,10.44,5.55,.2,.65,2.1,1.5,5.71,2.53,0,.52,1.42,1.56,4.24,3.12,5.65,4.42,9.14,6.79,10.45,7.12,0,.98,1.42,1.6,4.23,1.85,0,.52,.99,.81,2.95,.87,.86,1.5,3.35,2.73,7.48,3.7l3.94,.96c2.96,2.28,5.16,3.51,6.6,3.7l1.19,1.56,.29-.29h.59c1.12,1.37,4.21,3.64,9.27,6.82,0,.72,3.71,2.76,11.13,6.13,3.28,1.88,6.8,5.3,10.56,10.25l2.96,3.13v.29l-.29,.29,3.58,9.01c.99,.91,1.48,2.15,1.49,3.72,1.38,1.56,2.81,6.43,4.29,14.59,.59,0,.89,1.99,.91,5.98v3.14c-1.01,5.82-2.11,8.74-3.29,8.74-3,3.41-7.15,6.34-12.44,8.78-3.28-1.49-7.06-5.14-11.35-10.94v-1.18c-.02-4.64,1.04-9.03,3.18-13.16,1.5-.86,3.11-1.39,4.81-1.59,4.98-.02,7.47,.59,7.48,1.83l4.45,5.96c-.97,3.86-2.23,7.17-3.79,9.92h-.88c-6.81,.03-10.22-.87-10.23-2.7l-.32-5.29v-1.86c1.82-1.84,3.81-2.89,5.97-3.16h.29l5.73,6.15-4.21,4.14c-3.15-.71-4.72-1.84-4.73-3.41v-2.55c-.01-.33,.87-.72,2.64-1.19l1.19,1.56c-1.77,0-2.65,.83-2.64,2.46,1.32,1.04,2.3,1.56,2.95,1.56h.29c.98-.72,1.7-1.77,2.15-3.15-1.71-2.67-3.42-4.01-5.13-4l-3.32,4.33c.67,3.53,1.99,5.29,3.95,5.28l3.54,.67c1.97,0,3.46-2.92,4.48-8.75-2.64-4.17-4.94-6.26-6.91-6.25-5.56,2.38-8.33,5.49-8.31,9.35l.02,5.3c3.68,3.52,7.16,5.27,10.44,5.25,4.97-1.13,7.46-2.58,7.45-4.35,.52-.39,1.3-2.07,2.34-5.01-.02-3.99-.52-7.81-1.52-11.47,0-.85-.2-1.27-.6-1.27l.29-2.16v-.39c-.93-1.44-2.41-5.25-4.47-11.46-1.59-3.26-3.99-5.93-7.21-8.01-.8-3.33-2.91-6.04-6.32-8.11-4.74-5.14-9.04-8.56-12.92-10.24l-7.19-4.28c0-.72-2.2-1.95-6.6-3.7-1.38-2.09-3.78-3.12-7.19-3.11l-5.1,1.88c0,.85-2.15,1.81-6.47,2.87-2.75,.8-5.13,2.34-7.15,4.64-2.35,1.91-4.34,2.86-5.98,2.87l-3.63,2.47c-3.26,4.2-6.23,6.3-8.92,6.31l-1.18,.89-2.75-.28c-.32,.66-1.79,1.51-4.41,2.57-2.22,2.5-4.1,5.8-5.66,9.93l-.29,.3h-.29l-.59-.58v-1.57l1.71-12.46-.02-3.73c0-1.76-1.43-6.01-4.28-12.73v-.69l.98-.89c.39,0,.69,.62,.89,1.86,1.58,2.67,4.38,4,8.37,3.99,0,.52,.4,.85,1.18,.98,1.97,0,5.56-.97,10.8-2.89l3.24-1.58h2.65c1.97-.02,4.68-1.17,8.14-3.48,3.14-.01,5.82-1.69,8.04-5.04v-.59c0-.92-2.83-1.95-8.47-3.1-1.83,0-3.8-1-5.91-3.02-3.08-1.03-6.2-2.39-9.35-4.08l-3.54-.57-4.23,.02c-.66-1.11-2.96-2.05-6.89-2.81l-.59-.59-5.11,.02-5.89,.32c-2.41,3.48-3.61,6.1-3.6,7.86h-2.65c-1.18-.7-2-1.45-2.47-2.23Zm110.39,77.11c1.38-.07,2.06-.7,2.06-1.87l.59,.59c-.26,.85-.75,1.47-1.47,1.87h-.59l-.59-.58Z"/>
    <path id="his" d="M366.58,324.92h2.27l.86,.83v.57l-7.06,4.16c-3.57,3.62-6.28,9.61-8.12,17.95-1.66,7.11-3.47,12.48-5.43,16.09l-.61,16.91,.03,5.11-1.57,23.03c7.32-8.47,13.44-12.96,18.36-13.47,0-.57,.94-.9,2.83-1.01h.71c3.78-.03,8.38,1.79,13.79,5.46,1.07,5.49,2.42,10.08,4.05,13.76,1.25,3.78,2.85,10.69,4.8,20.72,.47,.09,1.53,3.26,3.18,9.5l.9,7.81-.83,3.27-.37,9.24c.88,4.73,2.38,10.07,4.49,16.03,1.06,4.25,4.87,8.35,11.42,12.29l-.85,.86h-.71l-16.49-7.15c-6.15,.04-11.75,2.82-16.83,8.34l-1.58-2.83c4.41-5.71,6.61-9.99,6.59-12.83l1.91-12.37v-.43l-.86-1.42c.73-5.12,1.08-9.71,1.05-13.79v-.43c-.76,0-1.41-6.57-1.96-19.74-1.04,0-1.58-4.16-1.63-12.5-.76,0-1.33-1.51-1.73-4.54-.28,0-.67-1.04-1.15-3.12l-.72-1.84-1.99-.98-5.53,.03-4.68-.83c-4.34,2.3-8.61,6.59-12.83,12.86-2.63,2.76-3.93,6.75-3.9,11.96h-.42l.43,.43c-1.26,10.71-1.88,18.39-1.85,23.03,.98,6.44,3.11,14.24,6.38,23.41l4.85,4.94c-.28,.95-1.08,1.43-2.4,1.44l-1.14-.42-.42,.43h-.43c-4.36-1.49-11.41-2.54-21.15-3.14-.94,.77-2.88,1.25-5.81,1.46l-.43-.42v-.43c4.49-7.51,7.42-15.34,8.79-23.5l2.76-13.37c-.02-4.07,.33-7.91,1.07-11.51-.76,0-1.14-.42-1.14-1.27l2.24-5.13,.39-5.54-.45-3.69,.33-15.49-.54-19.32c-1.04,0-1.97-4.91-2.78-14.76-.57-.47-1.11-4.11-1.62-10.93-2.29-3.97-3.78-7.46-4.46-10.49-1.34-2.55-3.43-4.38-6.27-5.5v-1l.84-.86h1.84c7-.05,14.45-2.98,22.35-8.81,9.42-4.7,15.84-7.06,19.24-7.08Zm56.54,16.72c6.25,1.29,14.16,4.04,23.73,8.24,4.46,3.76,6.71,7.3,6.73,10.62,1.75,7.38,2.63,12.77,2.65,16.18,.02,3.79-1.85,7.21-5.61,10.26,.02,3.13-8,5.97-24.06,8.53l-3.12,.02c-7.02-2.8-11.95-5.85-14.8-9.15l-9.84-9.75,1.13-1c3.32,2.35,8.07,6.73,14.26,13.13,1.89-.01,4.97,1.58,9.25,4.78l.56-.43,4.68-.03c6.52-.8,11.94-2.63,16.28-5.5,1.98-.77,4.36-5.38,7.15-13.83-1.87-12.97-4.46-19.44-7.77-19.42-6.36-4.23-13.23-6.32-20.6-6.27-8.23,.05-14.15,6.1-17.76,18.15v1.99c10.4,13.67,17.76,20.5,22.11,20.47h1.56c7.85-.06,12.78-5.48,14.79-16.29l-.03-4.83c-3.64-7.56-8.81-11.32-15.53-11.28l-9.79-1.36-5.48,8.84v2.42c6.78,9.34,11.07,14.38,12.87,15.13,7.56-.04,11.33-2.2,11.31-6.46,.76,0,1.22-1.48,1.39-4.41-5.24-6.12-9.18-9.18-11.83-9.17-4.06,1.07-6.08,2.22-6.08,3.45,.02,3.32,1.74,7.05,5.17,11.19,3.12-.02,5.33-1.5,6.64-4.44-1.25-2.64-2.96-4.43-5.14-5.37h-1.56l-1.54,3.43,2.58,3.96c2.08-.48,3.11-1.63,3.1-3.43l-1-1.42,.42-.57h.57l1,1.98c.02,2.94-1.35,4.41-4.09,4.43-2.18,.01-3.7-1.92-4.57-5.8l-.02-2.98c0-.85,1.88-1.86,5.66-3.02,5.14,5.08,7.71,8.81,7.72,11.18l-9.19,5.45h-.57c-1.8,.01-4.71-5.32-8.75-16v-.57l8.61-5.88h.99c9.2,5.72,14,9.62,14.39,11.7l.58,1.42c.04,7.2-1.31,10.81-4.05,10.82,0,.76-1.36,1.57-4.1,2.44l-4.52,3.01h-1.56c-5.7-3.94-9.31-7.37-10.84-10.3-4.38-4.52-7.27-6.78-8.69-6.77,2.68-11.1,5.72-16.66,9.12-16.68l16.3-1.52c5.13,3.86,7.7,6.59,7.71,8.2,4.37,4.14,6.81,8.06,7.3,11.75v1c-5.4,12.73-10.85,19.1-16.33,19.14l-1.42,.43-5.67,.03c-1.99,.01-7.31-4.03-15.96-12.13-4.85-4.99-7.28-8.39-7.29-10.19v-2.42c5.95-13.49,11.39-20.86,16.3-22.12,0-.66,1.5-1.67,4.52-3.01Zm32.65,53.23l1,1.42v2.42c-6.38,6.48-9.57,10.1-9.57,10.86-3.74,7.6-5.58,15.76-5.53,24.47l-.96,5.4,3.66,20.01c.6,5.68,2,10.6,4.2,14.75,2.39,4.53,7.18,7.92,14.38,10.15,1.7-.01,2.55,.32,2.56,.98l-.56,.43h-1.42l-19.03-4.29-2.55,.58-3.54,.02c-14.08,1.88-22.43,3.88-25.07,5.97-1.23,0-2.6,1.01-4.1,3.01v.85c0,.76,.86,1.27,2.57,1.55,1.32-.38,1.98-1.05,1.97-2h.99v.42c-.65,1.99-2.01,3-4.09,3.01h-.99c-1.89,.02-3.41-.97-4.55-2.95v-1.42c-.02-2.18,2-4.46,6.05-6.86,9.22-7.25,13.82-13.15,13.79-17.7,1.31-2.57,1.96-4.84,1.95-6.83h.57l-.58-2.42,.43-23.59c-.02-2.75-1.41-7.14-4.19-13.19-2.8-9.08-6.94-13.6-12.42-13.57l-1.57-1.55v-.43l1.55-1.43h2.13l4.54,.39c14.08-1.31,24.66-3.32,31.73-6.01,2.16-1.62,4.38-2.44,6.65-2.45Zm34.94-39.71c0,.57,6.25,1.1,18.73,1.59,1.71,.75,3.8,3.2,6.28,7.35l5.73,9.63v1.14l-5.03,10.83c-3.45,8.36-6.07,12.54-7.87,12.55-3.12,.02-11.28-4.48-24.47-13.5h-1.13l-.02-3.97c2.31-8.73,5.31-13.1,9-13.13h2.27c4.54-.04,6.82,2.03,6.84,6.2,.76,0,1.14,.94,1.15,2.83,0,1.61-2.06,4.09-6.2,7.42-1.99,.01-4.08-1.68-6.27-5.08v-.57c1.02-3.04,1.96-4.56,2.81-4.56h2.27l1.71,1.68v1.71l-1.12,1.14h-.57v-.57l.56-.57v-.57l-1.71-1.13-1.13,1.14v1.14c.77,1.51,1.72,2.26,2.86,2.26,1.42,0,2.35-1.72,2.81-5.13-.01-2.08-1.53-3.59-4.56-4.52-3.21,1.25-5.09,2.78-5.65,4.58v1.14c.04,4.93,4.79,8.88,14.26,11.85l3.42,2.25h1.13c1.89-.02,2.81-4.57,2.76-13.66-.02-3.22-4.4-7.74-13.13-13.56-14.36,2.36-21.53,4.67-21.52,6.95l.02,2.84c.51,6.16,4.72,14.66,12.63,25.5,.01,2.27,6.84,6.02,20.49,11.25,1.42,0,2.75,1.12,3.99,3.39l.56-.57h1.7c.75-.01,1.52,1.12,2.29,3.39,12.54,11.2,18.83,18.17,18.84,20.92,1.53,2.55,2.3,5.39,2.32,8.51,0,.76-3.95,4.38-11.85,10.87-9.66,13.23-18.3,22.18-25.93,26.87h-.57l-23.28-3.84c-3.21,.02-8.56-7.91-16.02-23.78l-.6-5.11v-.57c-.02-2.65,3.18-5.13,9.59-7.45,4.52-3.91,10.92-7.92,19.22-12.05l.57,.57h.57l1.7-.58c0,.57,2.47,1.69,7.39,3.37,2.66,1.97,3.99,3.86,4,5.66-.26,4.17-2.31,9.67-6.14,16.52h-1.7c-9.83,.07-14.77-3.31-14.81-10.13,4.22-5.71,7.42-8.57,9.59-8.58h.57c2.08-.02,3.98,1.3,5.7,3.94,.03,4.17-1.28,6.83-3.92,7.98h-2.27c-2.08,.03-3.41-.91-3.99-2.8-.01-1.99,1.11-3.7,3.37-5.14h1.13v1.13l-2.26,.58v1.71l1.72,1.69h1.7l1.69-1.72v-2.27l-2.3-2.26h-2.27c-2.64,1.83-3.95,3.92-3.93,6.29,.02,3.41,2.49,5.1,7.4,5.07,3.39-1.82,5.08-4.1,5.07-6.85v-2.27c-.04-3.98-2.7-6.42-8-7.34-7.57,.04-13.57,7.09-18.03,21.14l.02,3.41c.02,3.13,2.68,6.33,8,9.62,1.71,1.98,7.58,3.46,17.61,4.44l3.4-.02c6.52-.04,13.27-11.07,20.22-33.09l-.02-3.98c-7.42-7.72-17.11-14.87-29.06-21.43-6.37-5.27-15.67-11.28-27.9-18.02-.02-3.69-1.77-11.83-5.25-24.41-.02-3.22,2.8-6.46,8.45-9.71,.56-1.42,5.28-2.97,14.15-4.63,2.73-1.53,6.13-2.5,10.19-2.9Z"/>
    <path id="considerate" d="M337.55,251.43c3.42,2.28,6.09,6.52,8.03,12.7,0,1.2,.28,2.61,.82,4.25v.53l-.79,.8c-.4-.04-.84-.75-1.34-2.12-.4,0-1.02-1.14-1.88-3.44-2.22-2.25-4.09-3.56-5.59-3.95-6.39,2.78-9.65,4.66-9.78,5.64-5.08,7.29-7.62,11.11-7.62,11.47,.05,7.84,1.67,13.23,4.87,16.17,2.5,4.37,6.41,7.98,11.73,10.82,4.33-.03,7.23-1.81,8.72-5.36,.7-1.11,1.05-2,1.04-2.66v-.8c-.69-3.36-1.76-5.04-3.21-5.03l-1.06-.26h-.53l-1.32,1.34c0,1.37,.45,2.26,1.34,2.65h1.33l.79-.54v.27l-1.05,1.07h-1.59c-1.24-.82-1.87-1.88-1.87-3.17v-.27c-.01-1.46,.95-2.44,2.9-2.94,2.39-.01,3.98,1.13,4.79,3.42l.81,2.12-.26,.8,.27,1.59c.03,4.65-1.63,7.94-4.98,9.86-1.58,2.66-3.86,4.54-6.86,5.62h-.27c-1.19,0-3.15-1.31-5.86-3.95-4.16-1.79-7.9-5.22-11.2-10.29l-1.61-2.91c-1.06,0-1.59-.61-1.6-1.85-.66-.39-1.83-2.6-3.49-6.62h-.53v-.79l.52-.8v-.27l-1.34-1.32,6.56-11.73c2.72-3.91,5.7-7.83,8.94-11.74,0-1.02,2.46-3.25,7.38-6.68,2.29-1.08,3.88-1.62,4.76-1.62Zm-23.48,19.26h.53v.26l-.53,.53v-.8Zm60.6-18.02h.79l5.05,1.43c2.04,.7,3.92,1.84,5.65,3.42l6.99,4.81c.44,.4,1.03,2.23,1.75,5.5,2.07,5.92,3.11,10.3,3.13,13.13l.03,4.65c-.35,.36-.63,1.49-.84,3.39l-.52,1.2,.27,.26-2.5,3.2v.27l.6,.86c-7.64,7.66-12.19,11.61-13.65,11.83l-11.7,5.78c-1.81,.01-4.08-2.26-6.8-6.8-.67-1.68-2.08-3.49-4.21-5.42,0-.62-.94-2.83-2.82-6.62-.55-3.1-1.4-5.48-2.56-7.16-1.7-2.65-2.55-5.32-2.57-8.02l-1.14-1.39c0-1.11,1.11-2.26,3.36-3.47,0-.58,.26-.87,.79-.87,.61-1.29,2.1-2.65,4.48-4.08,2.32-3.33,4.08-5.54,5.26-6.61,5.1-4.68,8.81-7.78,11.15-9.3Zm1.95,4.9c-3.26,1.97-7.32,5.62-12.2,10.96-.49,0-2.53,2.32-6.12,6.94l-.26,1.46c1.34,10.53,2.95,17.12,4.82,19.76l7.35,9.39h2.25c2.99-2.29,4.84-3.43,5.55-3.43,2.07-.68,4.95-4.06,8.62-10.14l.85-1.73-.34-.86c.8,0,1.45-1.91,1.95-5.72,1.32-1.73,2.14-3.93,2.48-6.59l-3.09-6.36c-1.39-3.45-3-6.2-4.82-8.27-3.02-2.33-4.53-3.85-4.53-4.56l-.8-.86-1.39,.27-.33-.26Zm43.11-6.89l.47,.53c-2.55,1.43-4.27,3.48-5.13,6.14-.61,2-1.05,6.23-1.32,12.69,4.3-4.45,7.93-6.84,10.89-7.17,0-.27,.55-.42,1.65-.47h.46c2.21-.02,4.93,.94,8.17,2.87,.64,2.92,1.42,5.37,2.36,7.36,.76,1.99,1.73,5.63,2.92,10.94,.27,.04,.89,1.77,1.89,5.17l.49,4.11-.45,1.73-.24,4.85c.5,2.57,1.38,5.42,2.63,8.55,.68,2.3,2.94,4.5,6.8,6.6l-.46,.47h-.46l-9.83-3.86c-3.62,.02-6.95,1.5-9.98,4.44l-.94-1.46c2.63-3.07,3.95-5.36,3.94-6.86l1.09-6.58v-.27l-.47-.73c.47-2.7,.7-5.14,.69-7.31v-.27c-.49,0-.91-3.49-1.26-10.49-.62,0-.94-2.21-.97-6.63-.44,0-.76-.79-.94-2.39-.22,0-.47-.57-.74-1.72l-.47-.99-1.13-.46-3.25,.02-2.85-.51c-2.6,1.26-5.15,3.55-7.65,6.89-1.54,1.47-2.3,3.6-2.28,6.39h-.2l.2,.27c-.76,5.67-1.13,9.75-1.12,12.23,.59,3.41,1.88,7.56,3.85,12.46l2.8,2.64c-.17,.49-.64,.73-1.39,.74l-.73-.26-.2,.27h-.26c-2.57-.78-6.77-1.33-12.6-1.65-.57,.4-1.72,.65-3.44,.75l-.27-.2v-.27c2.67-4,4.43-8.17,5.29-12.52l1.61-7.05c-.01-2.17,.2-4.21,.63-6.11-.44,0-.66-.26-.67-.79l1.38-2.66,.18-2.92-.21-2.19,.15-8.57c-.02-3.1-.65-5.86-1.9-8.29v-.27c1.76-.32,3.86-1.55,6.27-3.69,3.57-2.32,5.9-3.49,7.01-3.49Zm42.94-1.18c0,.27,2.92,.51,8.75,.75,.8,.35,1.78,1.49,2.94,3.43l2.68,4.5v.53l-2.35,5.06c-1.61,3.91-2.84,5.86-3.68,5.87-1.46,0-5.27-2.09-11.44-6.31h-.53v-1.86c1.07-4.08,2.47-6.12,4.19-6.13h1.06c2.12-.02,3.19,.95,3.2,2.9,.35,0,.53,.44,.54,1.33,0,.75-.96,1.91-2.9,3.47-.93,0-1.9-.79-2.93-2.37v-.27c.48-1.42,.91-2.13,1.31-2.13h1.06l.8,.79v.8l-.52,.53h-.26v-.26l.26-.27v-.27l-.8-.53-.53,.53v.53c.36,.71,.8,1.06,1.33,1.05,.66,0,1.1-.8,1.31-2.4,0-.97-.72-1.68-2.13-2.11-1.5,.58-2.38,1.3-2.64,2.14v.53c.02,2.3,2.24,4.15,6.66,5.54l1.6,1.05h.53c.88,0,1.31-2.14,1.29-6.39,0-1.5-2.05-3.62-6.14-6.34-6.71,1.1-10.06,2.18-10.05,3.25v1.33c.25,2.88,2.21,6.85,5.91,11.92,0,1.06,3.2,2.81,9.58,5.26,.66,0,1.28,.52,1.87,1.58l.26-.27h.8c.35,0,.71,.52,1.07,1.58,5.86,5.23,8.8,8.49,8.81,9.78,.71,1.19,1.08,2.52,1.08,3.98,0,.35-1.84,2.05-5.54,5.08-4.52,6.18-8.55,10.37-12.12,12.56h-.26l-10.88-1.79c-1.5,0-4-3.69-7.49-11.11l-.28-2.39v-.27c0-1.24,1.49-2.4,4.48-3.48,2.11-1.83,5.1-3.7,8.98-5.63l.27,.26h.27l.79-.27c0,.27,1.15,.79,3.46,1.57,1.24,.92,1.87,1.8,1.87,2.65-.12,1.95-1.08,4.52-2.87,7.72h-.79c-4.6,.03-6.9-1.55-6.92-4.74,1.97-2.67,3.46-4,4.48-4.01h.26c.97,0,1.86,.61,2.66,1.84,.01,1.95-.6,3.19-1.83,3.73h-1.06c-.97,.01-1.59-.43-1.86-1.31,0-.93,.52-1.73,1.58-2.4h.53v.53l-1.06,.27v.8l.8,.79h.79l.79-.81v-1.06l-1.07-1.06h-1.06c-1.23,.86-1.84,1.83-1.84,2.94,0,1.59,1.16,2.38,3.46,2.37,1.59-.85,2.37-1.92,2.37-3.2v-1.06c-.02-1.86-1.26-3-3.74-3.43-3.54,.02-6.34,3.31-8.42,9.88v1.59c.02,1.46,1.26,2.96,3.75,4.49,.8,.93,3.54,1.62,8.23,2.08h1.59c3.05-.03,6.2-5.18,9.45-15.47v-1.86c-3.48-3.61-8-6.95-13.59-10.01-2.98-2.46-7.32-5.27-13.04-8.42,0-1.73-.83-5.53-2.45-11.41,0-1.5,1.31-3.02,3.95-4.54,.26-.67,2.47-1.39,6.62-2.16,1.28-.71,2.86-1.17,4.76-1.36Zm34.69-6.71c2.92,.6,6.62,1.89,11.09,3.85,2.09,1.76,3.14,3.41,3.14,4.96,.82,3.45,1.23,5.97,1.24,7.56,.01,1.77-.86,3.37-2.62,4.8,0,1.46-3.74,2.79-11.24,3.98h-1.46c-3.28-1.3-5.58-2.72-6.92-4.27l-4.6-4.56,.53-.47c1.55,1.1,3.77,3.14,6.67,6.14,.88,0,2.32,.74,4.32,2.23l.26-.2h2.19c3.05-.38,5.58-1.24,7.61-2.58,.93-.36,2.04-2.51,3.34-6.46-.88-6.06-2.09-9.08-3.63-9.08-2.97-1.97-6.18-2.95-9.63-2.93-3.84,.02-6.61,2.85-8.3,8.48v.93c4.86,6.39,8.3,9.58,10.34,9.57h.73c3.67-.03,5.97-2.56,6.91-7.62v-2.26c-1.71-3.53-4.13-5.29-7.27-5.27l-4.58-.64-2.56,4.13v1.13c3.17,4.36,5.17,6.72,6.01,7.07,3.54-.02,5.3-1.03,5.29-3.02,.35,0,.57-.69,.65-2.06-2.45-2.86-4.29-4.29-5.53-4.28-1.9,.5-2.84,1.04-2.84,1.61,0,1.55,.82,3.29,2.42,5.23,1.46,0,2.49-.7,3.1-2.08-.58-1.24-1.38-2.07-2.4-2.51h-.73l-.72,1.6,1.2,1.85c.97-.23,1.45-.76,1.45-1.6l-.47-.66,.2-.27h.27l.47,.93c0,1.37-.63,2.06-1.91,2.07-1.02,0-1.73-.9-2.14-2.71v-1.39c-.01-.4,.87-.87,2.63-1.41,2.4,2.38,3.6,4.12,3.61,5.22l-4.29,2.55h-.27c-.84,0-2.2-2.49-4.09-7.48v-.27l4.03-2.75h.46c4.3,2.67,6.54,4.5,6.73,5.47l.27,.66c.02,3.37-.61,5.05-1.89,5.06,0,.35-.64,.73-1.92,1.14l-2.11,1.41h-.73c-2.66-1.84-4.35-3.44-5.07-4.81-2.04-2.11-3.4-3.17-4.06-3.16,1.25-5.19,2.67-7.79,4.26-7.79l7.62-.71c2.4,1.8,3.6,3.08,3.6,3.83,2.04,1.94,3.18,3.77,3.41,5.49v.46c-2.53,5.95-5.07,8.93-7.63,8.94l-.66,.2-2.65,.02c-.93,0-3.41-1.88-7.46-5.67-2.27-2.33-3.4-3.92-3.41-4.76v-1.13c2.78-6.3,5.33-9.75,7.62-10.34,0-.31,.7-.78,2.11-1.41Zm15.26,24.88l.47,.66v1.13c-2.98,3.03-4.47,4.72-4.47,5.07-1.75,3.55-2.61,7.37-2.58,11.44l-.45,2.53,1.71,9.35c.28,2.65,.93,4.95,1.96,6.89,1.12,2.12,3.36,3.7,6.72,4.74,.79,0,1.19,.15,1.2,.46l-.26,.2h-.66l-8.89-2-1.19,.27h-1.66c-6.58,.89-10.48,1.82-11.71,2.8-.57,0-1.21,.47-1.91,1.41v.4c0,.35,.4,.59,1.2,.72,.62-.18,.92-.49,.92-.93h.46v.2c-.3,.93-.94,1.4-1.91,1.41h-.46c-.88,0-1.59-.45-2.13-1.38v-.66c0-1.02,.93-2.09,2.83-3.2,4.31-3.39,6.46-6.15,6.45-8.27,.61-1.2,.92-2.26,.91-3.19h.27l-.27-1.13,.2-11.03c0-1.28-.66-3.34-1.96-6.16-1.31-4.24-3.24-6.36-5.8-6.34l-.73-.73v-.2l.72-.67h.99l2.12,.18c6.58-.61,11.52-1.55,14.83-2.81,1.01-.76,2.05-1.14,3.11-1.15Zm26.48-28.18c1.15,0,3.61,.84,7.37,2.55l3.05,.65,4.97-.03,6.89-.31,.47,.66v.46c0,.27-.85,.71-2.57,1.34,0,.35-.86,.78-2.58,1.28l-3.48,5.73,.27,.86-.46,1.26v.66l-.61,7.91-.4,.4v1.73l.66,8.1,1.13,.86v.46c0,.27-.37,.4-1.12,.41-.96,2.35-1.42,5.7-1.4,10.04l.22,4.12-.8,9.83c1.18,4.95,2.12,7.42,2.83,7.42l1.13,1.32v.4l-.46,.47h-1.92l-2.65,.69-2.78,.02c-.45-.53-1.75-.9-3.92-1.11l-1.06-.19-.27-.2v-.27c2.46-2.54,3.68-5.29,3.66-8.25l.65-2.46-.22-3.65,.19-1.33-.21-1.73,.56-5.45-.89-4.18-.67-.86-.2-.2h-.2l.85-1.33v-1.53l-.48-.4h-1.92c-9.05,1.26-13.88,2.66-14.49,4.21-2.21,.72-4.52,2.11-6.93,4.16-.7,.8-1.04,2.84-1.02,6.12,0,.89,.58,1.68,1.74,2.38,1.47,2.29,3.23,3.97,5.27,5.02,5.89,3.02,9.15,4.53,9.77,4.53h1.72c3.05-.03,4.57-1.21,4.55-3.56v-.2c-.71-1.01-1.51-1.52-2.4-1.51h-.27c-.75,.36-1.32,.94-1.71,1.74v.27l.87,1.06h.46c.31-.09,.59-.45,.86-1.07l-.66-.26v-.4h.2l.87,.86c0,.8-.48,1.53-1.45,2.2-1.55,0-2.44-1-2.67-3.04,0-1.59,1.29-2.4,3.9-2.41,1.46,0,2.55,1.07,3.27,3.24,.01,1.82-.62,3.06-1.9,3.73-2.55,2.45-4.93,3.68-7.14,3.69-5.58-2.14-8.7-3.2-9.37-3.2-3.45-1.04-6.05-3.13-7.79-6.26-1.02,0-2.33-1.73-3.94-5.22l-.69-4.31c-.02-4.03,.98-6.38,3.01-7.06,.56-1.6,1.42-2.4,2.57-2.41,1.23-1.03,3.54-2.48,6.93-4.36,1.94-.76,5.1-1.38,9.47-1.85,6.23-.61,9.34-1.21,9.33-1.78h.46v-.2c-.02-3.23-.19-5.33-.5-6.31l.19-.86-.21-.93c.44,0,.66-.8,.65-2.39v-.66c-.3-4.78-.6-7.17-.91-7.17l.19-.67c0-1.02-.66-2.45-1.95-4.3-1.79-3.93-3.48-5.89-5.07-5.88l-.6-.86,.2-.2h1.52Zm8.69,1h.6v.46h-.59v-.46Zm32.81,11.49h.26c1.02,0,2.02,.7,3,2.11,.88,.22,3.46,2.53,7.73,6.93l4.27,5.29,1.29,4.31v.8c-.21,1.99-1.19,4.21-2.94,6.66-2.14,4.66-4.11,7-5.92,7.01l-.73,.27c-3.71,.02-9.2-2.18-16.48-6.61-1.16-1.19-1.74-2.42-1.75-3.71v-.53c.73-2.88,2.53-4.33,5.41-4.35h.26c1.33,0,1.99,.81,2,2.44-.43,1.6-.85,2.4-1.25,2.4h-1.46l-1-1.05v-.53l.46-.53c0,.71,.18,1.06,.54,1.06l.72-.8v-.8c-.18-.53-.67-.79-1.47-.79-.79,0-1.39,.89-1.77,2.67,0,1.37,2.09,2.78,6.25,4.21,2.04,1.54,4.61,2.5,7.71,2.88,2.39-.01,4.45-1.8,6.2-5.35l.53-.54-.02-3.72c-.69-4.25-1.79-7.18-3.3-8.81-3.55-2.81-5.73-4.22-6.52-4.21h-1.46c-.97,.01-2.8,1.35-5.48,4.03-1.59,.36-3.8,3.76-6.63,10.2l-2.22,5.86v1.86l3.58,8.81c.82,3.67,2.91,6.76,6.28,9.26,3.64,2.5,5.96,3.75,6.98,3.74l3.71,.24c1.63,0,3.2-1.08,4.69-3.21v-2.46l.51-.8-2.04-7.96c0-.4,.73-.67,2.18-.81,1.77,.65,2.95,1.44,3.53,2.37l.02,4.25c.03,4.16-1.37,7.47-4.18,9.92-2.42,2.4-4.22,3.92-5.41,4.55h-.53c-5.27-1.56-8.26-2.96-8.97-4.19-1.11-.35-2.19-1.32-3.26-2.9-2.54-3.04-4.27-4.82-5.2-5.35l-4.55-7.41c-.93,0-2.02-1.87-3.28-5.62v-2.39l-.75-1.59,4.46-7.73c.17-1.86,2.2-4.91,6.11-9.13,0-.53,2.39-3.22,7.18-8.08l2.71-2.14Zm-9.38,5.97h.26l-.79,.8v-.27l.53-.53Zm58.08-7.45c3.1,1.67,5.28,4.09,6.54,7.27l1.74,3.11v.53l-.26,.2,.27,.26v.27l.31,7.04-7.44,8.41c-6.03-2.71-9.04-4.44-9.04-5.19l-.2-.8v-1l1.69-4.99,3.25-.02c1.15,.79,1.73,1.67,1.74,2.65v1.26c-.51,1.24-1.26,2.2-2.23,2.87-1.81-.25-2.72-1.2-2.73-2.84l1.98-1.54,1.53,1.52-.53,.53h-.26l.26-.27v-.53l-1-.26c-.66,.27-.99,.54-.99,.8v.27l.54,1.06h.99c.97-.72,1.45-1.43,1.45-2.14-.58-1.19-1.58-2.05-3-2.57-1.31,2.22-1.97,3.8-1.96,4.73,3.5,2.24,6.25,3.35,8.24,3.34,.66-1.07,1.07-2.29,1.24-3.66,0-1.68-1.44-4.37-4.29-8.08l-2.27-3.37v-.53h-.27c-5.95,3.18-9.09,5.04-9.44,5.57l-.26,.27v.27l.27,1-2.22,6.25,.8,.79c-.53,.62-.79,1.24-.78,1.86v1.53l1.28,1.59-.25,3.12v.53c.86,2.78,1.29,4.95,1.3,6.5l.02,4.12,.82,4.44-.53,.53c.1,2.08,.28,3.12,.55,3.12,.53,0,.93,.95,1.21,2.85l5.07,5.68c-.61,.89-1.12,1.33-1.52,1.34l-9.76-2.27-3.51,.02-3.97,.49-2.98,.02-1-.99v-.53c-.01-1.19,1.22-2.42,3.69-3.67l2.04-3.4c0-1.64,.88-3.64,2.68-5.99,.48-.75,.72-1.62,.71-2.59l-.2-.26h-.26l.25-1.86c-.14-1.55-.32-2.32-.54-2.32l.69-6.78v-1.33c-.02-1.59-.51-3.14-1.49-4.64,.84-.31,1.25-.76,1.25-1.34-.53,0-1.3-3.11-2.31-9.35,0-.62-.93-1.21-2.79-1.78h-.99c-1.14,.72-1.71,1.23-1.71,1.54v.27c0,1.2,.58,1.79,1.73,1.78h.27l.99-1.27v-.27c0-.35-.25-.53-.73-.53l-.27-.26v-.27h.46c1.19,0,1.79,.61,1.8,1.85v.27c-.96,1.56-1.95,2.34-2.97,2.34-2.47,.01-4.08-1.79-4.8-5.42-.02-3.72,1.8-6.25,5.46-7.6,2.56-.01,5.06,.83,7.5,2.55l4.23-2.35c8.21-1.64,12.53-2.71,12.97-3.2,0-.35,.66-.54,1.99-.54Zm19.65,4.47c3.09-.02,6.7,1.2,10.82,3.65l5.68,7.07c0,.35,.67,1.5,2.01,3.44,0,1.42,.93,4.13,2.77,8.15,.23,1.15,.67,2.01,1.34,2.58l-.19,2.13v2.39l.5,3.65-.45,3.26,.21,1.73-.16,7.11c.86,3.58,1.69,5.37,2.48,5.36l2.73,2.38v1.06l-1.58,1.54c-2.3-.34-3.56-.62-3.78-.84l-4.97,.03-3.84,1.28c-1.82-.87-2.79-1.51-2.93-1.91v-.2c.44-.62,1.49-1.36,3.17-2.21,.97-.49,1.84-2.22,2.62-5.19l.46-1.46-.87-.66c-1.84,2.4-4.24,4.28-7.19,5.62-5.86,2.34-9.83,3.51-11.91,3.52-.62,0-2.19-.63-4.72-1.9-1.47-1.32-2.51-2.46-3.14-3.43l.2-.2v-.2l-1.14-2.58c.6-2.79,2.37-5.75,5.32-8.86,0-.84,3.05-3.74,9.16-8.69l7.86-5.23c.57,0,1.32-.58,2.24-1.74h.26v-.2l-2.11-8.42c-2.14-3.26-3.94-5.27-5.4-6.01-1.95-1.01-3.17-1.51-3.65-1.51h-.4c-.75,0-1.87,.97-3.36,2.88-.49,.14-.73,.56-.72,1.27,.35,0,.6,.73,.74,2.19,1.56,2.29,3.51,3.43,5.85,3.42l.87,1.46v1.33l-.65,.67h-.2c-4.86,.03-8.41-1.96-10.64-5.98-.4-.62-.63-1.77-.68-3.45v-1.73c.55-1.82,1.52-3.33,2.88-4.53,2.02-1.34,3.52-2.01,4.5-2.02Zm12.74,25.62h-1.33c-1.81,.55-3,1.33-3.57,2.35-.4,0-1.52,1.03-3.36,3.08-3.43,2.23-5.76,5.33-6.97,9.27-.44,0-.72,1.53-.83,4.59,1.6,1.41,2.57,2.11,2.93,2.11l.67,.2,.26-.2v-.2l1.33,.19,5.36-2.16c.53,0,2.25-1.16,5.15-3.48l.72-.87,1.32-1.54h.2l.27,.2h.2c0-.8,.3-1.38,.92-1.73l.38-3.65-.21-1.53,.19-1.46c-.02-2.74-.54-5.04-1.57-6.9-1.37,.19-2.05,.76-2.04,1.74Zm33.45-36.26c1.68,.48,2.52,.96,2.53,1.45v.4l-5.4,4.88c-.26,.36-.52,1.29-.78,2.79-1.1,.72-1.65,1.91-1.64,3.6l.63,5.24,3.71-.02c2.34-.01,5.31-1.71,8.92-5.1l.4,.4c-.26,1.55-1.55,3.75-3.87,6.6-.96,1.95-1.86,3.35-2.69,4.2h-.2l-.4-.4,.19-1.06-.2-.2h-1.06c-2.12,.02-3.97,.38-5.56,1.1l.41,1.26v2.52c-.25,8.02-.58,12.02-.97,12.03l.05,7.77,1.08,3.78v2.52c.02,.84,.29,1.68,.83,2.52v.66l-.19,1.06c.4,0,1.11,1.46,2.15,4.37l8.54,9.25,5.79,4.42c.4,0,.82,.19,1.26,.59l.59-.2,1.06,.19h1.26c5.79-.48,8.67-1.9,8.66-4.24l.19-1.06-.02-2.52c-.02-2.74-1.81-4.28-5.4-4.62h-1.86c-1.86,.02-2.88,2.06-3.08,6.14v.2c2.18,2.56,3.91,3.89,5.19,4.02,1.81-.36,2.71-1.3,2.7-2.81v-.4c-.64-2.83-1.75-4.24-3.34-4.23-1.32,.58-2.16,1.23-2.51,1.94v.66c0,.71,.56,1.46,1.67,2.25,1.24-.27,1.85-.76,1.85-1.47-.36-.88-.69-1.37-1-1.46h-.66l-.99,.87h-.2v-.46c.83-1.11,1.64-1.67,2.44-1.67,1.25,1.5,1.87,2.62,1.88,3.38v.2c-.7,1.25-1.18,1.87-1.45,1.87h-.4c-.71,0-2.17-.89-4.39-2.69,.34-2.79,1.17-4.19,2.49-4.2l1.66-.21h1.06c1.24-.01,2.35,2.15,3.35,6.48-1.71,2.27-3.09,3.41-4.16,3.41-4.3-2.37-6.45-4.19-6.46-5.47v-1.66c.37-3.37,.78-5.14,1.22-5.32l5.17-.03c3.89-.02,5.84,.89,5.85,2.75l1.49,5.9,.21,2.06c-4.93,3.84-8.93,6.18-12.02,7.04-.75,.54-1.79,.81-3.11,.82h-.2c-1.47-1.36-4.44-3.36-8.92-5.99-1.82-1.14-5.15-4.42-10-9.84-1.37-.66-2.35-1.78-2.94-3.37l-.02-3.78c-.01-2.04-.32-5-.92-8.89l1-10.96-.42-3.38v-2.06l.38-.67v-1.46c-.02-1.64-.23-3.12-.63-4.45,.49,0,.88-1.04,1.18-3.13h-.2c-.26,0-.4-.28-.4-.86-2.52,.01-5.47,.94-8.86,2.77-.96,1.29-1.45,2.22-1.44,2.8v.4c.23,.58,.71,.86,1.46,.85,.79-.22,1.19-.74,1.18-1.53h.46v.46c0,1.06-.67,1.69-2.04,1.87h-.2c-1.28-.17-1.93-.78-1.93-1.85v-.66c0-.35,1.7-3.46,5.11-9.33,.84,1.01,1.4,1.52,1.67,1.52l4.76-1.29,.39-1.73c-.31,0-.51-.9-.61-2.72-.31-.13-1.01-2.16-2.09-6.1l-1.46-1.25h-.4l-.26,.2h-.2l-1.87-1.85v-.27c1.49-.98,3.44-1.48,5.82-1.49,4.01-1.26,7.39-2.61,10.12-4.04Zm-18.26,27.47l1,.26v.4h-.2l-.2-.2h-.2c-.4,0-.59,.2-.59,.6l-.2,.27h-.4v-.26c.26-.62,.52-.98,.79-1.07Zm46.8-20.66h.26c1.02,0,2.02,.7,3,2.11,.88,.22,3.46,2.53,7.73,6.93l4.27,5.29,1.29,4.31v.8c-.21,1.99-1.19,4.21-2.94,6.66-2.14,4.66-4.11,7-5.92,7.01l-.73,.27c-3.71,.02-9.2-2.18-16.47-6.61-1.16-1.19-1.74-2.42-1.75-3.71v-.53c.73-2.88,2.53-4.33,5.41-4.35h.26c1.33,0,1.99,.81,2,2.44-.43,1.6-.85,2.4-1.25,2.4h-1.46l-1-1.05v-.53l.46-.53c0,.71,.18,1.06,.54,1.06l.72-.8v-.8c-.18-.53-.67-.79-1.47-.79-.79,0-1.39,.89-1.77,2.67,0,1.37,2.09,2.78,6.25,4.21,2.04,1.54,4.61,2.5,7.71,2.88,2.39-.01,4.45-1.8,6.2-5.35l.53-.53-.02-3.72c-.69-4.25-1.79-7.18-3.3-8.81-3.55-2.81-5.72-4.22-6.52-4.21h-1.46c-.97,.01-2.8,1.35-5.48,4.03-1.59,.36-3.8,3.76-6.63,10.2l-2.22,5.86v1.86l3.58,8.81c.82,3.67,2.91,6.76,6.28,9.26,3.64,2.5,5.96,3.75,6.98,3.74l3.71,.24c1.63,0,3.2-1.08,4.69-3.22v-2.46l.51-.8-2.04-7.96c0-.4,.73-.67,2.18-.81,1.77,.65,2.95,1.44,3.53,2.37l.02,4.25c.03,4.16-1.37,7.47-4.18,9.92-2.42,2.4-4.22,3.92-5.41,4.55h-.53c-5.27-1.56-8.26-2.96-8.97-4.19-1.11-.35-2.19-1.32-3.26-2.9-2.54-3.04-4.27-4.82-5.2-5.35l-4.55-7.41c-.93,0-2.02-1.87-3.28-5.63v-2.39l-.75-1.59,4.46-7.73c.17-1.86,2.2-4.91,6.11-9.13,0-.53,2.39-3.22,7.18-8.08l2.71-2.14Zm-9.38,5.97h.26l-.79,.8v-.27l.53-.53Z"/>
    <path id="age" d="M138.92,117.51c4.92-.02,10.66,1.93,17.21,5.85l9.01,11.27c0,.56,1.06,2.39,3.18,5.48,0,2.26,1.46,6.58,4.37,12.98,.36,1.83,1.07,3.2,2.12,4.11l-.3,3.38v3.8l.77,5.81-.72,5.18,.33,2.75-.27,11.31c1.36,5.7,2.67,8.55,3.93,8.54l4.34,3.79v1.69l-2.52,2.44c-3.66-.55-5.66-1-6.02-1.35l-7.91,.03-6.11,2.03c-2.89-1.4-4.44-2.41-4.65-3.05v-.32c.7-.99,2.38-2.16,5.05-3.51,1.54-.78,2.94-3.53,4.19-8.26l.73-2.33-1.38-1.05c-2.94,3.81-6.76,6.79-11.46,8.92-9.34,3.7-15.66,5.55-18.96,5.56-.99,0-3.48-1.01-7.5-3.04-2.33-2.1-3.99-3.93-4.98-5.48l.32-.32v-.32l-1.81-4.11c.97-4.44,3.8-9.14,8.49-14.08,0-1.34,4.86-5.94,14.61-13.79l12.52-8.29c.91,0,2.11-.92,3.58-2.76h.42v-.32l-3.32-13.41c-3.39-5.2-6.25-8.39-8.58-9.58-3.1-1.61-5.04-2.41-5.81-2.41h-.63c-1.2,0-2.98,1.53-5.36,4.57-.77,.21-1.16,.89-1.15,2.01,.56,0,.95,1.16,1.17,3.48,2.47,3.65,5.57,5.47,9.3,5.46l1.38,2.32v2.11l-1.04,1.06h-.32c-7.73,.03-13.37-3.15-16.91-9.55-.64-.98-1-2.81-1.08-5.49v-2.75c.89-2.89,2.43-5.29,4.6-7.2,3.23-2.13,5.61-3.19,7.16-3.2Zm20.19,40.82h-2.11c-2.88,.86-4.77,2.1-5.68,3.73-.63,0-2.42,1.63-5.36,4.88-5.47,3.54-9.18,8.45-11.12,14.73-.7,0-1.15,2.43-1.34,7.3,2.54,2.25,4.09,3.37,4.65,3.36l1.06,.31,.42-.32v-.32l2.11,.31,8.53-3.41c.84,0,3.58-1.84,8.21-5.52l1.16-1.38,2.1-2.44h.32l.42,.31h.32c0-1.27,.48-2.19,1.47-2.75l.61-5.81-.33-2.43,.31-2.33c-.02-4.37-.84-8.03-2.47-10.98-2.18,.29-3.26,1.21-3.26,2.76Zm85.68-43.11c2.18,.49,3.28,1.57,3.28,3.26,0,1.55-.7,2.33-2.1,2.33h-.63l-.74-.73v-1.06l.73-.85h.32v.32l-.52,.74v.32l.53,.53h.84l.52-1.59c-.21-.7-.78-1.05-1.69-1.05-2.46,0-5.4,2.94-8.83,8.8l-1.35,4.55,.33,3.91-.3,5.07,.54,2.11v2.43c-.61,2.96-1.22,9.27-1.82,18.92l-1.86,10.36-3.41,19.46c-.28,0-1.19,2.22-2.72,6.67-.55,2.61-2.05,6.28-4.49,11.01-.35,.07-2.24,3.53-5.66,10.38-1.89,2.89-4.58,5.9-8.09,9.01-1.41,.5-3.02,1.67-4.84,3.5-3.01,2.26-5.72,3.79-8.1,4.57-.28,.78-3.51,2.37-9.68,4.79-.21,.56-4.42,2.2-12.64,4.91-5.33,2.27-10.01,3.42-14.01,3.43h-2.95c-4.57-.54-9.71-3.33-15.43-8.39-2.75-3.3-4.14-6.32-4.15-9.07-.02-5.14,1.69-8.6,5.13-10.37,1.12-.71,3.55-1.07,7.27-1.08h1.37c3.58-.02,6.02,1.66,7.29,5.04,.78,1.9,1.17,3.55,1.18,4.96-.76,4.51-2.4,6.77-4.93,6.78l-4.53,.54c-5.07-.97-7.6-3.28-7.62-6.95-.02-4.23,2.23-6.35,6.73-6.36,3.45,.41,5.17,1.81,5.18,4.21l.21,1.27c0,2.18-1.78,3.53-5.36,4.04-2.53-.7-3.8-2.1-3.81-4.21v-.32c0-1.13,.8-1.84,2.42-2.12h.63c.91,0,1.62,.45,2.11,1.36v.74c0,.91-.27,1.48-.83,1.69h-.74v-.31l.52-.85v-.74l-.85-.84h-.84c-.7,.29-1.05,1.1-1.05,2.44,.85,.91,1.76,1.44,2.75,1.57,1.97-.57,2.95-1.56,2.94-2.97v-.21c0-1.97-1.45-3.13-4.34-3.47h-.32c-2.46,.92-3.68,2.27-3.68,4.03v.74c.01,3.1,2.52,4.89,7.51,5.36,3.58-.44,5.37-2.24,5.36-5.41l.31-1.06v-.53c-.72-4.44-2.98-6.65-6.78-6.63l-1.9-.2h-.21c-3.65,.01-6.18,1.89-7.57,5.63l-.3,3.17v.32c.02,4.58,2.74,7.74,8.16,9.48,3.45,1.04,7.07,1.56,10.87,1.54l7.49-.56c0-.42,2.07-.96,6.22-1.61,0-.42,1.26-.96,3.79-1.6,.56-.78,2.7-1.49,6.42-2.14,0-.56,1.51-1.27,4.53-2.13,.07-.42,1.79-1.59,5.15-3.51,3.08-2.76,6.24-4.99,9.47-6.69,0-.49,3.22-3.78,9.67-9.86,3.15-4.17,4.93-7.91,5.34-11.22,1.61-1.7,3.66-8.43,6.15-20.2l1.04-2.43v-2.96l-.24-5.28c.14-1.27,.66-2.85,1.56-4.76l-.86-4.86v-2.11c-.85,.85-3.16,2.02-6.96,3.51-3.02,1.98-5.61,2.98-7.79,2.99l-9.8,2.36c-2.46-.62-4.5-1.32-6.12-2.09h-3.06c-3.17-1.53-5.04-3.03-5.61-4.51l.19-6.87c.42,0,1.05-2.22,1.87-6.66,3.43-3.67,5.14-6.01,5.14-6.99,0-1.2,1.15-2.89,3.46-5.08,1.39-4.58,3.35-7.51,5.87-8.79l9.15-6.48,5.16-1.08,4.64-.02c3.58-.01,10.15-2.15,19.7-6.41l5.06-.86Zm-49.83,41.81v.21c2.89,3.02,5.36,4.52,7.4,4.52h1.9c7.17-1.37,10.75-2.37,10.74-3,2.1-1.56,4.45-2.8,7.05-3.72l3.68-2.66,.29-6.97-.85-1.58v-2.11c-.66-4.29-1.65-7.32-2.99-9.08-.64-2.32-1.28-3.55-1.91-3.69h-2.43c-4.91,2.14-8.6,4.55-11.05,7.23-2.59,1.98-4.9,5.55-6.92,10.7-1.26,.78-2.35,2.9-3.25,6.35,0,.63-.56,1.9-1.67,3.81Zm83.99-45.43h.42c1.62,0,3.2,1.11,4.76,3.36,1.41,.35,5.5,4.03,12.27,11.05l6.78,8.43,2.03,6.86v1.27c-.34,3.17-1.91,6.7-4.7,10.58-3.42,7.41-6.57,11.12-9.45,11.13l-1.16,.43c-5.91,.02-14.64-3.5-26.19-10.58-1.84-1.9-2.76-3.86-2.76-5.91v-.85c1.18-4.58,4.05-6.88,8.62-6.9h.42c2.11,0,3.17,1.29,3.18,3.9-.69,2.54-1.36,3.81-1.99,3.81h-2.32l-1.59-1.68v-.85l.73-.85c0,1.13,.29,1.69,.85,1.69l1.16-1.27v-1.27c-.29-.84-1.06-1.26-2.33-1.26-1.27,0-2.21,1.42-2.83,4.24,0,2.18,3.32,4.43,9.94,6.73,3.24,2.45,7.33,3.99,12.25,4.6,3.8-.01,7.09-2.84,9.88-8.49l.84-.85-.02-5.92c-1.08-6.76-2.82-11.44-5.22-14.03-5.64-4.49-9.09-6.73-10.36-6.72h-2.32c-1.55,.01-4.46,2.14-8.73,6.38-2.53,.57-6.06,5.98-10.59,16.21l-3.55,9.31v2.96l5.65,14.03c1.29,5.84,4.61,10.76,9.97,14.76,5.78,3.99,9.48,5.99,11.1,5.98l5.91,.4c2.6,0,5.09-1.71,7.47-5.1v-3.91l.82-1.27-3.21-12.67c0-.63,1.16-1.06,3.47-1.28,2.82,1.05,4.68,2.31,5.6,3.78l.03,6.76c.02,6.62-2.21,11.88-6.69,15.77-3.85,3.82-6.73,6.22-8.62,7.22h-.84c-8.38-2.5-13.13-4.74-14.26-6.71-1.76-.56-3.49-2.1-5.18-4.63-4.03-4.85-6.78-7.69-8.26-8.53l-7.21-11.81c-1.48,0-3.21-2.98-5.2-8.96v-3.8l-1.18-2.53,7.12-12.28c.27-2.96,3.52-7.8,9.75-14.51,0-.85,3.81-5.12,11.45-12.83l4.31-3.4Zm-14.94,9.46h.42l-1.26,1.27v-.42l.84-.85Z"/>
    <path id="hesThree" d="M581.76,400.19h1.26l.47,.47v.31l-3.92,2.28c-1.99,1.99-3.51,5.29-4.55,9.91-.94,3.93-1.96,6.89-3.06,8.88l-.39,9.36v2.83l-.94,12.73c4.08-4.66,7.48-7.12,10.2-7.39,0-.31,.52-.5,1.57-.55h.39c2.09,0,4.63,1.02,7.61,3.07,.57,3.04,1.31,5.58,2.2,7.62,.68,2.1,1.54,5.92,2.59,11.48,.26,.05,.84,1.81,1.72,5.27l.47,4.32-.47,1.81-.24,5.11c.47,2.62,1.28,5.58,2.43,8.88,.58,2.36,2.67,4.64,6.28,6.84l-.47,.47h-.39l-9.1-4.01c-3.4,0-6.51,1.52-9.34,4.56l-.86-1.57c2.46-3.14,3.69-5.5,3.69-7.07l1.1-6.84v-.24l-.47-.79c.42-2.83,.63-5.37,.63-7.63v-.24c-.42,0-.76-3.64-1.02-10.93-.58,0-.86-2.31-.86-6.92-.42,0-.73-.84-.94-2.52-.16,0-.37-.58-.63-1.73l-.39-1.02-1.1-.55h-3.06l-2.59-.47c-2.41,1.26-4.79,3.62-7.14,7.07-1.47,1.52-2.2,3.72-2.2,6.6h-.24l.24,.24c-.73,5.92-1.1,10.17-1.1,12.74,.52,3.56,1.67,7.89,3.45,12.97l2.67,2.75c-.16,.52-.6,.79-1.33,.79l-.63-.24-.24,.24h-.24c-2.41-.84-6.3-1.44-11.69-1.81-.52,.42-1.6,.68-3.22,.79l-.24-.24v-.24c2.51-4.14,4.16-8.46,4.95-12.97l1.57-7.39c0-2.25,.21-4.38,.63-6.37-.42,0-.63-.24-.63-.71l1.26-2.83,.24-3.07-.24-2.04,.24-8.57-.23-10.69c-.58,0-1.07-2.72-1.49-8.18-.31-.26-.6-2.28-.86-6.05-1.25-2.2-2.07-4.14-2.43-5.82-.73-1.42-1.88-2.44-3.45-3.07v-.55l.47-.47h1.02c3.87,0,8-1.6,12.4-4.79,5.23-2.57,8.79-3.85,10.67-3.85Zm43.38,20.92h.31c1.2,0,2.38,.84,3.53,2.52,1.04,.26,4.08,3.01,9.1,8.25l5.02,6.29,1.49,5.11v.94c-.26,2.36-1.44,4.98-3.53,7.86-2.56,5.5-4.92,8.25-7.06,8.25l-.86,.31c-4.39,0-10.88-2.65-19.46-7.94-1.36-1.42-2.04-2.88-2.04-4.4v-.63c.89-3.41,3.03-5.11,6.43-5.11h.31c1.57,0,2.35,.97,2.35,2.91-.52,1.89-1.02,2.83-1.49,2.83h-1.73l-1.18-1.26v-.63l.55-.63c0,.84,.21,1.26,.63,1.26l.86-.94v-.94c-.21-.63-.78-.94-1.72-.94s-1.65,1.05-2.12,3.14c0,1.62,2.46,3.3,7.38,5.03,2.41,1.84,5.44,2.99,9.1,3.46,2.83,0,5.28-2.09,7.38-6.29l.63-.63v-4.4c-.78-5.03-2.06-8.52-3.84-10.46-4.19-3.35-6.75-5.03-7.69-5.03h-1.73c-1.15,0-3.32,1.57-6.51,4.72-1.88,.42-4.53,4.43-7.93,12.03l-2.67,6.92v2.2l4.16,10.46c.94,4.35,3.4,8.02,7.37,11.01,4.29,2.99,7.03,4.48,8.24,4.48l4.39,.32c1.93,0,3.79-1.26,5.57-3.77v-2.91l.63-.94-2.35-9.43c0-.47,.86-.79,2.59-.94,2.09,.79,3.48,1.73,4.16,2.83v5.03c0,4.93-1.68,8.83-5.02,11.71-2.88,2.83-5.02,4.61-6.43,5.34h-.63c-6.23-1.89-9.75-3.57-10.59-5.03-1.31-.42-2.59-1.57-3.84-3.46-2.98-3.62-5.02-5.74-6.12-6.37l-5.33-8.81c-1.1,0-2.38-2.23-3.84-6.68v-2.83l-.86-1.89,5.34-9.12c.21-2.2,2.64-5.79,7.3-10.77,0-.63,2.85-3.8,8.55-9.51l3.22-2.51Zm-11.14,6.99h.31l-.94,.94v-.31l.63-.63Zm93.45-10.75c0,.31,3.45,.63,10.36,.95,.94,.42,2.09,1.78,3.45,4.09l3.14,5.35v.63l-2.83,5.97c-1.94,4.61-3.4,6.92-4.4,6.92-1.73,0-6.22-2.52-13.49-7.55h-.63v-2.2c1.31-4.82,2.98-7.23,5.02-7.23h1.26c2.51,0,3.76,1.15,3.76,3.46,.42,0,.63,.52,.63,1.57,0,.89-1.15,2.25-3.45,4.09-1.1,0-2.25-.94-3.45-2.83v-.31c.58-1.68,1.1-2.52,1.57-2.52h1.25l.94,.94v.94l-.63,.63h-.31v-.31l.31-.31v-.31l-.94-.63-.63,.63v.63c.42,.84,.94,1.26,1.57,1.26,.78,0,1.31-.94,1.57-2.83,0-1.15-.84-1.99-2.51-2.52-1.78,.68-2.82,1.52-3.14,2.52v.63c0,2.73,2.61,4.93,7.84,6.6l1.88,1.26h.63c1.05,0,1.57-2.52,1.57-7.55,0-1.78-2.41-4.3-7.22-7.55-7.95,1.26-11.93,2.51-11.93,3.77v1.57c.26,3.41,2.56,8.12,6.9,14.15,0,1.26,3.77,3.35,11.3,6.29,.78,0,1.52,.63,2.2,1.89l.31-.31h.94c.42,0,.84,.63,1.25,1.89,6.9,6.24,10.36,10.12,10.36,11.64,.84,1.42,1.25,2.99,1.25,4.72,0,.42-2.2,2.41-6.59,5.97-5.39,7.28-10.2,12.21-14.44,14.78h-.31l-12.87-2.2c-1.78,0-4.71-4.4-8.79-13.21l-.31-2.83v-.31c0-1.47,1.78-2.83,5.33-4.09,2.51-2.15,6.07-4.35,10.67-6.6l.31,.31h.31l.94-.31c0,.31,1.36,.94,4.08,1.89,1.46,1.1,2.2,2.15,2.2,3.14-.16,2.31-1.31,5.35-3.45,9.12h-.94c-5.44,0-8.16-1.89-8.16-5.66,2.35-3.14,4.13-4.72,5.34-4.72h.31c1.15,0,2.2,.73,3.14,2.2,0,2.31-.73,3.77-2.2,4.4h-1.26c-1.15,0-1.88-.52-2.2-1.57,0-1.1,.63-2.04,1.88-2.83h.63v.63l-1.26,.31v.94l.94,.94h.94l.94-.94v-1.26l-1.25-1.26h-1.25c-1.46,1-2.2,2.15-2.2,3.46,0,1.89,1.36,2.83,4.08,2.83,1.88-1,2.83-2.25,2.83-3.77v-1.26c0-2.2-1.46-3.56-4.39-4.09-4.19,0-7.53,3.88-10.04,11.63v1.89c0,1.73,1.46,3.51,4.39,5.35,.94,1.1,4.18,1.94,9.73,2.52h1.88c3.61,0,7.38-6.08,11.3-18.24v-2.2c-4.08-4.3-9.41-8.28-16-11.95-3.5-2.94-8.63-6.29-15.38-10.07,0-2.04-.94-6.55-2.82-13.52,0-1.78,1.57-3.56,4.71-5.34,.31-.79,2.93-1.62,7.85-2.51,1.52-.84,3.4-1.36,5.65-1.57Z"/>
    <path id="andOne" d="M601.47,345.66c2.42,0,5.23,.96,8.44,2.88l4.4,5.49c0,.27,.52,1.16,1.55,2.67,0,1.1,.71,3.2,2.12,6.32,.17,.89,.52,1.56,1.04,2l-.16,1.64v1.85l.36,2.82-.36,2.52,.16,1.33-.16,5.49c.66,2.77,1.29,4.16,1.92,4.16l2.12,1.85v.82l-1.24,1.18c-1.79-.27-2.78-.5-2.95-.67h-3.88l-3,.98c-1.42-.68-2.17-1.18-2.28-1.49v-.15c.34-.48,1.17-1.04,2.48-1.69,.76-.38,1.45-1.71,2.07-4l.36-1.13-.67-.51c-1.45,1.85-3.33,3.29-5.64,4.31-4.59,1.78-7.7,2.67-9.32,2.67-.48,0-1.71-.5-3.67-1.49-1.14-1.03-1.95-1.92-2.43-2.67l.16-.15v-.15l-.88-2c.48-2.16,1.88-4.43,4.19-6.83,0-.65,2.4-2.88,7.2-6.67l6.16-4c.45,0,1.04-.44,1.76-1.33h.21v-.15l-1.6-6.52c-1.66-2.53-3.05-4.09-4.19-4.67-1.52-.79-2.47-1.18-2.85-1.18h-.31c-.59,0-1.47,.74-2.64,2.21-.38,.1-.57,.43-.57,.98,.28,0,.47,.56,.57,1.69,1.21,1.78,2.73,2.67,4.56,2.67l.67,1.13v1.03l-.52,.51h-.16c-3.8,0-6.56-1.56-8.28-4.67-.31-.48-.48-1.37-.52-2.67v-1.33c.45-1.4,1.21-2.57,2.28-3.49,1.59-1.03,2.76-1.54,3.52-1.54Zm9.83,19.87h-1.04c-1.42,.41-2.35,1.01-2.79,1.8-.31,0-1.19,.79-2.64,2.36-2.69,1.71-4.52,4.09-5.49,7.14-.34,0-.57,1.18-.67,3.54,1.24,1.1,2,1.64,2.28,1.64l.52,.15,.21-.15v-.15l1.04,.15,4.19-1.64c.41,0,1.76-.89,4.04-2.67l.57-.67,1.04-1.18h.16l.21,.15h.16c0-.62,.24-1.06,.72-1.33l.31-2.82-.16-1.18,.16-1.13c0-2.12-.4-3.9-1.19-5.34-1.07,.14-1.61,.58-1.61,1.33Zm28.42-24.23l.36,.41c-2,1.1-3.35,2.67-4.04,4.72-.48,1.54-.85,4.81-1.09,9.81,3.38-3.42,6.23-5.25,8.54-5.49,0-.21,.43-.33,1.29-.36h.36c1.73,0,3.85,.75,6.37,2.26,.48,2.26,1.09,4.16,1.81,5.7,.59,1.54,1.33,4.36,2.23,8.47,.21,.03,.69,1.37,1.45,4l.36,3.18-.36,1.33-.21,3.75c.38,1.99,1.05,4.19,2.02,6.62,.52,1.78,2.28,3.49,5.28,5.13l-.36,.36h-.36l-7.66-3.03c-2.83,0-5.44,1.13-7.82,3.39l-.72-1.13c2.07-2.36,3.11-4.12,3.11-5.29l.88-5.08v-.21l-.36-.56c.38-2.09,.57-3.97,.57-5.65v-.21c-.38,0-.69-2.7-.93-8.11-.48,0-.72-1.71-.72-5.13-.35,0-.59-.62-.73-1.85-.17,0-.36-.44-.57-1.33l-.36-.77-.88-.36h-2.54l-2.23-.41c-2.04,.96-4.04,2.72-6,5.29-1.21,1.13-1.81,2.77-1.81,4.93h-.16l.16,.21c-.62,4.38-.93,7.53-.93,9.45,.45,2.64,1.43,5.85,2.95,9.65l2.17,2.05c-.14,.38-.5,.57-1.09,.57l-.57-.21-.16,.21h-.21c-2-.62-5.28-1.06-9.83-1.33-.45,.31-1.35,.5-2.69,.56l-.21-.15v-.21c2.1-3.08,3.5-6.3,4.19-9.65l1.29-5.44c0-1.68,.17-3.25,.52-4.72-.34,0-.52-.21-.52-.62l1.09-2.05,.16-2.26-.16-1.69,.16-6.62c0-2.4-.48-4.54-1.45-6.42v-.21c1.38-.24,3.02-1.18,4.92-2.82,2.79-1.78,4.62-2.67,5.49-2.67Zm41.52-8.11c.9,0,2.81,.67,5.75,2l2.38,.51h3.88l5.38-.21,.36,.51v.36c0,.21-.67,.55-2.02,1.03,0,.27-.67,.6-2.02,.98l-2.74,4.42,.21,.67-.36,.98v.51l-.52,6.11-.31,.31v1.33l.47,6.26,.88,.67v.36c0,.21-.29,.31-.88,.31-.76,1.82-1.14,4.4-1.14,7.75l.16,3.18-.67,7.6c.9,3.83,1.62,5.75,2.17,5.75l.88,1.03v.31l-.36,.36h-1.5l-2.07,.51h-2.17c-.34-.41-1.36-.7-3.05-.87l-.83-.15-.21-.15v-.21c1.93-1.95,2.9-4.07,2.9-6.37l.52-1.9-.16-2.82,.16-1.03-.16-1.33,.47-4.21-.67-3.23-.52-.67-.16-.15h-.16l.67-1.03v-1.18l-.36-.31h-1.5c-7.08,.92-10.85,1.99-11.34,3.18-1.73,.55-3.54,1.61-5.44,3.18-.55,.62-.83,2.19-.83,4.72,0,.68,.45,1.3,1.35,1.85,1.14,1.78,2.5,3.08,4.09,3.9,4.59,2.36,7.13,3.54,7.61,3.54h1.35c2.38,0,3.57-.91,3.57-2.72v-.15c-.55-.79-1.17-1.18-1.86-1.18h-.21c-.59,.27-1.04,.72-1.35,1.33v.21l.67,.82h.36c.24-.07,.47-.34,.67-.82l-.52-.21v-.31h.16l.67,.67c0,.62-.38,1.18-1.14,1.69-1.21,0-1.9-.79-2.07-2.36,0-1.23,1.02-1.85,3.05-1.85,1.14,0,1.98,.84,2.54,2.52,0,1.4-.5,2.36-1.5,2.88-2,1.88-3.87,2.82-5.59,2.82-4.35-1.68-6.78-2.52-7.3-2.52-2.69-.82-4.71-2.45-6.06-4.88-.79,0-1.81-1.35-3.05-4.06l-.52-3.34c0-3.11,.79-4.93,2.38-5.44,.45-1.23,1.12-1.85,2.02-1.85,.97-.79,2.78-1.9,5.44-3.34,1.52-.58,3.99-1.04,7.4-1.39,4.87-.44,7.3-.89,7.3-1.33h.36v-.15c0-2.5-.12-4.12-.36-4.88l.16-.67-.16-.72c.34,0,.52-.62,.52-1.85v-.51c-.21-3.7-.43-5.54-.67-5.54l.16-.51c0-.79-.5-1.9-1.5-3.34-1.38-3.05-2.69-4.57-3.93-4.57l-.47-.67,.16-.15h1.19Zm6.78,.82h.47v.36h-.47v-.36Z" style="fill: none;"/>
    <path id="nice" d="M401.58,86.15l1.06,1.21c-5.83,3.22-9.76,7.85-11.77,13.88-1.41,4.53-2.47,14.13-3.17,28.82,9.86-10.06,18.16-15.44,24.9-16.14,0-.6,1.26-.95,3.77-1.06h1.06c5.03,0,11.21,2.21,18.56,6.64,1.41,6.64,3.17,12.22,5.28,16.75,1.71,4.53,3.87,12.82,6.49,24.9,.6,.1,2.01,4.02,4.22,11.77l1.06,9.35-1.06,3.92-.6,11.01c1.11,5.83,3.07,12.32,5.88,19.46,1.51,5.23,6.64,10.26,15.39,15.09l-1.06,1.06h-1.06l-22.33-8.9c-8.25,0-15.84,3.32-22.78,9.96l-2.11-3.32c6.04-6.94,9.05-12.12,9.05-15.54l2.57-14.94v-.6l-1.06-1.66c1.11-6.13,1.66-11.67,1.66-16.6v-.6c-1.11,0-2.01-7.94-2.72-23.84-1.41,0-2.11-5.03-2.11-15.09-1.01,0-1.71-1.81-2.11-5.43-.5,0-1.06-1.31-1.66-3.92l-1.06-2.26-2.57-1.06h-7.39l-6.49-1.21c-5.94,2.82-11.77,8-17.5,15.54-3.52,3.32-5.28,8.15-5.28,14.48h-.45l.45,.6c-1.81,12.88-2.72,22.13-2.72,27.76,1.31,7.75,4.17,17.2,8.6,28.37l6.34,6.04c-.4,1.11-1.46,1.66-3.17,1.66l-1.66-.6-.45,.6h-.6c-5.83-1.81-15.39-3.12-28.67-3.92-1.31,.91-3.92,1.46-7.85,1.66l-.6-.45v-.6c6.13-9.05,10.21-18.51,12.22-28.37l3.77-15.99c0-4.93,.5-9.55,1.51-13.88-1.01,0-1.51-.6-1.51-1.81l3.17-6.04,.45-6.64-.45-4.98,.45-19.46c0-7.04-1.41-13.33-4.22-18.86v-.6c4.02-.7,8.8-3.47,14.33-8.3,8.15-5.23,13.48-7.85,15.99-7.85Zm86.3-16.9c6.64,1.41,15.04,4.38,25.2,8.9,4.73,4.02,7.09,7.8,7.09,11.32,1.81,7.85,2.72,13.58,2.72,17.2,0,4.02-2.01,7.65-6.04,10.86,0,3.32-8.55,6.29-25.65,8.9h-3.32c-7.45-3.02-12.67-6.29-15.69-9.81l-10.41-10.41,1.21-1.06c3.52,2.52,8.55,7.19,15.09,14.03,2.01,0,5.28,1.71,9.81,5.13l.6-.45h4.98c6.94-.8,12.72-2.72,17.35-5.73,2.11-.8,4.68-5.68,7.7-14.64-1.91-13.78-4.63-20.67-8.15-20.67-6.74-4.53-14.03-6.79-21.88-6.79-8.75,0-15.09,6.39-19.01,19.16v2.11c10.96,14.59,18.76,21.88,23.39,21.88h1.66c8.35,0,13.63-5.73,15.84-17.2v-5.13c-3.82-8.05-9.3-12.07-16.45-12.07l-10.41-1.51-5.88,9.35v2.56c7.14,9.96,11.67,15.34,13.58,16.14,8.05,0,12.07-2.26,12.07-6.79,.8,0,1.31-1.56,1.51-4.68-5.53-6.54-9.71-9.81-12.52-9.81-4.33,1.11-6.49,2.31-6.49,3.62,0,3.52,1.81,7.49,5.43,11.92,3.32,0,5.68-1.56,7.09-4.68-1.31-2.81-3.12-4.73-5.43-5.73h-1.66l-1.66,3.62,2.71,4.22c2.21-.5,3.32-1.71,3.32-3.62l-1.06-1.51,.45-.6h.6l1.06,2.11c0,3.12-1.46,4.68-4.38,4.68-2.31,0-3.92-2.06-4.83-6.19v-3.17c0-.91,2.01-1.96,6.04-3.17,5.43,5.43,8.15,9.41,8.15,11.92l-9.81,5.73h-.6c-1.91,0-4.98-5.68-9.2-17.05v-.6l9.2-6.19h1.06c9.76,6.14,14.84,10.31,15.24,12.52l.6,1.51c0,7.65-1.46,11.47-4.38,11.47,0,.81-1.46,1.66-4.38,2.56l-4.83,3.17h-1.66c-6.04-4.22-9.86-7.9-11.47-11.01-4.63-4.83-7.69-7.24-9.2-7.24,2.92-11.77,6.19-17.65,9.81-17.65l17.35-1.51c5.43,4.13,8.15,7.04,8.15,8.75,4.62,4.43,7.19,8.6,7.69,12.52v1.06c-5.83,13.48-11.67,20.22-17.5,20.22l-1.51,.45h-6.04c-2.11,0-7.75-4.32-16.9-12.98-5.13-5.33-7.7-8.95-7.7-10.86v-2.56c6.44-14.28,12.27-22.08,17.5-23.39,0-.7,1.61-1.76,4.83-3.17Zm34.4,56.73l1.06,1.51v2.56c-6.84,6.84-10.26,10.66-10.26,11.47-4.02,8.05-6.04,16.7-6.04,25.95l-1.06,5.73,3.77,21.27c.6,6.04,2.06,11.27,4.38,15.69,2.51,4.83,7.59,8.45,15.24,10.86,1.81,0,2.71,.35,2.71,1.06l-.6,.45h-1.51l-20.22-4.68-2.71,.6h-3.77c-14.99,1.91-23.89,3.97-26.71,6.19-1.31,0-2.77,1.06-4.38,3.17v.91c0,.81,.91,1.36,2.72,1.66,1.41-.4,2.11-1.11,2.11-2.11h1.06v.45c-.71,2.11-2.17,3.17-4.38,3.17h-1.06c-2.01,0-3.62-1.06-4.83-3.17v-1.51c0-2.31,2.16-4.73,6.49-7.24,9.86-7.64,14.79-13.88,14.79-18.71,1.41-2.72,2.11-5.13,2.11-7.24h.6l-.6-2.56,.6-25.05c0-2.92-1.46-7.59-4.38-14.03-2.92-9.66-7.29-14.48-13.13-14.48l-1.66-1.66v-.45l1.66-1.51h2.26l4.83,.45c14.99-1.31,26.25-3.37,33.8-6.19,2.31-1.71,4.68-2.56,7.09-2.56Zm65.78-39.23c7.74,5.23,13.78,14.89,18.11,28.97,0,2.72,.6,5.94,1.81,9.66v1.21l-1.81,1.81c-.91-.1-1.91-1.71-3.02-4.83-.91,0-2.32-2.61-4.22-7.85-5.03-5.13-9.26-8.15-12.67-9.05-14.59,6.24-22.03,10.46-22.33,12.67-11.67,16.5-17.5,25.15-17.5,25.95,0,17.8,3.62,30.08,10.86,36.81,5.63,9.96,14.48,18.21,26.55,24.74,9.86,0,16.5-4.02,19.92-12.07,1.61-2.51,2.41-4.53,2.41-6.04v-1.81c-1.51-7.64-3.92-11.47-7.24-11.47l-2.41-.6h-1.21l-3.02,3.02c0,3.12,1,5.13,3.02,6.04h3.02l1.81-1.21v.6l-2.41,2.41h-3.62c-2.82-1.91-4.22-4.32-4.22-7.24v-.6c0-3.32,2.21-5.53,6.64-6.64,5.43,0,9.05,2.62,10.86,7.85l1.81,4.83-.6,1.81,.6,3.62c0,10.56-3.82,18.01-11.47,22.33-3.62,6.04-8.85,10.26-15.69,12.67h-.6c-2.72,0-7.14-3.02-13.28-9.05-9.46-4.12-17.91-11.97-25.35-23.54l-3.62-6.64c-2.41,0-3.62-1.41-3.62-4.22-1.51-.91-4.13-5.93-7.85-15.09h-1.21v-1.81l1.21-1.81v-.6l-3.02-3.02,15.09-26.55c6.24-8.85,13.07-17.7,20.52-26.55,0-2.31,5.63-7.34,16.9-15.09,5.23-2.41,8.85-3.62,10.86-3.62Zm-53.71,43.45h1.21v.6l-1.21,1.21v-1.81Zm127.79-38.93h.6c2.31,0,4.58,1.61,6.79,4.83,2.01,.5,7.85,5.79,17.5,15.84l9.66,12.07,2.87,9.81v1.81c-.5,4.53-2.77,9.56-6.79,15.09-4.93,10.56-9.46,15.84-13.58,15.84l-1.66,.6c-8.45,0-20.92-5.08-37.42-15.24-2.62-2.72-3.92-5.53-3.92-8.45v-1.21c1.71-6.54,5.83-9.81,12.37-9.81h.6c3.02,0,4.53,1.86,4.53,5.58-1.01,3.62-1.96,5.43-2.87,5.43h-3.32l-2.26-2.41v-1.21l1.06-1.21c0,1.61,.4,2.41,1.21,2.41l1.66-1.81v-1.81c-.4-1.21-1.51-1.81-3.32-1.81s-3.17,2.01-4.07,6.04c0,3.12,4.73,6.34,14.18,9.66,4.62,3.52,10.46,5.73,17.5,6.64,5.43,0,10.16-4.02,14.18-12.07l1.21-1.21v-8.45c-1.51-9.66-3.97-16.34-7.39-20.07-8.05-6.44-12.98-9.66-14.79-9.66h-3.32c-2.21,0-6.39,3.02-12.52,9.05-3.62,.81-8.7,8.5-15.24,23.08l-5.13,13.28v4.22l8,20.07c1.81,8.35,6.54,15.39,14.18,21.12,8.25,5.73,13.53,8.6,15.84,8.6l8.45,.6c3.72,0,7.29-2.41,10.71-7.24v-5.58l1.21-1.81-4.53-18.11c0-.91,1.66-1.51,4.98-1.81,4.02,1.51,6.69,3.32,8,5.43v9.66c0,9.46-3.22,16.95-9.66,22.48-5.53,5.43-9.66,8.85-12.37,10.26h-1.21c-11.97-3.62-18.76-6.84-20.37-9.66-2.52-.8-4.98-3.02-7.39-6.64-5.73-6.94-9.66-11.01-11.77-12.22l-10.26-16.9c-2.11,0-4.58-4.27-7.39-12.82v-5.43l-1.66-3.62,10.26-17.5c.4-4.22,5.08-11.11,14.03-20.67,0-1.21,5.48-7.29,16.45-18.26l6.19-4.83Zm-21.43,13.43h.6l-1.81,1.81v-.6l1.21-1.21Z"/>
  </g>
</svg>