<?xml version="1.0" encoding="UTF-8"?>
<svg id="secondFive" xmlns="http://www.w3.org/2000/svg" viewBox="0 0 892.4 620.5">
  <path id="for" d="M249.29,479.47c-.37-1.67-.65-3.06-.83-4.17s-.33-2.12-.42-3.02c-.09-.9-.14-1.72-.14-2.46s-.02-1.55-.05-2.41c-.03-.87-.11-1.87-.23-3.02-.12-1.14-.31-2.55-.56-4.22-.19-1.24-.62-2.09-1.3-2.55-.68-.46-1.47-.71-2.37-.74-.9-.03-1.82,.03-2.78,.19-.96,.16-1.86,.23-2.69,.23s-1.5-.19-1.99-.56c-.56-.49-.83-1.3-.83-2.41,0-.12,.14-.29,.42-.51,.28-.22,.48-.32,.6-.32,1.11-.12,2.19-.2,3.25-.23,1.05-.03,1.99-.2,2.83-.51,.84-.31,1.53-.83,2.09-1.58,.49-.87,.74-2.04,.74-3.53-.5-3.03-.71-5.64-.65-7.84,.06-2.19-.02-4-.23-5.43-.22-1.42-.76-2.38-1.62-2.88-.93-.56-2.51-.68-4.73-.37h-1.25c-.59,0-1.21,.02-1.86,.05-.65,.03-1.27,.05-1.86,.05h-1.25c-.12,.12-.42,.28-.88,.46s-.76,.31-.88,.37h-.28c-.12,.06-.22,.09-.28,.09l-.19-.09h-.19c-.12-.12-.28-.4-.46-.83-.19-.43-.31-.74-.37-.93v-.46c.87-.87,2.38-1.64,4.55-2.32,2.16-.68,4.73-1.27,7.7-1.76,2.97-.49,6.21-.87,9.74-1.11,3.53-.25,7.07-.36,10.62-.33,3.56,.03,7.04,.28,10.44,.74,3.4,.46,6.43,1.11,9.09,1.95,2.66,.83,4.85,1.93,6.59,3.29,1.73,1.42,2.69,3.06,2.88,4.92-1.98,0-3.91-.25-5.8-.74-1.89-.49-3.79-1.05-5.71-1.67-1.92-.62-3.85-1.17-5.8-1.67-1.95-.49-3.97-.74-6.08-.74-.5,0-1.22-.01-2.18-.05-.96-.03-2.06-.06-3.29-.09-1.24-.03-2.5,0-3.8,.09s-2.51,.28-3.62,.56-2.01,.68-2.69,1.21c-.68,.53-1.02,1.22-1.02,2.09,0,.93-.06,2.2-.19,3.8-.12,1.61-.15,3.26-.09,4.96,.06,1.7,.28,3.29,.65,4.78s1.05,2.57,2.04,3.25h3.53c4.64-.37,8.4-.46,11.27-.28,2.88,.19,4.93,.56,6.17,1.11,1.24,.56,1.69,1.19,1.35,1.9-.34,.71-1.39,1.38-3.15,2-1.76,.62-4.22,1.13-7.38,1.53-3.15,.4-6.93,.54-11.32,.42,.12,2.78,.25,4.96,.37,6.54,.12,1.58,.26,2.82,.42,3.71,.15,.9,.29,1.61,.42,2.13,.12,.53,.28,1.15,.46,1.86,.19,.71,.34,1.67,.46,2.88,.12,1.21,.25,2.99,.37,5.33-.87-.12-1.67-.2-2.41-.23-.74-.03-1.38-.05-1.9-.05s-.93-.03-1.21-.09c-.28-.06-.36-.15-.23-.28Zm32.66-17.16c0-3.4,.74-6.37,2.23-8.91,1.48-2.54,3.43-4.67,5.84-6.4,2.41-1.73,5.12-3.02,8.12-3.85s6.01-1.25,9.05-1.25c1.61,0,3.11,.29,4.5,.88,1.39,.59,2.72,1.39,3.99,2.41,1.27,1.02,2.4,2.2,3.39,3.53,.99,1.33,1.84,2.71,2.55,4.13,.71,1.42,1.25,2.86,1.62,4.31,.37,1.45,.56,2.86,.56,4.22,0,3.15-.62,5.97-1.86,8.44-1.24,2.47-2.91,4.56-5.01,6.26-2.1,1.7-4.49,3-7.14,3.9-2.66,.9-5.38,1.35-8.16,1.35s-5.46-.45-7.84-1.35c-2.38-.9-4.45-2.15-6.22-3.76-1.76-1.61-3.14-3.6-4.13-5.98-.99-2.38-1.48-5.02-1.48-7.93Zm4.55-.74c0,1.92,.36,3.76,1.07,5.52s1.7,3.29,2.97,4.59,2.77,2.33,4.5,3.11c1.73,.77,3.59,1.16,5.57,1.16,1.05,.12,2.33-.05,3.85-.51s3.03-1.14,4.55-2.04c1.51-.9,2.97-1.98,4.36-3.25,1.39-1.27,2.55-2.66,3.48-4.17,.93-1.51,1.5-3.09,1.72-4.73,.22-1.64-.06-3.28-.83-4.92-.77-1.64-2.18-3.21-4.22-4.73-2.04-1.51-4.86-2.92-8.44-4.22-2.04,0-4.16,.29-6.36,.88-2.2,.59-4.19,1.47-5.98,2.64-1.79,1.18-3.28,2.66-4.45,4.45-1.18,1.79-1.76,3.87-1.76,6.22Zm50.19,19.67c-1.36-2.47-2.54-5.16-3.53-8.07-.99-2.91-1.83-5.84-2.5-8.81-.68-2.97-1.22-5.86-1.62-8.67-.4-2.81-.67-5.36-.79-7.65,0-.43-.03-.91-.09-1.44-.06-.52-.08-1.07-.05-1.62s.12-1.08,.28-1.58c.15-.49,.42-.93,.79-1.3h.19c.06,0,.09-.01,.09-.05,0-.03,.03-.05,.09-.05s.09,.02,.09,.05c0,.03,.06,.05,.19,.05h.19c.12,.06,.43,.19,.93,.37,.49,.19,.8,.34,.93,.46,1.11-.37,2.26-.82,3.43-1.35,1.17-.52,2.37-1.02,3.57-1.48,1.21-.46,2.43-.85,3.67-1.16,1.24-.31,2.44-.46,3.62-.46,.87,0,1.62,.03,2.27,.09,.65,.06,1.3,.17,1.95,.32,.65,.16,1.35,.34,2.09,.56,.74,.22,1.61,.48,2.6,.79,.49,.37,.94,.73,1.35,1.07,.4,.34,.77,.73,1.11,1.16,.34,.43,.6,.96,.79,1.58,.19,.62,.28,1.42,.28,2.41-.99,.12-2.15,.05-3.48-.23-1.33-.28-2.72-.63-4.18-1.07-1.45-.43-2.95-.8-4.5-1.11-1.55-.31-3.03-.43-4.45-.37-1.42,.06-2.75,.46-3.99,1.21-1.3,.62-2.44,1.73-3.43,3.34-.43,1.79-.62,3.56-.56,5.29,.06,1.73,.28,3.42,.65,5.06,.37,1.64,.85,3.28,1.44,4.92,.59,1.64,1.14,3.28,1.67,4.92,.53,1.64,1,3.26,1.44,4.87,.43,1.61,.71,3.25,.83,4.92,0,.62-.34,1.28-1.02,1.99-.68,.71-1.45,1.07-2.32,1.07Z"/>
  <path id="a" d="M408.45,467.94c.06-1.05,.37-2.26,.93-3.62,.56-1.36,1.42-2.69,2.6-3.99,1.17-1.3,2.66-2.46,4.45-3.48,1.79-1.02,3.91-1.75,6.35-2.18,2.44-.43,5.23-.46,8.35-.09,3.12,.37,6.6,1.3,10.44,2.78v-.93l-.09-.83c0-1.61-.46-3.25-1.39-4.92s-2.12-3.17-3.57-4.5-3.01-2.41-4.68-3.25c-1.67-.83-3.28-1.25-4.82-1.25-.62,0-1.16,.09-1.62,.28s-.91,.42-1.35,.7c-.43,.28-.85,.53-1.25,.74-.4,.22-.88,.32-1.44,.32-.12,0-.19-.03-.19-.09-.06-.06-.12-.12-.19-.19-.12-.12-.29-.28-.51-.46-.22-.19-.32-.31-.32-.37,0-1.11,.2-2.07,.6-2.88,.4-.8,.96-1.45,1.67-1.95,.71-.49,1.51-.88,2.41-1.16,.9-.28,1.84-.42,2.83-.42,2.47,.25,4.84,1.01,7.1,2.27,2.26,1.27,4.33,2.86,6.21,4.78,1.89,1.92,3.54,4.13,4.96,6.63,1.42,2.5,2.61,5.1,3.57,7.79,.96,2.69,1.59,5.4,1.9,8.12,.37,2.85,.4,5.51,.09,7.98-.06,0-.25-.01-.56-.05-.31-.03-.65-.06-1.02-.09s-.68-.08-.93-.14l-.46-.09c-1.3-2.91-2.75-5.26-4.36-7.05-1.61-1.79-3.2-3.2-4.78-4.22-1.58-1.02-3.05-1.73-4.41-2.13-1.36-.4-2.47-.7-3.34-.88-.93,0-2.03,.06-3.29,.19-1.27,.12-2.58,.34-3.94,.65-1.36,.31-2.74,.73-4.13,1.25s-2.63,1.16-3.71,1.9c-1.08,.74-1.95,1.62-2.6,2.64-.65,1.02-.97,2.21-.97,3.57,0,1.48,.59,2.74,1.76,3.76,1.17,1.02,2.6,1.86,4.27,2.5,1.67,.65,3.37,1.1,5.1,1.35,1.73,.25,3.12,.37,4.17,.37,1.73,0,3.43-.09,5.1-.28s3.32-.4,4.96-.65c1.64-.25,3.26-.46,4.87-.65,1.61-.19,3.21-.28,4.82-.28h.65c.31,0,.63,.02,.97,.05s.65,.05,.93,.05h.6c.49,.19,.77,.46,.83,.83,.06,.37,.09,.74,.09,1.11s-.39,.77-1.16,1.21c-.77,.43-1.78,.87-3.01,1.3-1.24,.43-2.61,.88-4.13,1.34-1.52,.46-2.97,.85-4.36,1.16-1.39,.31-2.69,.57-3.9,.79-1.21,.22-2.06,.32-2.55,.32-2.6,0-5.35-.22-8.26-.65-2.91-.43-5.57-1.22-7.98-2.37-2.41-1.14-4.41-2.74-5.98-4.78s-2.37-4.67-2.37-7.89Z"/>
  <path id="boy" d="M303.81,555.71c.15,1.15,.23,2.3,.23,3.45,0,6.37-2.72,13.23-8.17,20.59-4.37,5.9-9.74,11.19-16.1,15.87-5.83,4.22-9.78,6.17-11.85,5.87-2.3-.31-6.36-2.01-12.19-5.12-5.83-3.11-8.97-5.23-9.43-6.38-.16-.3-.23-.65-.23-1.04,0-.46,.13-1.05,.4-1.78,.27-.73,.4-1.28,.4-1.67v-74.52c0-1.23,1.69-1.84,5.06-1.84,1.53,0,2.88,.15,4.02,.46,3.6-2.3,8.15-4.35,13.63-6.15,5.48-1.8,10.18-2.7,14.09-2.7,2.3,0,4.08,.33,5.35,.98,1.27,.65,2.43,1.78,3.51,3.39,1.38,2.22,2.34,3.6,2.88,4.14,.15,.16,1.42,1.19,3.79,3.11,1.38,1.15,2.26,2.38,2.65,3.68,.3,.92,.46,1.92,.46,2.99,0,6.06-4.03,12.65-12.08,19.78,8.2,6.21,12.73,11.84,13.57,16.9Zm-20.12-37.38c-.16-.3-.58-.46-1.27-.46-1.76,0-4.52,.92-8.28,2.76-3.76,1.84-6.29,3.6-7.59,5.29v11.96c4.91-3.91,9.14-7.9,12.71-11.96,3.56-4.06,5.04-6.59,4.43-7.59Zm4.14,34.04c-2,.08-5.37,1.04-10.12,2.88-5.14,2.07-8.86,4.1-11.16,6.1v21.39c4.98-1.38,9.89-5.6,14.72-12.65,4.83-7.05,7.01-12.96,6.55-17.71Zm65.2,48.19c-1.61,.15-3.41-.06-5.4-.63-2-.57-3.95-1.17-5.87-1.78-2.3-.62-5.9-1.73-10.81-3.34-6.13-2.68-10.77-7.97-13.92-15.87-2.76-6.98-4.14-15.41-4.14-25.3,0-8.05,1.38-17.44,4.14-28.17,3.76-14.41,8.62-21.62,14.61-21.62,.54,0,1.28,.13,2.24,.4,.96,.27,1.71,.44,2.24,.52,5.67-1.61,9.31-2.41,10.92-2.41,.77,0,1.53,.04,2.3,.12,9.2,1.15,16.45,6.9,21.74,17.25,4.75,9.35,7.13,20.51,7.13,33.46,0,12.27-2.15,22.81-6.44,31.62-4.6,9.58-10.85,14.83-18.75,15.75Zm-2.07-84.29c-1.69-.46-3.36,1.8-5,6.79-1.65,4.98-3.32,7.47-5,7.47-.38,0-.94-.21-1.67-.63-.73-.42-1.32-.67-1.78-.75-2.61,5.75-3.91,13.95-3.91,24.61,0,8.36,.88,15.53,2.64,21.51,1.99,6.67,4.75,10.35,8.28,11.04,4.14,.77,7.47-3.49,10-12.77,2.22-8.12,3.33-17.79,3.33-28.98,0-7.59-.58-13.95-1.72-19.09-1.23-5.52-2.95-8.59-5.17-9.2Zm101.2-4.03c.46,3.99-.46,6.52-2.76,7.59-1.3,.62-1.92,.92-1.84,.92-4.45,6.83-10.31,18.82-17.59,36-6.83,16.25-10.39,26.03-10.7,29.32-.08,.62,.08,1.69,.46,3.22,.38,1.54,.54,2.8,.46,3.79-.46,5.21-1.76,8.01-3.91,8.39-1.07,.15-3.74-.42-7.99-1.72-4.25-1.3-7.11-2.41-8.57-3.34-2.61-1.84-3.91-3.68-3.91-5.52,0-.92,.27-1.96,.8-3.11,1.07-2.99,3.33-9.12,6.79-18.4-6.36-13.11-10.66-22.16-12.88-27.14-4.45-9.96-7.59-18.13-9.43-24.49-.16-.38-.59-.96-1.32-1.73-.73-.77-1.09-1.46-1.09-2.07,0-1.15,1.5-2.88,4.48-5.18,6.36-4.91,10.73-7.21,13.11-6.9,1.23,.15,2.34,.96,3.33,2.42,.84,1.15,1.34,2.18,1.5,3.1,0,1.46,.23,3.79,.69,7.02,1.76,9.51,5.44,19.82,11.04,30.94,4.29-10.5,6.71-16.29,7.25-17.37,2.91-6.52,6.21-12.61,9.89-18.29,.31-1.22,.84-2.8,1.61-4.71,1.53-1.76,3.6-2.49,6.21-2.19,1.84,.23,4.66,1.57,8.45,4.03,3.79,2.46,5.77,4.26,5.92,5.4Z"/>
  <path id="hisThree" d="M575.71,520.07c-.13,1.75-1.59,3.9-4.39,6.45-2.8,2.56-4.83,3.83-6.08,3.83-1.75,0-2.81,.06-3.18,.19v47.12c0-.37,.62,1.93,1.87,6.92,1.12,7.98,.19,12.65-2.8,14.02-.62,.25-1.56,.37-2.81,.37-4.37,0-9.97-1.56-16.83-4.67-7.36-3.24-11.85-6.48-13.46-9.72-.12-1.12-.31-2.8-.56-5.05-.25-.87,.19-2.06,1.31-3.55,1.12-1.5,1.68-2.43,1.68-2.8v-37.77c-2.37,.25-7.04,1.19-14.03,2.8-6.98,1.62-11.59,2.87-13.84,3.74v37.96c0,.87,.4,1.9,1.22,3.08,.81,1.19,1.28,2.09,1.4,2.71-.5,2-.94,3.93-1.31,5.8-.37,1.37-1.06,2.24-2.06,2.62-2,.75-7.57-.41-16.74-3.46-9.16-3.05-14-5.52-14.49-7.39-.37-1.37-.5-2.87-.37-4.49,.37-2.49,.56-4.24,.56-5.24v-119.68c0-1.99,.56-5.42,1.68-10.29,.25-1.25,2.37-2.99,6.36-5.24,.25-.12,.94-.19,2.06-.19,4.61,0,9.47,.75,14.59,2.24,6.61,2,10.1,4.61,10.47,7.85,.12,1.12-.41,3.24-1.59,6.36-1.19,3.12-1.78,5.24-1.78,6.36v45.63c8.48-2.12,17.76-4.3,27.86-6.54v-52.17c0-.25-.28-1.18-.84-2.8-.56-1.62-.72-2.93-.47-3.93,.62-2.24,2.68-3.68,6.17-4.3,2.62-.37,5.24-.68,7.85-.93,2.74-.37,6.76,.44,12.06,2.43,5.3,2,8.26,4.11,8.88,6.36,.25,1,0,2.31-.75,3.93-.87,2.12-1.31,3.87-1.31,5.24v51.61c.62,.75,3.55,3.43,8.79,8.04,3.37,2.99,4.99,5.17,4.86,6.55Zm52.17-73.49c0,.87-.28,2.06-.84,3.55-.56,1.5-.91,2.43-1.03,2.8-.75,2.5-1.5,6.36-2.24,11.59v114.82c0,1.5,.37,2.84,1.12,4.02,.75,1.19,1.12,2.15,1.12,2.9,0,7.98-1.5,12.28-4.49,12.9-1.12,.25-5.49-.56-13.09-2.43-7.98-2-12.59-3.55-13.84-4.68-2.74-2.37-4.11-4.55-4.11-6.54,0-.5,.25-1.06,.75-1.68,.5-.62,.75-1.68,.75-3.18v-131.83c0-.75-.22-1.53-.65-2.34-.44-.81-.65-1.59-.65-2.34,.25-2.99,2.55-4.98,6.92-5.98,1.37-.25,4.24-.25,8.6,0,5.36,.37,9.85,1.06,13.46,2.06,5.48,1.5,8.23,3.62,8.23,6.36Zm99.29,118.75c0,9.23-3.06,16.8-9.16,22.72-6.11,5.92-14.59,9.01-25.43,9.26-2.74,0-5.67-.44-8.79-1.31-5.74-1.62-8.73-2.43-8.98-2.43-2.99-.62-6.02-1.28-9.07-1.96-3.06-.69-5.7-2.09-7.95-4.21-3.37-2.99-6.11-7.85-8.23-14.59-2.62-7.85-4.61-12.78-5.98-14.77-1-1-2.18-2.74-3.55-5.24-.37-1.87-.03-3.71,1.03-5.52,1.06-1.81,2.34-2.96,3.83-3.46,.75-.25,2.12-.37,4.11-.37,4.36,0,9.69,.53,15.99,1.59,6.29,1.06,9.82,2.03,10.57,2.9,.75,.87,1.74,5.36,2.99,13.46,1.12,7.48,2.8,11.66,5.05,12.53,.5,.25,1.06,.37,1.68,.37,2.37,0,4.39-1.96,6.08-5.89,1.68-3.93,2.52-8.38,2.52-13.37,0-10.85-3.37-18.08-10.1-21.69-15.46-8.35-26.31-16.08-32.54-23.19-7.23-8.23-10.47-17.95-9.72-29.17,.62-9.35,4.02-18.79,10.19-28.33s12.68-15.12,19.54-16.74c2.87-.62,11.59,2.12,26.18,8.23,3.61,1.37,7.26,2.81,10.94,4.3,3.68,1.5,6.64,3.68,8.88,6.54,3.49,4.37,5.24,11.91,5.24,22.63,0,2-.06,4.93-.19,8.79-.13,3.37-.19,5.74-.19,7.11,.12,.87,.56,2.31,1.31,4.3,.62,1.37,.87,2.74,.75,4.11-.25,5.49-2.56,8.54-6.92,9.16-2.5,.37-7.11-.56-13.84-2.8-7.48-2.37-12.22-4.92-14.21-7.67-.25-.37-.37-1.62-.37-3.74,0-1.87,.22-6.11,.65-12.72,.44-6.61,.65-11.41,.65-14.4,0-5.36-.62-7.98-1.87-7.85-3.87,.25-7.08,3.02-9.63,8.32-2.56,5.3-3.83,11.31-3.83,18.05,0,11.22,3.3,19.2,9.91,23.94,7.48,4.74,14.96,9.48,22.44,14.21,7.11,4.61,12.03,9.23,14.77,13.84,3.49,5.98,5.24,14.34,5.24,25.06Z"/>
  <path id="age" d="M269.44,77.22c5.8-12.9,13.46-29.36,13.46-44.13,0-12.9,5.98-22.63,22.63-22.63s26.55,16.64,33.85,28.98c3.18,5.42,31.42,62.64,38.15,77.98,6.17,14.21,16.27,5.61,16.27,16.27,0,13.65-26.55,13.09-35.9,13.09-26.74,0-42.82-.19-42.82-11.78,0-8.98,11.41-5.61,11.41-12.15,0-8.42-4.67-9.16-34.78-9.16-9.72,0-15.52,.37-15.52,9.54,0,7.29,11.97,2.43,11.97,12.15,0,11.22-20.2,11.41-27.68,11.41-26.74,0-29.17-5.05-29.17-11.03,0-8.79,10.1-6.17,15.52-12.9,4.11-5.05,8.04-14.02,10.85-20.01l11.78-25.62Zm39.27,13.46c1.87,0,7.48,.37,7.48-2.43s-5.42-12.53-6.92-15.15c-1.68-2.99-4.86-9.91-8.98-9.91-4.49,0-7.67,11.22-8.41,13.28-.75,2.06-3.93,9.35-3.93,11.59,0,3.18,4.67,2.62,6.73,2.62h14.02Zm135.39,92c-34.59,0-47.68-13.09-47.68-25.06,0-10.85,10.28-11.03,10.28-13.84,0-2.43-10.1-7.67-10.1-15.89,0-13.28,15.15-17.2,15.15-19.82,0-2.24-12.72-10.85-12.72-24.68,0-22.63,28.24-33.1,47.12-33.1,9.54,0,22.44,3.55,28.99,3.55,14.21,0,21.32-9.91,24.12-9.91,4.3,0,6.17,5.61,6.17,9.16,0,10.47-10.47,17.95-10.47,20.01,0,1.87,.56,3.93,.56,5.8,0,25.24-29.36,33.85-49.93,33.85-3.18,0-6.36-.56-9.72-.56-3.18,0-5.05,2.06-5.05,5.05,0,5.8,8.23,6.92,12.53,6.92,5.8,0,27.49-3.18,34.97-3.18,19.45,0,27.68,11.03,27.68,22.25,0,16.83-16.08,39.46-61.9,39.46Zm1.87-16.08c6.17,0,20.2-.93,20.2-9.54,0-3.93-3.74-5.61-7.29-5.61-2.8,0-10.1,1.12-16.08,1.12-4.3,0-14.4-1.5-16.46-1.5-1.68,0-2.24,1.68-2.24,2.99,0,9.91,14.59,12.53,21.88,12.53Zm1.12-102.66c-7.29,0-10.47,6.92-10.47,13.46,0,7.11,1.87,22.63,11.41,22.63,8.42,0,11.22-7.29,11.22-14.59,0-7.67-1.68-21.5-12.15-21.5ZM587.15,13.64c25.06,0,28.61-3.74,31.6-3.74,10.66,0,15.15,18.33,15.15,26.55,0,6.17-2.43,13.46-9.72,13.46-14.77,0-2.81-17.95-38.33-17.95-20.76,0-18.7,3.74-18.7,25.24,0,10.85,.56,11.22,11.97,11.22,14.21,0,3.55-20.76,16.83-20.76,10.85,0,11.59,21.13,11.59,28.42,0,7.67-1.31,30.11-12.53,30.11s0-19.63-18.89-19.63c-7.85,0-7.67,7.11-7.67,13.09,0,27.3,1.87,25.99,21.5,25.99,38.33,0,27.49-26.37,42.82-26.37,5.98,0,8.98,6.73,8.98,11.97,0,12.72-10.1,35.53-17.58,35.53-1.31,0-4.3-.56-8.23-1.12-4.11-.37-9.35-.94-15.71-.94h-76.86c-12.34,0-12.53-5.61-12.53-8.04,0-10.28,12.72-2.06,14.03-21.88,2.24-34.03,2.43-30.67,.56-64.51-1.31-28.61-15.52-13.84-15.52-27.11,0-11.41,15.71-9.54,23.37-9.54h53.86Z"/>
  <path id="isTwo" d="M247.29,190.95c-.56,3.07-.84,6.51-.84,10.42v49.85c0,4.09,.28,7.25,.84,10.42h-8.84c.56-3.44,.74-5.77,.74-10.42v-49.85c0-4.65-.19-7.07-.74-10.42h8.84Zm55.15,18.32c-.74-3.72-1.49-5.58-3.26-7.72-2.98-3.53-7.72-5.39-13.76-5.39-9.58,0-16.28,5.12-16.28,12.65,0,4.84,2.6,8.28,8.09,10.51,2.51,1.02,2.6,1.02,13.3,3.35,14.88,3.16,20.83,8.83,20.83,19.62,0,13.11-9.02,20.55-25.02,20.55-10.42,0-18.14-3.07-22.41-8.83-2.42-3.26-3.44-6.14-4.37-12.28l8.09-1.02c.28,4.46,.93,6.7,2.88,9.21,3.07,4.09,8.65,6.42,15.53,6.42,11.07,0,17.76-5.21,17.76-13.86,0-4.56-1.86-8-5.39-9.95-3.07-1.77-4.09-2.05-15.35-4.56-5.86-1.21-9.49-2.51-12.65-4.28-5.77-3.25-8.65-8.18-8.65-14.69,0-11.72,9.39-19.25,23.81-19.25,9.21,0,16.37,2.98,20.55,8.56,2.14,2.79,3.07,5.12,4.09,9.86l-7.81,1.12Z" style="fill: none; stroke: #000; stroke-miterlimit: 10;"/>
  <path id="rect02" d="M653.52,280.44H326.53v-92.86h326.98v92.86Z"/>
  <path id="considerate" d="M362.59,244.37l.76,.93c-1.46,1.64-2.81,2.93-4.03,3.87-1.23,.94-2.47,1.61-3.74,2.01s-2.71,.6-4.35,.6c-2.59,0-4.9-.56-6.94-1.68-2.04-1.12-3.63-2.7-4.78-4.75-1.15-2.05-1.73-4.33-1.73-6.86,0-2.06,.39-4.04,1.16-5.94,.77-1.9,1.84-3.55,3.19-4.95,1.35-1.39,2.96-2.48,4.83-3.27,1.87-.79,3.82-1.18,5.86-1.18,1.88,0,3.64,.35,5.28,1.05,1.64,.7,2.94,1.63,3.9,2.81,.96,1.17,1.44,2.46,1.44,3.85,0,.91-.27,1.68-.81,2.31-.54,.63-1.22,.95-2.04,.95-1.2,0-2.09-.58-2.69-1.73-.27-.51-.48-1.52-.63-3.02-.18-1.48-.46-2.55-.86-3.19-.35-.6-.86-1.07-1.53-1.41-.66-.34-1.42-.51-2.26-.51-1.53,0-2.88,.53-4.05,1.59-1.17,1.06-2.08,2.55-2.71,4.45-.63,1.9-.95,4.12-.95,6.64s.37,4.73,1.1,6.69,1.75,3.46,3.07,4.52c1.32,1.05,2.85,1.58,4.6,1.58,1,0,1.96-.18,2.89-.55s1.9-.95,2.91-1.76c1.01-.81,2.04-1.82,3.1-3.04Zm-11.49,6.51c-6.04-1.57-9.06-6.06-9.06-13.48,0-2.79,.4-5.11,1.21-6.97,.81-1.86,2.23-3.65,4.27-5.38-5.69,2.92-8.53,7.38-8.53,13.38,0,2.35,.52,4.47,1.56,6.36,1.04,1.89,2.48,3.38,4.33,4.45,1.85,1.07,3.92,1.62,6.23,1.64Zm5.64-25.83c.64,.84,1.06,1.54,1.25,2.11,.19,.56,.37,1.53,.55,2.91,.18,1.17,.37,1.94,.58,2.29,.21,.35,.55,.53,1.01,.53,.73,0,1.1-.53,1.1-1.59,0-2.19-1.49-4.27-4.48-6.24Zm9.7,12.42c0-2.57,.69-4.95,2.08-7.16,1.38-2.2,3.25-3.94,5.61-5.21,2.36-1.27,4.94-1.91,7.75-1.91,2.1,0,4.08,.36,5.94,1.08,1.86,.72,3.5,1.74,4.91,3.05,1.42,1.32,2.52,2.86,3.3,4.62,.79,1.76,1.18,3.6,1.18,5.53,0,2.55-.68,4.93-2.04,7.14-1.36,2.21-3.22,3.96-5.58,5.23s-4.92,1.91-7.69,1.91-5.4-.63-7.77-1.89c-2.37-1.26-4.24-2.99-5.63-5.2-1.38-2.2-2.08-4.6-2.08-7.19Zm9.83,12.38c-1.06-.84-1.79-1.47-2.17-1.88-.39-.41-.8-.96-1.25-1.64-1.42-2.3-2.12-5.27-2.12-8.9,0-6.02,2.05-10.25,6.14-12.68-1.86,.69-3.49,1.68-4.9,2.99-1.41,1.31-2.49,2.79-3.25,4.45s-1.15,3.42-1.15,5.28,.38,3.56,1.13,5.25c.75,1.68,1.8,3.13,3.15,4.35,.73,.6,1.32,1.04,1.76,1.33,.44,.29,1.33,.77,2.66,1.46Zm-2.56-12.58c0,1.93,.19,3.7,.58,5.31,.39,1.62,.95,2.99,1.68,4.13,.73,1.14,1.6,2.02,2.61,2.64,1.01,.62,2.11,.93,3.3,.93s2.27-.32,3.29-.95c1.02-.63,1.88-1.5,2.59-2.62,.71-1.12,1.26-2.5,1.64-4.13,.39-1.64,.58-3.41,.58-5.31,0-2.55-.34-4.8-1.01-6.77-.68-1.97-1.63-3.5-2.86-4.58-1.23-1.08-2.65-1.63-4.27-1.63-2.46,0-4.43,1.2-5.91,3.59-1.48,2.39-2.22,5.52-2.22,9.4Zm11.52,13.12c2.92-1.28,5.15-3.04,6.69-5.26,1.54-2.22,2.31-4.78,2.31-7.65s-.75-5.57-2.24-7.87c-1.49-2.3-3.48-3.93-5.96-4.88,3.39,2.48,5.08,6.7,5.08,12.65,0,3.01-.43,5.52-1.28,7.54-.85,2.01-2.21,3.71-4.07,5.08l-.53,.4Zm26.13-20.32c1.37-1.62,2.69-2.95,3.95-4,1.26-1.05,2.48-1.8,3.65-2.24,1.17-.44,2.45-.66,3.82-.66,1.68,0,3.25,.4,4.7,1.2,1.45,.8,2.56,1.87,3.34,3.22,.88,1.51,1.33,3.54,1.33,6.11v11.02c0,1.84,.27,3.14,.81,3.92,.54,.77,1.57,1.29,3.07,1.56v.9h-14.58v-.9c1.5-.27,2.53-.79,3.07-1.56,.54-.77,.81-2.08,.81-3.92v-11.22c0-2.41-.16-4.08-.46-5.01-.33-1.02-.86-1.81-1.59-2.37s-1.61-.85-2.62-.85c-1.42,0-2.79,.48-4.13,1.43-1.34,.95-3.06,2.67-5.16,5.15v12.88c0,1.84,.27,3.14,.81,3.92,.54,.77,1.57,1.29,3.07,1.56v.9h-14.58v-.9c1.5-.27,2.53-.78,3.09-1.54,.55-.76,.83-2.08,.83-3.93v-13.95c0-1.86-.28-3.18-.85-3.97-.56-.79-1.59-1.29-3.07-1.51v-.73l10.69-1.23v6.74Zm-7.37,19.56h6.64l-.8-.6s-.09-.08-.13-.1l-.43-.33c-.31-.31-.48-.73-.5-1.26v-22.61l-5.45,.6,1.29,.93s.07,.03,.13,.1l.43,.33c.22,.16,.37,.38,.43,.68s.1,.82,.1,1.58v17.4c0,.91-.04,1.47-.13,1.69-.09,.22-.35,.52-.8,.9-.07,.04-.1,.08-.1,.1l-.7,.6Zm20.79,0h6.61l-.76-.6c-.07-.07-.11-.1-.13-.1l-.43-.33c-.33-.33-.5-.75-.5-1.26v-.66l-.03-.33v-12.68c0-1.68-.11-3.01-.33-3.98-.22-.97-.6-1.83-1.13-2.56-1.37-1.86-3.15-2.79-5.35-2.79-.22,0-.73,.04-1.53,.13,1.37,.2,2.43,.6,3.19,1.21,.75,.61,1.29,1.52,1.61,2.74,.32,1.22,.48,2.9,.48,5.05v12.88c0,.91-.04,1.47-.12,1.69-.08,.22-.34,.52-.78,.9-.04,.04-.07,.07-.08,.07-.01,0-.03,.01-.05,.03l-.66,.6Zm32.11-24.8l1.39,7.7h-.9c-.66-2.52-1.71-4.51-3.14-5.96-1.43-1.45-3.07-2.17-4.93-2.17-1.11,0-2.03,.33-2.77,.98-.74,.65-1.11,1.46-1.11,2.41,0,.89,.29,1.61,.88,2.17,.59,.56,1.91,1.41,3.97,2.54,3.36,1.84,5.71,3.29,7.04,4.35,2.1,1.62,3.15,3.72,3.15,6.31,0,1.31-.25,2.48-.76,3.52-.51,1.04-1.26,1.95-2.26,2.72-1,.77-2.18,1.37-3.55,1.78-1.37,.41-2.87,.61-4.48,.61-2.68,0-5.89-.61-9.63-1.83l-.8-10.09h.8c1.99,6.88,5.09,10.33,9.3,10.33,1.48,0,2.71-.44,3.67-1.33,.96-.89,1.44-2.05,1.44-3.49s-.56-2.63-1.69-3.52c-.66-.53-2.3-1.52-4.91-2.96-2.61-1.44-4.41-2.57-5.38-3.39-1.57-1.31-2.36-2.97-2.36-4.98,0-2.17,.85-3.93,2.54-5.3s3.88-2.04,6.56-2.04c2.12,0,4.77,.54,7.94,1.63Zm-16.14,24.27l.6,.2c.86,.33,1.86,.63,2.99,.9l.73,.17c-1.04-.69-1.89-1.38-2.56-2.08s-1.36-1.63-2.09-2.81l.33,3.62Zm10.92,1.43c1.99-.27,3.55-.96,4.68-2.09s1.69-2.57,1.69-4.32-.64-3.25-1.93-4.58c-1.11-1.17-3.24-2.59-6.41-4.25-2.61-1.42-4.37-2.56-5.26-3.42s-1.34-1.86-1.34-2.99c0-1.7,.96-3.22,2.89-4.55-1.62,.53-2.86,1.33-3.74,2.39-.88,1.06-1.31,2.29-1.31,3.69,0,1.64,.58,2.98,1.73,4.02,.88,.82,2.67,1.98,5.35,3.49,2.9,1.57,4.75,2.72,5.54,3.45,1.17,1.06,1.76,2.39,1.76,3.98,0,2.5-1.22,4.23-3.65,5.18Zm12.05,.56v-.9c1.5-.27,2.53-.78,3.09-1.54,.55-.76,.83-2.08,.83-3.93v-13.95c0-1.86-.28-3.18-.85-3.97-.56-.79-1.59-1.29-3.07-1.51v-.73l10.69-1.23v21.38c0,1.84,.27,3.14,.81,3.92,.54,.77,1.57,1.29,3.07,1.56v.9h-14.58Zm3.32-1.46h6.64l-.8-.6s-.09-.08-.13-.1l-.43-.33c-.31-.31-.48-.73-.5-1.26v-22.61l-5.45,.6,1.29,.93s.07,.03,.13,.1l.43,.33c.22,.16,.37,.38,.43,.68s.1,.82,.1,1.58v17.4c0,.91-.04,1.47-.13,1.69-.09,.22-.35,.52-.8,.9-.07,.04-.1,.08-.1,.1l-.7,.6Zm-.3-35.36c0-1.11,.38-2.05,1.13-2.82,.75-.77,1.69-1.16,2.82-1.16s2.07,.39,2.82,1.16c.75,.77,1.13,1.72,1.13,2.82s-.38,2.07-1.13,2.82c-.75,.75-1.69,1.13-2.82,1.13s-2.07-.38-2.82-1.13c-.75-.75-1.13-1.69-1.13-2.82Zm3.79-3.09c-.78,.04-1.44,.37-2.01,.98-.56,.61-.85,1.31-.85,2.11s.29,1.51,.86,2.12c.58,.62,1.24,.93,1.99,.93,.49,0,.73-.25,.73-.76,.02-.4,.03-1.21,.03-2.42s-.01-1.93-.03-2.26c-.02-.44-.27-.67-.73-.7Zm33.34,36.52l-.13,.1c-2.99,2.63-6.17,3.95-9.53,3.95-2.41,0-4.62-.57-6.61-1.71s-3.56-2.72-4.7-4.75c-1.14-2.03-1.71-4.24-1.71-6.66,0-2.68,.66-5.2,1.98-7.57,1.32-2.37,3.09-4.26,5.33-5.68,2.24-1.42,4.62-2.12,7.14-2.12,2.9,0,5.64,1.04,8.23,3.12v-13.75c0-1.84-.28-3.15-.83-3.95-.55-.8-1.57-1.31-3.05-1.53v-.73l10.66-1.23v39.51c0,1.84,.28,3.14,.85,3.92,.56,.77,1.59,1.29,3.07,1.56v.9h-10.69v-3.39Zm-11.42,3.05c-1.35-.8-2.35-1.47-2.99-2.03-.64-.55-1.27-1.32-1.89-2.29-1.51-2.41-2.26-5.25-2.26-8.5,0-2.7,.41-5,1.23-6.91,.82-1.9,2.24-3.86,4.25-5.88-2.79,1.62-4.9,3.57-6.33,5.86s-2.14,4.84-2.14,7.65c0,3.03,.89,5.62,2.67,7.77,1.78,2.15,4.27,3.59,7.45,4.32Zm11.42-22.48l-.27-.23c-1.44-1.24-2.74-2.15-3.9-2.72-1.16-.58-2.3-.86-3.4-.86-1.57,0-2.97,.51-4.18,1.54-1.22,1.03-2.16,2.49-2.82,4.38s-1,4.12-1,6.69,.32,4.66,.96,6.61c.64,1.95,1.55,3.47,2.74,4.57,1.18,1.1,2.55,1.64,4.1,1.64,2.41,0,5-1.52,7.77-4.55v-17.07Zm1.13,21.35h4.91l-.76-.6s-.09-.06-.13-.1l-.43-.33c-.33-.33-.5-.75-.5-1.26l-.03-.66v-40.08l-5.45,.6,1.29,.93s.07,.03,.13,.1l.43,.33c.22,.16,.37,.36,.43,.61,.07,.25,.1,.8,.1,1.64v38.81Zm20.12-14.01v.73c0,2.63,.39,4.94,1.16,6.92,.77,1.98,1.88,3.51,3.3,4.6,1.43,1.08,3.1,1.63,5.03,1.63,1.02,0,2.04-.17,3.07-.51,1.03-.34,2.05-.84,3.05-1.48,1.01-.64,2.14-1.55,3.4-2.72l.66,.9c-2.28,2.21-4.44,3.8-6.49,4.75-2.05,.95-4.33,1.43-6.86,1.43s-5-.58-7.09-1.73-3.71-2.78-4.86-4.88c-1.15-2.1-1.73-4.47-1.73-7.11,0-2.77,.64-5.3,1.91-7.6,1.27-2.3,3.01-4.11,5.21-5.41,2.2-1.31,4.67-1.96,7.39-1.96,2.32,0,4.45,.48,6.39,1.43,1.94,.95,3.45,2.29,4.53,4.02,1.15,1.77,1.79,4.11,1.93,7.01h-20.02Zm7.77,15.24c-1.57-.2-2.83-.5-3.79-.9-.95-.4-1.88-1.02-2.79-1.86-1.35-1.24-2.4-2.87-3.15-4.9-.75-2.03-1.13-4.23-1.13-6.62,0-1.66,.16-3.19,.48-4.58,.32-1.39,.82-2.65,1.49-3.75,.67-1.11,1.59-2.16,2.74-3.15-2.52,1.37-4.46,3.19-5.81,5.45-1.35,2.26-2.03,4.78-2.03,7.57,0,2.39,.54,4.57,1.63,6.52,1.08,1.96,2.59,3.49,4.53,4.6,1.94,1.11,4.08,1.66,6.42,1.66,.53,0,1-.01,1.39-.03Zm-7.77-16.4h13.25c-.02-2.99-.32-5.14-.9-6.44-.51-1.2-1.24-2.12-2.19-2.77-.95-.65-2.01-.98-3.19-.98-4.25,0-6.57,3.4-6.97,10.19Zm17.27,0c-.07-1.64-.37-3.12-.9-4.45s-1.27-2.45-2.21-3.37c-.94-.92-2.05-1.58-3.34-1.98,1.28,1.02,2.21,2.22,2.77,3.62s.85,3.14,.85,5.25c0,.35-.01,.66-.03,.93h2.86Zm16.8-4.65c1.28-2.48,2.44-4.21,3.47-5.2,1.03-.98,2.22-1.48,3.57-1.48,1.68,0,3.09,.66,4.22,1.99s1.69,2.98,1.69,4.95c0,1.26-.26,2.24-.78,2.92-.52,.69-1.26,1.03-2.21,1.03-.82,0-1.48-.28-1.99-.83-.51-.55-.76-1.26-.76-2.12,0-.4,.05-.84,.17-1.33l.3-1.26c.18-.77,.27-1.46,.27-2.06s-.16-1.07-.48-1.41c-.32-.34-.75-.51-1.28-.51-.62,0-1.23,.24-1.83,.71-.6,.48-1.23,1.24-1.91,2.29-.68,1.05-1.49,2.52-2.44,4.4v12.82c0,1.84,.33,3.14,.98,3.92,.65,.77,1.85,1.29,3.6,1.56v.9h-15.27v-.9c1.5-.27,2.53-.78,3.09-1.54,.55-.76,.83-2.08,.83-3.93v-13.95c0-1.86-.28-3.18-.85-3.97-.56-.79-1.59-1.29-3.07-1.51v-.73l10.69-1.23v6.47Zm-7.37,19.82h6.64l-.8-.6s-.09-.08-.13-.1l-.43-.33c-.31-.31-.48-.73-.5-1.26v-22.61l-5.45,.6,1.29,.93s.07,.03,.13,.1l.43,.33c.22,.16,.37,.38,.43,.68s.1,.82,.1,1.58v17.4c0,.91-.04,1.47-.13,1.69-.09,.22-.35,.52-.8,.9-.07,.04-.1,.08-.1,.1l-.7,.6Zm15.47-25.04c.51,.69,.76,1.43,.76,2.22,0,.69-.12,1.53-.37,2.52-.22,.95-.33,1.58-.33,1.89,0,.93,.38,1.39,1.13,1.39,.95,0,1.43-.9,1.43-2.69,0-2.28-.88-4.06-2.62-5.35Zm23.11,23.41c-2.72,2.3-5.64,3.45-8.77,3.45-2.5,0-4.5-.65-5.99-1.94s-2.24-2.99-2.24-5.1c0-2.99,1.46-5.33,4.38-7.04,2.92-1.7,7.13-2.67,12.62-2.89v-1.39c0-1.73-.08-3.14-.23-4.23-.16-1.1-.38-1.92-.66-2.47-.33-.64-.8-1.16-1.41-1.54-.61-.39-1.27-.58-1.98-.58-1.04,0-1.86,.34-2.46,1.01-.6,.68-.97,1.72-1.13,3.14-.18,1.39-.46,2.34-.86,2.84s-1.08,.75-2.06,.75c-.75,0-1.38-.27-1.89-.8-.51-.53-.76-1.22-.76-2.06,0-1.13,.41-2.15,1.23-3.07,.82-.92,1.95-1.64,3.4-2.17,1.45-.53,3.04-.8,4.76-.8,2.24,0,4.19,.45,5.88,1.34,1.68,.9,2.93,2.14,3.75,3.74,.44,.82,.76,1.74,.95,2.76,.19,1.02,.28,2.42,.28,4.22v9.56c0,1.84,.27,3.14,.81,3.92,.54,.77,1.57,1.29,3.07,1.56v.9h-10.69v-3.09Zm-7.3,2.52c-3.76-.77-5.64-2.83-5.64-6.18,0-2.17,.87-4.03,2.62-5.58,.77-.69,2.27-1.56,4.48-2.62-2.68,.51-4.76,1.21-6.24,2.09-2.52,1.55-3.79,3.6-3.79,6.14,0,1.84,.67,3.33,2.01,4.47,1.34,1.14,3.07,1.71,5.2,1.71,.51,0,.96-.01,1.36-.03Zm0-26.23c-1.55,.4-2.79,1.05-3.74,1.94-.94,.9-1.41,1.9-1.41,3,0,.42,.1,.75,.3,1,.2,.24,.46,.37,.8,.37,.31,0,.54-.09,.7-.28,.15-.19,.29-.57,.4-1.15,.24-1.24,.56-2.17,.95-2.81,.39-.63,1.06-1.32,2.01-2.08Zm7.3,22.25v-10.99c-2.15,.33-3.99,.89-5.53,1.66-1.54,.77-2.72,1.76-3.54,2.96-.82,1.2-1.23,2.51-1.23,3.95s.44,2.67,1.31,3.64c.87,.96,1.98,1.44,3.3,1.44,1.64,0,3.53-.89,5.68-2.66Zm1.13,3.09h4.91l-.76-.6c-.07-.07-.11-.1-.13-.1l-.43-.33c-.33-.33-.5-.75-.5-1.26v-.66l-.03-.33v-11.29c0-3.08-.35-5.38-1.06-6.91-1-2.04-2.56-3.34-4.68-3.92,1.42,1,2.25,2.58,2.49,4.75,.13,1.33,.2,3.39,.2,6.18v14.48Zm21.48-24.74v17.6c0,1.73,.1,3.12,.32,4.17,.21,1.05,.54,1.82,1,2.31,.45,.49,1.06,.73,1.81,.73,1.35,0,3.01-.8,4.98-2.39l.5,.8c-1.48,1.28-2.83,2.21-4.05,2.79-1.22,.58-2.47,.86-3.75,.86-2.48,0-4.37-.82-5.66-2.47-1.29-1.65-1.94-4.04-1.94-7.19v-17.3h-3.05v-.8c1.66-.22,3.11-.82,4.35-1.79,1.24-.97,2.24-2.32,3-4.03,.76-1.72,1.31-3.82,1.64-6.33h.83v12.05h7.27v1h-7.24Zm-2.62-4.28c-.78,1.28-1.79,2.29-3.05,3.02v17.7c0,1.26,.05,2.37,.17,3.34,.11,.96,.28,1.73,.51,2.31,.23,.58,.58,1.14,1.05,1.69,1.24,1.44,2.84,2.16,4.81,2.16,.35,0,.66-.01,.93-.03-.97-.22-1.73-.51-2.27-.86-.54-.35-.97-.87-1.28-1.54-.31-.67-.53-1.6-.66-2.77-.13-1.17-.2-2.62-.2-4.35v-20.65Zm19.82,15.01v.73c0,2.63,.39,4.94,1.16,6.92,.77,1.98,1.88,3.51,3.3,4.6,1.43,1.08,3.1,1.63,5.03,1.63,1.02,0,2.04-.17,3.07-.51,1.03-.34,2.05-.84,3.05-1.48,1.01-.64,2.14-1.55,3.4-2.72l.66,.9c-2.28,2.21-4.44,3.8-6.49,4.75-2.05,.95-4.33,1.43-6.86,1.43s-5-.58-7.09-1.73-3.71-2.78-4.86-4.88c-1.15-2.1-1.73-4.47-1.73-7.11,0-2.77,.64-5.3,1.91-7.6,1.27-2.3,3.01-4.11,5.21-5.41,2.2-1.31,4.67-1.96,7.39-1.96,2.32,0,4.45,.48,6.39,1.43,1.94,.95,3.45,2.29,4.53,4.02,1.15,1.77,1.79,4.11,1.93,7.01h-20.02Zm7.77,15.24c-1.57-.2-2.83-.5-3.79-.9-.95-.4-1.88-1.02-2.79-1.86-1.35-1.24-2.4-2.87-3.15-4.9-.75-2.03-1.13-4.23-1.13-6.62,0-1.66,.16-3.19,.48-4.58,.32-1.39,.82-2.65,1.49-3.75,.67-1.11,1.59-2.16,2.74-3.15-2.52,1.37-4.46,3.19-5.81,5.45-1.35,2.26-2.03,4.78-2.03,7.57,0,2.39,.54,4.57,1.63,6.52,1.08,1.96,2.59,3.49,4.53,4.6,1.94,1.11,4.08,1.66,6.42,1.66,.53,0,1-.01,1.39-.03Zm-7.77-16.4h13.25c-.02-2.99-.32-5.14-.9-6.44-.51-1.2-1.24-2.12-2.19-2.77-.95-.65-2.01-.98-3.19-.98-4.25,0-6.57,3.4-6.97,10.19Zm17.27,0c-.07-1.64-.37-3.12-.9-4.45s-1.27-2.45-2.21-3.37c-.94-.92-2.05-1.58-3.34-1.98,1.28,1.02,2.21,2.22,2.77,3.62s.85,3.14,.85,5.25c0,.35-.01,.66-.03,.93h2.86Z" style="fill: #f8f7f9;"/>
  <path id="nice" d="M336.87,321.74c-1.07,0-1.97,.23-2.7,.7-.73,.47-1.1,1.5-1.1,3.1h-.8c0-.13-.1-.33-.3-.6-.2-.27-.43-.4-.7-.4l-.2-.2c-2.13,0-3.2,1.07-3.2,3.2,0,.13,.03,.23,.1,.3,.07,.07,.1,.17,.1,.3,.53-.67,1.37-1.03,2.5-1.1,1.13-.07,2.03-.1,2.7-.1v1.2c0,.13-.13,.53-.4,1.2-.27,.67-.47,1.07-.6,1.2v.8c.27,.13,.73,.53,1.4,1.2,.67,.67,1.06,1.13,1.2,1.4v1c0,.13,.07,.2,.2,.2,0,.8-.2,1.57-.6,2.3-.4,.73-.8,1.63-1.2,2.7l-2-1.4c0,.13-.04,.47-.1,1-.07,.53-.1,.93-.1,1.2,0,.8,.16,1.37,.5,1.7,.33,.33,.7,.53,1.1,.6,.4,.07,.8,.2,1.2,.4s.73,.63,1,1.3c0,.27-.13,.47-.4,.6-.27,.13-.47,.27-.6,.4-1.73,1.33-2.6,3.2-2.6,5.6,0,.13,.13,.47,.4,1,.13,.27,.33,.47,.6,.6v.4c0,.13,.03,.27,.1,.4,.07,.13,.1,.27,.1,.4,0,1.47-.5,2.5-1.5,3.1-1,.6-1.5,1.5-1.5,2.7,0,1.33,.37,2.53,1.1,3.6,.73,1.07,1.1,2.33,1.1,3.8,0,.27-.07,.7-.2,1.3s-.2,.97-.2,1.1c0,.67-.1,1.57-.3,2.7-.2,1.13-.4,2.23-.6,3.3-.2,1.07-.37,2-.5,2.8-.13,.8-.27,1.2-.4,1.2h-2.2v7.4c.93,0,1.6,.57,2,1.7,.4,1.13,.6,2.3,.6,3.5-.13,.27-.2,.53-.2,.8-.13,.13-.2,.33-.2,.6v.2c-.13-.27-.33-.67-.6-1.2-.27-.53-.53-.87-.8-1,0,.13-.2,.2-.6,.2,0,1.07,.13,2.13,.4,3.2,.27,1.07,1.07,1.6,2.4,1.6,0,1.2,.07,3.03,.2,5.5,.13,2.47,.07,4.93-.2,7.4-.27,2.47-.8,4.67-1.6,6.6-.8,1.93-2.2,2.9-4.2,2.9v-2.2h-.6l-2,4c-1.2-.93-2.63-1.7-4.3-2.3-1.67-.6-3.3-.9-4.9-.9-.67,0-1.7,.33-3.1,1-1.4,.67-2.5,1.4-3.3,2.2,.13-.53,.2-1.4,.2-2.6s-.07-1.93-.2-2.2c0-.13-.27-.43-.8-.9-.53-.47-1.07-.97-1.6-1.5-.53-.53-1.33-1.13-2.4-1.8-.27,0-.73,.37-1.4,1.1-.67,.73-1.13,1.1-1.4,1.1-.13,0-.44-.27-.9-.8-.47-.53-.7-1-.7-1.4l1.6-.8v-5.6h-2.4v-1.8c-1.07,0-1.77,.07-2.1,.2-.33,.13-.83,.2-1.5,.2-.54,0-.9-.17-1.1-.5-.2-.33-.37-.67-.5-1-.13-.33-.27-.67-.4-1-.13-.33-.4-.5-.8-.5-.8,0-1.33,.8-1.6,2.4-.27,1.6-.4,2.6-.4,3-.27,0-.5-.33-.7-1-.2-.67-.3-1.13-.3-1.4v-10.2c0-.53-.27-.83-.8-.9-.54-.07-1.13-.2-1.8-.4-.67-.2-1.3-.7-1.9-1.5s-.97-2.27-1.1-4.4h-.4v9l-1,.8c-.93-1.33-1.63-2.5-2.1-3.5-.47-1-.7-2.23-.7-3.7,0-.67,.3-1.5,.9-2.5,.6-1,1.23-1.97,1.9-2.9,.67-.93,1.3-1.73,1.9-2.4,.6-.67,.83-1.07,.7-1.2l-3.8-4v6.6c-1.07,0-1.67,.37-1.8,1.1-.13,.73-.67,1.43-1.6,2.1l-1.4-2v-9.6c0-.67-.37-1-1.1-1h-1.5c-1.33,0-2.43,.27-3.3,.8-.87,.53-.97,1.93-.3,4.2l-3.4-1.4v-.4c0-1.2,.6-2.43,1.8-3.7,1.2-1.27,2.06-2.37,2.6-3.3-.27-.53-.73-1-1.4-1.4-.67-.4-1.4-.73-2.2-1-.8-.27-1.6-.6-2.4-1-.8-.4-1.4-.93-1.8-1.6v5c-1.2-1.07-2.5-2.3-3.9-3.7-1.4-1.4-2.63-2.7-3.7-3.9l-1.6,1.8c-.13,0-.47,.1-1,.3-.53,.2-.87,.37-1,.5l-4.2,12.4v1.6c0,1.07,.17,1.9,.5,2.5,.33,.6,.5,1.5,.5,2.7,0,.93-.17,1.63-.5,2.1-.33,.47-1.03,1.23-2.1,2.3,.27,3.87,.7,7.63,1.3,11.3,.6,3.67,.9,7.5,.9,11.5,0,3.33-.23,6.07-.7,8.2-.47,2.13-1.9,4.13-4.3,6v-.8l1.6-2.6c.13-.13,.17-.43,.1-.9-.07-.47-.1-.77-.1-.9-1.07,0-1.73-.13-2-.4-.27-.27-.8-.4-1.6-.4,0,.13-.07,.2-.2,.2-.13,.13-.27,.2-.4,.2-.13,2-.43,3.96-.9,5.9-.47,1.93-1.97,2.9-4.5,2.9h-.6c-.53-1.6-1.1-2.93-1.7-4-.6-1.07-1.17-2.03-1.7-2.9-.53-.87-.97-1.87-1.3-3-.33-1.13-.5-2.63-.5-4.5,0-1.73,.2-3.1,.6-4.1s.6-2.23,.6-3.7c0-2.67-.47-5.43-1.4-8.3-.93-2.87-1.4-5.77-1.4-8.7,0-1.47,.2-2.7,.6-3.7s.6-2.23,.6-3.7-.07-3.43-.2-5.9c-.13-2.47-.33-4.97-.6-7.5-.27-2.53-.57-4.87-.9-7-.33-2.13-.77-3.6-1.3-4.4h1.6c0-1.07-.27-2.07-.8-3-.53-.93-.8-2-.8-3.2,0-.8,.33-1.17,1-1.1,.67,.07,1-.43,1-1.5,0-1.2-.33-2.03-1-2.5-.67-.47-1-1.43-1-2.9,0-1.07,.2-2.13,.6-3.2,.4-1.07,.6-2.13,.6-3.2,0-.93-.47-1.53-1.4-1.8-.93-.27-1.67-.93-2.2-2-.13-2.53-.5-4.7-1.1-6.5-.6-1.8-.9-3.83-.9-6.1,0-.8,.17-1.3,.5-1.5,.33-.2,.67-.33,1-.4,.33-.07,.67-.2,1-.4,.33-.2,.5-.63,.5-1.3v-.8c0-.13-.17-.46-.5-1-.33-.53-.5-.87-.5-1s.2-.7,.6-1.7c.4-1,.83-2,1.3-3,.47-1,.93-1.93,1.4-2.8,.47-.87,.77-1.3,.9-1.3,.67,.53,1.07,1.13,1.2,1.8,.13,.67,.73,1,1.8,1,1.6,0,2.97-.47,4.1-1.4,1.13-.93,2.43-1.4,3.9-1.4h1.8c-.4,0-.6,.33-.6,1,0,1.07,.17,1.83,.5,2.3,.33,.47,.73,.83,1.2,1.1,.47,.27,.87,.57,1.2,.9,.33,.33,.5,.9,.5,1.7s-.27,1.4-.8,1.8c0,.54,.2,.8,.6,.8l.8-.4,.8-.4c.13,0,.37,.07,.7,.2,.33,.13,.5,.33,.5,.6l.8,3.8c.27,.8,.77,1.27,1.5,1.4,.73,.13,1.5,.5,2.3,1.1,.8,.6,1.5,1.73,2.1,3.4,.6,1.67,.9,4.43,.9,8.3,.53,0,.9-.23,1.1-.7,.2-.47,.33-1,.4-1.6,.07-.6,.17-1.17,.3-1.7,.13-.53,.53-.8,1.2-.8,.4,0,.8,.4,1.2,1.2,.4,.8,.8,1.73,1.2,2.8,.4,1.07,.73,2.1,1,3.1,.27,1,.4,1.7,.4,2.1,.4-.13,1.07-.17,2-.1,.93,.07,1.83,.27,2.7,.6,.87,.33,1.63,.83,2.3,1.5,.67,.67,1,1.47,1,2.4l-.4,.4-.4,.4c-.13,.13-.2,.27-.2,.4v1.6c2,0,3.3,.17,3.9,.5,.6,.33,.96,.87,1.1,1.6,.13,.73,.23,1.67,.3,2.8,.06,1.13,.56,2.43,1.5,3.9,1.2-.4,2.6,.07,4.2,1.4,1.6,1.33,3.03,3.03,4.3,5.1,1.27,2.07,2.27,4.17,3,6.3,.73,2.13,.9,3.8,.5,5l1.8-2.2c.8,.67,1.6,1.53,2.4,2.6,.8,1.07,1.57,2.23,2.3,3.5,.73,1.27,1.37,2.47,1.9,3.6,.53,1.13,.87,2.1,1,2.9,1.33-.4,2.4-.33,3.2,.2,.8,.53,1.5,1.17,2.1,1.9,.6,.73,1.2,1.47,1.8,2.2,.6,.74,1.43,1.17,2.5,1.3v-.6c-.13-.4-.2-.93-.2-1.6s-.07-1.33-.2-2c-.13-.67-.27-1.4-.4-2.2h-1.2c0-.27,.16-.73,.5-1.4,.33-.67,.77-1.37,1.3-2.1,.53-.73,1.07-1.4,1.6-2,.53-.6,.93-.97,1.2-1.1v-9c0-.13,.1-.4,.3-.8,.2-.4,.3-.73,.3-1s-.07-.9-.2-1.9c-.13-1-.27-1.63-.4-1.9v-2c0-2.27,.1-4.4,.3-6.4,.2-2,.3-4.13,.3-6.4v-1c0-.27-.07-1.07-.2-2.4-.13-1.33-.27-2.13-.4-2.4,0-.4,.2-.6,.6-.6,.27,0,.63,.03,1.1,.1,.47,.07,.83,.23,1.1,.5,.27-.27,.5-.87,.7-1.8,.2-.93,.37-1.93,.5-3,.13-1.07,.23-2.1,.3-3.1,.07-1,.1-1.77,.1-2.3v-.4c-.67-.93-1.47-1.77-2.4-2.5-.94-.73-1.4-1.97-1.4-3.7,0-.4,.17-.73,.5-1,.33-.27,.73-.5,1.2-.7,.47-.2,.87-.47,1.2-.8,.33-.33,.5-.9,.5-1.7h2.6c0-2.8-.1-5.47-.3-8-.2-2.53-.3-5.07-.3-7.6v-.8l.8-2.8c.67,.27,1.13,1.07,1.4,2.4,.27,1.33,.4,2.13,.4,2.4h1.6c0-1.87-.27-3.67-.8-5.4-.54-1.73-.8-3.53-.8-5.4,0-1.6,.43-2.67,1.3-3.2,.87-.53,1.96-.8,3.3-.8,1.07,0,1.77,.33,2.1,1,.33,.67,.57,1.37,.7,2.1,.13,.73,.27,1.43,.4,2.1,.13,.67,.46,1,1,1v8.6c0,.13,.43,.57,1.3,1.3,.87,.73,1.5,1.23,1.9,1.5h.2c1.33,0,2.17-.3,2.5-.9,.33-.6,.5-1.27,.5-2v-2.2c0-.73,.4-1.3,1.2-1.7l.4-.2,.2,.2c.13,.27,.33,.87,.6,1.8,.27,.93,.57,1.93,.9,3,.33,1.07,.73,2.07,1.2,3,.47,.93,.97,1.6,1.5,2l-4.8,5.6v2c.27,.27,1.1,.63,2.5,1.1,1.4,.47,2.37,.7,2.9,.7l.8,3.2Zm-108.6,44.4c-.27-.13-.4-.03-.4,.3s.13,.5,.4,.5c.53-.53,.53-.8,0-.8Zm.8,52.8c-.27-.13-.4,0-.4,.4s.13,.6,.4,.6c.27-.67,.27-1,0-1Zm1.8-105c-.27-.13-.4-.03-.4,.3s.13,.5,.4,.5c.27-.13,.4-.3,.4-.5s-.13-.3-.4-.3Zm13,96.4c-.67,0-1,.3-1,.9s.33,.9,1,.9c.4,0,.6-.3,.6-.9s-.2-.9-.6-.9Zm0-33c.67-.4,1-1,1-1.8h-1v1.8Zm2.2-13.2c.27-.27,.23-.4-.1-.4s-.5,.13-.5,.4c.13,.27,.27,.4,.4,.4s.2-.13,.2-.4Zm0,6.8h1.2v-2.2h-1.2v2.2Zm1.8-16.6h1v-1.2l-1,1.2Zm0,5.4v1.4c0,.4,.33,.8,1,1.2v-5c-.67,.13-1,.47-1,1v1.4Zm7-1.6c0,.93,.17,2,.5,3.2,.33,1.2,1.1,1.8,2.3,1.8,.4,0,.6-.27,.6-.8,0-.8-.23-2.07-.7-3.8-.47-1.73-1.03-2.73-1.7-3-.4,.53-.67,.93-.8,1.2-.13,.27-.2,.73-.2,1.4Zm2.8-9.6c-.27-.13-.4,0-.4,.4s.13,.6,.4,.6c.13-.13,.2-.33,.2-.6s-.07-.4-.2-.4Zm0-5.8l.6,.8v-2.6c-.13,0-.27,.13-.4,.4-.13,.27-.2,.47-.2,.6v.8Zm6.6,21.4v-1h-.8l.8,1Zm4.4,.8c-.27-.13-.4,.04-.4,.5s.13,.7,.4,.7c.27-.13,.4-.37,.4-.7s-.13-.5-.4-.5Zm11.2,7.8c-.67,0-1,.33-1,1s.33,1,1,1c.53,0,.8-.33,.8-1s-.27-1-.8-1Zm0-2.8c-.27-.13-.4,0-.4,.4s.13,.6,.4,.6c.67-.67,.67-1,0-1Zm2.6,5.6c-.67,0-1,.3-1,.9s.33,.9,1,.9c.4,0,.6-.3,.6-.9s-.2-.9-.6-.9Zm8.4,6.6c-.27,.13-.83,.53-1.7,1.2-.87,.67-1.3,1.33-1.3,2h3v-3.2Zm13,30h.8v-2.8h-.8v2.8Zm4.6,3l.6-.2,1.4-.6h-2v.8Zm.6-55.8c-.27,0-.4,.27-.4,.8s.13,.8,.4,.8c.53,0,.8-.27,.8-.8s-.27-.8-.8-.8Zm3.4-30c-.4,0-.6,.33-.6,1s.2,1,.6,1,.6-.33,.6-1-.2-1-.6-1Zm0,61.8c-.4,0-.6,.3-.6,.9s.2,.9,.6,.9,.6-.3,.6-.9-.2-.9-.6-.9Zm.2,19.8c0,1.73,.23,2.87,.7,3.4,.47,.53,1.43,.8,2.9,.8,0-.93-.27-1.87-.8-2.8-.53-.93-1.47-1.4-2.8-1.4Zm1.6-38.2c-.54,0-.8,.33-.8,1s.27,1,.8,1,.8-.33,.8-1-.27-1-.8-1Zm1-15.4c-.54,0-.8,.33-.8,1s.27,1,.8,1c.27,0,.4-.33,.4-1s-.13-1-.4-1Zm4.2,57.6c-.53,0-.8,.37-.8,1.1s.27,1.1,.8,1.1c.27,0,.4-.37,.4-1.1s-.13-1.1-.4-1.1Zm0-70c-.27-.27-.4-.17-.4,.3s.13,.7,.4,.7c.13-.13,.2-.33,.2-.6s-.07-.4-.2-.4Zm.6-50.2c-.27,0-.4,.33-.4,1s.13,1,.4,1c.66,0,1-.33,1-1s-.34-1-1-1Zm1.2,56.8h1.4l-.8-.8-.6,.8Zm.6,4c-.27,0-.4,.3-.4,.9s.13,.9,.4,.9c.4,0,.6-.3,.6-.9s-.2-.9-.6-.9Zm0,3.8l.8-1.2h-.8v1.2Zm2.6-26.4c-.27,0-.4,.4-.4,1.2s.13,1.2,.4,1.2c.53,0,.8-.4,.8-1.2s-.27-1.2-.8-1.2Zm4.2,13c-.27,0-.4,.27-.4,.8s.13,.8,.4,.8c.4,0,.6-.27,.6-.8s-.2-.8-.6-.8Zm.8-10.6c.27-.27,.2-.4-.2-.4s-.6,.13-.6,.4c.13,.27,.3,.4,.5,.4s.3-.13,.3-.4Zm0,30.8c-.27-.27-.4,0-.4,.8s.13,1.13,.4,1c.4-.27,.6-.63,.6-1.1s-.2-.7-.6-.7Zm0-54c1.6-.93,2.4-2.33,2.4-4.2h-2.4v4.2Zm0,19.2h1.2l-1.2-.8v.8Zm16.8,83.2c0-.67,.1-2.03,.3-4.1,.2-2.07,.37-3.43,.5-4.1,.27,.13,.7,.2,1.3,.2s1.03-.07,1.3-.2l.6-1.6,1.5-1.5,2.3-2.3c.8-.8,1.53-1.57,2.2-2.3,.67-.73,1.13-1.23,1.4-1.5,0,.13,.13,.3,.4,.5,.27,.2,.4,.37,.4,.5s.13,.54,.4,1.2c.27,.67,.46,1,.6,1,0,.13,.07,.2,.2,.2h.4c.27,0,.47-.03,.6-.1,.13-.07,.27-.1,.4-.1s.37-.1,.7-.3c.33-.2,.63-.3,.9-.3l1.6-1.6c.13,0,.3,.1,.5,.3,.2,.2,.37,.37,.5,.5,.13,.13,.27,.2,.4,.2h1.2c.13,0,.33-.07,.6-.2,.13,0,.6-.13,1.4-.4l1.2-.4h1.6c.13,0,.57,.23,1.3,.7,.73,.47,1.17,.77,1.3,.9h2.4l.8-.8c.13-.13,.67-.13,1.6,0,.93,.13,1.53,.13,1.8,0,.27-.27,.5-.57,.7-.9,.2-.33,.23-.63,.1-.9h9c.13,0,.3-.2,.5-.6s.3-.73,.3-1l-.4-.4-.4-.4c0-.13-.1-.5-.3-1.1-.2-.6-.37-1.03-.5-1.3,0-.27-.13-.83-.4-1.7-.27-.87-.4-1.43-.4-1.7,0-.13-.1-.43-.3-.9-.2-.47-.4-.97-.6-1.5-.2-.53-.37-1.07-.5-1.6-.13-.53-.2-.87-.2-1s-.03-.33-.1-.6c-.07-.27-.1-.53-.1-.8v-1c0-.27,.07-.53,.2-.8,0-.27,.07-.7,.2-1.3,.13-.6,.27-1.03,.4-1.3,.4,0,.73-.07,1-.2l.8-.4c.13-.27,.1-.7-.1-1.3-.2-.6-.3-1.03-.3-1.3h-.4l-.8,.4-.8,.4v-7.4c0-.27-.17-.97-.5-2.1-.33-1.13-.5-1.83-.5-2.1v-4c0-.13-.13-.53-.4-1.2-.27-.67-.4-1.07-.4-1.2,.13-.27,.43-.73,.9-1.4,.47-.67,.77-1.07,.9-1.2v-2.4l-1.8,1.6-.4-.4c-.13-.13-.2-.27-.2-.4-.13-.13-.17-.53-.1-1.2,.07-.67,.1-1.13,.1-1.4-.13-.27-.3-1.23-.5-2.9-.2-1.67-.3-2.63-.3-2.9v-.6c0-.13,.13-.47,.4-1,.13-.27,.27-.47,.4-.6,0-.27-.03-.87-.1-1.8-.07-.93-.03-1.47,.1-1.6,0-.13,.17-.7,.5-1.7,.33-1,.63-1.83,.9-2.5,0-.13,.17-.4,.5-.8,.33-.4,.5-.67,.5-.8-.13-.13-.4-.4-.8-.8-.4-.4-.73-.67-1-.8v-8.2c.27,0,.67,.1,1.2,.3,.53,.2,.93,.3,1.2,.3h1l4-4v-.8l-.4-.4-.4-.4c-.13-.27-.13-.83,0-1.7,.13-.87,.13-1.43,0-1.7l-.8-.8-.4-.2-.4,.2c-.27,.13-.57,.4-.9,.8-.33,.4-.57,.67-.7,.8,0,.27-.1,.7-.3,1.3-.2,.6-.43,1.03-.7,1.3,0-.27-.1-.57-.3-.9-.2-.33-.3-.57-.3-.7-.13-.13-.3-.27-.5-.4-.2-.13-.37-.33-.5-.6l-.8-.4c-.27-.13-.47-.27-.6-.4h-.8c-.13,0-.5,.03-1.1,.1-.6,.07-1.23,.17-1.9,.3-.67,.13-1.3,.23-1.9,.3-.6,.07-.97,.1-1.1,.1s-.63,.07-1.5,.2c-.87,.13-1.5,.2-1.9,.2-.27,0-.7-.07-1.3-.2-.6-.13-.97-.2-1.1-.2l-.8-1.6-1.6,.8v-3.2c-.13,.27-.53,.5-1.2,.7-.67,.2-1.13,.23-1.4,.1,0-.27-.07-.53-.2-.8l-.6-1c-.4,0-.73-.07-1-.2-.4-.13-.87-.33-1.4-.6h-1c0,.13-.2,.3-.6,.5-.4,.2-.67,.3-.8,.3,0-.13-.1-.4-.3-.8-.2-.4-.37-.6-.5-.6-.13-.13-.43-.3-.9-.5-.47-.2-.7-.37-.7-.5-.13,0-.33-.1-.6-.3-.27-.2-.4-.37-.4-.5s-.13-.37-.4-.7c-.27-.33-.4-.63-.4-.9-.27-.27-.67-.7-1.2-1.3-.53-.6-.93-.97-1.2-1.1,0-.27,.23-.57,.7-.9,.47-.33,.77-.63,.9-.9h.8c.27,.27,.63,.57,1.1,.9,.47,.33,.7,.63,.7,.9v1.4c.27,.27,.8,.63,1.6,1.1,.8,.47,1.33,.7,1.6,.7,.4,0,.6-.27,.6-.8v-1c0-.27-.33-.93-1-2-.67-1.07-1.07-1.73-1.2-2v-.8c0-.27,.1-.7,.3-1.3,.2-.6,.37-.97,.5-1.1,0-.27,.27-.53,.8-.8,.13-.13,.67-.33,1.6-.6,.93-.27,1.53-.4,1.8-.4,.13-.27,.33-.53,.6-.8l.8-.8c.13,0,.43,.17,.9,.5,.46,.33,.77,.43,.9,.3l1.6-1.6c.27-.27,.7-.47,1.3-.6,.6-.13,.97-.2,1.1-.2,.27,.13,.6,.43,1,.9,.4,.47,.67,.7,.8,.7h2.4c.13,0,.53-.2,1.2-.6,.67-.4,1.13-.73,1.4-1l.4-.4,.4-.4h.8c.13,.13,.37,.43,.7,.9,.33,.47,.57,.7,.7,.7,.27,0,.87-.27,1.8-.8,.93-.53,1.46-.8,1.6-.8h1.6c.27,0,.73,.23,1.4,.7,.67,.47,1.07,.77,1.2,.9l.4,.2c.13,0,.27-.07,.4-.2,.13-.13,.57-.4,1.3-.8,.73-.4,1.17-.67,1.3-.8h.8c.27,.13,.7,.3,1.3,.5,.6,.2,.97,.3,1.1,.3,.13,.13,.57,.53,1.3,1.2,.73,.67,1.17,1.07,1.3,1.2l.4,.2,.4-.2,.8-.4c.27-.13,.47-.27,.6-.4,.13,0,.23,.03,.3,.1,.07,.07,.17,.1,.3,.1,0-.13,.07-.43,.2-.9,.13-.47,.2-.77,.2-.9l-.4-.4c-.13,0-.2-.03-.2-.1s-.07-.1-.2-.1-.2-.07-.2-.2l-.8-1.6c0-.67,.27-1,.8-1,.27,.27,.73,.7,1.4,1.3,.67,.6,1.07,1.03,1.2,1.3,.27,.27,.47,.67,.6,1.2,.13,.53,.2,.93,.2,1.2,.27-.13,.57-.4,.9-.8,.33-.4,.57-.67,.7-.8,.13-.13,.3-.4,.5-.8,.2-.4,.3-.73,.3-1h6c.27,0,.67,.13,1.2,.4,.53,.27,.93,.47,1.2,.6,.27,.27,.73,.57,1.4,.9,.67,.33,1.07,.57,1.2,.7v.8c-.13,.4-.33,1.03-.6,1.9-.27,.87-.4,1.37-.4,1.5-.13,.13-.43,.37-.9,.7-.47,.33-.7,.63-.7,.9v1.6c.27-.13,.7-.3,1.3-.5,.6-.2,1.03-.3,1.3-.3,.13-.13,.4-.27,.8-.4,.4-.13,.6-.27,.6-.4l.8,1.6c.13-.13,.3-.3,.5-.5,.2-.2,.37-.3,.5-.3v-1.6c-.13,0-.33-.23-.6-.7-.27-.47-.4-.77-.4-.9v-3.4c.13-.13,.4-.37,.8-.7,.4-.33,.8-.63,1.2-.9h.6c.27,0,.6-.1,1-.3,.4-.2,.67-.43,.8-.7,0-.13,.1-.4,.3-.8,.2-.4,.3-.67,.3-.8,.53,0,.8-.27,.8-.8l.8,.8c.27,.27,.6,.83,1,1.7,.4,.87,.67,1.43,.8,1.7,.13,.13,.27,.3,.4,.5,.13,.2,.27,.3,.4,.3,.13,.27,.3,.67,.5,1.2,.2,.53,.3,.93,.3,1.2v3.4c0,.13-.33,.37-1,.7-.67,.33-1.13,.63-1.4,.9h-1c-.13,.27-.4,.6-.8,1-.4,.4-.67,.67-.8,.8v1.6c.13,.13,.3,.77,.5,1.9,.2,1.13,.3,1.83,.3,2.1v3.4c0,.53-.27,.8-.8,.8l-.6,.2h-.6c-.13,0-.27-.07-.4-.2l-.8-.8c-.13-.13-.53-.33-1.2-.6-.67-.27-1.13-.4-1.4-.4h-3.2c-.13,0-.4-.23-.8-.7-.4-.47-.67-.7-.8-.7s-.63,.17-1.5,.5c-.87,.33-1.5,.63-1.9,.9-.13,.27-.4,.57-.8,.9-.4,.33-.67,.63-.8,.9l-1.6-1.8-.8,1h-5.8c-.27,0-.57,.4-.9,1.2-.33,.8-.63,1.47-.9,2v3.4c0,.13,.13,.5,.4,1.1,.27,.6,.4,.97,.4,1.1,.13,.27,.43,.73,.9,1.4,.47,.67,.83,1.13,1.1,1.4l.6,.6c.53,.53,.8,.87,.8,1v1.6c.13,.27,.4,.8,.8,1.6,.4,.8,.67,1.33,.8,1.6v12.6c-.13,.27-.4,.77-.8,1.5-.4,.73-.67,1.23-.8,1.5,0,.27-.1,.83-.3,1.7-.2,.87-.37,1.43-.5,1.7,0,.27-.03,.73-.1,1.4-.07,.67-.13,1.4-.2,2.2-.07,.8-.13,1.57-.2,2.3-.07,.73-.1,1.3-.1,1.7-.13,0-.33,.1-.6,.3-.27,.2-.4,.37-.4,.5l-.2,.4,.2,.4c0-.13,.23-.3,.7-.5,.47-.2,.77-.3,.9-.3,.53,0,.8,.27,.8,.8v.6c0,.27-.13,1-.4,2.2-.27,1.2-.4,1.93-.4,2.2v4.8c.13,.27,.47,.7,1,1.3,.53,.6,.8,.97,.8,1.1,0,.27-.23,.63-.7,1.1s-.83,.7-1.1,.7v.8c.27,.13,.7,.4,1.3,.8,.6,.4,.97,.67,1.1,.8,.13,.13,.3,.83,.5,2.1,.2,1.27,.3,2.23,.3,2.9v2.6c0,.27-.1,.93-.3,2-.2,1.07-.37,1.73-.5,2l-.6,.2h-.6c-.13,0-.27-.07-.4-.2l-1.4-.6-.2-.2c-.13,0-.27-.07-.4-.2l-.4,.4c-.27,.27-.5,.67-.7,1.2-.2,.54-.3,.87-.3,1,.13,.13,.47,.27,1,.4,.53,.13,.87,.27,1,.4,.13,.27,.4,.7,.8,1.3,.4,.6,.6,1.03,.6,1.3v1.6l5,5c.13,0,.4-.33,.8-1,.13,0,.3-.37,.5-1.1,.2-.73,.3-1.17,.3-1.3l.4-.2c.13,0,.27,.07,.4,.2,.27,0,.6,.1,1,.3,.4,.2,.67,.37,.8,.5h.8l2.4,3.4c0,.13,.07,.2,.2,.2h.4l.4-.2c0-.13,.07-.2,.2-.2l.4-.2,.8-.4h1.8c.13,0,.53-.13,1.2-.4,.67-.27,1.07-.47,1.2-.6h1c0,.27,.07,.47,.2,.6l.4,.4h1.6c.27,0,.6-.13,1-.4,.4-.27,.67-.47,.8-.6h.8c.13,.27,.3,.57,.5,.9,.2,.33,.3,.63,.3,.9,0,.53,.27,.8,.8,.8h2.6c.13-.13,.3-.27,.5-.4,.2-.13,.3-.27,.3-.4,0-.27,.07-.83,.2-1.7,.13-.87,.2-1.43,.2-1.7,.27,.13,.47,.27,.6,.4l.6,.6c.13,.27,.27,.6,.4,1,.13,.27,.2,.53,.2,.8s.07,.47,.2,.6c.27,.27,.6,.73,1,1.4,.4,.67,.6,1.07,.6,1.2,.27,.13,.87,.27,1.8,.4,.93,.13,1.6,.2,2,.2,0,.67-.2,1.2-.6,1.6,0,.13-.13,.33-.4,.6-.13,.13-.2,.27-.2,.4-.13,0-.43-.17-.9-.5-.47-.33-.77-.5-.9-.5-.27,.13-.73,.4-1.4,.8-.67,.4-1,.67-1,.8-.13,.27-.03,.6,.3,1,.33,.4,.57,.67,.7,.8l.2,.4c0,.13-.07,.27-.2,.4-.13,.13-.47,.4-1,.8-.53,.4-.8,.67-.8,.8-.13,.13-.27,.43-.4,.9-.13,.47-.27,.77-.4,.9-.13,.13-.23,.4-.3,.8-.07,.4-.1,.67-.1,.8h-4v-.4c0-.13,.07-.27,.2-.4l.8-.8v-1c-.13,0-.27-.1-.4-.3-.13-.2-.27-.37-.4-.5v-6.6l-.8,.8c0,.27-.23,1.1-.7,2.5-.47,1.4-.77,2.23-.9,2.5-.13,.13-.53,.43-1.2,.9-.67,.47-1.13,.7-1.4,.7l-.4,.4c-.13,.13-.2,.27-.2,.4s-.07,.2-.2,.2c-.13,.13-.27,.4-.4,.8-.13,.4-.2,.67-.2,.8l-5.2-2.6c0,.27-.07,.6-.2,1-.13,.4-.27,.67-.4,.8s-.27,.2-.4,.2-.33,.07-.6,.2l-.8,.4-.2,.4,.2,.4c.27,.27,.7,.57,1.3,.9,.6,.33,.97,.57,1.1,.7,.27,0,.87-.03,1.8-.1,.93-.07,1.47-.03,1.6,.1,.27,0,.47,.37,.6,1.1,.13,.73,.2,1.23,.2,1.5,.13,.13,.57,.27,1.3,.4,.73,.13,1.1,.27,1.1,.4l.4,.4c.13,.13,.27,.2,.4,.2,0,.4-.27,.73-.8,1h-3.2c-.13-.27-.27-.7-.4-1.3-.13-.6-.2-.97-.2-1.1-.27-.27-.6-.47-1-.6-.4-.13-.73-.2-1-.2h-1c-.27,0-.53,.07-.8,.2v3.4h-2.2c-1.07,0-2.13-.13-3.2-.4-.13,0-.54-.13-1.2-.4-.67-.27-1.13-.47-1.4-.6h-1.6c-.13,.13-.4,.27-.8,.4-.4,.13-.73,.33-1,.6v-2.2c-.13,0-.27-.07-.4-.2h-.4c-.13,.13-.27,.5-.4,1.1-.13,.6-.2,1.03-.2,1.3-.13,.13-.27,.2-.4,.2-.13,.13-.33,.2-.6,.2-.13,0-.27-.07-.4-.2-.13,0-.27-.07-.4-.2l-.4-.8c-.13-.27-.2-.53-.2-.8h-.2c-.13,0-.27-.07-.4-.2l-.4,.2c-.13,0-.3,.1-.5,.3-.2,.2-.37,.3-.5,.3l-.2,.2h-.4c-.13,0-.2-.07-.2-.2-.27,0-.93-.33-2-1-1.07-.67-1.73-1.07-2-1.2h-.8l-.4,1.2c-.13,.4-.27,.73-.4,1-.13,.13-.27,.3-.4,.5-.13,.2-.27,.37-.4,.5-.13-.4-.27-1.23-.4-2.5-.13-1.27-.27-2.1-.4-2.5-.27-.53-.47-1-.6-1.4-.13-.27-.27-.6-.4-1h-1.6c-.13,0-.5-.13-1.1-.4-.6-.27-1.04-.4-1.3-.4-.27,.13-.47,.27-.6,.4l-.4,.4c.67,0,1,.27,1,.8,.13,0,.43,.1,.9,.3,.47,.2,.7,.37,.7,.5l.4,.8,.4,.8c.13,.13,.2,.27,.2,.4-.27,0-.6,.07-1,.2-.4,.13-.67,.27-.8,.4-.13,0-.4,.2-.8,.6l-1,1c-.4,.4-.6,.93-.6,1.6h-7.4c-.53-.13-1.53-.37-3-.7-1.47-.33-2.4-.63-2.8-.9l-.4,.4c-.13,.13-.33,.2-.6,.2-.13,.13-.27,.47-.4,1-.13,.53-.27,.8-.4,.8l-.8,.8h-5.6c-.13-.13-.3-.54-.5-1.2-.2-.67-.3-1.13-.3-1.4-.13,0-.3-.1-.5-.3s-.37-.3-.5-.3l-1,.6c0,.27-.07,.73-.2,1.4-.13,.67-.27,1.07-.4,1.2l-1.6-1.6c-.13,.27-.4,.57-.8,.9-.4,.33-.67,.57-.8,.7-.13,.27-.43,.46-.9,.6-.47,.13-.77,.2-.9,.2s-.33,.03-.6,.1c-.27,.07-.53,.1-.8,.1s-.6-.04-1-.1c-.4-.07-.67-.1-.8-.1-.27,0-.83-.1-1.7-.3-.87-.2-1.43-.37-1.7-.5,0-.13-.33-.37-1-.7-.67-.33-1.2-.63-1.6-.9,0-.27-.1-.47-.3-.6-.2-.13-.37-.27-.5-.4-.13-.27-.37-.9-.7-1.9-.33-1-.57-1.7-.7-2.1v-.8Zm4.8-3.2c-.4,0-.6,.27-.6,.8s.2,.8,.6,.8,.6-.27,.6-.8-.2-.8-.6-.8Zm11.6-4.2c-.27-.13-.4,0-.4,.4s.13,.53,.4,.4c.53-.27,.53-.53,0-.8Zm4.8-107.2h1.2v-.8l-1.2,.8Zm1.2,120.4c-.67,0-1,.27-1,.8s.33,.8,1,.8c.27,0,.4-.27,.4-.8s-.13-.8-.4-.8Zm3.8-18.8c-.27-.27-.4-.23-.4,.1s.13,.5,.4,.5,.4-.1,.4-.3-.13-.3-.4-.3Zm2.6,11.4c.13-.13,.07-.23-.2-.3-.27-.07-.6-.1-1-.1s-.73,.03-1,.1c-.27,.07-.4,.17-.4,.3,.27,.27,.73,.4,1.4,.4s1.07-.13,1.2-.4Zm2.4,.8h1.8l-1-.8-.8,.8Zm3.4-12.2c-.4,0-.6,.23-.6,.7s.2,.7,.6,.7,.6-.23,.6-.7-.2-.7-.6-.7Zm1.4-106.6c-.27,0-.4,.27-.4,.8s.13,.8,.4,.8c.4,0,.6-.27,.6-.8s-.2-.8-.6-.8Zm.8,105.4h1.2v-.6h-1.2v.6Zm6-1.4c-.27,.13-.7,.37-1.3,.7-.6,.33-1.03,.57-1.3,.7,0,.13-.07,.4-.2,.8-.13,.4-.33,.73-.6,1v.8l3.4-4Zm0,4h.8l-.8-.8v.8Zm.8-59.4c-.4,0-.6,.27-.6,.8s.2,.8,.6,.8,.6-.27,.6-.8-.2-.8-.6-.8Zm.8,64.4c0-.27-.13-.4-.4-.4s-.4,.13-.4,.4c.13,.27,.3,.4,.5,.4s.3-.13,.3-.4Zm5.8-113c.13-.27-.13-.4-.8-.4s-.93,.13-.8,.4c.13,.27,.4,.4,.8,.4s.67-.13,.8-.4Zm0,118.8c.27,.13,.83,.37,1.7,.7,.87,.33,1.43,.63,1.7,.9,.27,.27,.57,.7,.9,1.3,.33,.6,.5,1.04,.5,1.3l.8-.8v-.2c0-.13,.03-.2,.1-.2,.07,0,.1-.07,.1-.2l-.2-.4c-.13-.4-.37-.9-.7-1.5-.33-.6-.57-.9-.7-.9-.13-.13-.47-.2-1-.2h-2.2c-.13,0-.23,.03-.3,.1-.07,.07-.17,.1-.3,.1h-.4Zm1.6-100.6c-.27,.27-.4,.6-.4,1h.6c.27,0,.43-.03,.5-.1s.17-.1,.3-.1l.8-.8v-1.8l-1.8,1.8Zm1,69.4c-.27-.27-.4-.23-.4,.1s.13,.5,.4,.5,.4-.1,.4-.3-.13-.3-.4-.3Zm2.2-82.6c-.27,0-.4,.27-.4,.8s.13,.8,.4,.8c.4,0,.6-.27,.6-.8s-.2-.8-.6-.8Zm3,104.6c-.13,0-.2,.07-.2,.2-.13,0-.33,.07-.6,.2-.27,.13-.4,.27-.4,.4h1.6v-.8h-.4Zm-.2-95.6c-.27,0-.4,.17-.4,.5s.13,.5,.4,.5c.67-.27,.67-.6,0-1Zm-.2,72.4c0,.13,.07,.2,.2,.2,0,.27,.2,.6,.6,1h.8l1-1v-1.6c-.53-.53-1.13-.8-1.8-.8-.4,0-.6,.27-.6,.8-.13,.13-.2,.27-.2,.4v1Zm.6-51.8c0,.27,.03,.57,.1,.9,.07,.33,.1,.57,.1,.7s.13,.33,.4,.6l.4,.4v-2.6h-1Zm.2,85l1.8-.8-1-.8-.8,1.6Zm3.2-115.4l-.8,.8c0,.13-.03,.43-.1,.9-.07,.47-.1,.83-.1,1.1l1-.4c.27-.13,.5-.4,.7-.8,.2-.4,.3-.67,.3-.8l.2-.4v-.4h-1.2Zm-1,104.6c0,.13,.03,.3,.1,.5,.07,.2,.1,.37,.1,.5l.4,.4c.13,.13,.27,.2,.4,.2,.27,0,.46-.07,.6-.2l.4-.4c.13-.13,.2-.47,.2-1h-2.2Zm7-104.6c.13-.27-.04-.4-.5-.4s-.63,.13-.5,.4c.4,.4,.73,.4,1,0Zm-1,118.8h1v-.8h-1v.8Zm1-123c-.54,0-.8,.27-.8,.8s.27,.8,.8,.8c.4,0,.6-.27,.6-.8s-.2-.8-.6-.8Zm0,10.6l.8-.6-.8-.8v1.4Zm0,108.2h1.6l.8-.8-1.6-1.6-.8,2.4Zm1.6-115.4c-.4,0-.6,.27-.6,.8s.2,.8,.6,.8,.6-.27,.6-.8-.2-.8-.6-.8Zm.8-2.6c-.4,0-.6,.3-.6,.9s.2,.9,.6,.9,.6-.3,.6-.9-.2-.9-.6-.9Zm4.8,7.6c-.4,0-.6,.27-.6,.8s.2,.8,.6,.8c.53,0,.8-.27,.8-.8s-.27-.8-.8-.8Zm2,7.2v-3.2c0-.13-.13-.3-.4-.5-.27-.2-.47-.3-.6-.3l-1,.8,2,3.2Zm3.2,93.8c-.53,0-.8,.13-.8,.4-.27,.13-.6,.43-1,.9-.4,.47-.67,.7-.8,.7-.13,.27-.27,.93-.4,2-.13,1.07-.2,1.73-.2,2h1.4c.13-.67,.33-1.27,.6-1.8,.27-.53,.47-1.1,.6-1.7,.13-.6,.27-1.1,.4-1.5,0-.13,.03-.3,.1-.5,.07-.2,.1-.37,.1-.5Zm-1.8-107.8c.27,.67,.6,1,1,1,.13-.13,.33-.27,.6-.4,.53-.27,.8-.47,.8-.6v-.8c0-.53-.27-.8-.8-.8h-.6c-.67,0-1,.27-1,.8v.8Zm3.2,106.4c-.27-.13-.4,0-.4,.4s.13,.53,.4,.4c.27,0,.4-.1,.4-.3s-.13-.37-.4-.5Zm1-104.4h.4c.13,0,.27-.07,.4-.2l.8-.8h-1.6v1Zm89,126.4c0-.4-.17-1.1-.5-2.1-.33-1-.57-1.7-.7-2.1-.13-.27-.43-.77-.9-1.5-.47-.73-.83-1.23-1.1-1.5,0,.13-.13,.33-.4,.6-.27,.27-.47,.4-.6,.4-.13,.13-.47,.37-1,.7-.53,.33-.87,.5-1,.5-.27,0-.63,.27-1.1,.8-.47,.53-.83,.87-1.1,1l-2-1.8c-.13,.13-.43,.46-.9,1-.47,.53-.83,.8-1.1,.8l-.4,.2-.6-.2c-.4-.13-1.1-.47-2.1-1-1-.53-1.63-.8-1.9-.8-.13,0-.3-.33-.5-1-.2-.67-.37-1.07-.5-1.2-.4-.67-.8-1-1.2-1-.27,.27-.53,.47-.8,.6-.13,.13-.33,.2-.6,.2-.13,0-.27,.07-.4,.2,0,.13-.07,.2-.2,.2h-.8c-.13,0-.2-.07-.2-.2-.13-.27-.57-.83-1.3-1.7-.73-.87-1.23-1.37-1.5-1.5-.13,0-.47,.2-1,.6-.53,.4-.87,.6-1,.6h-2c-.4,0-1.13-.17-2.2-.5-1.07-.33-1.73-.57-2-.7-.27-.13-.8-.43-1.6-.9-.8-.46-1.27-.77-1.4-.9-.13-.13-.23-.43-.3-.9-.07-.47-.13-1-.2-1.6-.07-.6-.13-1.17-.2-1.7-.07-.53-.1-.87-.1-1-.27-.4-.93-1.27-2-2.6-1.07-1.33-1.8-2.13-2.2-2.4-.13,.13-.37,.3-.7,.5-.33,.2-.5,.37-.5,.5s-.27,.6-.8,1.4c-.53,.8-.87,1.33-1,1.6,0,.13-.07,.2-.2,.2h-.8c-.13,0-.2-.07-.2-.2-.13-.13-.6-.47-1.4-1-.8-.53-1.27-.87-1.4-1-.27,0-.8-.13-1.6-.4-.8-.27-1.27-.46-1.4-.6-.13-.13-.37-.83-.7-2.1-.33-1.27-.5-2.23-.5-2.9-.13-.27-.2-.53-.2-.8v-1.2c0-.27,.03-.67,.1-1.2,.07-.53,.1-.87,.1-1s.17-.33,.5-.6c.33-.27,.57-.4,.7-.4h-2.2l-2-7h-1.2c.13,.4,.1,1.1-.1,2.1s-.43,1.63-.7,1.9c-.13,.13-.37,.23-.7,.3-.33,.07-.63,.1-.9,.1-.13,0-.37-.03-.7-.1-.33-.07-.57-.17-.7-.3-.13-.53-.33-1.7-.6-3.5-.27-1.8-.47-2.97-.6-3.5-.13-.4-.3-1.13-.5-2.2-.2-1.07-.37-1.67-.5-1.8,0-.27-.27-.5-.8-.7-.53-.2-.93-.3-1.2-.3v-13.2c-.27-.13-.63-.47-1.1-1-.47-.53-.77-.93-.9-1.2,0-.13-.04-.46-.1-1-.07-.53-.1-.93-.1-1.2,0-.4,.03-.93,.1-1.6,.07-.67,.1-1.07,.1-1.2,0-.27,.17-.96,.5-2.1,.33-1.13,.57-1.7,.7-1.7,0-.27,.1-1.17,.3-2.7,.2-1.53,.37-2.43,.5-2.7,0-.13,.07-.27,.2-.4,.13-.13,.2-.23,.2-.3s.07-.17,.2-.3l.4-.8c.13-.27,.33-.96,.6-2.1,.27-1.13,.4-1.83,.4-2.1,0-.13,.07-.5,.2-1.1,.13-.6,.23-1.23,.3-1.9,.07-.67,.17-1.3,.3-1.9,.13-.6,.2-.97,.2-1.1,.13-.4,.33-1.13,.6-2.2,.27-1.07,.47-1.73,.6-2,.13,0,.3-.23,.5-.7,.2-.47,.3-.83,.3-1.1,.13-.27,.5-.8,1.1-1.6s.97-1.33,1.1-1.6c0-.13,.13-.6,.4-1.4,.27-.8,.4-1.33,.4-1.6,.27-.13,.46-.27,.6-.4l.6-.6c0-.13,.13-.47,.4-1,.27-.53,.47-.87,.6-1,.13-.53,.77-1.43,1.9-2.7,1.13-1.27,1.83-2.03,2.1-2.3l.4,.4c.13,.13,.33,.27,.6,.4,.27,.13,.47,.2,.6,.2h1c.13,0,.27-.07,.4-.2,.27-.13,.63-.6,1.1-1.4,.47-.8,.77-1.33,.9-1.6,.13-.13,.5-.3,1.1-.5,.6-.2,.97-.37,1.1-.5,.13-.13,.43-.5,.9-1.1,.47-.6,.83-.97,1.1-1.1,.13,0,.47,.03,1,.1,.53,.07,.87,.03,1-.1,.27,0,.5-.43,.7-1.3,.2-.87,.3-1.43,.3-1.7,.67,.13,1.73-.03,3.2-.5,1.47-.47,2.47-.97,3-1.5,.27-.27,.53-1.03,.8-2.3,.27-1.27,.33-2.1,.2-2.5l.4-.2,.6,.2c.27,.13,.63,.43,1.1,.9,.47,.47,.7,.77,.7,.9v2.2l1.2,.8v2c-.13,.27-.33,.53-.6,.8-.27,.27-.47,.4-.6,.4-.13,.13-.53,.1-1.2-.1-.67-.2-1.13-.3-1.4-.3,0,.4-.07,1.33-.2,2.8-.13,1.47-.13,2.33,0,2.6,0,.27,.1,.67,.3,1.2,.2,.53,.43,.87,.7,1,.13,0,.3-.13,.5-.4,.2-.27,.37-.53,.5-.8,.13-.27,.43-.77,.9-1.5,.46-.73,.83-1.23,1.1-1.5-.27,.4-.23,1.13,.1,2.2,.33,1.07,.63,1.73,.9,2,.27,.13,.77,.37,1.5,.7,.73,.33,1.23,.5,1.5,.5v5.8l-1.2,1c-.13,0-.3-.13-.5-.4-.2-.27-.3-.47-.3-.6-.13-.27-.33-.8-.6-1.6-.27-.8-.4-1.33-.4-1.6-.13-.13-.3-.27-.5-.4-.2-.13-.37-.27-.5-.4-.13,0-.23,.03-.3,.1-.07,.07-.17,.1-.3,.1h-.4c0,.13-.03,.4-.1,.8-.07,.4-.1,.73-.1,1s.2,.77,.6,1.5c.4,.73,.6,1.23,.6,1.5-.13,.13-.27,.2-.4,.2s-.33,.07-.6,.2c-.27,.13-.6,.27-1,.4-.27,.27-.5,.83-.7,1.7-.2,.87-.3,1.37-.3,1.5-.27,.27-.63,.93-1.1,2-.47,1.07-.77,1.73-.9,2l-1.2,1.2c-.27,.13-.67,.1-1.2-.1-.53-.2-.93-.3-1.2-.3v4.6h-.6c-.53,0-.8-.07-.8-.2-.27-.13-.83-.47-1.7-1-.87-.53-1.37-.87-1.5-1-.13,0-.2,.03-.2,.1s-.07,.1-.2,.1h-.4c0,.13-.07,.27-.2,.4-.13,.13-.13,.27,0,.4,.13,.27,.43,.9,.9,1.9,.47,1,.83,1.7,1.1,2.1,0,.27-.13,.5-.4,.7-.27,.2-.47,.3-.6,.3s-.6-.13-1.4-.4c-.8-.27-1.33-.47-1.6-.6-.13,0-.33,.03-.6,.1-.27,.07-.47,.1-.6,.1,0,.13,.03,.27,.1,.4,.07,.13,.1,.27,.1,.4-.13,.27-.37,.8-.7,1.6-.33,.8-.5,1.33-.5,1.6v.8c0,.13,.2,.33,.6,.6,.4,.27,.6,.47,.6,.6v3c-.13,.27-.37,1.1-.7,2.5-.33,1.4-.5,2.23-.5,2.5v4.2c0,.13-.13,.6-.4,1.4-.27,.8-.4,1.33-.4,1.6-.13,.27-.33,1.3-.6,3.1-.27,1.8-.47,3.1-.6,3.9v1l4.2-1.8,.8,1.8-.8,.4c-.13,.13-.23,.2-.3,.2s-.17,.07-.3,.2-.27,.2-.4,.2-.37,.1-.7,.3c-.33,.2-.5,.43-.5,.7v.4c0,.13,.03,.27,.1,.4,.07,.13,.1,.27,.1,.4h2.2c-.13,.13-.2,.27-.2,.4v.4c-.13,.13-.33,.47-.6,1-.27,.53-.4,.93-.4,1.2-.13,0-.2,.07-.2,.2v.4l.2,.2c.13,.13,.47,.33,1,.6,.53,.27,.8,.47,.8,.6s-.13,.43-.4,.9c-.27,.47-.4,.83-.4,1.1v1c0,.13,.13,.33,.4,.6,.27,.27,.4,.47,.4,.6,0-.27,.17-.53,.5-.8,.33-.27,.57-.4,.7-.4h.2c.13,0,.2-.03,.2-.1s.07-.1,.2-.1,.27,.07,.4,.2c.13,.13,.3,.43,.5,.9,.2,.47,.37,.83,.5,1.1,0,.13,.1,.33,.3,.6,.2,.27,.43,.4,.7,.4,.13,0,.43,.13,.9,.4,.47,.27,.83,.53,1.1,.8,.13,0,.47,.4,1,1.2,.53,.8,.93,1.33,1.2,1.6,0,.13,.1,.47,.3,1,.2,.53,.37,.87,.5,1,0,.27,.13,.5,.4,.7,.27,.2,.53,.3,.8,.3,0-.13,.1-.47,.3-1,.2-.53,.43-.87,.7-1h1l1,1c.27,.27,.53,.6,.8,1v3c0,.27,.13,.5,.4,.7,.27,.2,.53,.3,.8,.3,0-.27,.13-.6,.4-1,.27-.4,.46-.73,.6-1h1c.27,.27,1.23,.83,2.9,1.7,1.67,.87,2.63,1.37,2.9,1.5,.27,.13,.8,.3,1.6,.5,.8,.2,1.33,.3,1.6,.3,.13,0,.37,.03,.7,.1,.33,.07,.63,.1,.9,.1h1c.13,0,.27-.07,.4-.2,.27,0,.8-.1,1.6-.3,.8-.2,1.27-.37,1.4-.5h3.2c.27,.13,.77,.63,1.5,1.5,.73,.87,1.23,1.37,1.5,1.5l.6,.2c.13,0,.27-.07,.4-.2,.27-.13,.8-.47,1.6-1,.8-.53,1.33-.93,1.6-1.2,.27-.13,.77-.3,1.5-.5,.73-.2,1.23-.3,1.5-.3,.13,0,.6,.13,1.4,.4,.8,.27,1.27,.4,1.4,.4,.27,.13,.97,.17,2.1,.1,1.13-.07,1.83-.1,2.1-.1,.27,.13,.63,.53,1.1,1.2,.47,.67,.77,1,.9,1,.27,.27,.77,.47,1.5,.6,.73,.13,1.23,.2,1.5,.2h2.2c.4-.13,.73-.27,1-.4,.53-.27,.87-.4,1-.4h3c.27,.13,.6,.5,1,1.1,.4,.6,.73,.9,1,.9,.4,.27,1.17,.23,2.3-.1,1.13-.33,1.83-.5,2.1-.5,0-.4-.07-1-.2-1.8-.13-.8-.13-1.4,0-1.8,0-.13,.07-.27,.2-.4,.13-.13,.23-.2,.3-.2s.17-.07,.3-.2c.27-.13,.67-.37,1.2-.7,.53-.33,.87-.5,1-.5h7c.13,0,.57-.1,1.3-.3,.73-.2,1.5-.4,2.3-.6,.8-.2,1.53-.43,2.2-.7,.67-.27,1.13-.4,1.4-.4h6c.4-.13,.73-.27,1-.4,.27-.13,.47-.27,.6-.4,.13-.13,.27-.2,.4-.2,.27,0,.93,.03,2,.1,1.07,.07,1.73,.03,2-.1,.13,0,.47-.3,1-.9,.53-.6,.93-.97,1.2-1.1,.27-.13,1.27-.43,3-.9,1.73-.47,3-.83,3.8-1.1h1.2c.13,0,.33,.13,.6,.4,.27,.27,.4,.47,.4,.6,0,.27,.1,1.17,.3,2.7,.2,1.53,.37,2.63,.5,3.3,0,.27,.03,.63,.1,1.1,.07,.47,.1,.77,.1,.9h-3.2c0,.53-.1,1.4-.3,2.6-.2,1.2-.47,2.43-.8,3.7-.33,1.27-.67,2.47-1,3.6-.33,1.13-.63,1.9-.9,2.3-.27,.4-.73,1-1.4,1.8-.67,.8-1.43,1.67-2.3,2.6-.87,.93-1.7,1.77-2.5,2.5-.8,.73-1.4,1.17-1.8,1.3-.27-.13-.93-.3-2-.5-1.07-.2-1.73-.37-2-.5h-4c-.4,.13-1.1,.43-2.1,.9-1,.47-2.04,.97-3.1,1.5-1.07,.53-2.07,1.07-3,1.6-.93,.53-1.6,.87-2,1,0-.4-.1-1.27-.3-2.6-.2-1.33-.43-2.13-.7-2.4-.13-.27-.6-.47-1.4-.6-.8-.13-1.33-.27-1.6-.4-.13,0-.37-.17-.7-.5-.33-.33-.5-.57-.5-.7-.13,0-.43-.1-.9-.3-.47-.2-.77-.37-.9-.5h-1.2c-.13,.13-.23,.2-.3,.2s-.17,.07-.3,.2-.2,.27-.2,.4c-.13,.27-.2,.8-.2,1.6s.07,1.33,.2,1.6c-.13,0-.37-.13-.7-.4-.33-.27-.5-.47-.5-.6-.13-.27-.33-.77-.6-1.5-.27-.73-.4-1.23-.4-1.5-.4-.67-.73-1-1-1l-4,1.8v6.8c-.27,0-.6,.07-1,.2-.4,.13-.73,.2-1,.2-.13,.13-.33,.47-.6,1-.27,.53-.47,.87-.6,1-.27,.4-.77,1-1.5,1.8-.73,.8-1.23,1.27-1.5,1.4-.27,.13-1.1,.46-2.5,1-1.4,.53-2.23,.8-2.5,.8l-1.2,1.2h-.8c-.4-.13-.97-.33-1.7-.6-.73-.27-1.17-.47-1.3-.6-.27,0-.67-.27-1.2-.8-.53-.54-.8-.87-.8-1-.13-.27-.33-.8-.6-1.6-.27-.8-.47-1.33-.6-1.6l-1.8,1.2Zm-52.8-67c0,.13,.17,.33,.5,.6,.33,.27,.57,.47,.7,.6h.8l.6-.6c.13-.13,.27-.33,.4-.6l-1.8-3.8c-.13,0-.37,.4-.7,1.2-.33,.8-.5,1.33-.5,1.6v1Zm32.4-41.4c.13-.13,.3-.63,.5-1.5,.2-.87,.3-1.43,.3-1.7v-1c0-.4-.1-.97-.3-1.7-.2-.73-.37-1.17-.5-1.3-.13-.13-.6-.63-1.4-1.5-.8-.87-1.33-1.43-1.6-1.7-.13-.27-.37-.6-.7-1-.33-.4-.5-.73-.5-1,.27-.13,.47-.27,.6-.4l.6-.6h.8c.13,.13,.27,.23,.4,.3,.13,.07,.27,.17,.4,.3l.4,.4c0,.27,.13,.67,.4,1.2,.27,.53,.46,.8,.6,.8,.27,.27,.63,.27,1.1,0,.47-.27,.77-.4,.9-.4v-5.4c.27,.13,.6,.47,1,1,.4,.53,.73,.87,1,1h3c.27,0,.5-.13,.7-.4,.2-.27,.3-.47,.3-.6,.27-.4,.5-1.27,.7-2.6,.2-1.33,.3-2.13,.3-2.4,.27,.27,.77,.6,1.5,1,.73,.4,1.23,.73,1.5,1h1.2c.13-.27,.73-.77,1.8-1.5,1.07-.73,1.8-1.3,2.2-1.7l1-1c.13-.13,.33-.47,.6-1,.27-.53,.4-.87,.4-1l2.6,3v-6.6c.93,.13,1.8,.2,2.6,.2,.67,.13,1.37,.2,2.1,.2s1.37,.07,1.9,.2c.13,0,.2,.07,.2,.2,0,.27,.07,.4,.2,.4l.4,.4c.13,0,.5-.03,1.1-.1,.6-.07,.97-.03,1.1,.1,.13,.13,.3,.63,.5,1.5,.2,.87,.37,1.43,.5,1.7,.13,.13,.3,.43,.5,.9,.2,.47,.37,.77,.5,.9l1.2,1.2h.8c.4-.27,.87-.93,1.4-2,.53-1.07,.8-1.8,.8-2.2,0-.27-.33-.63-1-1.1-.67-.47-1.07-.77-1.2-.9l-.4-1c-.13-.27-.2-.6-.2-1h10.8c.13,.27,.3,.77,.5,1.5,.2,.73,.37,1.23,.5,1.5,.27,.27,.63,.8,1.1,1.6,.47,.8,.83,1.27,1.1,1.4h.8c-.13-.27-.03-.93,.3-2,.33-1.07,.63-1.73,.9-2,.13-.13,.77-.3,1.9-.5,1.13-.2,1.83-.37,2.1-.5,0-.13,.13-.47,.4-1,.27-.53,.47-.87,.6-1l.4-.2,.6,.2c.13,.13,.47,.43,1,.9,.53,.47,.87,.83,1,1.1h1c.13-.13,.47-.33,1-.6,.53-.27,.87-.4,1-.4s.33-.03,.6-.1c.27-.07,.46-.1,.6-.1v5.4c.13,0,.43,.1,.9,.3,.46,.2,.83,.37,1.1,.5,.13,.27,.27,.47,.4,.6,.27,.27,.46,.4,.6,.4h.8c.13,0,.47,.17,1,.5,.53,.33,.93,.57,1.2,.7h1c.13,.27,.3,.9,.5,1.9s.37,1.7,.5,2.1v2.8l-4.2-1.8c-.27,.13-.5,.4-.7,.8-.2,.4-.23,.73-.1,1,0,.27,.3,.8,.9,1.6,.6,.8,.96,1.27,1.1,1.4v6.2c0,.27-.17,.5-.5,.7-.33,.2-.57,.3-.7,.3s-.47-.13-1-.4c-.27-.13-.53-.33-.8-.6-.4,0-1.13,.07-2.2,.2-1.07,.13-1.73,.2-2,.2v3c-.4,0-.73-.13-1-.4l-2-2c-.4,.27-.73,.47-1,.6-.13,.13-.33,.2-.6,.2-.13,0-.27,.07-.4,.2-.27,0-.8-.27-1.6-.8-.8-.53-1.33-.93-1.6-1.2-.13-.13-.27-.63-.4-1.5-.13-.87-.27-1.37-.4-1.5-.27-.27-.9-.93-1.9-2-1-1.07-1.77-1.73-2.3-2-.13-.13-.43-.33-.9-.6-.47-.27-.83-.47-1.1-.6-.13,0-.73-.13-1.8-.4-1.07-.27-1.8-.47-2.2-.6h-1c-.13,.13-.5,.33-1.1,.6-.6,.27-.97,.4-1.1,.4s-.47-.1-1-.3c-.54-.2-.8-.43-.8-.7-.4,.27-1.13,.77-2.2,1.5-1.07,.73-1.73,1.23-2,1.5-.27,.27-.93,.67-2,1.2-1.07,.53-1.73,.8-2,.8-.27,.13-.97,.37-2.1,.7-1.13,.33-1.83,.5-2.1,.5-.13,.13-.47,.33-1,.6-.53,.27-.87,.4-1,.4-.13,.13-.77,.17-1.9,.1-1.13-.07-1.83-.1-2.1-.1-.13,0-.43,.13-.9,.4-.47,.27-.83,.4-1.1,.4,0,.13-.17,.37-.5,.7-.33,.33-.57,.5-.7,.5,0,.13-.27,.33-.8,.6-.53,.27-.87,.4-1,.4-.4,.27-1.23,.8-2.5,1.6-1.27,.8-2.17,1.33-2.7,1.6,0,.13-.43,.47-1.3,1-.87,.53-1.43,.8-1.7,.8-.27,.27-.6,.53-1,.8-.4,.27-.73,.4-1,.4-.13,.13-.27,.2-.4,.2h-1.2c-.13,0-.33-.07-.6-.2l-.4-.4c-.27-.27-.4-.53-.4-.8v-1.8Zm21.2,86c-.27-.13-.4,.03-.4,.5s.13,.63,.4,.5c.4-.13,.6-.3,.6-.5s-.2-.37-.6-.5Zm1,16.2c.13,.27,.47,.8,1,1.6,.53,.8,.87,1.27,1,1.4,0,.13,.07,.2,.2,.2h.8c.13,0,.2-.07,.2-.2,.13,0,.3-.13,.5-.4,.2-.27,.3-.47,.3-.6v-.2c0-.13,.03-.2,.1-.2s.1-.07,.1-.2-.07-.2-.2-.2c0-.13-.27-.33-.8-.6-.54-.27-.93-.47-1.2-.6h-2Zm3.8-124.8c0,.13,.03,.5,.1,1.1,.07,.6,.1,1.03,.1,1.3,.13,.13,.33,.27,.6,.4,.27,.13,.47,.27,.6,.4h1c.13-.13,.3-.27,.5-.4,.2-.13,.3-.27,.3-.4,0-.27-.23-.67-.7-1.2-.47-.53-.83-.87-1.1-1,0-.13-.2-.2-.6-.2h-.8Zm1.4,107.6h1l-1-1.2v1.2Zm6.2,18.6c-.4,0-.8,.2-1.2,.6-.13,.27-.3,.77-.5,1.5-.2,.73-.37,1.23-.5,1.5-.13,.27-.2,.63-.2,1.1v.9h1.2c.13,0,.3-.5,.5-1.5,.2-1,.37-1.83,.5-2.5v-.8c0-.27,.03-.43,.1-.5,.07-.07,.1-.17,.1-.3Zm-2.2-9.4c0,.27,.1,.63,.3,1.1,.2,.47,.43,.77,.7,.9,.27-.13,.67-.43,1.2-.9,.53-.47,.87-.83,1-1.1,.13-.13,.2-.4,.2-.8v-.8c-.13,0-.5,.07-1.1,.2-.6,.13-1.03,.2-1.3,.2-.67,.4-1,.8-1,1.2Zm3.2-112.4c-.67,0-1,.33-1,1s.33,1,1,1c.4,0,.6-.33,.6-1s-.2-1-.6-1Zm6,114.4c-.53,0-.8,.3-.8,.9s.27,.9,.8,.9,.8-.3,.8-.9-.27-.9-.8-.9Zm15.2-120.6c0,.13,.13,.33,.4,.6,.27,.27,.47,.47,.6,.6v-1.2c-.4-.67-.73-1-1-1l-.2,.4,.2,.6Zm5.4,121.2c-.13,0-.37,.03-.7,.1-.33,.07-.57,.17-.7,.3s-.33,.43-.6,.9c-.27,.47-.4,.83-.4,1.1-.13,.27-.23,.8-.3,1.6-.07,.8-.1,1.33-.1,1.6h.7c.33,0,.57-.07,.7-.2,.27,0,.5-.13,.7-.4s.3-.47,.3-.6c0-.27,.07-1,.2-2.2,.13-1.2,.2-1.93,.2-2.2Zm-2.4-4.8c.13,0,.3-.13,.5-.4,.2-.27,.37-.46,.5-.6v-1l-1,2Zm3-3c-.53,0-.8,.33-.8,1s.27,1,.8,1c.67,0,1-.33,1-1s-.33-1-1-1Zm1.2-106.2c-.4-.27-.6-.17-.6,.3s.2,.7,.6,.7c.67-.67,.67-1,0-1Zm.8,6c-.4,0-.6,.33-.6,1s.2,1,.6,1c.67,0,1-.33,1-1s-.33-1-1-1Zm1.2,98.2c-.4-.13-.6,.03-.6,.5s.2,.63,.6,.5c.67-.27,.67-.6,0-1Zm11,11c-.53,0-.8,.37-.8,1.1s.27,1.1,.8,1.1c.67,0,1-.37,1-1.1s-.33-1.1-1-1.1Zm4-7.4c0,.13,.07,.27,.2,.4,0,.13,.1,.33,.3,.6,.2,.27,.37,.4,.5,.4s.33-.13,.6-.4c.27-.27,.4-.46,.4-.6v-.4c0-.13,.03-.23,.1-.3,.07-.07,.1-.17,.1-.3,0-.27,.07-.6,.2-1h-1.4c-.13,0-.3,.13-.5,.4-.2,.27-.3,.47-.3,.6l-.2,.6Zm82.4,13l-2,1v-2.6c-.27,0-.63,.1-1.1,.3-.47,.2-.83,.3-1.1,.3-.13,0-.27-.3-.4-.9-.13-.6-.27-.97-.4-1.1h-1.2c-.13,0-.5,.13-1.1,.4-.6,.27-.97,.47-1.1,.6h-1.8c-.13,0-.33,.13-.6,.4-.27,.27-.47,.47-.6,.6-.13,.4-.27,.73-.4,1-.13,.13-.2,.23-.2,.3,0,.07-.07,.17-.2,.3-.13,.13-.2,.27-.2,.4-.27,0-.93,.03-2,.1-1.07,.07-1.73,.1-2,.1-.67,0-1.5-.03-2.5-.1-1-.07-1.63-.1-1.9-.1-.27-.13-.97-.57-2.1-1.3-1.13-.73-1.83-1.3-2.1-1.7v3l-5.8-1v-3l-.4-.4-.6-.6h-1.2c-.27,0-.8,.17-1.6,.5-.8,.33-1.27,.5-1.4,.5s-.37,.3-.7,.9c-.33,.6-.5,.97-.5,1.1-.13,.27-.27,.47-.4,.6l-.4,.4h-1.2c-.4-.13-.73-.27-1-.4-.13,0-.33-.13-.6-.4-.13-.13-.27-.2-.4-.2h-1c-.13,0-.63,.33-1.5,1-.87,.67-1.43,1-1.7,1h-2c-.27-.13-1.1-.43-2.5-.9-1.4-.47-2.3-.83-2.7-1.1v-3l.2-.2,.4-.4c.13-.13,.33-.27,.6-.4v-2.2c-.27-.13-.5-.3-.7-.5-.2-.2-.37-.37-.5-.5-.13-.13-.47-.23-1-.3-.53-.07-.93-.1-1.2-.1v-1.8c0-.93,.13-1.53,.4-1.8,0-.27,.07-.77,.2-1.5,.13-.73,.23-1.5,.3-2.3,.07-.8,.13-1.53,.2-2.2,.07-.67,.1-1.07,.1-1.2v-8.4c0-.27,.17-1.1,.5-2.5,.33-1.4,.5-2.3,.5-2.7,0-.27,.03-1.2,.1-2.8,.07-1.6,.1-2.93,.1-4v-1.1c0-.6-.03-1.23-.1-1.9-.07-.67-.1-1.33-.1-2v-1.4c-.27-.13-.6-.46-1-1-.4-.53-.67-.87-.8-1-.13-.13-.2-.27-.2-.4-.13-.13-.2-.33-.2-.6,0-.4,.07-.67,.2-.8,0-.13,.07-.27,.2-.4,.13-.13,.3-.63,.5-1.5,.2-.87,.3-1.43,.3-1.7v-.8c0-.27-.3-.5-.9-.7-.6-.2-1.03-.3-1.3-.3l-2,4h-1c0-.13-.13-.3-.4-.5-.27-.2-.4-.37-.4-.5-.13,0-.53-.17-1.2-.5-.67-.33-1-.57-1-.7v-3c0-.13,.3-.63,.9-1.5,.6-.87,1.03-1.43,1.3-1.7,0-.13,.3-.43,.9-.9,.6-.46,.9-.77,.9-.9,.13-.27,.37-.67,.7-1.2,.33-.53,.57-.87,.7-1,0-.13,.1-.27,.3-.4,.2-.13,.3-.27,.3-.4v-8.4c.13-.4,.53-1.47,1.2-3.2,.67-1.73,1-2.8,1-3.2v-.8c0-.27-.3-.96-.9-2.1-.6-1.13-1.03-1.83-1.3-2.1,0-.27-.1-.77-.3-1.5-.2-.73-.3-1.23-.3-1.5s-.07-.83-.2-1.7c-.13-.87-.3-1.8-.5-2.8s-.37-1.97-.5-2.9c-.13-.93-.2-1.6-.2-2v-3c.13-.13,.43-.4,.9-.8,.47-.4,.93-.83,1.4-1.3l1.3-1.3c.4-.4,.6-.67,.6-.8,.13-.13,.2-.47,.2-1s-.07-.87-.2-1c.13,.4,.63,.83,1.5,1.3,.87,.47,1.43,.7,1.7,.7,.13,0,.47-.23,1-.7,.53-.46,.93-.9,1.2-1.3,.13-.27,.3-.6,.5-1,.2-.4,.3-.73,.3-1,0,.27,.1,.63,.3,1.1,.2,.47,.43,.77,.7,.9,.4,.13,.87,.03,1.4-.3,.53-.33,.93-.5,1.2-.5,0-.27,.1-.97,.3-2.1,.2-1.13,.23-1.97,.1-2.5,0-.13-.27-.77-.8-1.9-.54-1.13-.93-1.83-1.2-2.1v-.8c.13-.27,.33-.8,.6-1.6,.27-.8,.47-1.33,.6-1.6,.13-.13,.3-.83,.5-2.1,.2-1.27,.3-2.03,.3-2.3l1.2-.6c.13-.4,.27-.97,.4-1.7,.13-.73,.2-1.23,.2-1.5h1.2v.8c0,.13,.07,.2,.2,.2,.27,.27,.5,.67,.7,1.2,.2,.53,.3,.87,.3,1,.27,0,.93,.27,2,.8,1.07,.53,1.8,.93,2.2,1.2h1.2c.13-.13,.47-.37,1-.7,.53-.33,1.07-.67,1.6-1,.53-.33,1.03-.63,1.5-.9,.46-.27,.7-.47,.7-.6,.27,0,.67-.17,1.2-.5,.53-.33,.87-.5,1-.5h1c.4,.27,.97,.63,1.7,1.1,.73,.47,1.17,.83,1.3,1.1,.27,0,.5,.3,.7,.9s.43,.97,.7,1.1c.13,.27,.43,.5,.9,.7,.47,.2,.83,.3,1.1,.3s.6-.33,1-1v-2c0-.27,.13-.67,.4-1.2,.27-.53,.4-.87,.4-1l.6-.2,.6,.2c.27,.27,.8,.8,1.6,1.6,.8,.8,1.33,1.2,1.6,1.2l.4,.2,.4-.2c.13,0,.47-.1,1-.3,.53-.2,.93-.3,1.2-.3,.27-.27,.8-.5,1.6-.7s1.27-.37,1.4-.5h2.2c-.27,.27-.63,.63-1.1,1.1s-.83,.7-1.1,.7c0,.13,.07,.27,.2,.4,0,.13,.07,.27,.2,.4,.27,0,.73,.13,1.4,.4,.67,.27,1.07,.33,1.2,.2,.27,0,.63-.17,1.1-.5,.47-.33,.83-.63,1.1-.9h.2c.13,0,.27-.07,.4-.2l.4-.4c.13-.27,.3-.83,.5-1.7,.2-.87,.37-1.37,.5-1.5l.2-.2c.13,0,.27,.03,.4,.1,.13,.07,.27,.1,.4,.1h.2c.13,0,.27,.13,.4,.4,.13,.27,.27,.47,.4,.6,.27-.53,.93-1.27,2-2.2,1.07-.93,1.8-1.53,2.2-1.8,0-.13,.2-.2,.6-.2h1.8c.4,0,.6,.07,.6,.2,.27,0,.67,.47,1.2,1.4,.53,.93,.87,1.47,1,1.6,.27,.27,.77,.8,1.5,1.6,.73,.8,1.23,1.33,1.5,1.6,.27-.27,.53-.63,.8-1.1,.27-.47,.4-.83,.4-1.1,0-.13-.13-.33-.4-.6-.27-.27-.53-.4-.8-.4,0-.13,.17-.3,.5-.5,.33-.2,.57-.43,.7-.7h1c.13,.27,.63,.5,1.5,.7,.87,.2,1.43,.37,1.7,.5h2c.13,0,.3-.13,.5-.4,.2-.27,.37-.53,.5-.8h.8l4.4,4.8,7.6-3.6,1.4,12.6-5,2.8c.13,.13-.1,.6-.7,1.4-.6,.8-1.04,1.33-1.3,1.6,0,.13-.07,.2-.2,.2h-.8c-.13,0-.2-.07-.2-.2-.13-.13-.47-.3-1-.5-.54-.2-.93-.3-1.2-.3l-.8,.8c0,.13,.03,.47,.1,1,.07,.54,.03,.87-.1,1,0,.27-.13,.54-.4,.8s-.47,.4-.6,.4-.47,.03-1,.1c-.54,.07-.93,.1-1.2,.1s-.67-.03-1.2-.1c-.53-.07-.87-.1-1-.1-.13-.13-.43-.47-.9-1-.47-.53-.77-.87-.9-1-.67-.4-1.5-.83-2.5-1.3-1-.47-1.57-.7-1.7-.7-.27,0-.77,.43-1.5,1.3-.73,.87-1.23,1.37-1.5,1.5h-1c-.27,.13-.9,.3-1.9,.5-1,.2-2.1,.43-3.3,.7-1.2,.27-2.3,.5-3.3,.7s-1.63,.3-1.9,.3h-3c-.13,0-.47,.17-1,.5-.53,.33-.87,.5-1,.5-.27,.13-.77,.23-1.5,.3-.73,.07-1.5,.17-2.3,.3-.8,.13-1.57,.23-2.3,.3-.73,.07-1.17,.1-1.3,.1s-.43,.07-.9,.2c-.47,.13-1,.27-1.6,.4-.6,.13-1.17,.27-1.7,.4-.53,.13-.87,.2-1,.2-.27,0-.67-.1-1.2-.3-.53-.2-1.13-.4-1.8-.6-.67-.2-1.3-.43-1.9-.7-.6-.27-.97-.47-1.1-.6v-4c0-.27-.13-.5-.4-.7-.27-.2-.47-.37-.6-.5-.13-.13-.3-.13-.5,0-.2,.13-.43,.2-.7,.2v6.4c-.27,0-.93-.03-2-.1-1.07-.07-1.73-.17-2-.3-.13-.13-.33-.27-.6-.4-.27-.13-.4-.33-.4-.6l-1,2.2h-13.6c-.4,.13-.73,.27-1,.4-.13,.13-.33,.2-.6,.2-.13,0-.27,.07-.4,.2v2.2c.13,.13,.33,.3,.6,.5,.27,.2,.4,.37,.4,.5,.4,.13,.97,.27,1.7,.4,.73,.13,1.17,.2,1.3,.2v4.4c0,.13,.07,.2,.2,.2h1c.27-.13,.63-.3,1.1-.5,.47-.2,.77-.37,.9-.5h1c.27,.13,.53,.3,.8,.5,.27,.2,.4,.37,.4,.5v5.2c.13,0,.47,.1,1,.3,.53,.2,.87,.43,1,.7v.8c-.13,.4-.37,1.17-.7,2.3-.33,1.13-.5,1.83-.5,2.1,0,.13,.17,.4,.5,.8,.33,.4,.57,.73,.7,1,.13,.27,.3,.5,.5,.7s.37,.37,.5,.5v1c-.13,.13-.53,.47-1.2,1-.67,.54-1,.93-1,1.2v4c0,.13-.3,.6-.9,1.4s-.97,1.33-1.1,1.6v2l2-.8c0,.27,.13,.77,.4,1.5,.27,.73,.53,1.23,.8,1.5h2.2c.27,0,.93-.1,2-.3,1.07-.2,1.73-.37,2-.5,0-.27,.1-.5,.3-.7,.2-.2,.37-.43,.5-.7,.27-.13,.53-.47,.8-1,.27-.53,.46-.87,.6-1,0,.13,.1,.37,.3,.7,.2,.33,.37,.5,.5,.5h3.2l.4,.4,.4,.4c.27,0,.5,.03,.7,.1,.2,.07,.43,.1,.7,.1h.4c.13,0,.2-.07,.2-.2,.27,0,.67-.3,1.2-.9,.53-.6,.93-.97,1.2-1.1l.4-.2c.13,0,.27,.07,.4,.2,.27,.13,.8,.5,1.6,1.1,.8,.6,1.27,.9,1.4,.9,.13,.13,.5,.17,1.1,.1,.6-.07,.97-.1,1.1-.1,.13,.27,.33,.63,.6,1.1,.27,.47,.4,.83,.4,1.1h8.4c.13,0,.33-.3,.6-.9,.27-.6,.4-1.03,.4-1.3v-4c0,.13,.13,.33,.4,.6,.27,.27,.47,.4,.6,.4,.27,.27,.8,.67,1.6,1.2,.8,.53,1.27,.87,1.4,1,.13,.13,.33,.3,.6,.5,.27,.2,.47,.3,.6,.3,0,.27,.13,.83,.4,1.7,.27,.87,.47,1.37,.6,1.5,0,.13,.27,.3,.8,.5,.53,.2,.93,.43,1.2,.7v1c-.13,0-.3,.1-.5,.3s-.37,.37-.5,.5c-.13,.13-.3,.53-.5,1.2-.2,.67-.37,1-.5,1-.27,.13-.57,.07-.9-.2-.33-.27-.57-.4-.7-.4,0,.13-.13,.57-.4,1.3-.27,.73-.33,1.23-.2,1.5,.13,.13,.47,.43,1,.9,.53,.47,.93,.77,1.2,.9-.27,.13-.63,.37-1.1,.7-.47,.33-.83,.5-1.1,.5-.13,.13-.6,.17-1.4,.1-.8-.07-1.33-.1-1.6-.1-.13,0-.47,.17-1,.5-.53,.33-.87,.5-1,.5h-4.2c-.27,0-.93,.13-2,.4-1.07,.27-1.8,.47-2.2,.6-.27,.13-.9,.4-1.9,.8-1,.4-2.07,.83-3.2,1.3-1.13,.47-2.2,.9-3.2,1.3-1,.4-1.57,.67-1.7,.8-.27,.13-1,.3-2.2,.5-1.2,.2-1.93,.37-2.2,.5-.67,.13-1.77,.47-3.3,1-1.53,.54-2.43,.87-2.7,1-.53,.27-.93,.67-1.2,1.2-.13,0-.27,.4-.4,1.2-.13,.8-.27,1.33-.4,1.6,0,.27-.17,.97-.5,2.1-.33,1.13-.57,1.83-.7,2.1-.13,.13-.33,.33-.6,.6s-.4,.47-.4,.6c-.13,.27-.2,.6-.2,1v1.4c0,.27,.03,.7,.1,1.3,.07,.6,.1,1.03,.1,1.3,.27,0,.63,.13,1.1,.4,.47,.27,.83,.47,1.1,.6l3,3,.8,.2h.6c.13,0,.27-.07,.4-.2,.13,0,.37-.13,.7-.4,.33-.27,.57-.4,.7-.4h.8c.13,0,.57,.2,1.3,.6,.73,.4,1.5,.83,2.3,1.3,.8,.47,1.57,.9,2.3,1.3,.73,.4,1.23,.67,1.5,.8,.13,.13,.47,.3,1,.5,.53,.2,.8,.43,.8,.7,.27,.13,.53,.63,.8,1.5,.27,.87,.4,1.43,.4,1.7,.13-.27,.43-.7,.9-1.3,.47-.6,.77-.9,.9-.9,.53-.13,1.27-.1,2.2,.1,.93,.2,1.53,.3,1.8,.3l.4-1.4-1.2-1.2c-.27-.13-.8-.47-1.6-1-.8-.53-1.33-.8-1.6-.8,.13-.27,.47-.57,1-.9,.53-.33,.93-.5,1.2-.5,.13,0,.47,.2,1,.6,.53,.4,.93,.67,1.2,.8h1c.27-.13,.7-.33,1.3-.6,.6-.27,1.03-.53,1.3-.8v3.8c.13,.13,.33,.27,.6,.4,.4,.27,.73,.33,1,.2,.13-.13,.43-.53,.9-1.2,.47-.67,.83-1,1.1-1h2c.27,0,.47,.13,.6,.4,.13,.27,.27,.47,.4,.6-.13,.13-.3,.3-.5,.5-.2,.2-.37,.43-.5,.7-.13,.13-.33,.43-.6,.9-.27,.47-.4,.77-.4,.9v2.2l1,1h1l.6-.6c.13-.13,.33-.27,.6-.4,.13-.27,.27-.97,.4-2.1,.13-1.13,.27-1.77,.4-1.9,.13-.27,.53-.5,1.2-.7,.67-.2,1-.37,1-.5,.13-.27,.33-.87,.6-1.8,.27-.93,.4-1.53,.4-1.8h9.2l2.2-2.6h8.4c0,.27,.07,.77,.2,1.5,.13,.73,.33,1.23,.6,1.5,.13,.27,.6,.63,1.4,1.1,.8,.47,1.33,.83,1.6,1.1h2.2c.13,0,.3,.13,.5,.4,.2,.27,.37,.47,.5,.6,.13,.13,.13,.53,0,1.2-.13,.67-.13,1,0,1s.63,.1,1.5,.3c.87,.2,1.37,.37,1.5,.5,.13,.27,.33,.97,.6,2.1,.27,1.13,.47,1.83,.6,2.1,.13,.27,.43,.63,.9,1.1,.47,.47,.83,.83,1.1,1.1l1-1c-.27-.27-.63-.8-1.1-1.6-.47-.8-.83-1.33-1.1-1.6v-.8c.27-.8,.5-1.87,.7-3.2,.2-1.33,.37-2.07,.5-2.2,.27-.27,.6-.63,1-1.1,.4-.47,.73-.83,1-1.1,.13-.13,.4-.23,.8-.3,.4-.07,.73-.1,1-.1,0,.13,.07,.53,.2,1.2,.13,.67,.2,1.13,.2,1.4,0,.13,.1,.3,.3,.5s.37,.37,.5,.5h1.4c.27-.53,.73-1.33,1.4-2.4,.67-1.07,1.3-1.93,1.9-2.6,.6-.67,1.03-.83,1.3-.5,.27,.33,.07,1.57-.6,3.7v6.2c.93-.93,1.63-1.33,2.1-1.2,.47,.13,.7,.57,.7,1.3s-.27,1.67-.8,2.8c-.53,1.13-1.2,2.17-2,3.1-.13,.4-.3,1.1-.5,2.1s-.43,1.63-.7,1.9c-.13,.27-.43,.67-.9,1.2-.47,.54-1,1.07-1.6,1.6-.6,.53-1.13,1.03-1.6,1.5-.47,.47-.77,.77-.9,.9v1h2.2l-2.2,4.2h-8.4c0-.27-.3-.7-.9-1.3-.6-.6-.97-.9-1.1-.9h-4c-.27,0-.67-.33-1.2-1-.54-.67-.87-1-1-1h-1v4.6c-.27,0-.93-.07-2-.2-1.07-.13-1.87-.2-2.4-.2-.27,0-1.17-.3-2.7-.9-1.53-.6-2.63-1.04-3.3-1.3-.13,0-.3-.13-.5-.4-.2-.27-.3-.47-.3-.6-.13,0-.17-.3-.1-.9,.07-.6,.1-.97,.1-1.1,0-.4-.47-.73-1.4-1-.27,0-.6-.17-1-.5-.4-.33-.67-.5-.8-.5h-1.2c0,.4-.13,1.1-.4,2.1-.27,1-.47,1.63-.6,1.9-.13,.13-.27,.33-.4,.6-.13,.27-.27,.4-.4,.4-.53,.27-1.3,.67-2.3,1.2-1,.53-1.63,.87-1.9,1-.13-.13-.33-.47-.6-1-.27-.53-.47-.93-.6-1.2-.13-.13-.27-.3-.4-.5-.13-.2-.27-.37-.4-.5h-1.2Zm-57.8-109.2c0-.27,.27-.8,.8-1.6,.53-.8,.93-1.27,1.2-1.4,.27,.27,.5,.93,.7,2,.2,1.07,.43,1.8,.7,2.2l.2,1.2c-.54,0-1.07-.13-1.6-.4-.27-.13-.67-.46-1.2-1-.53-.53-.8-.87-.8-1Zm6-7c0-.27,.07-.53,.2-.8,.13-.27,.2-.47,.2-.6,.27,.27,.93,.8,2,1.6,1.07,.8,1.73,1.33,2,1.6,.13,.27,.33,.77,.6,1.5,.27,.73,.4,1.23,.4,1.5v1.6h-.8c-.13,0-.2-.07-.2-.2s-.1-.33-.3-.6c-.2-.27-.37-.53-.5-.8-.13,0-.37-.27-.7-.8-.33-.53-.57-.87-.7-1,0-.13-.3-.5-.9-1.1-.6-.6-.9-.97-.9-1.1-.13,0-.2-.07-.2-.2-.13-.13-.2-.33-.2-.6Zm3.6,96.8c.13-.4-.07-.6-.6-.6s-.8,.2-.8,.6c.13,.27,.37,.4,.7,.4s.57-.13,.7-.4Zm1.8,16.4c-.53,0-.8,.33-.8,1s.27,1,.8,1,.8-.33,.8-1-.27-1-.8-1Zm5.2-74.2c-.54,0-.8,.37-.8,1.1s.27,1.1,.8,1.1,.8-.37,.8-1.1-.27-1.1-.8-1.1Zm9.4-41v-1.2h-1.2l1.2,1.2Zm-1.2,8.2c.13-.13,.33-.33,.6-.6s.47-.53,.6-.8v-1.8c-.13-.13-.33-.3-.6-.5-.27-.2-.47-.43-.6-.7v4.4Zm5.4-19.8c.27,0,.4,.13,.4,.4s-.13,.47-.4,.6c-.53,.27-.8,.17-.8-.3s.27-.7,.8-.7Zm3,7.4c-.67,0-1,.3-1,.9s.33,.9,1,.9c.53,0,.8-.3,.8-.9s-.27-.9-.8-.9Zm15.4,103c-.54,0-.8,.37-.8,1.1s.27,1.1,.8,1.1c.4,0,.6-.37,.6-1.1s-.2-1.1-.6-1.1Zm.8-37.2h1.2v-1.8h-1.2v1.8Zm12.6-67.2c0,.27,.13,.53,.4,.8,.27,.27,.47,.47,.6,.6,.4-.4,.73-.87,1-1.4v-.8c0-.27,.03-.47,.1-.6,.07-.13,.1-.27,.1-.4h-1.2c-.13,.13-.33,.3-.6,.5-.27,.2-.4,.43-.4,.7v.6Zm2,67.2c.67,0,1,.37,1,1.1s-.33,1.1-1,1.1c-.53,0-.8-.37-.8-1.1s.27-1.1,.8-1.1Zm-.2-10.2c0-.13,.03-.47,.1-1,.07-.53,.1-.93,.1-1.2,.53,.27,1.3,.77,2.3,1.5,1,.73,1.63,1.23,1.9,1.5,.13,.27,.33,1.1,.6,2.5,.27,1.4,.4,2.23,.4,2.5-.13,0-.63-.07-1.5-.2-.87-.13-1.43-.27-1.7-.4-.13-.27-.3-.67-.5-1.2-.2-.53-.3-.87-.3-1-.27-.13-.47-.27-.6-.4-.4-.13-.6-.27-.6-.4,0-.27-.03-.63-.1-1.1-.07-.46-.1-.83-.1-1.1Zm2-43.4c0,.13,.07,.2,.2,.2,0,.13,.13,.27,.4,.4,.27,.13,.47,.27,.6,.4,.27-.13,.53-.43,.8-.9,.27-.47,.4-.9,.4-1.3,0-.53-.4-.8-1.2-.8-.13,.13-.23,.2-.3,.2s-.17,.07-.3,.2l-.4,.4-.2,.8v.4Zm3.4-13.6c.13-.27-.03-.4-.5-.4s-.63,.13-.5,.4c0,.4,.13,.6,.4,.6s.46-.2,.6-.6Zm.8,53.8h-.8v-1l.8,1Zm0-37.2c.67,0,1,.37,1,1.1s-.33,1.1-1,1.1c-.4,0-.6-.37-.6-1.1s.2-1.1,.6-1.1Zm2.2,38.2c.27,.13,.4,.3,.4,.5s-.13,.37-.4,.5c-.27,.13-.4-.03-.4-.5s.13-.63,.4-.5Zm0,5.2c.27,.27,.4,.63,.4,1.1s-.13,.83-.4,1.1c-.27,.13-.4-.23-.4-1.1s.13-1.23,.4-1.1Zm3-60.6c-.4,0-.6,.33-.6,1s.2,1,.6,1c.67,0,1-.33,1-1s-.33-1-1-1Zm2.4,55.4c.27,0,.4,.37,.4,1.1s-.13,1.1-.4,1.1c-.67,0-1-.37-1-1.1s.33-1.1,1-1.1Zm0,70h1c0-.4-.13-.73-.4-1l-.6-1v2Zm11.2-15.4c.13,0,.3-.17,.5-.5,.2-.33,.37-.5,.5-.5v-.2c0-.13,.03-.2,.1-.2,.07,0,.1-.07,.1-.2v-.4h-1.2v2Zm1,10.4c-.53,0-.8,.33-.8,1s.27,1,.8,1,.8-.33,.8-1-.27-1-.8-1Zm2-21.6c.27,.27,.27,.53,0,.8s-.6,.27-1,0c-.4-.13-.37-.37,.1-.7,.47-.33,.77-.37,.9-.1Zm-1-85.8c.4-.13,1.1-.57,2.1-1.3,1-.73,1.63-1.3,1.9-1.7,.27,0,.5-.13,.7-.4,.2-.27,.37-.47,.5-.6,.27-.13,.5-.5,.7-1.1s.3-.97,.3-1.1c-.4-.67-.8-1.27-1.2-1.8-.27-.53-.53-1.07-.8-1.6-.27-.53-.33-1-.2-1.4-1.87,.8-2.27,.77-1.2-.1,1.07-.87,2.53-1.77,4.4-2.7l-3.2-1.4c-.13,0,.2-.13,1-.4,.4-.13,.8-.33,1.2-.6,0-.27,.3-.8,.9-1.6,.6-.8,.97-1.27,1.1-1.4,0-.27,.07-.63,.2-1.1,.13-.47,.2-.83,.2-1.1h3v.8c-.13,.27-.4,.8-.8,1.6-.4,.8-.6,1.33-.6,1.6,0,.53,.47,.93,1.4,1.2h.8c.13-.13,.3-.3,.5-.5s.37-.43,.5-.7c.13-.27,.33-.6,.6-1,.27-.4,.4-.67,.4-.8,.13,.13,.33,.4,.6,.8,.27,.4,.47,.73,.6,1,0,.8,.27,1.2,.8,1.2,.27,0,.83-.2,1.7-.6,.87-.4,1.37-.6,1.5-.6,0,.27,.13,.67,.4,1.2,.27,.53,.47,.87,.6,1h1.8c.4-.13,1.17-.53,2.3-1.2,1.13-.67,1.83-1,2.1-1,.53,.27,1.6,.77,3.2,1.5,1.6,.73,2.6,1.3,3,1.7h-5.2c0,.4-.04,1.1-.1,2.1-.07,1-.17,2.03-.3,3.1-.13,1.07-.27,2.07-.4,3-.13,.93-.2,1.6-.2,2-.13,.13-.3,.5-.5,1.1-.2,.6-.43,.97-.7,1.1,0-.13-.13-.3-.4-.5-.27-.2-.4-.43-.4-.7-.13-.13-.17-.63-.1-1.5,.07-.87,.1-1.43,.1-1.7-.13-.13-.33-.73-.6-1.8-.27-1.07-.4-1.73-.4-2-.13-.27-.33-.7-.6-1.3-.27-.6-.53-.97-.8-1.1h-.6c-.13,.27-.3,.83-.5,1.7-.2,.87-.43,1.37-.7,1.5-.13,.27-.63,.83-1.5,1.7-.87,.87-1.37,1.3-1.5,1.3v4.4c.13,.13,.3,.33,.5,.6,.2,.27,.37,.4,.5,.4-.13,.27-.47,.63-1,1.1-.53,.47-.93,.83-1.2,1.1h-.8c-.13-.27-.5-.67-1.1-1.2-.6-.53-.97-.87-1.1-1-.13,0-.47,.1-1,.3-.53,.2-.8,.37-.8,.5-.27,.27-.67,.83-1.2,1.7-.53,.87-.87,1.43-1,1.7h-1.2c-.13,0-.3-.2-.5-.6-.2-.4-.37-.6-.5-.6-.27-.13-.97-.13-2.1,0-1.13,.13-1.77,.13-1.9,0-.13,0-.47-.07-1-.2-.53-.13-.93-.33-1.2-.6-.13-.13-.33-.33-.6-.6-.27-.27-.4-.53-.4-.8Zm2-9.2c-.27,0-.4,.23-.4,.7s.13,.63,.4,.5c.4-.13,.6-.33,.6-.6s-.2-.47-.6-.6Zm2,95c.67,0,1,.37,1,1.1s-.33,1.1-1,1.1c-.4,0-.6-.37-.6-1.1s.2-1.1,.6-1.1Zm4.2-92c0,.13,.17,.37,.5,.7,.33,.33,.57,.57,.7,.7,.13-.27,.47-.93,1-2,.53-1.07,.93-1.87,1.2-2.4v-.8c-.13-.13-.37-.3-.7-.5-.33-.2-.57-.37-.7-.5-.13,.27-.43,.93-.9,2-.47,1.07-.83,1.8-1.1,2.2v.6Zm1.2,103.2l.8-1-.8-1v2Zm3,0l1-1-1.8,1.4,.8-.4Zm3.2,10.4c.4,0,.6,.33,.6,1s-.2,1-.6,1c-.67,0-1-.33-1-1s.33-1,1-1Zm4-18.6c0-.13-.17-.47-.5-1-.33-.53-.5-.93-.5-1.2-.13-.27-.23-.8-.3-1.6-.07-.8-.1-1.33-.1-1.6,.27,0,.97,.04,2.1,.1,1.13,.07,1.83,.1,2.1,.1s.63-.1,1.1-.3c.47-.2,.7-.17,.7,.1,.53,1.47,.3,2.4-.7,2.8-1,.4-1.57,.53-1.7,.4l-.2,.6,.2,.8c.8,.4,1.53,.8,2.2,1.2,.67,.27,1.2,.57,1.6,.9,.4,.33,.67,.57,.8,.7-.53,.27-1,.53-1.4,.8l-1.2,.8v.4c-.13,.4-.37,.87-.7,1.4-.33,.53-.57,.8-.7,.8-.27,0-.77-.13-1.5-.4-.73-.27-1.17-.4-1.3-.4v-5.4Zm1-95c.67,0,1,.37,1,1.1s-.33,1.1-1,1.1c-.53,0-.8-.37-.8-1.1s.27-1.1,.8-1.1Zm1.8-3c.67,0,1,.4,1,1.2s-.33,1.2-1,1.2c-.27,0-.4-.4-.4-1.2s.13-1.2,.4-1.2Zm8.6,89.6v.6c0,.27-.07,.53-.2,.8l-.4,.8c-.13,.13-.2,.33-.2,.6,0,.13-.07,.27-.2,.4v5.2c-.13,.27-.47,.67-1,1.2s-.93,.87-1.2,1c0-.4-.1-1.03-.3-1.9-.2-.87-.43-1.8-.7-2.8-.27-1-.5-1.93-.7-2.8-.2-.87-.37-1.43-.5-1.7v-1.4h5.4Z"/>
</svg>